<?xml version="1.0" encoding="UTF-8" standalone="no"?>
<!-- Created by Flowgorithm 3.5.1 (http://flowgorithm.org) -->

<svg xmlns:svg="http://www.w3.org/2000/svg" xmlns="http://www.w3.org/2000/svg" version="1.1" width="2329" height="2154">
	<g>
		<polyline fill="none" stroke="#404040" stroke-width="6" stroke-dasharray="none" points="277,102 277,163"/>
		<polygon fill="#404040" stroke="none" points="277,177 290,152 263,152"/>
		<polyline fill="none" stroke="#404040" stroke-width="6" stroke-dasharray="none" points="277,1152 277,2038"/>
		<polygon fill="#404040" stroke="none" points="277,2052 290,2027 263,2027"/>
		<g>
			<path fill="#F0E0FF" stroke="#9070A0" stroke-width="3" stroke-dasharray="none" d="M 177,2 A 50 50, 0, 0 0, 177 102 L 377,102 A 50 50, 0, 0 0, 377 2 Z"/>
			<text x="277" y="17" fill="#000000" font-family="Arial" font-size="32pt" text-anchor="middle" direction="ltr">
				<tspan x="277" dy="50" unicode-bidi="embed">Principal</tspan>
			</text>
		</g>
		<g>
			<path fill="#F0E0FF" stroke="#9070A0" stroke-width="3" stroke-dasharray="none" d="M 177,2052 A 50 50, 0, 0 0, 177 2152 L 377,2152 A 50 50, 0, 0 0, 377 2052 Z"/>
			<text x="277" y="2067" fill="#000000" font-family="Arial" font-size="32pt" text-anchor="middle" direction="ltr">
				<tspan x="277" dy="50" unicode-bidi="embed">Fin</tspan>
			</text>
		</g>
		<g>
			<polyline fill="none" stroke="#404040" stroke-width="6" stroke-dasharray="none" points="277,302 277,363"/>
			<polygon fill="#404040" stroke="none" points="277,377 290,352 263,352"/>
			<polyline fill="none" stroke="#404040" stroke-width="6" stroke-dasharray="none" points="277,502 277,588"/>
			<polygon fill="#404040" stroke="none" points="277,602 290,577 263,577"/>
			<polyline fill="none" stroke="#404040" stroke-width="6" stroke-dasharray="none" points="277,702 277,1038"/>
			<polygon fill="#404040" stroke="none" points="277,1052 290,1027 263,1027"/>
			<g>
				<path fill="#FFFFD0" stroke="#A0A070" stroke-width="3" stroke-dasharray="none" d="M 27,177 L 27,302 L 527,302 L 527,177 Z"/>
				<polyline fill="none" stroke="#A0A070" stroke-width="3" stroke-dasharray="none" points="27,202 527,202"/>
				<polyline fill="none" stroke="#A0A070" stroke-width="3" stroke-dasharray="none" points="52,177 52,302"/>
				<text x="289" y="217" fill="#000000" font-family="Arial" font-size="32pt" text-anchor="middle" direction="ltr">
					<tspan x="289" dy="50" unicode-bidi="embed">Entero Matriz num[3]</tspan>
				</text>
			</g>
			<g>
				<path fill="#FFFFD0" stroke="#A0A070" stroke-width="3" stroke-dasharray="none" d="M 77,377 L 77,502 L 477,502 L 477,377 Z"/>
				<polyline fill="none" stroke="#A0A070" stroke-width="3" stroke-dasharray="none" points="77,402 477,402"/>
				<polyline fill="none" stroke="#A0A070" stroke-width="3" stroke-dasharray="none" points="102,377 102,502"/>
				<text x="289" y="417" fill="#000000" font-family="Arial" font-size="32pt" text-anchor="middle" direction="ltr">
					<tspan x="289" dy="50" unicode-bidi="embed">Entero contador</tspan>
				</text>
			</g>
			<g>
				<polyline fill="none" stroke="#404040" stroke-width="6" stroke-dasharray="none" points="552,652 777,652 777,738"/>
				<polygon fill="#404040" stroke="none" points="777,752 790,727 763,727"/>
				<polyline fill="none" stroke="#404040" stroke-width="6" stroke-dasharray="none" points="777,852 777,927 327,927 327,715"/>
				<polygon fill="#404040" stroke="none" points="327,702 313,726 340,726"/>
				<g>
					<path fill="#B0E0FF" stroke="#5080A0" stroke-width="3" stroke-dasharray="none" d="M 527,752 L 477,852 L 1027,852 L 1077,752 Z"/>
					<text x="777" y="767" fill="#000000" font-family="Arial" font-size="32pt" text-anchor="middle" direction="ltr">
						<tspan x="777" dy="50" unicode-bidi="embed">Entrada num[contador]</tspan>
					</text>
				</g>
				<g>
					<path fill="#FFE0A0" stroke="#A08040" stroke-width="3" stroke-dasharray="none" d="M 52,602 L 2,652 L 52,702 L 502,702 L 552,652 L 502,602 Z"/>
					<text x="277" y="617" fill="#000000" font-family="Arial" font-size="32pt" text-anchor="middle" direction="ltr">
						<tspan x="277" dy="50" unicode-bidi="embed">contador = 0 hasta 2</tspan>
					</text>
				</g>
				<text x="677" y="567" fill="#000000" font-family="Arial" font-size="32pt" text-anchor="middle" direction="ltr">
					<tspan x="677" dy="50" unicode-bidi="embed">Siguiente</tspan>
				</text>
				<text x="189" y="717" fill="#000000" font-family="Arial" font-size="32pt" text-anchor="middle" direction="ltr">
					<tspan x="189" dy="50" unicode-bidi="embed">Hecho</tspan>
				</text>
			</g>
			<g>
				<polyline fill="none" stroke="#404040" stroke-width="6" stroke-dasharray="none" points="552,1102 1352,1102 1352,1188"/>
				<polygon fill="#404040" stroke="none" points="1352,1202 1365,1177 1338,1177"/>
				<polyline fill="none" stroke="#404040" stroke-width="6" stroke-dasharray="none" points="1352,1877 1352,1952 327,1952 327,1165"/>
				<polygon fill="#404040" stroke="none" points="327,1152 313,1176 340,1176"/>
				<g>
					<polyline fill="none" stroke="#404040" stroke-width="6" stroke-dasharray="none" points="1677,1377 1952,1377 1952,1588"/>
					<polygon fill="#404040" stroke="none" points="1952,1602 1965,1577 1938,1577"/>
					<polyline fill="none" stroke="#404040" stroke-width="6" stroke-dasharray="none" points="1952,1752 1952,1852 1390,1852"/>
					<polygon fill="#404040" stroke="none" points="1377,1852 1401,1865 1401,1838"/>
					<polyline fill="none" stroke="#404040" stroke-width="6" stroke-dasharray="none" points="1027,1377 827,1377 827,1588"/>
					<polygon fill="#404040" stroke="none" points="827,1602 840,1577 813,1577"/>
					<polyline fill="none" stroke="#404040" stroke-width="6" stroke-dasharray="none" points="827,1752 827,1852 1313,1852"/>
					<polygon fill="#404040" stroke="none" points="1327,1852 1302,1838 1302,1865"/>
					<g>
						<path fill="#FFD0D0" stroke="#A07070" stroke-width="3" stroke-dasharray="none" d="M 1352,1202 L 1002,1377 L 1352,1552 L 1702,1377 Z"/>
						<text x="1352" y="1342" fill="#000000" font-family="Arial" font-size="32pt" text-anchor="middle" direction="ltr">
							<tspan x="1352" dy="50" unicode-bidi="embed">abs(num[contador])%2==0</tspan>
						</text>
					</g>
					<g>
						<path fill="#D0FFD0" stroke="#70A070" stroke-width="3" stroke-dasharray="none" d="M 1652,1602 L 1577,1752 L 2252,1752 L 2327,1602 Z"/>
						<text x="1952" y="1617" fill="#000000" font-family="Arial" font-size="32pt" text-anchor="middle" direction="ltr">
							<tspan x="1952" dy="50" unicode-bidi="embed">Salida num[contador]&amp;&quot; soy</tspan>
							<tspan x="1952" dy="50" unicode-bidi="embed"> par naranja&quot;</tspan>
						</text>
					</g>
					<g>
						<path fill="#D0FFD0" stroke="#70A070" stroke-width="3" stroke-dasharray="none" d="M 527,1602 L 452,1752 L 1127,1752 L 1202,1602 Z"/>
						<text x="827" y="1617" fill="#000000" font-family="Arial" font-size="32pt" text-anchor="middle" direction="ltr">
							<tspan x="827" dy="50" unicode-bidi="embed">Salida num[contador]&amp;&quot; soy</tspan>
							<tspan x="827" dy="50" unicode-bidi="embed"> impar celeste &quot;</tspan>
						</text>
					</g>
					<ellipse cx="1352" cy="1852" rx="25" ry="25" fill="#FFD0D0" stroke="#A07070" stroke-width="3"/>
					<text x="1827" y="1292" fill="#000000" font-family="Arial" font-size="32pt" text-anchor="middle" direction="ltr">
						<tspan x="1827" dy="50" unicode-bidi="embed">Verdadero</tspan>
					</text>
					<text x="914" y="1292" fill="#000000" font-family="Arial" font-size="32pt" text-anchor="middle" direction="ltr">
						<tspan x="914" dy="50" unicode-bidi="embed">Falso</tspan>
					</text>
				</g>
				<g>
					<path fill="#FFE0A0" stroke="#A08040" stroke-width="3" stroke-dasharray="none" d="M 52,1052 L 2,1102 L 52,1152 L 502,1152 L 552,1102 L 502,1052 Z"/>
					<text x="277" y="1067" fill="#000000" font-family="Arial" font-size="32pt" text-anchor="middle" direction="ltr">
						<tspan x="277" dy="50" unicode-bidi="embed">contador = 0 hasta 2</tspan>
					</text>
				</g>
				<text x="677" y="1017" fill="#000000" font-family="Arial" font-size="32pt" text-anchor="middle" direction="ltr">
					<tspan x="677" dy="50" unicode-bidi="embed">Siguiente</tspan>
				</text>
				<text x="189" y="1167" fill="#000000" font-family="Arial" font-size="32pt" text-anchor="middle" direction="ltr">
					<tspan x="189" dy="50" unicode-bidi="embed">Hecho</tspan>
				</text>
			</g>
		</g>
	</g>
</svg>
