<?xml version="1.0" encoding="UTF-8" standalone="no"?>
<!-- Created by Flowgorithm 3.4.1 (http://flowgorithm.org) -->

<svg xmlns:svg="http://www.w3.org/2000/svg" xmlns="http://www.w3.org/2000/svg" version="1.1" width="1179" height="3079">
	<g>
		<polyline fill="none" stroke="#404040" stroke-width="6" stroke-dasharray="none" points="377,102 377,163"/>
		<polygon fill="#404040" stroke="none" points="377,177 390,152 363,152"/>
		<polyline fill="none" stroke="#404040" stroke-width="6" stroke-dasharray="none" points="377,2902 377,2963"/>
		<polygon fill="#404040" stroke="none" points="377,2977 390,2952 363,2952"/>
		<g>
			<path fill="#F0D0FF" stroke="#9070A0" stroke-width="3" stroke-dasharray="none" d="M 277,2 A 50 50, 0, 0 0, 277 102 L 477,102 A 50 50, 0, 0 0, 477 2 Z"/>
			<text x="377" y="17" fill="#000000" font-family="Arial" font-size="32pt" text-anchor="middle" direction="ltr">
				<tspan x="377" dy="50" unicode-bidi="embed">Principal</tspan>
			</text>
		</g>
		<g>
			<path fill="#F0D0FF" stroke="#9070A0" stroke-width="3" stroke-dasharray="none" d="M 277,2977 A 50 50, 0, 0 0, 277 3077 L 477,3077 A 50 50, 0, 0 0, 477 2977 Z"/>
			<text x="377" y="2992" fill="#000000" font-family="Arial" font-size="32pt" text-anchor="middle" direction="ltr">
				<tspan x="377" dy="50" unicode-bidi="embed">Fin</tspan>
			</text>
		</g>
		<g>
			<polyline fill="none" stroke="#404040" stroke-width="6" stroke-dasharray="none" points="377,302 377,363"/>
			<polygon fill="#404040" stroke="none" points="377,377 390,352 363,352"/>
			<polyline fill="none" stroke="#404040" stroke-width="6" stroke-dasharray="none" points="377,477 377,538"/>
			<polygon fill="#404040" stroke="none" points="377,552 390,527 363,527"/>
			<polyline fill="none" stroke="#404040" stroke-width="6" stroke-dasharray="none" points="377,677 377,738"/>
			<polygon fill="#404040" stroke="none" points="377,752 390,727 363,727"/>
			<polyline fill="none" stroke="#404040" stroke-width="6" stroke-dasharray="none" points="377,852 377,913"/>
			<polygon fill="#404040" stroke="none" points="377,927 390,902 363,902"/>
			<polyline fill="none" stroke="#404040" stroke-width="6" stroke-dasharray="none" points="377,1052 377,1113"/>
			<polygon fill="#404040" stroke="none" points="377,1127 390,1102 363,1102"/>
			<polyline fill="none" stroke="#404040" stroke-width="6" stroke-dasharray="none" points="377,1227 377,1288"/>
			<polygon fill="#404040" stroke="none" points="377,1302 390,1277 363,1277"/>
			<polyline fill="none" stroke="#404040" stroke-width="6" stroke-dasharray="none" points="377,1427 377,1513"/>
			<polygon fill="#404040" stroke="none" points="377,1527 390,1502 363,1502"/>
			<polyline fill="none" stroke="#404040" stroke-width="6" stroke-dasharray="none" points="377,1627 377,2113"/>
			<polygon fill="#404040" stroke="none" points="377,2127 390,2102 363,2102"/>
			<polyline fill="none" stroke="#404040" stroke-width="6" stroke-dasharray="none" points="377,2227 377,2288"/>
			<polygon fill="#404040" stroke="none" points="377,2302 390,2277 363,2277"/>
			<polyline fill="none" stroke="#404040" stroke-width="6" stroke-dasharray="none" points="377,2452 377,2513"/>
			<polygon fill="#404040" stroke="none" points="377,2527 390,2502 363,2502"/>
			<polyline fill="none" stroke="#404040" stroke-width="6" stroke-dasharray="none" points="377,2677 377,2738"/>
			<polygon fill="#404040" stroke="none" points="377,2752 390,2727 363,2727"/>
			<g>
				<path fill="#FFFFD0" stroke="#A0A070" stroke-width="3" stroke-dasharray="none" d="M 227,177 L 227,302 L 527,302 L 527,177 Z"/>
				<polyline fill="none" stroke="#A0A070" stroke-width="3" stroke-dasharray="none" points="227,202 527,202"/>
				<polyline fill="none" stroke="#A0A070" stroke-width="3" stroke-dasharray="none" points="252,177 252,302"/>
				<text x="389" y="217" fill="#000000" font-family="Arial" font-size="32pt" text-anchor="middle" direction="ltr">
					<tspan x="389" dy="50" unicode-bidi="embed">Entero n</tspan>
				</text>
			</g>
			<g>
				<path fill="#FFFFD0" stroke="#A0A070" stroke-width="3" stroke-dasharray="none" d="M 227,377 L 227,477 L 527,477 L 527,377 Z"/>
				<text x="377" y="392" fill="#000000" font-family="Arial" font-size="32pt" text-anchor="middle" direction="ltr">
					<tspan x="377" dy="50" unicode-bidi="embed">n = 1</tspan>
				</text>
			</g>
			<g>
				<path fill="#FFFFD0" stroke="#A0A070" stroke-width="3" stroke-dasharray="none" d="M 202,552 L 202,677 L 552,677 L 552,552 Z"/>
				<polyline fill="none" stroke="#A0A070" stroke-width="3" stroke-dasharray="none" points="202,577 552,577"/>
				<polyline fill="none" stroke="#A0A070" stroke-width="3" stroke-dasharray="none" points="227,552 227,677"/>
				<text x="389" y="592" fill="#000000" font-family="Arial" font-size="32pt" text-anchor="middle" direction="ltr">
					<tspan x="389" dy="50" unicode-bidi="embed">Entero suma</tspan>
				</text>
			</g>
			<g>
				<path fill="#FFFFD0" stroke="#A0A070" stroke-width="3" stroke-dasharray="none" d="M 227,752 L 227,852 L 527,852 L 527,752 Z"/>
				<text x="377" y="767" fill="#000000" font-family="Arial" font-size="32pt" text-anchor="middle" direction="ltr">
					<tspan x="377" dy="50" unicode-bidi="embed">suma = 0</tspan>
				</text>
			</g>
			<g>
				<path fill="#FFFFD0" stroke="#A0A070" stroke-width="3" stroke-dasharray="none" d="M 177,927 L 177,1052 L 577,1052 L 577,927 Z"/>
				<polyline fill="none" stroke="#A0A070" stroke-width="3" stroke-dasharray="none" points="177,952 577,952"/>
				<polyline fill="none" stroke="#A0A070" stroke-width="3" stroke-dasharray="none" points="202,927 202,1052"/>
				<text x="389" y="967" fill="#000000" font-family="Arial" font-size="32pt" text-anchor="middle" direction="ltr">
					<tspan x="389" dy="50" unicode-bidi="embed">Entero contador</tspan>
				</text>
			</g>
			<g>
				<path fill="#FFFFD0" stroke="#A0A070" stroke-width="3" stroke-dasharray="none" d="M 227,1127 L 227,1227 L 527,1227 L 527,1127 Z"/>
				<text x="377" y="1142" fill="#000000" font-family="Arial" font-size="32pt" text-anchor="middle" direction="ltr">
					<tspan x="377" dy="50" unicode-bidi="embed">contador = 0</tspan>
				</text>
			</g>
			<g>
				<path fill="#FFFFD0" stroke="#A0A070" stroke-width="3" stroke-dasharray="none" d="M 227,1302 L 227,1427 L 527,1427 L 527,1302 Z"/>
				<polyline fill="none" stroke="#A0A070" stroke-width="3" stroke-dasharray="none" points="227,1327 527,1327"/>
				<polyline fill="none" stroke="#A0A070" stroke-width="3" stroke-dasharray="none" points="252,1302 252,1427"/>
				<text x="389" y="1342" fill="#000000" font-family="Arial" font-size="32pt" text-anchor="middle" direction="ltr">
					<tspan x="389" dy="50" unicode-bidi="embed">Real media</tspan>
				</text>
			</g>
			<g>
				<polyline fill="none" stroke="#404040" stroke-width="6" stroke-dasharray="none" points="702,1577 927,1577 927,1663"/>
				<polygon fill="#404040" stroke="none" points="927,1677 940,1652 913,1652"/>
				<polyline fill="none" stroke="#404040" stroke-width="6" stroke-dasharray="none" points="927,1952 927,2027 427,2027 427,1640"/>
				<polygon fill="#404040" stroke="none" points="427,1627 413,1651 440,1651"/>
				<g>
					<polyline fill="none" stroke="#404040" stroke-width="6" stroke-dasharray="none" points="927,1777 927,1838"/>
					<polygon fill="#404040" stroke="none" points="927,1852 940,1827 913,1827"/>
					<g>
						<path fill="#C0E0FF" stroke="#6080A0" stroke-width="3" stroke-dasharray="none" d="M 802,1677 L 752,1777 L 1052,1777 L 1102,1677 Z"/>
						<text x="927" y="1692" fill="#000000" font-family="Arial" font-size="32pt" text-anchor="middle" direction="ltr">
							<tspan x="927" dy="50" unicode-bidi="embed">Entrada n</tspan>
						</text>
					</g>
					<g>
						<path fill="#FFFFD0" stroke="#A0A070" stroke-width="3" stroke-dasharray="none" d="M 677,1852 L 677,1952 L 1177,1952 L 1177,1852 Z"/>
						<text x="927" y="1867" fill="#000000" font-family="Arial" font-size="32pt" text-anchor="middle" direction="ltr">
							<tspan x="927" dy="50" unicode-bidi="embed">contador = contador+1</tspan>
						</text>
					</g>
				</g>
				<g>
					<path fill="#FFE0A0" stroke="#A08040" stroke-width="3" stroke-dasharray="none" d="M 102,1527 L 52,1577 L 102,1627 L 652,1627 L 702,1577 L 652,1527 Z"/>
					<text x="377" y="1542" fill="#000000" font-family="Arial" font-size="32pt" text-anchor="middle" direction="ltr">
						<tspan x="377" dy="50" unicode-bidi="embed">suma = 0 hasta 9 paso n</tspan>
					</text>
				</g>
				<text x="827" y="1492" fill="#000000" font-family="Arial" font-size="32pt" text-anchor="middle" direction="ltr">
					<tspan x="827" dy="50" unicode-bidi="embed">Siguiente</tspan>
				</text>
				<text x="289" y="1642" fill="#000000" font-family="Arial" font-size="32pt" text-anchor="middle" direction="ltr">
					<tspan x="289" dy="50" unicode-bidi="embed">Hecho</tspan>
				</text>
			</g>
			<g>
				<path fill="#FFFFD0" stroke="#A0A070" stroke-width="3" stroke-dasharray="none" d="M 102,2127 L 102,2227 L 652,2227 L 652,2127 Z"/>
				<text x="377" y="2142" fill="#000000" font-family="Arial" font-size="32pt" text-anchor="middle" direction="ltr">
					<tspan x="377" dy="50" unicode-bidi="embed">media = suma/contador</tspan>
				</text>
			</g>
			<g>
				<path fill="#D0FFD0" stroke="#70A070" stroke-width="3" stroke-dasharray="none" d="M 77,2302 L 2,2452 L 677,2452 L 752,2302 Z"/>
				<text x="377" y="2317" fill="#000000" font-family="Arial" font-size="32pt" text-anchor="middle" direction="ltr">
					<tspan x="377" dy="50" unicode-bidi="embed">Salida &quot;Total acumulado= &quot;&amp;</tspan>
					<tspan x="377" dy="50" unicode-bidi="embed">suma</tspan>
				</text>
			</g>
			<g>
				<path fill="#D0FFD0" stroke="#70A070" stroke-width="3" stroke-dasharray="none" d="M 77,2527 L 2,2677 L 677,2677 L 752,2527 Z"/>
				<text x="377" y="2542" fill="#000000" font-family="Arial" font-size="32pt" text-anchor="middle" direction="ltr">
					<tspan x="377" dy="50" unicode-bidi="embed">Salida &quot;Se an introducido &quot;&amp;</tspan>
					<tspan x="377" dy="50" unicode-bidi="embed">contador&amp;&quot; numeros&quot;</tspan>
				</text>
			</g>
			<g>
				<path fill="#D0FFD0" stroke="#70A070" stroke-width="3" stroke-dasharray="none" d="M 102,2752 L 27,2902 L 652,2902 L 727,2752 Z"/>
				<text x="377" y="2767" fill="#000000" font-family="Arial" font-size="32pt" text-anchor="middle" direction="ltr">
					<tspan x="377" dy="50" unicode-bidi="embed">Salida &quot;La media es = &quot;&amp;</tspan>
					<tspan x="377" dy="50" unicode-bidi="embed">media</tspan>
				</text>
			</g>
		</g>
	</g>
</svg>
