<?xml version="1.0" encoding="UTF-8" standalone="no"?>
<!-- Created by Flowgorithm 3.4.1 (http://flowgorithm.org) -->

<svg xmlns:svg="http://www.w3.org/2000/svg" xmlns="http://www.w3.org/2000/svg" version="1.1" width="829" height="1529">
	<g>
		<polyline fill="none" stroke="#404040" stroke-width="6" stroke-dasharray="none" points="227,102 227,163"/>
		<polygon fill="#404040" stroke="none" points="227,177 240,152 213,152"/>
		<polyline fill="none" stroke="#404040" stroke-width="6" stroke-dasharray="none" points="227,1277 227,1413"/>
		<polygon fill="#404040" stroke="none" points="227,1427 240,1402 213,1402"/>
		<g>
			<path fill="#F0D0FF" stroke="#9070A0" stroke-width="3" stroke-dasharray="none" d="M 127,2 A 50 50, 0, 0 0, 127 102 L 327,102 A 50 50, 0, 0 0, 327 2 Z"/>
			<text x="227" y="17" fill="#000000" font-family="Arial" font-size="32pt" text-anchor="middle" direction="ltr">
				<tspan x="227" dy="50" unicode-bidi="embed">Principal</tspan>
			</text>
		</g>
		<g>
			<path fill="#F0D0FF" stroke="#9070A0" stroke-width="3" stroke-dasharray="none" d="M 127,1427 A 50 50, 0, 0 0, 127 1527 L 327,1527 A 50 50, 0, 0 0, 327 1427 Z"/>
			<text x="227" y="1442" fill="#000000" font-family="Arial" font-size="32pt" text-anchor="middle" direction="ltr">
				<tspan x="227" dy="50" unicode-bidi="embed">Fin</tspan>
			</text>
		</g>
		<g>
			<polyline fill="none" stroke="#404040" stroke-width="6" stroke-dasharray="none" points="227,302 227,363"/>
			<polygon fill="#404040" stroke="none" points="227,377 240,352 213,352"/>
			<polyline fill="none" stroke="#404040" stroke-width="6" stroke-dasharray="none" points="227,477 227,538"/>
			<polygon fill="#404040" stroke="none" points="227,552 240,527 213,527"/>
			<g>
				<path fill="#FFFFD0" stroke="#A0A070" stroke-width="3" stroke-dasharray="none" d="M 27,177 L 27,302 L 427,302 L 427,177 Z"/>
				<polyline fill="none" stroke="#A0A070" stroke-width="3" stroke-dasharray="none" points="27,202 427,202"/>
				<polyline fill="none" stroke="#A0A070" stroke-width="3" stroke-dasharray="none" points="52,177 52,302"/>
				<text x="239" y="217" fill="#000000" font-family="Arial" font-size="32pt" text-anchor="middle" direction="ltr">
					<tspan x="239" dy="50" unicode-bidi="embed">Entero contador</tspan>
				</text>
			</g>
			<g>
				<path fill="#FFFFD0" stroke="#A0A070" stroke-width="3" stroke-dasharray="none" d="M 77,377 L 77,477 L 377,477 L 377,377 Z"/>
				<text x="227" y="392" fill="#000000" font-family="Arial" font-size="32pt" text-anchor="middle" direction="ltr">
					<tspan x="227" dy="50" unicode-bidi="embed">contador = 0</tspan>
				</text>
			</g>
			<g>
				<polyline fill="none" stroke="#404040" stroke-width="6" stroke-dasharray="none" points="252,577 577,577 577,663"/>
				<polygon fill="#404040" stroke="none" points="577,677 590,652 563,652"/>
				<polyline fill="none" stroke="#404040" stroke-width="6" stroke-dasharray="none" points="577,952 577,1152 465,1152"/>
				<polygon fill="#404040" stroke="none" points="452,1152 476,1165 476,1138"/>
				<polyline fill="none" stroke="#404040" stroke-width="6" stroke-dasharray="none" points="227,1027 227,615"/>
				<polygon fill="#404040" stroke="none" points="227,602 213,626 240,626"/>
				<text x="102" y="942" fill="#000000" font-family="Arial" font-size="32pt" text-anchor="middle" direction="ltr">
					<tspan x="102" dy="50" unicode-bidi="embed">Verdadero</tspan>
				</text>
				<text x="139" y="1292" fill="#000000" font-family="Arial" font-size="32pt" text-anchor="middle" direction="ltr">
					<tspan x="139" dy="50" unicode-bidi="embed">Falso</tspan>
				</text>
				<g>
					<polyline fill="none" stroke="#404040" stroke-width="6" stroke-dasharray="none" points="577,777 577,838"/>
					<polygon fill="#404040" stroke="none" points="577,852 590,827 563,827"/>
					<g>
						<path fill="#D0FFD0" stroke="#70A070" stroke-width="3" stroke-dasharray="none" d="M 377,677 L 327,777 L 777,777 L 827,677 Z"/>
						<text x="577" y="692" fill="#000000" font-family="Arial" font-size="32pt" text-anchor="middle" direction="ltr">
							<tspan x="577" dy="50" unicode-bidi="embed">Salida contador</tspan>
						</text>
					</g>
					<g>
						<path fill="#FFFFD0" stroke="#A0A070" stroke-width="3" stroke-dasharray="none" d="M 327,852 L 327,952 L 827,952 L 827,852 Z"/>
						<text x="577" y="867" fill="#000000" font-family="Arial" font-size="32pt" text-anchor="middle" direction="ltr">
							<tspan x="577" dy="50" unicode-bidi="embed">contador = contador+5</tspan>
						</text>
					</g>
				</g>
				<g>
					<path fill="#FFE0A0" stroke="#A08040" stroke-width="3" stroke-dasharray="none" d="M 227,1027 L 2,1152 L 227,1277 L 452,1152 Z"/>
					<text x="227" y="1117" fill="#000000" font-family="Arial" font-size="32pt" text-anchor="middle" direction="ltr">
						<tspan x="227" dy="50" unicode-bidi="embed">contador&lt;=100</tspan>
					</text>
				</g>
				<ellipse cx="227" cy="577" rx="25" ry="25" fill="#FFE0A0" stroke="#A08040" stroke-width="3"/>
			</g>
		</g>
	</g>
</svg>
