<?xml version="1.0" encoding="UTF-8" standalone="no"?>
<!-- Created by Flowgorithm 3.4.2 (http://flowgorithm.org) -->

<svg xmlns:svg="http://www.w3.org/2000/svg" xmlns="http://www.w3.org/2000/svg" version="1.1" width="3154" height="5029">
	<g>
		<polyline fill="none" stroke="#404040" stroke-width="6" stroke-dasharray="none" points="827,102 827,163"/>
		<polygon fill="#404040" stroke="none" points="827,177 840,152 813,152"/>
		<polyline fill="none" stroke="#404040" stroke-width="6" stroke-dasharray="none" points="827,4852 827,4913"/>
		<polygon fill="#404040" stroke="none" points="827,4927 840,4902 813,4902"/>
		<g>
			<path fill="#F0E0FF" stroke="#9070A0" stroke-width="3" stroke-dasharray="none" d="M 727,2 A 50 50, 0, 0 0, 727 102 L 927,102 A 50 50, 0, 0 0, 927 2 Z"/>
			<text x="827" y="17" fill="#000000" font-family="Arial" font-size="32pt" text-anchor="middle" direction="ltr">
				<tspan x="827" dy="50" unicode-bidi="embed">Principal</tspan>
			</text>
		</g>
		<g>
			<path fill="#F0E0FF" stroke="#9070A0" stroke-width="3" stroke-dasharray="none" d="M 727,4927 A 50 50, 0, 0 0, 727 5027 L 927,5027 A 50 50, 0, 0 0, 927 4927 Z"/>
			<text x="827" y="4942" fill="#000000" font-family="Arial" font-size="32pt" text-anchor="middle" direction="ltr">
				<tspan x="827" dy="50" unicode-bidi="embed">Fin</tspan>
			</text>
		</g>
		<g>
			<polyline fill="none" stroke="#404040" stroke-width="6" stroke-dasharray="none" points="827,302 827,363"/>
			<polygon fill="#404040" stroke="none" points="827,377 840,352 813,352"/>
			<polyline fill="none" stroke="#404040" stroke-width="6" stroke-dasharray="none" points="827,477 827,538"/>
			<polygon fill="#404040" stroke="none" points="827,552 840,527 813,527"/>
			<polyline fill="none" stroke="#404040" stroke-width="6" stroke-dasharray="none" points="827,677 827,738"/>
			<polygon fill="#404040" stroke="none" points="827,752 840,727 813,727"/>
			<polyline fill="none" stroke="#404040" stroke-width="6" stroke-dasharray="none" points="827,852 827,913"/>
			<polygon fill="#404040" stroke="none" points="827,927 840,902 813,902"/>
			<polyline fill="none" stroke="#404040" stroke-width="6" stroke-dasharray="none" points="827,1052 827,1113"/>
			<polygon fill="#404040" stroke="none" points="827,1127 840,1102 813,1102"/>
			<polyline fill="none" stroke="#404040" stroke-width="6" stroke-dasharray="none" points="827,1227 827,1288"/>
			<polygon fill="#404040" stroke="none" points="827,1302 840,1277 813,1277"/>
			<polyline fill="none" stroke="#404040" stroke-width="6" stroke-dasharray="none" points="827,1427 827,1488"/>
			<polygon fill="#404040" stroke="none" points="827,1502 840,1477 813,1477"/>
			<polyline fill="none" stroke="#404040" stroke-width="6" stroke-dasharray="none" points="827,1602 827,1663"/>
			<polygon fill="#404040" stroke="none" points="827,1677 840,1652 813,1652"/>
			<g>
				<path fill="#FFFFD0" stroke="#A0A070" stroke-width="3" stroke-dasharray="none" d="M 677,177 L 677,302 L 977,302 L 977,177 Z"/>
				<polyline fill="none" stroke="#A0A070" stroke-width="3" stroke-dasharray="none" points="677,202 977,202"/>
				<polyline fill="none" stroke="#A0A070" stroke-width="3" stroke-dasharray="none" points="702,177 702,302"/>
				<text x="839" y="217" fill="#000000" font-family="Arial" font-size="32pt" text-anchor="middle" direction="ltr">
					<tspan x="839" dy="50" unicode-bidi="embed">Entero n</tspan>
				</text>
			</g>
			<g>
				<path fill="#C0E0FF" stroke="#6080A0" stroke-width="3" stroke-dasharray="none" d="M 702,377 L 652,477 L 952,477 L 1002,377 Z"/>
				<text x="827" y="392" fill="#000000" font-family="Arial" font-size="32pt" text-anchor="middle" direction="ltr">
					<tspan x="827" dy="50" unicode-bidi="embed">Entrada n</tspan>
				</text>
			</g>
			<g>
				<path fill="#FFFFD0" stroke="#A0A070" stroke-width="3" stroke-dasharray="none" d="M 627,552 L 627,677 L 1027,677 L 1027,552 Z"/>
				<polyline fill="none" stroke="#A0A070" stroke-width="3" stroke-dasharray="none" points="627,577 1027,577"/>
				<polyline fill="none" stroke="#A0A070" stroke-width="3" stroke-dasharray="none" points="652,552 652,677"/>
				<text x="839" y="592" fill="#000000" font-family="Arial" font-size="32pt" text-anchor="middle" direction="ltr">
					<tspan x="839" dy="50" unicode-bidi="embed">Entero contador</tspan>
				</text>
			</g>
			<g>
				<path fill="#FFFFD0" stroke="#A0A070" stroke-width="3" stroke-dasharray="none" d="M 677,752 L 677,852 L 977,852 L 977,752 Z"/>
				<text x="827" y="767" fill="#000000" font-family="Arial" font-size="32pt" text-anchor="middle" direction="ltr">
					<tspan x="827" dy="50" unicode-bidi="embed">contador = 1</tspan>
				</text>
			</g>
			<g>
				<path fill="#FFFFD0" stroke="#A0A070" stroke-width="3" stroke-dasharray="none" d="M 577,927 L 577,1052 L 1077,1052 L 1077,927 Z"/>
				<polyline fill="none" stroke="#A0A070" stroke-width="3" stroke-dasharray="none" points="577,952 1077,952"/>
				<polyline fill="none" stroke="#A0A070" stroke-width="3" stroke-dasharray="none" points="602,927 602,1052"/>
				<text x="839" y="967" fill="#000000" font-family="Arial" font-size="32pt" text-anchor="middle" direction="ltr">
					<tspan x="839" dy="50" unicode-bidi="embed">Entero contadormul</tspan>
				</text>
			</g>
			<g>
				<path fill="#FFFFD0" stroke="#A0A070" stroke-width="3" stroke-dasharray="none" d="M 627,1127 L 627,1227 L 1027,1227 L 1027,1127 Z"/>
				<text x="827" y="1142" fill="#000000" font-family="Arial" font-size="32pt" text-anchor="middle" direction="ltr">
					<tspan x="827" dy="50" unicode-bidi="embed">contadormul = 0</tspan>
				</text>
			</g>
			<g>
				<path fill="#FFFFD0" stroke="#A0A070" stroke-width="3" stroke-dasharray="none" d="M 652,1302 L 652,1427 L 1002,1427 L 1002,1302 Z"/>
				<polyline fill="none" stroke="#A0A070" stroke-width="3" stroke-dasharray="none" points="652,1327 1002,1327"/>
				<polyline fill="none" stroke="#A0A070" stroke-width="3" stroke-dasharray="none" points="677,1302 677,1427"/>
				<text x="839" y="1342" fill="#000000" font-family="Arial" font-size="32pt" text-anchor="middle" direction="ltr">
					<tspan x="839" dy="50" unicode-bidi="embed">Entero suma</tspan>
				</text>
			</g>
			<g>
				<path fill="#FFFFD0" stroke="#A0A070" stroke-width="3" stroke-dasharray="none" d="M 677,1502 L 677,1602 L 977,1602 L 977,1502 Z"/>
				<text x="827" y="1517" fill="#000000" font-family="Arial" font-size="32pt" text-anchor="middle" direction="ltr">
					<tspan x="827" dy="50" unicode-bidi="embed">suma = 0</tspan>
				</text>
			</g>
			<g>
				<polyline fill="none" stroke="#404040" stroke-width="6" stroke-dasharray="none" points="952,1752 1752,1752 1752,1863"/>
				<polygon fill="#404040" stroke="none" points="1752,1877 1765,1852 1738,1852"/>
				<polyline fill="none" stroke="#404040" stroke-width="6" stroke-dasharray="none" points="1752,4727 1752,4827 865,4827"/>
				<polygon fill="#404040" stroke="none" points="852,4827 876,4840 876,4813"/>
				<polyline fill="none" stroke="#404040" stroke-width="6" stroke-dasharray="none" points="702,1752 402,1752 402,1863"/>
				<polygon fill="#404040" stroke="none" points="402,1877 415,1852 388,1852"/>
				<polyline fill="none" stroke="#404040" stroke-width="6" stroke-dasharray="none" points="402,2027 402,4827 788,4827"/>
				<polygon fill="#404040" stroke="none" points="802,4827 777,4813 777,4840"/>
				<g>
					<path fill="#FFD0D0" stroke="#A07070" stroke-width="3" stroke-dasharray="none" d="M 827,1677 L 677,1752 L 827,1827 L 977,1752 Z"/>
					<text x="827" y="1717" fill="#000000" font-family="Arial" font-size="32pt" text-anchor="middle" direction="ltr">
						<tspan x="827" dy="50" unicode-bidi="embed">n&gt;=1</tspan>
					</text>
				</g>
				<g>
					<polyline fill="none" stroke="#404040" stroke-width="6" stroke-dasharray="none" points="1752,2027 1752,2088"/>
					<polygon fill="#404040" stroke="none" points="1752,2102 1765,2077 1738,2077"/>
					<polyline fill="none" stroke="#404040" stroke-width="6" stroke-dasharray="none" points="1752,3602 1752,3738"/>
					<polygon fill="#404040" stroke="none" points="1752,3752 1765,3727 1738,3727"/>
					<polyline fill="none" stroke="#404040" stroke-width="6" stroke-dasharray="none" points="1752,4502 1752,4563"/>
					<polygon fill="#404040" stroke="none" points="1752,4577 1765,4552 1738,4552"/>
					<g>
						<path fill="#D0FFD0" stroke="#70A070" stroke-width="3" stroke-dasharray="none" d="M 1477,1877 L 1402,2027 L 2027,2027 L 2102,1877 Z"/>
						<text x="1752" y="1892" fill="#000000" font-family="Arial" font-size="32pt" text-anchor="middle" direction="ltr">
							<tspan x="1752" dy="50" unicode-bidi="embed">Salida &quot;Los multiplos son</tspan>
							<tspan x="1752" dy="50" unicode-bidi="embed"> : &quot; &#8230;</tspan>
						</text>
					</g>
					<g>
						<polyline fill="none" stroke="#404040" stroke-width="6" stroke-dasharray="none" points="1777,2127 2302,2127 2302,2213"/>
						<polygon fill="#404040" stroke="none" points="2302,2227 2315,2202 2288,2202"/>
						<polyline fill="none" stroke="#404040" stroke-width="6" stroke-dasharray="none" points="2302,3327 2302,3502 1965,3502"/>
						<polygon fill="#404040" stroke="none" points="1952,3502 1976,3515 1976,3488"/>
						<polyline fill="none" stroke="#404040" stroke-width="6" stroke-dasharray="none" points="1752,3402 1752,2165"/>
						<polygon fill="#404040" stroke="none" points="1752,2152 1738,2176 1765,2176"/>
						<text x="1627" y="3317" fill="#000000" font-family="Arial" font-size="32pt" text-anchor="middle" direction="ltr">
							<tspan x="1627" dy="50" unicode-bidi="embed">Verdadero</tspan>
						</text>
						<text x="1664" y="3617" fill="#000000" font-family="Arial" font-size="32pt" text-anchor="middle" direction="ltr">
							<tspan x="1664" dy="50" unicode-bidi="embed">Falso</tspan>
						</text>
						<g>
							<polyline fill="none" stroke="#404040" stroke-width="6" stroke-dasharray="none" points="2302,3152 2302,3213"/>
							<polygon fill="#404040" stroke="none" points="2302,3227 2315,3202 2288,3202"/>
							<g>
								<polyline fill="none" stroke="#404040" stroke-width="6" stroke-dasharray="none" points="2527,2352 2802,2352 2802,2513"/>
								<polygon fill="#404040" stroke="none" points="2802,2527 2815,2502 2788,2502"/>
								<polyline fill="none" stroke="#404040" stroke-width="6" stroke-dasharray="none" points="2802,3027 2802,3127 2340,3127"/>
								<polygon fill="#404040" stroke="none" points="2327,3127 2351,3140 2351,3113"/>
								<polyline fill="none" stroke="#404040" stroke-width="6" stroke-dasharray="none" points="2077,2352 1877,2352 1877,3127 2263,3127"/>
								<polygon fill="#404040" stroke="none" points="2277,3127 2252,3113 2252,3140"/>
								<g>
									<path fill="#FFD0D0" stroke="#A07070" stroke-width="3" stroke-dasharray="none" d="M 2302,2227 L 2052,2352 L 2302,2477 L 2552,2352 Z"/>
									<text x="2302" y="2317" fill="#000000" font-family="Arial" font-size="32pt" text-anchor="middle" direction="ltr">
										<tspan x="2302" dy="50" unicode-bidi="embed">contador%3==0</tspan>
									</text>
								</g>
								<g>
									<polyline fill="none" stroke="#404040" stroke-width="6" stroke-dasharray="none" points="2802,2627 2802,2688"/>
									<polygon fill="#404040" stroke="none" points="2802,2702 2815,2677 2788,2677"/>
									<polyline fill="none" stroke="#404040" stroke-width="6" stroke-dasharray="none" points="2802,2852 2802,2913"/>
									<polygon fill="#404040" stroke="none" points="2802,2927 2815,2902 2788,2902"/>
									<g>
										<path fill="#D0FFD0" stroke="#70A070" stroke-width="3" stroke-dasharray="none" d="M 2502,2527 L 2452,2627 L 3102,2627 L 3152,2527 Z"/>
										<text x="2802" y="2542" fill="#000000" font-family="Arial" font-size="32pt" text-anchor="middle" direction="ltr">
											<tspan x="2802" dy="50" unicode-bidi="embed">Salida &quot;(&quot;&amp;contador&amp;&quot;) &quot; &#8230;</tspan>
										</text>
									</g>
									<g>
										<path fill="#FFFFD0" stroke="#A0A070" stroke-width="3" stroke-dasharray="none" d="M 2502,2702 L 2502,2852 L 3102,2852 L 3102,2702 Z"/>
										<text x="2802" y="2717" fill="#000000" font-family="Arial" font-size="32pt" text-anchor="middle" direction="ltr">
											<tspan x="2802" dy="50" unicode-bidi="embed">contadormul = contadormul</tspan>
											<tspan x="2802" dy="50" unicode-bidi="embed">+1</tspan>
										</text>
									</g>
									<g>
										<path fill="#FFFFD0" stroke="#A0A070" stroke-width="3" stroke-dasharray="none" d="M 2527,2927 L 2527,3027 L 3077,3027 L 3077,2927 Z"/>
										<text x="2802" y="2942" fill="#000000" font-family="Arial" font-size="32pt" text-anchor="middle" direction="ltr">
											<tspan x="2802" dy="50" unicode-bidi="embed">suma = suma+contador</tspan>
										</text>
									</g>
								</g>
								<g>
								</g>
								<ellipse cx="2302" cy="3127" rx="25" ry="25" fill="#FFD0D0" stroke="#A07070" stroke-width="3"/>
								<text x="2677" y="2267" fill="#000000" font-family="Arial" font-size="32pt" text-anchor="middle" direction="ltr">
									<tspan x="2677" dy="50" unicode-bidi="embed">Verdadero</tspan>
								</text>
								<text x="1964" y="2267" fill="#000000" font-family="Arial" font-size="32pt" text-anchor="middle" direction="ltr">
									<tspan x="1964" dy="50" unicode-bidi="embed">Falso</tspan>
								</text>
							</g>
							<g>
								<path fill="#FFFFD0" stroke="#A0A070" stroke-width="3" stroke-dasharray="none" d="M 2052,3227 L 2052,3327 L 2552,3327 L 2552,3227 Z"/>
								<text x="2302" y="3242" fill="#000000" font-family="Arial" font-size="32pt" text-anchor="middle" direction="ltr">
									<tspan x="2302" dy="50" unicode-bidi="embed">contador = contador+1</tspan>
								</text>
							</g>
						</g>
						<g>
							<path fill="#FFE0A0" stroke="#A08040" stroke-width="3" stroke-dasharray="none" d="M 1752,3402 L 1552,3502 L 1752,3602 L 1952,3502 Z"/>
							<text x="1752" y="3467" fill="#000000" font-family="Arial" font-size="32pt" text-anchor="middle" direction="ltr">
								<tspan x="1752" dy="50" unicode-bidi="embed">contador&lt;=n</tspan>
							</text>
						</g>
						<ellipse cx="1752" cy="2127" rx="25" ry="25" fill="#FFE0A0" stroke="#A08040" stroke-width="3"/>
					</g>
					<g>
						<polyline fill="none" stroke="#404040" stroke-width="6" stroke-dasharray="none" points="1977,3877 2252,3877 2252,4038"/>
						<polygon fill="#404040" stroke="none" points="2252,4052 2265,4027 2238,4027"/>
						<polyline fill="none" stroke="#404040" stroke-width="6" stroke-dasharray="none" points="2252,4377 2252,4477 1790,4477"/>
						<polygon fill="#404040" stroke="none" points="1777,4477 1801,4490 1801,4463"/>
						<polyline fill="none" stroke="#404040" stroke-width="6" stroke-dasharray="none" points="1527,3877 1302,3877 1302,4038"/>
						<polygon fill="#404040" stroke="none" points="1302,4052 1315,4027 1288,4027"/>
						<polyline fill="none" stroke="#404040" stroke-width="6" stroke-dasharray="none" points="1302,4252 1302,4477 1713,4477"/>
						<polygon fill="#404040" stroke="none" points="1727,4477 1702,4463 1702,4490"/>
						<g>
							<path fill="#FFD0D0" stroke="#A07070" stroke-width="3" stroke-dasharray="none" d="M 1752,3752 L 1502,3877 L 1752,4002 L 2002,3877 Z"/>
							<text x="1752" y="3842" fill="#000000" font-family="Arial" font-size="32pt" text-anchor="middle" direction="ltr">
								<tspan x="1752" dy="50" unicode-bidi="embed">contadormul==0</tspan>
							</text>
						</g>
						<g>
							<polyline fill="none" stroke="#404040" stroke-width="6" stroke-dasharray="none" points="2252,4152 2252,4213"/>
							<polygon fill="#404040" stroke="none" points="2252,4227 2265,4202 2238,4202"/>
							<g>
								<path fill="#D0FFD0" stroke="#70A070" stroke-width="3" stroke-dasharray="none" d="M 1977,4052 L 1927,4152 L 2527,4152 L 2577,4052 Z"/>
								<text x="2252" y="4067" fill="#000000" font-family="Arial" font-size="32pt" text-anchor="middle" direction="ltr">
									<tspan x="2252" dy="50" unicode-bidi="embed">Salida &quot;no hay multiplos&quot;</tspan>
								</text>
							</g>
							<g>
								<path fill="#D0FFD0" stroke="#70A070" stroke-width="3" stroke-dasharray="none" d="M 2002,4227 L 1927,4377 L 2502,4377 L 2577,4227 Z"/>
								<text x="2252" y="4242" fill="#000000" font-family="Arial" font-size="32pt" text-anchor="middle" direction="ltr">
									<tspan x="2252" dy="50" unicode-bidi="embed">Salida &quot;la cantidad de</tspan>
									<tspan x="2252" dy="50" unicode-bidi="embed"> multiplos es: (0)&quot;</tspan>
								</text>
							</g>
						</g>
						<g>
							<path fill="#D0FFD0" stroke="#70A070" stroke-width="3" stroke-dasharray="none" d="M 1002,4052 L 902,4252 L 1602,4252 L 1702,4052 Z"/>
							<text x="1302" y="4067" fill="#000000" font-family="Arial" font-size="32pt" text-anchor="middle" direction="ltr">
								<tspan x="1302" dy="50" unicode-bidi="embed">Salida ToChar(13)&amp;&quot;la</tspan>
								<tspan x="1302" dy="50" unicode-bidi="embed"> cantidad de multiplos </tspan>
								<tspan x="1302" dy="50" unicode-bidi="embed"> es: &quot;&amp;&quot;(&quot;&amp;contadormul&amp;&quot;)&quot;</tspan>
							</text>
						</g>
						<ellipse cx="1752" cy="4477" rx="25" ry="25" fill="#FFD0D0" stroke="#A07070" stroke-width="3"/>
						<text x="2127" y="3792" fill="#000000" font-family="Arial" font-size="32pt" text-anchor="middle" direction="ltr">
							<tspan x="2127" dy="50" unicode-bidi="embed">Verdadero</tspan>
						</text>
						<text x="1414" y="3792" fill="#000000" font-family="Arial" font-size="32pt" text-anchor="middle" direction="ltr">
							<tspan x="1414" dy="50" unicode-bidi="embed">Falso</tspan>
						</text>
					</g>
					<g>
						<path fill="#D0FFD0" stroke="#70A070" stroke-width="3" stroke-dasharray="none" d="M 1452,4577 L 1377,4727 L 2052,4727 L 2127,4577 Z"/>
						<text x="1752" y="4592" fill="#000000" font-family="Arial" font-size="32pt" text-anchor="middle" direction="ltr">
							<tspan x="1752" dy="50" unicode-bidi="embed">Salida &quot;La suma es : &quot;&amp;&quot;(&quot;&amp;</tspan>
							<tspan x="1752" dy="50" unicode-bidi="embed">suma&amp;&quot;)&quot; &#8230;</tspan>
						</text>
					</g>
				</g>
				<g>
					<path fill="#D0FFD0" stroke="#70A070" stroke-width="3" stroke-dasharray="none" d="M 102,1877 L 27,2027 L 702,2027 L 777,1877 Z"/>
					<text x="402" y="1892" fill="#000000" font-family="Arial" font-size="32pt" text-anchor="middle" direction="ltr">
						<tspan x="402" dy="50" unicode-bidi="embed">Salida &quot;El numero debe ser</tspan>
						<tspan x="402" dy="50" unicode-bidi="embed"> mayor o igual a 1&quot;</tspan>
					</text>
				</g>
				<ellipse cx="827" cy="4827" rx="25" ry="25" fill="#FFD0D0" stroke="#A07070" stroke-width="3"/>
				<text x="1102" y="1667" fill="#000000" font-family="Arial" font-size="32pt" text-anchor="middle" direction="ltr">
					<tspan x="1102" dy="50" unicode-bidi="embed">Verdadero</tspan>
				</text>
				<text x="589" y="1667" fill="#000000" font-family="Arial" font-size="32pt" text-anchor="middle" direction="ltr">
					<tspan x="589" dy="50" unicode-bidi="embed">Falso</tspan>
				</text>
			</g>
		</g>
	</g>
</svg>
