<?xml version="1.0" encoding="UTF-8" standalone="no"?>
<!-- Created by Flowgorithm 3.4.2 (http://flowgorithm.org) -->

<svg xmlns:svg="http://www.w3.org/2000/svg" xmlns="http://www.w3.org/2000/svg" version="1.1" width="3204" height="4479">
	<g>
		<polyline fill="none" stroke="#404040" stroke-width="6" stroke-dasharray="none" points="827,102 827,163"/>
		<polygon fill="#404040" stroke="none" points="827,177 840,152 813,152"/>
		<polyline fill="none" stroke="#404040" stroke-width="6" stroke-dasharray="none" points="827,4302 827,4363"/>
		<polygon fill="#404040" stroke="none" points="827,4377 840,4352 813,4352"/>
		<g>
			<path fill="#F0E0FF" stroke="#9070A0" stroke-width="3" stroke-dasharray="none" d="M 727,2 A 50 50, 0, 0 0, 727 102 L 927,102 A 50 50, 0, 0 0, 927 2 Z"/>
			<text x="827" y="17" fill="#000000" font-family="Arial" font-size="32pt" text-anchor="middle" direction="ltr">
				<tspan x="827" dy="50" unicode-bidi="embed">Principal</tspan>
			</text>
		</g>
		<g>
			<path fill="#F0E0FF" stroke="#9070A0" stroke-width="3" stroke-dasharray="none" d="M 727,4377 A 50 50, 0, 0 0, 727 4477 L 927,4477 A 50 50, 0, 0 0, 927 4377 Z"/>
			<text x="827" y="4392" fill="#000000" font-family="Arial" font-size="32pt" text-anchor="middle" direction="ltr">
				<tspan x="827" dy="50" unicode-bidi="embed">Fin</tspan>
			</text>
		</g>
		<g>
			<polyline fill="none" stroke="#404040" stroke-width="6" stroke-dasharray="none" points="827,302 827,363"/>
			<polygon fill="#404040" stroke="none" points="827,377 840,352 813,352"/>
			<polyline fill="none" stroke="#404040" stroke-width="6" stroke-dasharray="none" points="827,477 827,538"/>
			<polygon fill="#404040" stroke="none" points="827,552 840,527 813,527"/>
			<polyline fill="none" stroke="#404040" stroke-width="6" stroke-dasharray="none" points="827,677 827,738"/>
			<polygon fill="#404040" stroke="none" points="827,752 840,727 813,727"/>
			<polyline fill="none" stroke="#404040" stroke-width="6" stroke-dasharray="none" points="827,877 827,938"/>
			<polygon fill="#404040" stroke="none" points="827,952 840,927 813,927"/>
			<polyline fill="none" stroke="#404040" stroke-width="6" stroke-dasharray="none" points="827,1052 827,1113"/>
			<polygon fill="#404040" stroke="none" points="827,1127 840,1102 813,1102"/>
			<polyline fill="none" stroke="#404040" stroke-width="6" stroke-dasharray="none" points="827,1252 827,1313"/>
			<polygon fill="#404040" stroke="none" points="827,1327 840,1302 813,1302"/>
			<polyline fill="none" stroke="#404040" stroke-width="6" stroke-dasharray="none" points="827,1427 827,1488"/>
			<polygon fill="#404040" stroke="none" points="827,1502 840,1477 813,1477"/>
			<g>
				<path fill="#FFFFD0" stroke="#A0A070" stroke-width="3" stroke-dasharray="none" d="M 677,177 L 677,302 L 977,302 L 977,177 Z"/>
				<polyline fill="none" stroke="#A0A070" stroke-width="3" stroke-dasharray="none" points="677,202 977,202"/>
				<polyline fill="none" stroke="#A0A070" stroke-width="3" stroke-dasharray="none" points="702,177 702,302"/>
				<text x="839" y="217" fill="#000000" font-family="Arial" font-size="32pt" text-anchor="middle" direction="ltr">
					<tspan x="839" dy="50" unicode-bidi="embed">Entero n</tspan>
				</text>
			</g>
			<g>
				<path fill="#C0E0FF" stroke="#6080A0" stroke-width="3" stroke-dasharray="none" d="M 702,377 L 652,477 L 952,477 L 1002,377 Z"/>
				<text x="827" y="392" fill="#000000" font-family="Arial" font-size="32pt" text-anchor="middle" direction="ltr">
					<tspan x="827" dy="50" unicode-bidi="embed">Entrada n</tspan>
				</text>
			</g>
			<g>
				<path fill="#FFFFD0" stroke="#A0A070" stroke-width="3" stroke-dasharray="none" d="M 627,552 L 627,677 L 1027,677 L 1027,552 Z"/>
				<polyline fill="none" stroke="#A0A070" stroke-width="3" stroke-dasharray="none" points="627,577 1027,577"/>
				<polyline fill="none" stroke="#A0A070" stroke-width="3" stroke-dasharray="none" points="652,552 652,677"/>
				<text x="839" y="592" fill="#000000" font-family="Arial" font-size="32pt" text-anchor="middle" direction="ltr">
					<tspan x="839" dy="50" unicode-bidi="embed">Entero contador</tspan>
				</text>
			</g>
			<g>
				<path fill="#FFFFD0" stroke="#A0A070" stroke-width="3" stroke-dasharray="none" d="M 577,752 L 577,877 L 1077,877 L 1077,752 Z"/>
				<polyline fill="none" stroke="#A0A070" stroke-width="3" stroke-dasharray="none" points="577,777 1077,777"/>
				<polyline fill="none" stroke="#A0A070" stroke-width="3" stroke-dasharray="none" points="602,752 602,877"/>
				<text x="839" y="792" fill="#000000" font-family="Arial" font-size="32pt" text-anchor="middle" direction="ltr">
					<tspan x="839" dy="50" unicode-bidi="embed">Entero contadormul</tspan>
				</text>
			</g>
			<g>
				<path fill="#FFFFD0" stroke="#A0A070" stroke-width="3" stroke-dasharray="none" d="M 627,952 L 627,1052 L 1027,1052 L 1027,952 Z"/>
				<text x="827" y="967" fill="#000000" font-family="Arial" font-size="32pt" text-anchor="middle" direction="ltr">
					<tspan x="827" dy="50" unicode-bidi="embed">contadormul = 0</tspan>
				</text>
			</g>
			<g>
				<path fill="#FFFFD0" stroke="#A0A070" stroke-width="3" stroke-dasharray="none" d="M 652,1127 L 652,1252 L 1002,1252 L 1002,1127 Z"/>
				<polyline fill="none" stroke="#A0A070" stroke-width="3" stroke-dasharray="none" points="652,1152 1002,1152"/>
				<polyline fill="none" stroke="#A0A070" stroke-width="3" stroke-dasharray="none" points="677,1127 677,1252"/>
				<text x="839" y="1167" fill="#000000" font-family="Arial" font-size="32pt" text-anchor="middle" direction="ltr">
					<tspan x="839" dy="50" unicode-bidi="embed">Entero suma</tspan>
				</text>
			</g>
			<g>
				<path fill="#FFFFD0" stroke="#A0A070" stroke-width="3" stroke-dasharray="none" d="M 677,1327 L 677,1427 L 977,1427 L 977,1327 Z"/>
				<text x="827" y="1342" fill="#000000" font-family="Arial" font-size="32pt" text-anchor="middle" direction="ltr">
					<tspan x="827" dy="50" unicode-bidi="embed">suma = 0</tspan>
				</text>
			</g>
			<g>
				<polyline fill="none" stroke="#404040" stroke-width="6" stroke-dasharray="none" points="952,1577 1752,1577 1752,1688"/>
				<polygon fill="#404040" stroke="none" points="1752,1702 1765,1677 1738,1677"/>
				<polyline fill="none" stroke="#404040" stroke-width="6" stroke-dasharray="none" points="1752,4177 1752,4277 865,4277"/>
				<polygon fill="#404040" stroke="none" points="852,4277 876,4290 876,4263"/>
				<polyline fill="none" stroke="#404040" stroke-width="6" stroke-dasharray="none" points="702,1577 402,1577 402,1688"/>
				<polygon fill="#404040" stroke="none" points="402,1702 415,1677 388,1677"/>
				<polyline fill="none" stroke="#404040" stroke-width="6" stroke-dasharray="none" points="402,1852 402,4277 788,4277"/>
				<polygon fill="#404040" stroke="none" points="802,4277 777,4263 777,4290"/>
				<g>
					<path fill="#FFD0D0" stroke="#A07070" stroke-width="3" stroke-dasharray="none" d="M 827,1502 L 677,1577 L 827,1652 L 977,1577 Z"/>
					<text x="827" y="1542" fill="#000000" font-family="Arial" font-size="32pt" text-anchor="middle" direction="ltr">
						<tspan x="827" dy="50" unicode-bidi="embed">n&gt;=1</tspan>
					</text>
				</g>
				<g>
					<polyline fill="none" stroke="#404040" stroke-width="6" stroke-dasharray="none" points="1752,1852 1752,1938"/>
					<polygon fill="#404040" stroke="none" points="1752,1952 1765,1927 1738,1927"/>
					<polyline fill="none" stroke="#404040" stroke-width="6" stroke-dasharray="none" points="1752,2052 1752,3188"/>
					<polygon fill="#404040" stroke="none" points="1752,3202 1765,3177 1738,3177"/>
					<polyline fill="none" stroke="#404040" stroke-width="6" stroke-dasharray="none" points="1752,3952 1752,4013"/>
					<polygon fill="#404040" stroke="none" points="1752,4027 1765,4002 1738,4002"/>
					<g>
						<path fill="#D0FFD0" stroke="#70A070" stroke-width="3" stroke-dasharray="none" d="M 1477,1702 L 1402,1852 L 2027,1852 L 2102,1702 Z"/>
						<text x="1752" y="1717" fill="#000000" font-family="Arial" font-size="32pt" text-anchor="middle" direction="ltr">
							<tspan x="1752" dy="50" unicode-bidi="embed">Salida &quot;Los multiplos son</tspan>
							<tspan x="1752" dy="50" unicode-bidi="embed"> : &quot; &#8230;</tspan>
						</text>
					</g>
					<g>
						<polyline fill="none" stroke="#404040" stroke-width="6" stroke-dasharray="none" points="2027,2002 2352,2002 2352,2088"/>
						<polygon fill="#404040" stroke="none" points="2352,2102 2365,2077 2338,2077"/>
						<polyline fill="none" stroke="#404040" stroke-width="6" stroke-dasharray="none" points="2352,3027 2352,3102 1802,3102 1802,2065"/>
						<polygon fill="#404040" stroke="none" points="1802,2052 1788,2076 1815,2076"/>
						<g>
							<polyline fill="none" stroke="#404040" stroke-width="6" stroke-dasharray="none" points="2577,2227 2852,2227 2852,2388"/>
							<polygon fill="#404040" stroke="none" points="2852,2402 2865,2377 2838,2377"/>
							<polyline fill="none" stroke="#404040" stroke-width="6" stroke-dasharray="none" points="2852,2902 2852,3002 2390,3002"/>
							<polygon fill="#404040" stroke="none" points="2377,3002 2401,3015 2401,2988"/>
							<polyline fill="none" stroke="#404040" stroke-width="6" stroke-dasharray="none" points="2127,2227 1927,2227 1927,3002 2313,3002"/>
							<polygon fill="#404040" stroke="none" points="2327,3002 2302,2988 2302,3015"/>
							<g>
								<path fill="#FFD0D0" stroke="#A07070" stroke-width="3" stroke-dasharray="none" d="M 2352,2102 L 2102,2227 L 2352,2352 L 2602,2227 Z"/>
								<text x="2352" y="2192" fill="#000000" font-family="Arial" font-size="32pt" text-anchor="middle" direction="ltr">
									<tspan x="2352" dy="50" unicode-bidi="embed">contador%3==0</tspan>
								</text>
							</g>
							<g>
								<polyline fill="none" stroke="#404040" stroke-width="6" stroke-dasharray="none" points="2852,2502 2852,2563"/>
								<polygon fill="#404040" stroke="none" points="2852,2577 2865,2552 2838,2552"/>
								<polyline fill="none" stroke="#404040" stroke-width="6" stroke-dasharray="none" points="2852,2727 2852,2788"/>
								<polygon fill="#404040" stroke="none" points="2852,2802 2865,2777 2838,2777"/>
								<g>
									<path fill="#D0FFD0" stroke="#70A070" stroke-width="3" stroke-dasharray="none" d="M 2552,2402 L 2502,2502 L 3152,2502 L 3202,2402 Z"/>
									<text x="2852" y="2417" fill="#000000" font-family="Arial" font-size="32pt" text-anchor="middle" direction="ltr">
										<tspan x="2852" dy="50" unicode-bidi="embed">Salida &quot;(&quot;&amp;contador&amp;&quot;) &quot; &#8230;</tspan>
									</text>
								</g>
								<g>
									<path fill="#FFFFD0" stroke="#A0A070" stroke-width="3" stroke-dasharray="none" d="M 2552,2577 L 2552,2727 L 3152,2727 L 3152,2577 Z"/>
									<text x="2852" y="2592" fill="#000000" font-family="Arial" font-size="32pt" text-anchor="middle" direction="ltr">
										<tspan x="2852" dy="50" unicode-bidi="embed">contadormul = contadormul</tspan>
										<tspan x="2852" dy="50" unicode-bidi="embed">+1</tspan>
									</text>
								</g>
								<g>
									<path fill="#FFFFD0" stroke="#A0A070" stroke-width="3" stroke-dasharray="none" d="M 2577,2802 L 2577,2902 L 3127,2902 L 3127,2802 Z"/>
									<text x="2852" y="2817" fill="#000000" font-family="Arial" font-size="32pt" text-anchor="middle" direction="ltr">
										<tspan x="2852" dy="50" unicode-bidi="embed">suma = suma+contador</tspan>
									</text>
								</g>
							</g>
							<g>
							</g>
							<ellipse cx="2352" cy="3002" rx="25" ry="25" fill="#FFD0D0" stroke="#A07070" stroke-width="3"/>
							<text x="2727" y="2142" fill="#000000" font-family="Arial" font-size="32pt" text-anchor="middle" direction="ltr">
								<tspan x="2727" dy="50" unicode-bidi="embed">Verdadero</tspan>
							</text>
							<text x="2014" y="2142" fill="#000000" font-family="Arial" font-size="32pt" text-anchor="middle" direction="ltr">
								<tspan x="2014" dy="50" unicode-bidi="embed">Falso</tspan>
							</text>
						</g>
						<g>
							<path fill="#FFE0A0" stroke="#A08040" stroke-width="3" stroke-dasharray="none" d="M 1527,1952 L 1477,2002 L 1527,2052 L 1977,2052 L 2027,2002 L 1977,1952 Z"/>
							<text x="1752" y="1967" fill="#000000" font-family="Arial" font-size="32pt" text-anchor="middle" direction="ltr">
								<tspan x="1752" dy="50" unicode-bidi="embed">contador = 1 hasta n</tspan>
							</text>
						</g>
						<text x="2152" y="1917" fill="#000000" font-family="Arial" font-size="32pt" text-anchor="middle" direction="ltr">
							<tspan x="2152" dy="50" unicode-bidi="embed">Siguiente</tspan>
						</text>
						<text x="1664" y="2067" fill="#000000" font-family="Arial" font-size="32pt" text-anchor="middle" direction="ltr">
							<tspan x="1664" dy="50" unicode-bidi="embed">Hecho</tspan>
						</text>
					</g>
					<g>
						<polyline fill="none" stroke="#404040" stroke-width="6" stroke-dasharray="none" points="1977,3327 2252,3327 2252,3488"/>
						<polygon fill="#404040" stroke="none" points="2252,3502 2265,3477 2238,3477"/>
						<polyline fill="none" stroke="#404040" stroke-width="6" stroke-dasharray="none" points="2252,3827 2252,3927 1790,3927"/>
						<polygon fill="#404040" stroke="none" points="1777,3927 1801,3940 1801,3913"/>
						<polyline fill="none" stroke="#404040" stroke-width="6" stroke-dasharray="none" points="1527,3327 1302,3327 1302,3488"/>
						<polygon fill="#404040" stroke="none" points="1302,3502 1315,3477 1288,3477"/>
						<polyline fill="none" stroke="#404040" stroke-width="6" stroke-dasharray="none" points="1302,3702 1302,3927 1713,3927"/>
						<polygon fill="#404040" stroke="none" points="1727,3927 1702,3913 1702,3940"/>
						<g>
							<path fill="#FFD0D0" stroke="#A07070" stroke-width="3" stroke-dasharray="none" d="M 1752,3202 L 1502,3327 L 1752,3452 L 2002,3327 Z"/>
							<text x="1752" y="3292" fill="#000000" font-family="Arial" font-size="32pt" text-anchor="middle" direction="ltr">
								<tspan x="1752" dy="50" unicode-bidi="embed">contadormul==0</tspan>
							</text>
						</g>
						<g>
							<polyline fill="none" stroke="#404040" stroke-width="6" stroke-dasharray="none" points="2252,3602 2252,3663"/>
							<polygon fill="#404040" stroke="none" points="2252,3677 2265,3652 2238,3652"/>
							<g>
								<path fill="#D0FFD0" stroke="#70A070" stroke-width="3" stroke-dasharray="none" d="M 1977,3502 L 1927,3602 L 2527,3602 L 2577,3502 Z"/>
								<text x="2252" y="3517" fill="#000000" font-family="Arial" font-size="32pt" text-anchor="middle" direction="ltr">
									<tspan x="2252" dy="50" unicode-bidi="embed">Salida &quot;no hay multiplos&quot;</tspan>
								</text>
							</g>
							<g>
								<path fill="#D0FFD0" stroke="#70A070" stroke-width="3" stroke-dasharray="none" d="M 2002,3677 L 1927,3827 L 2502,3827 L 2577,3677 Z"/>
								<text x="2252" y="3692" fill="#000000" font-family="Arial" font-size="32pt" text-anchor="middle" direction="ltr">
									<tspan x="2252" dy="50" unicode-bidi="embed">Salida &quot;la cantidad de</tspan>
									<tspan x="2252" dy="50" unicode-bidi="embed"> multiplos es: (0)&quot;</tspan>
								</text>
							</g>
						</g>
						<g>
							<path fill="#D0FFD0" stroke="#70A070" stroke-width="3" stroke-dasharray="none" d="M 1002,3502 L 902,3702 L 1602,3702 L 1702,3502 Z"/>
							<text x="1302" y="3517" fill="#000000" font-family="Arial" font-size="32pt" text-anchor="middle" direction="ltr">
								<tspan x="1302" dy="50" unicode-bidi="embed">Salida ToChar(13)&amp;&quot;la</tspan>
								<tspan x="1302" dy="50" unicode-bidi="embed"> cantidad de multiplos </tspan>
								<tspan x="1302" dy="50" unicode-bidi="embed"> es: &quot;&amp;&quot;(&quot;&amp;contadormul&amp;&quot;)&quot;</tspan>
							</text>
						</g>
						<ellipse cx="1752" cy="3927" rx="25" ry="25" fill="#FFD0D0" stroke="#A07070" stroke-width="3"/>
						<text x="2127" y="3242" fill="#000000" font-family="Arial" font-size="32pt" text-anchor="middle" direction="ltr">
							<tspan x="2127" dy="50" unicode-bidi="embed">Verdadero</tspan>
						</text>
						<text x="1414" y="3242" fill="#000000" font-family="Arial" font-size="32pt" text-anchor="middle" direction="ltr">
							<tspan x="1414" dy="50" unicode-bidi="embed">Falso</tspan>
						</text>
					</g>
					<g>
						<path fill="#D0FFD0" stroke="#70A070" stroke-width="3" stroke-dasharray="none" d="M 1452,4027 L 1377,4177 L 2052,4177 L 2127,4027 Z"/>
						<text x="1752" y="4042" fill="#000000" font-family="Arial" font-size="32pt" text-anchor="middle" direction="ltr">
							<tspan x="1752" dy="50" unicode-bidi="embed">Salida &quot;La suma es : &quot;&amp;&quot;(&quot;&amp;</tspan>
							<tspan x="1752" dy="50" unicode-bidi="embed">suma&amp;&quot;)&quot; &#8230;</tspan>
						</text>
					</g>
				</g>
				<g>
					<path fill="#D0FFD0" stroke="#70A070" stroke-width="3" stroke-dasharray="none" d="M 102,1702 L 27,1852 L 702,1852 L 777,1702 Z"/>
					<text x="402" y="1717" fill="#000000" font-family="Arial" font-size="32pt" text-anchor="middle" direction="ltr">
						<tspan x="402" dy="50" unicode-bidi="embed">Salida &quot;El numero debe ser</tspan>
						<tspan x="402" dy="50" unicode-bidi="embed"> mayor o igual a 1&quot;</tspan>
					</text>
				</g>
				<ellipse cx="827" cy="4277" rx="25" ry="25" fill="#FFD0D0" stroke="#A07070" stroke-width="3"/>
				<text x="1102" y="1492" fill="#000000" font-family="Arial" font-size="32pt" text-anchor="middle" direction="ltr">
					<tspan x="1102" dy="50" unicode-bidi="embed">Verdadero</tspan>
				</text>
				<text x="589" y="1492" fill="#000000" font-family="Arial" font-size="32pt" text-anchor="middle" direction="ltr">
					<tspan x="589" dy="50" unicode-bidi="embed">Falso</tspan>
				</text>
			</g>
		</g>
	</g>
</svg>
