<?xml version="1.0" encoding="UTF-8" standalone="no"?>
<!-- Created by Flowgorithm 3.4.1 (http://flowgorithm.org) -->

<svg xmlns:svg="http://www.w3.org/2000/svg" xmlns="http://www.w3.org/2000/svg" version="1.1" width="1704" height="3479">
	<g>
		<polyline fill="none" stroke="#404040" stroke-width="6" stroke-dasharray="none" points="402,102 402,163"/>
		<polygon fill="#404040" stroke="none" points="402,177 415,152 388,152"/>
		<polyline fill="none" stroke="#404040" stroke-width="6" stroke-dasharray="none" points="402,3302 402,3363"/>
		<polygon fill="#404040" stroke="none" points="402,3377 415,3352 388,3352"/>
		<g>
			<path fill="#F0D0FF" stroke="#9070A0" stroke-width="3" stroke-dasharray="none" d="M 302,2 A 50 50, 0, 0 0, 302 102 L 502,102 A 50 50, 0, 0 0, 502 2 Z"/>
			<text x="402" y="17" fill="#000000" font-family="Arial" font-size="32pt" text-anchor="middle" direction="ltr">
				<tspan x="402" dy="50" unicode-bidi="embed">Principal</tspan>
			</text>
		</g>
		<g>
			<path fill="#F0D0FF" stroke="#9070A0" stroke-width="3" stroke-dasharray="none" d="M 302,3377 A 50 50, 0, 0 0, 302 3477 L 502,3477 A 50 50, 0, 0 0, 502 3377 Z"/>
			<text x="402" y="3392" fill="#000000" font-family="Arial" font-size="32pt" text-anchor="middle" direction="ltr">
				<tspan x="402" dy="50" unicode-bidi="embed">Fin</tspan>
			</text>
		</g>
		<g>
			<polyline fill="none" stroke="#404040" stroke-width="6" stroke-dasharray="none" points="402,302 402,363"/>
			<polygon fill="#404040" stroke="none" points="402,377 415,352 388,352"/>
			<polyline fill="none" stroke="#404040" stroke-width="6" stroke-dasharray="none" points="402,502 402,563"/>
			<polygon fill="#404040" stroke="none" points="402,577 415,552 388,552"/>
			<polyline fill="none" stroke="#404040" stroke-width="6" stroke-dasharray="none" points="402,677 402,738"/>
			<polygon fill="#404040" stroke="none" points="402,752 415,727 388,727"/>
			<polyline fill="none" stroke="#404040" stroke-width="6" stroke-dasharray="none" points="402,877 402,938"/>
			<polygon fill="#404040" stroke="none" points="402,952 415,927 388,927"/>
			<polyline fill="none" stroke="#404040" stroke-width="6" stroke-dasharray="none" points="402,1052 402,1113"/>
			<polygon fill="#404040" stroke="none" points="402,1127 415,1102 388,1102"/>
			<polyline fill="none" stroke="#404040" stroke-width="6" stroke-dasharray="none" points="402,1252 402,1313"/>
			<polygon fill="#404040" stroke="none" points="402,1327 415,1302 388,1302"/>
			<polyline fill="none" stroke="#404040" stroke-width="6" stroke-dasharray="none" points="402,1427 402,1488"/>
			<polygon fill="#404040" stroke="none" points="402,1502 415,1477 388,1477"/>
			<polyline fill="none" stroke="#404040" stroke-width="6" stroke-dasharray="none" points="402,2727 402,2863"/>
			<polygon fill="#404040" stroke="none" points="402,2877 415,2852 388,2852"/>
			<polyline fill="none" stroke="#404040" stroke-width="6" stroke-dasharray="none" points="402,3077 402,3138"/>
			<polygon fill="#404040" stroke="none" points="402,3152 415,3127 388,3127"/>
			<g>
				<path fill="#FFFFD0" stroke="#A0A070" stroke-width="3" stroke-dasharray="none" d="M 202,177 L 202,302 L 602,302 L 602,177 Z"/>
				<polyline fill="none" stroke="#A0A070" stroke-width="3" stroke-dasharray="none" points="202,202 602,202"/>
				<polyline fill="none" stroke="#A0A070" stroke-width="3" stroke-dasharray="none" points="227,177 227,302"/>
				<text x="414" y="217" fill="#000000" font-family="Arial" font-size="32pt" text-anchor="middle" direction="ltr">
					<tspan x="414" dy="50" unicode-bidi="embed">Entero numero</tspan>
				</text>
			</g>
			<g>
				<path fill="#FFFFD0" stroke="#A0A070" stroke-width="3" stroke-dasharray="none" d="M 202,377 L 202,502 L 602,502 L 602,377 Z"/>
				<polyline fill="none" stroke="#A0A070" stroke-width="3" stroke-dasharray="none" points="202,402 602,402"/>
				<polyline fill="none" stroke="#A0A070" stroke-width="3" stroke-dasharray="none" points="227,377 227,502"/>
				<text x="414" y="417" fill="#000000" font-family="Arial" font-size="32pt" text-anchor="middle" direction="ltr">
					<tspan x="414" dy="50" unicode-bidi="embed">Entero contador</tspan>
				</text>
			</g>
			<g>
				<path fill="#FFFFD0" stroke="#A0A070" stroke-width="3" stroke-dasharray="none" d="M 252,577 L 252,677 L 552,677 L 552,577 Z"/>
				<text x="402" y="592" fill="#000000" font-family="Arial" font-size="32pt" text-anchor="middle" direction="ltr">
					<tspan x="402" dy="50" unicode-bidi="embed">contador = 0</tspan>
				</text>
			</g>
			<g>
				<path fill="#FFFFD0" stroke="#A0A070" stroke-width="3" stroke-dasharray="none" d="M 252,752 L 252,877 L 552,877 L 552,752 Z"/>
				<polyline fill="none" stroke="#A0A070" stroke-width="3" stroke-dasharray="none" points="252,777 552,777"/>
				<polyline fill="none" stroke="#A0A070" stroke-width="3" stroke-dasharray="none" points="277,752 277,877"/>
				<text x="414" y="792" fill="#000000" font-family="Arial" font-size="32pt" text-anchor="middle" direction="ltr">
					<tspan x="414" dy="50" unicode-bidi="embed">Entero posi</tspan>
				</text>
			</g>
			<g>
				<path fill="#FFFFD0" stroke="#A0A070" stroke-width="3" stroke-dasharray="none" d="M 252,952 L 252,1052 L 552,1052 L 552,952 Z"/>
				<text x="402" y="967" fill="#000000" font-family="Arial" font-size="32pt" text-anchor="middle" direction="ltr">
					<tspan x="402" dy="50" unicode-bidi="embed">posi = 0</tspan>
				</text>
			</g>
			<g>
				<path fill="#FFFFD0" stroke="#A0A070" stroke-width="3" stroke-dasharray="none" d="M 227,1127 L 227,1252 L 577,1252 L 577,1127 Z"/>
				<polyline fill="none" stroke="#A0A070" stroke-width="3" stroke-dasharray="none" points="227,1152 577,1152"/>
				<polyline fill="none" stroke="#A0A070" stroke-width="3" stroke-dasharray="none" points="252,1127 252,1252"/>
				<text x="414" y="1167" fill="#000000" font-family="Arial" font-size="32pt" text-anchor="middle" direction="ltr">
					<tspan x="414" dy="50" unicode-bidi="embed">Entero nega</tspan>
				</text>
			</g>
			<g>
				<path fill="#FFFFD0" stroke="#A0A070" stroke-width="3" stroke-dasharray="none" d="M 252,1327 L 252,1427 L 552,1427 L 552,1327 Z"/>
				<text x="402" y="1342" fill="#000000" font-family="Arial" font-size="32pt" text-anchor="middle" direction="ltr">
					<tspan x="402" dy="50" unicode-bidi="embed">nega = 0</tspan>
				</text>
			</g>
			<g>
				<polyline fill="none" stroke="#404040" stroke-width="6" stroke-dasharray="none" points="427,1527 1077,1527 1077,1613"/>
				<polygon fill="#404040" stroke="none" points="1077,1627 1090,1602 1063,1602"/>
				<polyline fill="none" stroke="#404040" stroke-width="6" stroke-dasharray="none" points="1077,2452 1077,2627 615,2627"/>
				<polygon fill="#404040" stroke="none" points="602,2627 626,2640 626,2613"/>
				<polyline fill="none" stroke="#404040" stroke-width="6" stroke-dasharray="none" points="402,2527 402,1565"/>
				<polygon fill="#404040" stroke="none" points="402,1552 388,1576 415,1576"/>
				<text x="277" y="2442" fill="#000000" font-family="Arial" font-size="32pt" text-anchor="middle" direction="ltr">
					<tspan x="277" dy="50" unicode-bidi="embed">Verdadero</tspan>
				</text>
				<text x="314" y="2742" fill="#000000" font-family="Arial" font-size="32pt" text-anchor="middle" direction="ltr">
					<tspan x="314" dy="50" unicode-bidi="embed">Falso</tspan>
				</text>
				<g>
					<polyline fill="none" stroke="#404040" stroke-width="6" stroke-dasharray="none" points="1077,1727 1077,1788"/>
					<polygon fill="#404040" stroke="none" points="1077,1802 1090,1777 1063,1777"/>
					<polyline fill="none" stroke="#404040" stroke-width="6" stroke-dasharray="none" points="1077,2277 1077,2338"/>
					<polygon fill="#404040" stroke="none" points="1077,2352 1090,2327 1063,2327"/>
					<g>
						<path fill="#C0E0FF" stroke="#6080A0" stroke-width="3" stroke-dasharray="none" d="M 877,1627 L 827,1727 L 1277,1727 L 1327,1627 Z"/>
						<text x="1077" y="1642" fill="#000000" font-family="Arial" font-size="32pt" text-anchor="middle" direction="ltr">
							<tspan x="1077" dy="50" unicode-bidi="embed">Entrada numero</tspan>
						</text>
					</g>
					<g>
						<polyline fill="none" stroke="#404040" stroke-width="6" stroke-dasharray="none" points="1252,1902 1527,1902 1527,2038"/>
						<polygon fill="#404040" stroke="none" points="1527,2052 1540,2027 1513,2027"/>
						<polyline fill="none" stroke="#404040" stroke-width="6" stroke-dasharray="none" points="1527,2152 1527,2252 1115,2252"/>
						<polygon fill="#404040" stroke="none" points="1102,2252 1126,2265 1126,2238"/>
						<polyline fill="none" stroke="#404040" stroke-width="6" stroke-dasharray="none" points="902,1902 702,1902 702,2038"/>
						<polygon fill="#404040" stroke="none" points="702,2052 715,2027 688,2027"/>
						<polyline fill="none" stroke="#404040" stroke-width="6" stroke-dasharray="none" points="702,2152 702,2252 1038,2252"/>
						<polygon fill="#404040" stroke="none" points="1052,2252 1027,2238 1027,2265"/>
						<g>
							<path fill="#FFD0D0" stroke="#A07070" stroke-width="3" stroke-dasharray="none" d="M 1077,1802 L 877,1902 L 1077,2002 L 1277,1902 Z"/>
							<text x="1077" y="1867" fill="#000000" font-family="Arial" font-size="32pt" text-anchor="middle" direction="ltr">
								<tspan x="1077" dy="50" unicode-bidi="embed">numero&gt;=0</tspan>
							</text>
						</g>
						<g>
							<path fill="#FFFFD0" stroke="#A0A070" stroke-width="3" stroke-dasharray="none" d="M 1352,2052 L 1352,2152 L 1702,2152 L 1702,2052 Z"/>
							<text x="1527" y="2067" fill="#000000" font-family="Arial" font-size="32pt" text-anchor="middle" direction="ltr">
								<tspan x="1527" dy="50" unicode-bidi="embed">posi = posi+1</tspan>
							</text>
						</g>
						<g>
							<path fill="#FFFFD0" stroke="#A0A070" stroke-width="3" stroke-dasharray="none" d="M 527,2052 L 527,2152 L 877,2152 L 877,2052 Z"/>
							<text x="702" y="2067" fill="#000000" font-family="Arial" font-size="32pt" text-anchor="middle" direction="ltr">
								<tspan x="702" dy="50" unicode-bidi="embed">nega = nega+1</tspan>
							</text>
						</g>
						<ellipse cx="1077" cy="2252" rx="25" ry="25" fill="#FFD0D0" stroke="#A07070" stroke-width="3"/>
						<text x="1402" y="1817" fill="#000000" font-family="Arial" font-size="32pt" text-anchor="middle" direction="ltr">
							<tspan x="1402" dy="50" unicode-bidi="embed">Verdadero</tspan>
						</text>
						<text x="789" y="1817" fill="#000000" font-family="Arial" font-size="32pt" text-anchor="middle" direction="ltr">
							<tspan x="789" dy="50" unicode-bidi="embed">Falso</tspan>
						</text>
					</g>
					<g>
						<path fill="#FFFFD0" stroke="#A0A070" stroke-width="3" stroke-dasharray="none" d="M 827,2352 L 827,2452 L 1327,2452 L 1327,2352 Z"/>
						<text x="1077" y="2367" fill="#000000" font-family="Arial" font-size="32pt" text-anchor="middle" direction="ltr">
							<tspan x="1077" dy="50" unicode-bidi="embed">contador = contador+1</tspan>
						</text>
					</g>
				</g>
				<g>
					<path fill="#FFE0A0" stroke="#A08040" stroke-width="3" stroke-dasharray="none" d="M 402,2527 L 202,2627 L 402,2727 L 602,2627 Z"/>
					<text x="402" y="2592" fill="#000000" font-family="Arial" font-size="32pt" text-anchor="middle" direction="ltr">
						<tspan x="402" dy="50" unicode-bidi="embed">contador&lt;3</tspan>
					</text>
				</g>
				<ellipse cx="402" cy="1527" rx="25" ry="25" fill="#FFE0A0" stroke="#A08040" stroke-width="3"/>
			</g>
			<g>
				<path fill="#D0FFD0" stroke="#70A070" stroke-width="3" stroke-dasharray="none" d="M 127,2877 L 27,3077 L 677,3077 L 777,2877 Z"/>
				<text x="402" y="2892" fill="#000000" font-family="Arial" font-size="32pt" text-anchor="middle" direction="ltr">
					<tspan x="402" dy="50" unicode-bidi="embed">Salida &quot;En la lista</tspan>
					<tspan x="402" dy="50" unicode-bidi="embed"> introducida hay &quot; &amp;posi</tspan>
					<tspan x="402" dy="50" unicode-bidi="embed"> &amp;&quot; numeros positivos&quot;</tspan>
				</text>
			</g>
			<g>
				<path fill="#D0FFD0" stroke="#70A070" stroke-width="3" stroke-dasharray="none" d="M 77,3152 L 2,3302 L 727,3302 L 802,3152 Z"/>
				<text x="402" y="3167" fill="#000000" font-family="Arial" font-size="32pt" text-anchor="middle" direction="ltr">
					<tspan x="402" dy="50" unicode-bidi="embed">Salida &quot;y &quot; &amp;nega &amp;&quot; numeros</tspan>
					<tspan x="402" dy="50" unicode-bidi="embed"> negativos&quot;</tspan>
				</text>
			</g>
		</g>
	</g>
</svg>
