<?xml version="1.0" encoding="UTF-8" standalone="no"?>
<!-- Created by Flowgorithm 3.4.1 (http://flowgorithm.org) -->

<svg xmlns:svg="http://www.w3.org/2000/svg" xmlns="http://www.w3.org/2000/svg" version="1.1" width="7529" height="5054">
	<g>
		<polyline fill="none" stroke="#404040" stroke-width="6" stroke-dasharray="none" points="5352,102 5352,163"/>
		<polygon fill="#404040" stroke="none" points="5352,177 5365,152 5338,152"/>
		<polyline fill="none" stroke="#404040" stroke-width="6" stroke-dasharray="none" points="5352,4877 5352,4938"/>
		<polygon fill="#404040" stroke="none" points="5352,4952 5365,4927 5338,4927"/>
		<g>
			<path fill="#F0D0FF" stroke="#9070A0" stroke-width="3" stroke-dasharray="none" d="M 5252,2 A 50 50, 0, 0 0, 5252 102 L 5452,102 A 50 50, 0, 0 0, 5452 2 Z"/>
			<text x="5352" y="17" fill="#000000" font-family="Arial" font-size="32pt" text-anchor="middle" direction="ltr">
				<tspan x="5352" dy="50" unicode-bidi="embed">Principal</tspan>
			</text>
		</g>
		<g>
			<path fill="#F0D0FF" stroke="#9070A0" stroke-width="3" stroke-dasharray="none" d="M 5252,4952 A 50 50, 0, 0 0, 5252 5052 L 5452,5052 A 50 50, 0, 0 0, 5452 4952 Z"/>
			<text x="5352" y="4967" fill="#000000" font-family="Arial" font-size="32pt" text-anchor="middle" direction="ltr">
				<tspan x="5352" dy="50" unicode-bidi="embed">Fin</tspan>
			</text>
		</g>
		<g>
			<polyline fill="none" stroke="#404040" stroke-width="6" stroke-dasharray="none" points="5352,302 5352,363"/>
			<polygon fill="#404040" stroke="none" points="5352,377 5365,352 5338,352"/>
			<polyline fill="none" stroke="#404040" stroke-width="6" stroke-dasharray="none" points="5352,502 5352,563"/>
			<polygon fill="#404040" stroke="none" points="5352,577 5365,552 5338,552"/>
			<polyline fill="none" stroke="#404040" stroke-width="6" stroke-dasharray="none" points="5352,702 5352,763"/>
			<polygon fill="#404040" stroke="none" points="5352,777 5365,752 5338,752"/>
			<polyline fill="none" stroke="#404040" stroke-width="6" stroke-dasharray="none" points="5352,877 5352,938"/>
			<polygon fill="#404040" stroke="none" points="5352,952 5365,927 5338,927"/>
			<polyline fill="none" stroke="#404040" stroke-width="6" stroke-dasharray="none" points="5352,1052 5352,1113"/>
			<polygon fill="#404040" stroke="none" points="5352,1127 5365,1102 5338,1102"/>
			<polyline fill="none" stroke="#404040" stroke-width="6" stroke-dasharray="none" points="5352,1227 5352,1288"/>
			<polygon fill="#404040" stroke="none" points="5352,1302 5365,1277 5338,1277"/>
			<polyline fill="none" stroke="#404040" stroke-width="6" stroke-dasharray="none" points="5352,1427 5352,1488"/>
			<polygon fill="#404040" stroke="none" points="5352,1502 5365,1477 5338,1477"/>
			<polyline fill="none" stroke="#404040" stroke-width="6" stroke-dasharray="none" points="5352,1627 5352,1688"/>
			<polygon fill="#404040" stroke="none" points="5352,1702 5365,1677 5338,1677"/>
			<polyline fill="none" stroke="#404040" stroke-width="6" stroke-dasharray="none" points="5352,1802 5352,1863"/>
			<polygon fill="#404040" stroke="none" points="5352,1877 5365,1852 5338,1852"/>
			<g>
				<path fill="#FFFFD0" stroke="#A0A070" stroke-width="3" stroke-dasharray="none" d="M 5177,177 L 5177,302 L 5527,302 L 5527,177 Z"/>
				<polyline fill="none" stroke="#A0A070" stroke-width="3" stroke-dasharray="none" points="5177,202 5527,202"/>
				<polyline fill="none" stroke="#A0A070" stroke-width="3" stroke-dasharray="none" points="5202,177 5202,302"/>
				<text x="5364" y="217" fill="#000000" font-family="Arial" font-size="32pt" text-anchor="middle" direction="ltr">
					<tspan x="5364" dy="50" unicode-bidi="embed">Entero base</tspan>
				</text>
			</g>
			<g>
				<path fill="#FFFFD0" stroke="#A0A070" stroke-width="3" stroke-dasharray="none" d="M 5177,377 L 5177,502 L 5527,502 L 5527,377 Z"/>
				<polyline fill="none" stroke="#A0A070" stroke-width="3" stroke-dasharray="none" points="5177,402 5527,402"/>
				<polyline fill="none" stroke="#A0A070" stroke-width="3" stroke-dasharray="none" points="5202,377 5202,502"/>
				<text x="5364" y="417" fill="#000000" font-family="Arial" font-size="32pt" text-anchor="middle" direction="ltr">
					<tspan x="5364" dy="50" unicode-bidi="embed">Entero expo</tspan>
				</text>
			</g>
			<g>
				<path fill="#FFFFD0" stroke="#A0A070" stroke-width="3" stroke-dasharray="none" d="M 5152,577 L 5152,702 L 5552,702 L 5552,577 Z"/>
				<polyline fill="none" stroke="#A0A070" stroke-width="3" stroke-dasharray="none" points="5152,602 5552,602"/>
				<polyline fill="none" stroke="#A0A070" stroke-width="3" stroke-dasharray="none" points="5177,577 5177,702"/>
				<text x="5364" y="617" fill="#000000" font-family="Arial" font-size="32pt" text-anchor="middle" direction="ltr">
					<tspan x="5364" dy="50" unicode-bidi="embed">Entero contador</tspan>
				</text>
			</g>
			<g>
				<path fill="#C0E0FF" stroke="#6080A0" stroke-width="3" stroke-dasharray="none" d="M 5177,777 L 5127,877 L 5527,877 L 5577,777 Z"/>
				<text x="5352" y="792" fill="#000000" font-family="Arial" font-size="32pt" text-anchor="middle" direction="ltr">
					<tspan x="5352" dy="50" unicode-bidi="embed">Entrada base</tspan>
				</text>
			</g>
			<g>
				<path fill="#C0E0FF" stroke="#6080A0" stroke-width="3" stroke-dasharray="none" d="M 5177,952 L 5127,1052 L 5527,1052 L 5577,952 Z"/>
				<text x="5352" y="967" fill="#000000" font-family="Arial" font-size="32pt" text-anchor="middle" direction="ltr">
					<tspan x="5352" dy="50" unicode-bidi="embed">Entrada expo</tspan>
				</text>
			</g>
			<g>
				<path fill="#FFFFD0" stroke="#A0A070" stroke-width="3" stroke-dasharray="none" d="M 5202,1127 L 5202,1227 L 5502,1227 L 5502,1127 Z"/>
				<text x="5352" y="1142" fill="#000000" font-family="Arial" font-size="32pt" text-anchor="middle" direction="ltr">
					<tspan x="5352" dy="50" unicode-bidi="embed">contador = 0</tspan>
				</text>
			</g>
			<g>
				<path fill="#FFFFD0" stroke="#A0A070" stroke-width="3" stroke-dasharray="none" d="M 5152,1302 L 5152,1427 L 5552,1427 L 5552,1302 Z"/>
				<polyline fill="none" stroke="#A0A070" stroke-width="3" stroke-dasharray="none" points="5152,1327 5552,1327"/>
				<polyline fill="none" stroke="#A0A070" stroke-width="3" stroke-dasharray="none" points="5177,1302 5177,1427"/>
				<text x="5364" y="1342" fill="#000000" font-family="Arial" font-size="32pt" text-anchor="middle" direction="ltr">
					<tspan x="5364" dy="50" unicode-bidi="embed">Entero especial</tspan>
				</text>
			</g>
			<g>
				<path fill="#FFFFD0" stroke="#A0A070" stroke-width="3" stroke-dasharray="none" d="M 5177,1502 L 5177,1627 L 5527,1627 L 5527,1502 Z"/>
				<polyline fill="none" stroke="#A0A070" stroke-width="3" stroke-dasharray="none" points="5177,1527 5527,1527"/>
				<polyline fill="none" stroke="#A0A070" stroke-width="3" stroke-dasharray="none" points="5202,1502 5202,1627"/>
				<text x="5364" y="1542" fill="#000000" font-family="Arial" font-size="32pt" text-anchor="middle" direction="ltr">
					<tspan x="5364" dy="50" unicode-bidi="embed">Real potencia</tspan>
				</text>
			</g>
			<g>
				<path fill="#FFFFD0" stroke="#A0A070" stroke-width="3" stroke-dasharray="none" d="M 5202,1702 L 5202,1802 L 5502,1802 L 5502,1702 Z"/>
				<text x="5352" y="1717" fill="#000000" font-family="Arial" font-size="32pt" text-anchor="middle" direction="ltr">
					<tspan x="5352" dy="50" unicode-bidi="embed">potencia = 1</tspan>
				</text>
			</g>
			<g>
				<polyline fill="none" stroke="#404040" stroke-width="6" stroke-dasharray="none" points="5602,2027 6702,2027 6702,2213"/>
				<polygon fill="#404040" stroke="none" points="6702,2227 6715,2202 6688,2202"/>
				<polyline fill="none" stroke="#404040" stroke-width="6" stroke-dasharray="none" points="6702,4577 6702,4852 5390,4852"/>
				<polygon fill="#404040" stroke="none" points="5377,4852 5401,4865 5401,4838"/>
				<polyline fill="none" stroke="#404040" stroke-width="6" stroke-dasharray="none" points="5102,2027 4452,2027 4452,2213"/>
				<polygon fill="#404040" stroke="none" points="4452,2227 4465,2202 4438,2202"/>
				<polyline fill="none" stroke="#404040" stroke-width="6" stroke-dasharray="none" points="4452,4752 4452,4852 5313,4852"/>
				<polygon fill="#404040" stroke="none" points="5327,4852 5302,4838 5302,4865"/>
				<g>
					<path fill="#FFD0D0" stroke="#A07070" stroke-width="3" stroke-dasharray="none" d="M 5352,1877 L 5077,2027 L 5352,2177 L 5627,2027 Z"/>
					<text x="5352" y="1992" fill="#000000" font-family="Arial" font-size="32pt" text-anchor="middle" direction="ltr">
						<tspan x="5352" dy="50" unicode-bidi="embed">base==0&amp;&amp;expo==0</tspan>
					</text>
				</g>
				<g>
					<polyline fill="none" stroke="#404040" stroke-width="6" stroke-dasharray="none" points="6702,2577 6702,2638"/>
					<polygon fill="#404040" stroke="none" points="6702,2652 6715,2627 6688,2627"/>
					<polyline fill="none" stroke="#404040" stroke-width="6" stroke-dasharray="none" points="6702,3527 6702,3663"/>
					<polygon fill="#404040" stroke="none" points="6702,3677 6715,3652 6688,3652"/>
					<g>
						<path fill="#D0FFD0" stroke="#70A070" stroke-width="3" stroke-dasharray="none" d="M 6402,2227 L 6227,2577 L 7002,2577 L 7177,2227 Z"/>
						<text x="6702" y="2242" fill="#000000" font-family="Arial" font-size="32pt" text-anchor="middle" direction="ltr">
							<tspan x="6702" dy="50" unicode-bidi="embed">Salida &quot;Existen 2</tspan>
							<tspan x="6702" dy="50" unicode-bidi="embed"> aceptaciones para 0^0,</tspan>
							<tspan x="6702" dy="50" unicode-bidi="embed"> donde 0^0=1 y donde</tspan>
							<tspan x="6702" dy="50" unicode-bidi="embed"> 0^0=0 por favor escriba el</tspan>
							<tspan x="6702" dy="50" unicode-bidi="embed"> valor con el que desea que</tspan>
							<tspan x="6702" dy="50" unicode-bidi="embed"> 0^0 sea tratado 1 o 0 &quot;</tspan>
						</text>
					</g>
					<g>
						<polyline fill="none" stroke="#404040" stroke-width="6" stroke-dasharray="none" points="6727,2677 7152,2677 7152,2763"/>
						<polygon fill="#404040" stroke="none" points="7152,2777 7165,2752 7138,2752"/>
						<polyline fill="none" stroke="#404040" stroke-width="6" stroke-dasharray="none" points="7152,3102 7152,3352 7065,3352"/>
						<polygon fill="#404040" stroke="none" points="7052,3352 7076,3365 7076,3338"/>
						<polyline fill="none" stroke="#404040" stroke-width="6" stroke-dasharray="none" points="6702,3177 6702,2715"/>
						<polygon fill="#404040" stroke="none" points="6702,2702 6688,2726 6715,2726"/>
						<text x="6577" y="3092" fill="#000000" font-family="Arial" font-size="32pt" text-anchor="middle" direction="ltr">
							<tspan x="6577" dy="50" unicode-bidi="embed">Verdadero</tspan>
						</text>
						<text x="6614" y="3542" fill="#000000" font-family="Arial" font-size="32pt" text-anchor="middle" direction="ltr">
							<tspan x="6614" dy="50" unicode-bidi="embed">Falso</tspan>
						</text>
						<g>
							<polyline fill="none" stroke="#404040" stroke-width="6" stroke-dasharray="none" points="7152,2927 7152,2988"/>
							<polygon fill="#404040" stroke="none" points="7152,3002 7165,2977 7138,2977"/>
							<g>
								<path fill="#D0FFD0" stroke="#70A070" stroke-width="3" stroke-dasharray="none" d="M 6877,2777 L 6802,2927 L 7427,2927 L 7502,2777 Z"/>
								<text x="7152" y="2792" fill="#000000" font-family="Arial" font-size="32pt" text-anchor="middle" direction="ltr">
									<tspan x="7152" dy="50" unicode-bidi="embed">Salida &quot;Ingrese un valor</tspan>
									<tspan x="7152" dy="50" unicode-bidi="embed"> entre 0 y 1&quot;</tspan>
								</text>
							</g>
							<g>
								<path fill="#C0E0FF" stroke="#6080A0" stroke-width="3" stroke-dasharray="none" d="M 6952,3002 L 6902,3102 L 7352,3102 L 7402,3002 Z"/>
								<text x="7152" y="3017" fill="#000000" font-family="Arial" font-size="32pt" text-anchor="middle" direction="ltr">
									<tspan x="7152" dy="50" unicode-bidi="embed">Entrada especial</tspan>
								</text>
							</g>
						</g>
						<g>
							<path fill="#FFE0A0" stroke="#A08040" stroke-width="3" stroke-dasharray="none" d="M 6702,3177 L 6352,3352 L 6702,3527 L 7052,3352 Z"/>
							<text x="6702" y="3317" fill="#000000" font-family="Arial" font-size="32pt" text-anchor="middle" direction="ltr">
								<tspan x="6702" dy="50" unicode-bidi="embed">especial!=0&amp;&amp;especial!=1</tspan>
							</text>
						</g>
						<ellipse cx="6702" cy="2677" rx="25" ry="25" fill="#FFE0A0" stroke="#A08040" stroke-width="3"/>
					</g>
					<g>
						<polyline fill="none" stroke="#404040" stroke-width="6" stroke-dasharray="none" points="6877,3777 7152,3777 7152,3913"/>
						<polygon fill="#404040" stroke="none" points="7152,3927 7165,3902 7138,3902"/>
						<polyline fill="none" stroke="#404040" stroke-width="6" stroke-dasharray="none" points="7152,4077 7152,4552 6740,4552"/>
						<polygon fill="#404040" stroke="none" points="6727,4552 6751,4565 6751,4538"/>
						<polyline fill="none" stroke="#404040" stroke-width="6" stroke-dasharray="none" points="6527,3777 5827,3777 5827,3913"/>
						<polygon fill="#404040" stroke="none" points="5827,3927 5840,3902 5813,3902"/>
						<polyline fill="none" stroke="#404040" stroke-width="6" stroke-dasharray="none" points="5827,4452 5827,4552 6663,4552"/>
						<polygon fill="#404040" stroke="none" points="6677,4552 6652,4538 6652,4565"/>
						<g>
							<path fill="#FFD0D0" stroke="#A07070" stroke-width="3" stroke-dasharray="none" d="M 6702,3677 L 6502,3777 L 6702,3877 L 6902,3777 Z"/>
							<text x="6702" y="3742" fill="#000000" font-family="Arial" font-size="32pt" text-anchor="middle" direction="ltr">
								<tspan x="6702" dy="50" unicode-bidi="embed">especial==0</tspan>
							</text>
						</g>
						<g>
							<path fill="#D0FFD0" stroke="#70A070" stroke-width="3" stroke-dasharray="none" d="M 6852,3927 L 6777,4077 L 7452,4077 L 7527,3927 Z"/>
							<text x="7152" y="3942" fill="#000000" font-family="Arial" font-size="32pt" text-anchor="middle" direction="ltr">
								<tspan x="7152" dy="50" unicode-bidi="embed">Salida &quot;La potencia de 0^0</tspan>
								<tspan x="7152" dy="50" unicode-bidi="embed"> =0&quot;</tspan>
							</text>
						</g>
						<g>
							<polyline fill="none" stroke="#404040" stroke-width="6" stroke-dasharray="none" points="6002,4027 6277,4027 6277,4163"/>
							<polygon fill="#404040" stroke="none" points="6277,4177 6290,4152 6263,4152"/>
							<polyline fill="none" stroke="#404040" stroke-width="6" stroke-dasharray="none" points="6277,4327 6277,4427 5865,4427"/>
							<polygon fill="#404040" stroke="none" points="5852,4427 5876,4440 5876,4413"/>
							<polyline fill="none" stroke="#404040" stroke-width="6" stroke-dasharray="none" points="5652,4027 5452,4027 5452,4427 5788,4427"/>
							<polygon fill="#404040" stroke="none" points="5802,4427 5777,4413 5777,4440"/>
							<g>
								<path fill="#FFD0D0" stroke="#A07070" stroke-width="3" stroke-dasharray="none" d="M 5827,3927 L 5627,4027 L 5827,4127 L 6027,4027 Z"/>
								<text x="5827" y="3992" fill="#000000" font-family="Arial" font-size="32pt" text-anchor="middle" direction="ltr">
									<tspan x="5827" dy="50" unicode-bidi="embed">especial==1</tspan>
								</text>
							</g>
							<g>
								<path fill="#D0FFD0" stroke="#70A070" stroke-width="3" stroke-dasharray="none" d="M 5977,4177 L 5902,4327 L 6577,4327 L 6652,4177 Z"/>
								<text x="6277" y="4192" fill="#000000" font-family="Arial" font-size="32pt" text-anchor="middle" direction="ltr">
									<tspan x="6277" dy="50" unicode-bidi="embed">Salida &quot;La potencia de 0^0</tspan>
									<tspan x="6277" dy="50" unicode-bidi="embed"> =1&quot;</tspan>
								</text>
							</g>
							<g>
							</g>
							<ellipse cx="5827" cy="4427" rx="25" ry="25" fill="#FFD0D0" stroke="#A07070" stroke-width="3"/>
							<text x="6152" y="3942" fill="#000000" font-family="Arial" font-size="32pt" text-anchor="middle" direction="ltr">
								<tspan x="6152" dy="50" unicode-bidi="embed">Verdadero</tspan>
							</text>
							<text x="5539" y="3942" fill="#000000" font-family="Arial" font-size="32pt" text-anchor="middle" direction="ltr">
								<tspan x="5539" dy="50" unicode-bidi="embed">Falso</tspan>
							</text>
						</g>
						<ellipse cx="6702" cy="4552" rx="25" ry="25" fill="#FFD0D0" stroke="#A07070" stroke-width="3"/>
						<text x="7027" y="3692" fill="#000000" font-family="Arial" font-size="32pt" text-anchor="middle" direction="ltr">
							<tspan x="7027" dy="50" unicode-bidi="embed">Verdadero</tspan>
						</text>
						<text x="6414" y="3692" fill="#000000" font-family="Arial" font-size="32pt" text-anchor="middle" direction="ltr">
							<tspan x="6414" dy="50" unicode-bidi="embed">Falso</tspan>
						</text>
					</g>
				</g>
				<g>
					<polyline fill="none" stroke="#404040" stroke-width="6" stroke-dasharray="none" points="4702,2377 4977,2377 4977,2563"/>
					<polygon fill="#404040" stroke="none" points="4977,2577 4990,2552 4963,2552"/>
					<polyline fill="none" stroke="#404040" stroke-width="6" stroke-dasharray="none" points="4977,2727 4977,4727 4490,4727"/>
					<polygon fill="#404040" stroke="none" points="4477,4727 4501,4740 4501,4713"/>
					<polyline fill="none" stroke="#404040" stroke-width="6" stroke-dasharray="none" points="4202,2377 2827,2377 2827,2563"/>
					<polygon fill="#404040" stroke="none" points="2827,2577 2840,2552 2813,2552"/>
					<polyline fill="none" stroke="#404040" stroke-width="6" stroke-dasharray="none" points="2827,4627 2827,4727 4413,4727"/>
					<polygon fill="#404040" stroke="none" points="4427,4727 4402,4713 4402,4740"/>
					<g>
						<path fill="#FFD0D0" stroke="#A07070" stroke-width="3" stroke-dasharray="none" d="M 4452,2227 L 4177,2377 L 4452,2527 L 4727,2377 Z"/>
						<text x="4452" y="2342" fill="#000000" font-family="Arial" font-size="32pt" text-anchor="middle" direction="ltr">
							<tspan x="4452" dy="50" unicode-bidi="embed">base==0&amp;&amp;expo&lt;0</tspan>
						</text>
					</g>
					<g>
						<path fill="#D0FFD0" stroke="#70A070" stroke-width="3" stroke-dasharray="none" d="M 4727,2577 L 4652,2727 L 5227,2727 L 5302,2577 Z"/>
						<text x="4977" y="2592" fill="#000000" font-family="Arial" font-size="32pt" text-anchor="middle" direction="ltr">
							<tspan x="4977" dy="50" unicode-bidi="embed">Salida &quot;La potencia es</tspan>
							<tspan x="4977" dy="50" unicode-bidi="embed"> indefinida&quot;</tspan>
						</text>
					</g>
					<g>
						<polyline fill="none" stroke="#404040" stroke-width="6" stroke-dasharray="none" points="2977,2677 3752,2677 3752,2813"/>
						<polygon fill="#404040" stroke="none" points="3752,2827 3765,2802 3738,2802"/>
						<polyline fill="none" stroke="#404040" stroke-width="6" stroke-dasharray="none" points="3752,3477 3752,4602 2865,4602"/>
						<polygon fill="#404040" stroke="none" points="2852,4602 2876,4615 2876,4588"/>
						<polyline fill="none" stroke="#404040" stroke-width="6" stroke-dasharray="none" points="2677,2677 1652,2677 1652,2813"/>
						<polygon fill="#404040" stroke="none" points="1652,2827 1665,2802 1638,2802"/>
						<polyline fill="none" stroke="#404040" stroke-width="6" stroke-dasharray="none" points="1652,4502 1652,4602 2788,4602"/>
						<polygon fill="#404040" stroke="none" points="2802,4602 2777,4588 2777,4615"/>
						<g>
							<path fill="#FFD0D0" stroke="#A07070" stroke-width="3" stroke-dasharray="none" d="M 2827,2577 L 2652,2677 L 2827,2777 L 3002,2677 Z"/>
							<text x="2827" y="2642" fill="#000000" font-family="Arial" font-size="32pt" text-anchor="middle" direction="ltr">
								<tspan x="2827" dy="50" unicode-bidi="embed">expo==0</tspan>
							</text>
						</g>
						<g>
							<polyline fill="none" stroke="#404040" stroke-width="6" stroke-dasharray="none" points="3902,2927 4177,2927 4177,3063"/>
							<polygon fill="#404040" stroke="none" points="4177,3077 4190,3052 4163,3052"/>
							<polyline fill="none" stroke="#404040" stroke-width="6" stroke-dasharray="none" points="4177,3352 4177,3452 3790,3452"/>
							<polygon fill="#404040" stroke="none" points="3777,3452 3801,3465 3801,3438"/>
							<polyline fill="none" stroke="#404040" stroke-width="6" stroke-dasharray="none" points="3602,2927 3302,2927 3302,3063"/>
							<polygon fill="#404040" stroke="none" points="3302,3077 3315,3052 3288,3052"/>
							<polyline fill="none" stroke="#404040" stroke-width="6" stroke-dasharray="none" points="3302,3277 3302,3452 3713,3452"/>
							<polygon fill="#404040" stroke="none" points="3727,3452 3702,3438 3702,3465"/>
							<g>
								<path fill="#FFD0D0" stroke="#A07070" stroke-width="3" stroke-dasharray="none" d="M 3752,2827 L 3577,2927 L 3752,3027 L 3927,2927 Z"/>
								<text x="3752" y="2892" fill="#000000" font-family="Arial" font-size="32pt" text-anchor="middle" direction="ltr">
									<tspan x="3752" dy="50" unicode-bidi="embed">base!=0</tspan>
								</text>
							</g>
							<g>
								<polyline fill="none" stroke="#404040" stroke-width="6" stroke-dasharray="none" points="4177,3177 4177,3238"/>
								<polygon fill="#404040" stroke="none" points="4177,3252 4190,3227 4163,3227"/>
								<g>
									<path fill="#FFFFD0" stroke="#A0A070" stroke-width="3" stroke-dasharray="none" d="M 4027,3077 L 4027,3177 L 4327,3177 L 4327,3077 Z"/>
									<text x="4177" y="3092" fill="#000000" font-family="Arial" font-size="32pt" text-anchor="middle" direction="ltr">
										<tspan x="4177" dy="50" unicode-bidi="embed">potencia = 1</tspan>
									</text>
								</g>
								<g>
									<path fill="#D0FFD0" stroke="#70A070" stroke-width="3" stroke-dasharray="none" d="M 4002,3252 L 3952,3352 L 4352,3352 L 4402,3252 Z"/>
									<text x="4177" y="3267" fill="#000000" font-family="Arial" font-size="32pt" text-anchor="middle" direction="ltr">
										<tspan x="4177" dy="50" unicode-bidi="embed">Salida potencia</tspan>
									</text>
								</g>
							</g>
							<g>
								<path fill="#D0FFD0" stroke="#70A070" stroke-width="3" stroke-dasharray="none" d="M 3002,3077 L 2902,3277 L 3602,3277 L 3702,3077 Z"/>
								<text x="3302" y="3092" fill="#000000" font-family="Arial" font-size="32pt" text-anchor="middle" direction="ltr">
									<tspan x="3302" dy="50" unicode-bidi="embed">Salida &quot;Dependiendo como</tspan>
									<tspan x="3302" dy="50" unicode-bidi="embed"> se trabaje el resultado sera</tspan>
									<tspan x="3302" dy="50" unicode-bidi="embed"> 0 y 1&quot;</tspan>
								</text>
							</g>
							<ellipse cx="3752" cy="3452" rx="25" ry="25" fill="#FFD0D0" stroke="#A07070" stroke-width="3"/>
							<text x="4052" y="2842" fill="#000000" font-family="Arial" font-size="32pt" text-anchor="middle" direction="ltr">
								<tspan x="4052" dy="50" unicode-bidi="embed">Verdadero</tspan>
							</text>
							<text x="3489" y="2842" fill="#000000" font-family="Arial" font-size="32pt" text-anchor="middle" direction="ltr">
								<tspan x="3489" dy="50" unicode-bidi="embed">Falso</tspan>
							</text>
						</g>
						<g>
							<polyline fill="none" stroke="#404040" stroke-width="6" stroke-dasharray="none" points="1652,4327 1652,4388"/>
							<polygon fill="#404040" stroke="none" points="1652,4402 1665,4377 1638,4377"/>
							<g>
								<polyline fill="none" stroke="#404040" stroke-width="6" stroke-dasharray="none" points="1777,2902 2052,2902 2052,3013"/>
								<polygon fill="#404040" stroke="none" points="2052,3027 2065,3002 2038,3002"/>
								<polyline fill="none" stroke="#404040" stroke-width="6" stroke-dasharray="none" points="2052,3277 2052,4302 1690,4302"/>
								<polygon fill="#404040" stroke="none" points="1677,4302 1701,4315 1701,4288"/>
								<polyline fill="none" stroke="#404040" stroke-width="6" stroke-dasharray="none" points="1527,2902 452,2902 452,3013"/>
								<polygon fill="#404040" stroke="none" points="452,3027 465,3002 438,3002"/>
								<polyline fill="none" stroke="#404040" stroke-width="6" stroke-dasharray="none" points="452,4202 452,4302 1613,4302"/>
								<polygon fill="#404040" stroke="none" points="1627,4302 1602,4288 1602,4315"/>
								<g>
									<path fill="#FFD0D0" stroke="#A07070" stroke-width="3" stroke-dasharray="none" d="M 1652,2827 L 1502,2902 L 1652,2977 L 1802,2902 Z"/>
									<text x="1652" y="2867" fill="#000000" font-family="Arial" font-size="32pt" text-anchor="middle" direction="ltr">
										<tspan x="1652" dy="50" unicode-bidi="embed">expo&gt;0</tspan>
									</text>
								</g>
								<g>
									<polyline fill="none" stroke="#404040" stroke-width="6" stroke-dasharray="none" points="2277,3152 2502,3152 2502,3313"/>
									<polygon fill="#404040" stroke="none" points="2502,3327 2515,3302 2488,3302"/>
									<polyline fill="none" stroke="#404040" stroke-width="6" stroke-dasharray="none" points="2502,3602 2502,3677 2102,3677 2102,3290"/>
									<polygon fill="#404040" stroke="none" points="2102,3277 2088,3301 2115,3301"/>
									<g>
										<polyline fill="none" stroke="#404040" stroke-width="6" stroke-dasharray="none" points="2502,3427 2502,3488"/>
										<polygon fill="#404040" stroke="none" points="2502,3502 2515,3477 2488,3477"/>
										<g>
											<path fill="#FFFFD0" stroke="#A0A070" stroke-width="3" stroke-dasharray="none" d="M 2227,3327 L 2227,3427 L 2777,3427 L 2777,3327 Z"/>
											<text x="2502" y="3342" fill="#000000" font-family="Arial" font-size="32pt" text-anchor="middle" direction="ltr">
												<tspan x="2502" dy="50" unicode-bidi="embed">potencia = potencia*base</tspan>
											</text>
										</g>
										<g>
											<path fill="#FFFFD0" stroke="#A0A070" stroke-width="3" stroke-dasharray="none" d="M 2252,3502 L 2252,3602 L 2752,3602 L 2752,3502 Z"/>
											<text x="2502" y="3517" fill="#000000" font-family="Arial" font-size="32pt" text-anchor="middle" direction="ltr">
												<tspan x="2502" dy="50" unicode-bidi="embed">contador = contador+1</tspan>
											</text>
										</g>
									</g>
									<g>
										<path fill="#FFE0A0" stroke="#A08040" stroke-width="3" stroke-dasharray="none" d="M 2052,3027 L 1827,3152 L 2052,3277 L 2277,3152 Z"/>
										<text x="2052" y="3117" fill="#000000" font-family="Arial" font-size="32pt" text-anchor="middle" direction="ltr">
											<tspan x="2052" dy="50" unicode-bidi="embed">contador&lt;expo</tspan>
										</text>
									</g>
									<text x="2402" y="3067" fill="#000000" font-family="Arial" font-size="32pt" text-anchor="middle" direction="ltr">
										<tspan x="2402" dy="50" unicode-bidi="embed">Verdadero</tspan>
									</text>
									<text x="1964" y="3292" fill="#000000" font-family="Arial" font-size="32pt" text-anchor="middle" direction="ltr">
										<tspan x="1964" dy="50" unicode-bidi="embed">Falso</tspan>
									</text>
								</g>
								<g>
									<polyline fill="none" stroke="#404040" stroke-width="6" stroke-dasharray="none" points="577,3102 852,3102 852,3213"/>
									<polygon fill="#404040" stroke="none" points="852,3227 865,3202 838,3202"/>
									<polyline fill="none" stroke="#404040" stroke-width="6" stroke-dasharray="none" points="852,4077 852,4177 490,4177"/>
									<polygon fill="#404040" stroke="none" points="477,4177 501,4190 501,4163"/>
									<polyline fill="none" stroke="#404040" stroke-width="6" stroke-dasharray="none" points="327,3102 127,3102 127,4177 413,4177"/>
									<polygon fill="#404040" stroke="none" points="427,4177 402,4163 402,4190"/>
									<g>
										<path fill="#FFD0D0" stroke="#A07070" stroke-width="3" stroke-dasharray="none" d="M 452,3027 L 302,3102 L 452,3177 L 602,3102 Z"/>
										<text x="452" y="3067" fill="#000000" font-family="Arial" font-size="32pt" text-anchor="middle" direction="ltr">
											<tspan x="452" dy="50" unicode-bidi="embed">expo&lt;0</tspan>
										</text>
									</g>
									<g>
										<polyline fill="none" stroke="#404040" stroke-width="6" stroke-dasharray="none" points="852,3477 852,3963"/>
										<polygon fill="#404040" stroke="none" points="852,3977 865,3952 838,3952"/>
										<g>
											<polyline fill="none" stroke="#404040" stroke-width="6" stroke-dasharray="none" points="1102,3352 1327,3352 1327,3513"/>
											<polygon fill="#404040" stroke="none" points="1327,3527 1340,3502 1313,3502"/>
											<polyline fill="none" stroke="#404040" stroke-width="6" stroke-dasharray="none" points="1327,3802 1327,3877 902,3877 902,3490"/>
											<polygon fill="#404040" stroke="none" points="902,3477 888,3501 915,3501"/>
											<g>
												<polyline fill="none" stroke="#404040" stroke-width="6" stroke-dasharray="none" points="1327,3627 1327,3688"/>
												<polygon fill="#404040" stroke="none" points="1327,3702 1340,3677 1313,3677"/>
												<g>
													<path fill="#FFFFD0" stroke="#A0A070" stroke-width="3" stroke-dasharray="none" d="M 1052,3527 L 1052,3627 L 1602,3627 L 1602,3527 Z"/>
													<text x="1327" y="3542" fill="#000000" font-family="Arial" font-size="32pt" text-anchor="middle" direction="ltr">
														<tspan x="1327" dy="50" unicode-bidi="embed">potencia = potencia*base</tspan>
													</text>
												</g>
												<g>
													<path fill="#FFFFD0" stroke="#A0A070" stroke-width="3" stroke-dasharray="none" d="M 1077,3702 L 1077,3802 L 1577,3802 L 1577,3702 Z"/>
													<text x="1327" y="3717" fill="#000000" font-family="Arial" font-size="32pt" text-anchor="middle" direction="ltr">
														<tspan x="1327" dy="50" unicode-bidi="embed">contador = contador+1</tspan>
													</text>
												</g>
											</g>
											<g>
												<path fill="#FFE0A0" stroke="#A08040" stroke-width="3" stroke-dasharray="none" d="M 852,3227 L 602,3352 L 852,3477 L 1102,3352 Z"/>
												<text x="852" y="3317" fill="#000000" font-family="Arial" font-size="32pt" text-anchor="middle" direction="ltr">
													<tspan x="852" dy="50" unicode-bidi="embed">contador&lt;-expo</tspan>
												</text>
											</g>
											<text x="1227" y="3267" fill="#000000" font-family="Arial" font-size="32pt" text-anchor="middle" direction="ltr">
												<tspan x="1227" dy="50" unicode-bidi="embed">Verdadero</tspan>
											</text>
											<text x="764" y="3492" fill="#000000" font-family="Arial" font-size="32pt" text-anchor="middle" direction="ltr">
												<tspan x="764" dy="50" unicode-bidi="embed">Falso</tspan>
											</text>
										</g>
										<g>
											<path fill="#FFFFD0" stroke="#A0A070" stroke-width="3" stroke-dasharray="none" d="M 602,3977 L 602,4077 L 1102,4077 L 1102,3977 Z"/>
											<text x="852" y="3992" fill="#000000" font-family="Arial" font-size="32pt" text-anchor="middle" direction="ltr">
												<tspan x="852" dy="50" unicode-bidi="embed">potencia = 1/potencia</tspan>
											</text>
										</g>
									</g>
									<g>
									</g>
									<ellipse cx="452" cy="4177" rx="25" ry="25" fill="#FFD0D0" stroke="#A07070" stroke-width="3"/>
									<text x="727" y="3017" fill="#000000" font-family="Arial" font-size="32pt" text-anchor="middle" direction="ltr">
										<tspan x="727" dy="50" unicode-bidi="embed">Verdadero</tspan>
									</text>
									<text x="214" y="3017" fill="#000000" font-family="Arial" font-size="32pt" text-anchor="middle" direction="ltr">
										<tspan x="214" dy="50" unicode-bidi="embed">Falso</tspan>
									</text>
								</g>
								<ellipse cx="1652" cy="4302" rx="25" ry="25" fill="#FFD0D0" stroke="#A07070" stroke-width="3"/>
								<text x="1927" y="2817" fill="#000000" font-family="Arial" font-size="32pt" text-anchor="middle" direction="ltr">
									<tspan x="1927" dy="50" unicode-bidi="embed">Verdadero</tspan>
								</text>
								<text x="1414" y="2817" fill="#000000" font-family="Arial" font-size="32pt" text-anchor="middle" direction="ltr">
									<tspan x="1414" dy="50" unicode-bidi="embed">Falso</tspan>
								</text>
							</g>
							<g>
								<path fill="#D0FFD0" stroke="#70A070" stroke-width="3" stroke-dasharray="none" d="M 1477,4402 L 1427,4502 L 1827,4502 L 1877,4402 Z"/>
								<text x="1652" y="4417" fill="#000000" font-family="Arial" font-size="32pt" text-anchor="middle" direction="ltr">
									<tspan x="1652" dy="50" unicode-bidi="embed">Salida potencia</tspan>
								</text>
							</g>
						</g>
						<ellipse cx="2827" cy="4602" rx="25" ry="25" fill="#FFD0D0" stroke="#A07070" stroke-width="3"/>
						<text x="3127" y="2592" fill="#000000" font-family="Arial" font-size="32pt" text-anchor="middle" direction="ltr">
							<tspan x="3127" dy="50" unicode-bidi="embed">Verdadero</tspan>
						</text>
						<text x="2564" y="2592" fill="#000000" font-family="Arial" font-size="32pt" text-anchor="middle" direction="ltr">
							<tspan x="2564" dy="50" unicode-bidi="embed">Falso</tspan>
						</text>
					</g>
					<ellipse cx="4452" cy="4727" rx="25" ry="25" fill="#FFD0D0" stroke="#A07070" stroke-width="3"/>
					<text x="4852" y="2292" fill="#000000" font-family="Arial" font-size="32pt" text-anchor="middle" direction="ltr">
						<tspan x="4852" dy="50" unicode-bidi="embed">Verdadero</tspan>
					</text>
					<text x="4089" y="2292" fill="#000000" font-family="Arial" font-size="32pt" text-anchor="middle" direction="ltr">
						<tspan x="4089" dy="50" unicode-bidi="embed">Falso</tspan>
					</text>
				</g>
				<ellipse cx="5352" cy="4852" rx="25" ry="25" fill="#FFD0D0" stroke="#A07070" stroke-width="3"/>
				<text x="5752" y="1942" fill="#000000" font-family="Arial" font-size="32pt" text-anchor="middle" direction="ltr">
					<tspan x="5752" dy="50" unicode-bidi="embed">Verdadero</tspan>
				</text>
				<text x="4989" y="1942" fill="#000000" font-family="Arial" font-size="32pt" text-anchor="middle" direction="ltr">
					<tspan x="4989" dy="50" unicode-bidi="embed">Falso</tspan>
				</text>
			</g>
		</g>
	</g>
</svg>
