<?xml version="1.0" encoding="UTF-8" standalone="no"?>
<!-- Created by Flowgorithm 3.4.1 (http://flowgorithm.org) -->

<svg xmlns:svg="http://www.w3.org/2000/svg" xmlns="http://www.w3.org/2000/svg" version="1.1" width="854" height="604">
	<g>
		<polyline fill="none" stroke="#404040" stroke-width="6" stroke-dasharray="none" points="427,102 427,163"/>
		<polygon fill="#404040" stroke="none" points="427,177 440,152 413,152"/>
		<polyline fill="none" stroke="#404040" stroke-width="6" stroke-dasharray="none" points="427,427 427,488"/>
		<polygon fill="#404040" stroke="none" points="427,502 440,477 413,477"/>
		<g>
			<path fill="#F0D0FF" stroke="#9070A0" stroke-width="3" stroke-dasharray="none" d="M 327,2 A 50 50, 0, 0 0, 327 102 L 527,102 A 50 50, 0, 0 0, 527 2 Z"/>
			<text x="427" y="17" fill="#000000" font-family="Arial" font-size="32pt" text-anchor="middle" direction="ltr">
				<tspan x="427" dy="50" unicode-bidi="embed">Principal</tspan>
			</text>
		</g>
		<g>
			<path fill="#F0D0FF" stroke="#9070A0" stroke-width="3" stroke-dasharray="none" d="M 327,502 A 50 50, 0, 0 0, 327 602 L 527,602 A 50 50, 0, 0 0, 527 502 Z"/>
			<text x="427" y="517" fill="#000000" font-family="Arial" font-size="32pt" text-anchor="middle" direction="ltr">
				<tspan x="427" dy="50" unicode-bidi="embed">Fin</tspan>
			</text>
		</g>
		<g>
			<path fill="#D0FFD0" stroke="#70A070" stroke-width="3" stroke-dasharray="none" d="M 127,177 L 2,427 L 727,427 L 852,177 Z"/>
			<text x="427" y="192" fill="#000000" font-family="Arial" font-size="32pt" text-anchor="middle" direction="ltr">
				<tspan x="427" dy="50" unicode-bidi="embed">Salida &quot;No se  ha podido</tspan>
				<tspan x="427" dy="50" unicode-bidi="embed"> resolver el diagrama con</tspan>
				<tspan x="427" dy="50" unicode-bidi="embed"> esta estructura prueba con</tspan>
				<tspan x="427" dy="50" unicode-bidi="embed"> el boton de `Calculo`&quot;</tspan>
			</text>
		</g>
	</g>
</svg>
