<?xml version="1.0" encoding="UTF-8" standalone="no"?>
<!-- Created by Flowgorithm 3.5.1 (http://flowgorithm.org) -->

<svg xmlns:svg="http://www.w3.org/2000/svg" xmlns="http://www.w3.org/2000/svg" version="1.1" width="4804" height="10754">
	<g>
		<polyline fill="none" stroke="#404040" stroke-width="6" stroke-dasharray="none" points="277,102 277,163"/>
		<polygon fill="#404040" stroke="none" points="277,177 290,152 263,152"/>
		<polyline fill="none" stroke="#404040" stroke-width="6" stroke-dasharray="none" points="277,6727 277,10638"/>
		<polygon fill="#404040" stroke="none" points="277,10652 290,10627 263,10627"/>
		<g>
			<path fill="#F0E0FF" stroke="#9070A0" stroke-width="3" stroke-dasharray="none" d="M 177,2 A 50 50, 0, 0 0, 177 102 L 377,102 A 50 50, 0, 0 0, 377 2 Z"/>
			<text x="277" y="17" fill="#000000" font-family="Arial" font-size="32pt" text-anchor="middle" direction="ltr">
				<tspan x="277" dy="50" unicode-bidi="embed">Principal</tspan>
			</text>
		</g>
		<g>
			<path fill="#F0E0FF" stroke="#9070A0" stroke-width="3" stroke-dasharray="none" d="M 177,10652 A 50 50, 0, 0 0, 177 10752 L 377,10752 A 50 50, 0, 0 0, 377 10652 Z"/>
			<text x="277" y="10667" fill="#000000" font-family="Arial" font-size="32pt" text-anchor="middle" direction="ltr">
				<tspan x="277" dy="50" unicode-bidi="embed">Fin</tspan>
			</text>
		</g>
		<g>
			<polyline fill="none" stroke="#404040" stroke-width="6" stroke-dasharray="none" points="277,302 277,363"/>
			<polygon fill="#404040" stroke="none" points="277,377 290,352 263,352"/>
			<polyline fill="none" stroke="#404040" stroke-width="6" stroke-dasharray="none" points="277,502 277,588"/>
			<polygon fill="#404040" stroke="none" points="277,602 290,577 263,577"/>
			<polyline fill="none" stroke="#404040" stroke-width="6" stroke-dasharray="none" points="277,702 277,1088"/>
			<polygon fill="#404040" stroke="none" points="277,1102 290,1077 263,1077"/>
			<polyline fill="none" stroke="#404040" stroke-width="6" stroke-dasharray="none" points="277,1202 277,1563"/>
			<polygon fill="#404040" stroke="none" points="277,1577 290,1552 263,1552"/>
			<polyline fill="none" stroke="#404040" stroke-width="6" stroke-dasharray="none" points="277,1702 277,1763"/>
			<polygon fill="#404040" stroke="none" points="277,1777 290,1752 263,1752"/>
			<polyline fill="none" stroke="#404040" stroke-width="6" stroke-dasharray="none" points="277,1902 277,1963"/>
			<polygon fill="#404040" stroke="none" points="277,1977 290,1952 263,1952"/>
			<polyline fill="none" stroke="#404040" stroke-width="6" stroke-dasharray="none" points="277,2077 277,2138"/>
			<polygon fill="#404040" stroke="none" points="277,2152 290,2127 263,2127"/>
			<polyline fill="none" stroke="#404040" stroke-width="6" stroke-dasharray="none" points="277,2277 277,2338"/>
			<polygon fill="#404040" stroke="none" points="277,2352 290,2327 263,2327"/>
			<polyline fill="none" stroke="#404040" stroke-width="6" stroke-dasharray="none" points="277,2477 277,2563"/>
			<polygon fill="#404040" stroke="none" points="277,2577 290,2552 263,2552"/>
			<polyline fill="none" stroke="#404040" stroke-width="6" stroke-dasharray="none" points="277,2677 277,6613"/>
			<polygon fill="#404040" stroke="none" points="277,6627 290,6602 263,6602"/>
			<g>
				<path fill="#FFFFD0" stroke="#A0A070" stroke-width="3" stroke-dasharray="none" d="M 27,177 L 27,302 L 527,302 L 527,177 Z"/>
				<polyline fill="none" stroke="#A0A070" stroke-width="3" stroke-dasharray="none" points="27,202 527,202"/>
				<polyline fill="none" stroke="#A0A070" stroke-width="3" stroke-dasharray="none" points="52,177 52,302"/>
				<text x="289" y="217" fill="#000000" font-family="Arial" font-size="32pt" text-anchor="middle" direction="ltr">
					<tspan x="289" dy="50" unicode-bidi="embed">Entero Matriz array[4]</tspan>
				</text>
			</g>
			<g>
				<path fill="#FFFFD0" stroke="#A0A070" stroke-width="3" stroke-dasharray="none" d="M 77,377 L 77,502 L 477,502 L 477,377 Z"/>
				<polyline fill="none" stroke="#A0A070" stroke-width="3" stroke-dasharray="none" points="77,402 477,402"/>
				<polyline fill="none" stroke="#A0A070" stroke-width="3" stroke-dasharray="none" points="102,377 102,502"/>
				<text x="289" y="417" fill="#000000" font-family="Arial" font-size="32pt" text-anchor="middle" direction="ltr">
					<tspan x="289" dy="50" unicode-bidi="embed">Entero contador</tspan>
				</text>
			</g>
			<g>
				<polyline fill="none" stroke="#404040" stroke-width="6" stroke-dasharray="none" points="552,652 777,652 777,738"/>
				<polygon fill="#404040" stroke="none" points="777,752 790,727 763,727"/>
				<polyline fill="none" stroke="#404040" stroke-width="6" stroke-dasharray="none" points="777,902 777,977 327,977 327,715"/>
				<polygon fill="#404040" stroke="none" points="327,702 313,726 340,726"/>
				<g>
					<path fill="#FFFFD0" stroke="#A0A070" stroke-width="3" stroke-dasharray="none" d="M 502,752 L 502,902 L 1052,902 L 1052,752 Z"/>
					<text x="777" y="767" fill="#000000" font-family="Arial" font-size="32pt" text-anchor="middle" direction="ltr">
						<tspan x="777" dy="50" unicode-bidi="embed">array[contador] = random</tspan>
						<tspan x="777" dy="50" unicode-bidi="embed">(100)</tspan>
					</text>
				</g>
				<g>
					<path fill="#FFE0A0" stroke="#A08040" stroke-width="3" stroke-dasharray="none" d="M 52,602 L 2,652 L 52,702 L 502,702 L 552,652 L 502,602 Z"/>
					<text x="277" y="617" fill="#000000" font-family="Arial" font-size="32pt" text-anchor="middle" direction="ltr">
						<tspan x="277" dy="50" unicode-bidi="embed">contador = 0 hasta 3</tspan>
					</text>
				</g>
				<text x="677" y="567" fill="#000000" font-family="Arial" font-size="32pt" text-anchor="middle" direction="ltr">
					<tspan x="677" dy="50" unicode-bidi="embed">Siguiente</tspan>
				</text>
				<text x="189" y="717" fill="#000000" font-family="Arial" font-size="32pt" text-anchor="middle" direction="ltr">
					<tspan x="189" dy="50" unicode-bidi="embed">Hecho</tspan>
				</text>
			</g>
			<g>
				<polyline fill="none" stroke="#404040" stroke-width="6" stroke-dasharray="none" points="552,1152 802,1152 802,1238"/>
				<polygon fill="#404040" stroke="none" points="802,1252 815,1227 788,1227"/>
				<polyline fill="none" stroke="#404040" stroke-width="6" stroke-dasharray="none" points="802,1402 802,1477 327,1477 327,1215"/>
				<polygon fill="#404040" stroke="none" points="327,1202 313,1226 340,1226"/>
				<g>
					<path fill="#D0FFD0" stroke="#70A070" stroke-width="3" stroke-dasharray="none" d="M 502,1252 L 427,1402 L 1102,1402 L 1177,1252 Z"/>
					<text x="802" y="1267" fill="#000000" font-family="Arial" font-size="32pt" text-anchor="middle" direction="ltr">
						<tspan x="802" dy="50" unicode-bidi="embed">Salida contador&amp;&quot; - &quot;&amp;array</tspan>
						<tspan x="802" dy="50" unicode-bidi="embed">[contador]</tspan>
					</text>
				</g>
				<g>
					<path fill="#FFE0A0" stroke="#A08040" stroke-width="3" stroke-dasharray="none" d="M 52,1102 L 2,1152 L 52,1202 L 502,1202 L 552,1152 L 502,1102 Z"/>
					<text x="277" y="1117" fill="#000000" font-family="Arial" font-size="32pt" text-anchor="middle" direction="ltr">
						<tspan x="277" dy="50" unicode-bidi="embed">contador = 0 hasta 3</tspan>
					</text>
				</g>
				<text x="677" y="1067" fill="#000000" font-family="Arial" font-size="32pt" text-anchor="middle" direction="ltr">
					<tspan x="677" dy="50" unicode-bidi="embed">Siguiente</tspan>
				</text>
				<text x="189" y="1217" fill="#000000" font-family="Arial" font-size="32pt" text-anchor="middle" direction="ltr">
					<tspan x="189" dy="50" unicode-bidi="embed">Hecho</tspan>
				</text>
			</g>
			<g>
				<path fill="#FFFFD0" stroke="#A0A070" stroke-width="3" stroke-dasharray="none" d="M 27,1577 L 27,1702 L 527,1702 L 527,1577 Z"/>
				<polyline fill="none" stroke="#A0A070" stroke-width="3" stroke-dasharray="none" points="27,1602 527,1602"/>
				<polyline fill="none" stroke="#A0A070" stroke-width="3" stroke-dasharray="none" points="52,1577 52,1702"/>
				<text x="289" y="1617" fill="#000000" font-family="Arial" font-size="32pt" text-anchor="middle" direction="ltr">
					<tspan x="289" dy="50" unicode-bidi="embed">Entero Matriz aux[4]</tspan>
				</text>
			</g>
			<g>
				<path fill="#FFFFD0" stroke="#A0A070" stroke-width="3" stroke-dasharray="none" d="M 127,1777 L 127,1902 L 427,1902 L 427,1777 Z"/>
				<polyline fill="none" stroke="#A0A070" stroke-width="3" stroke-dasharray="none" points="127,1802 427,1802"/>
				<polyline fill="none" stroke="#A0A070" stroke-width="3" stroke-dasharray="none" points="152,1777 152,1902"/>
				<text x="289" y="1817" fill="#000000" font-family="Arial" font-size="32pt" text-anchor="middle" direction="ltr">
					<tspan x="289" dy="50" unicode-bidi="embed">Entero i</tspan>
				</text>
			</g>
			<g>
				<path fill="#FFFFD0" stroke="#A0A070" stroke-width="3" stroke-dasharray="none" d="M 127,1977 L 127,2077 L 427,2077 L 427,1977 Z"/>
				<text x="277" y="1992" fill="#000000" font-family="Arial" font-size="32pt" text-anchor="middle" direction="ltr">
					<tspan x="277" dy="50" unicode-bidi="embed">i = 0</tspan>
				</text>
			</g>
			<g>
				<path fill="#FFFFD0" stroke="#A0A070" stroke-width="3" stroke-dasharray="none" d="M 127,2152 L 127,2277 L 427,2277 L 427,2152 Z"/>
				<polyline fill="none" stroke="#A0A070" stroke-width="3" stroke-dasharray="none" points="127,2177 427,2177"/>
				<polyline fill="none" stroke="#A0A070" stroke-width="3" stroke-dasharray="none" points="152,2152 152,2277"/>
				<text x="289" y="2192" fill="#000000" font-family="Arial" font-size="32pt" text-anchor="middle" direction="ltr">
					<tspan x="289" dy="50" unicode-bidi="embed">Entero k</tspan>
				</text>
			</g>
			<g>
				<path fill="#FFFFD0" stroke="#A0A070" stroke-width="3" stroke-dasharray="none" d="M 127,2352 L 127,2477 L 427,2477 L 427,2352 Z"/>
				<polyline fill="none" stroke="#A0A070" stroke-width="3" stroke-dasharray="none" points="127,2377 427,2377"/>
				<polyline fill="none" stroke="#A0A070" stroke-width="3" stroke-dasharray="none" points="152,2352 152,2477"/>
				<text x="289" y="2392" fill="#000000" font-family="Arial" font-size="32pt" text-anchor="middle" direction="ltr">
					<tspan x="289" dy="50" unicode-bidi="embed">Entero j</tspan>
				</text>
			</g>
			<g>
				<polyline fill="none" stroke="#404040" stroke-width="6" stroke-dasharray="none" points="552,2627 3802,2627 3802,2713"/>
				<polygon fill="#404040" stroke="none" points="3802,2727 3815,2702 3788,2702"/>
				<polyline fill="none" stroke="#404040" stroke-width="6" stroke-dasharray="none" points="3802,6427 3802,6502 327,6502 327,2690"/>
				<polygon fill="#404040" stroke="none" points="327,2677 313,2701 340,2701"/>
				<g>
					<polyline fill="none" stroke="#404040" stroke-width="6" stroke-dasharray="none" points="4027,2852 4302,2852 4302,6402 3840,6402"/>
					<polygon fill="#404040" stroke="none" points="3827,6402 3851,6415 3851,6388"/>
					<polyline fill="none" stroke="#404040" stroke-width="6" stroke-dasharray="none" points="3577,2852 2877,2852 2877,3013"/>
					<polygon fill="#404040" stroke="none" points="2877,3027 2890,3002 2863,3002"/>
					<polyline fill="none" stroke="#404040" stroke-width="6" stroke-dasharray="none" points="2877,6302 2877,6402 3763,6402"/>
					<polygon fill="#404040" stroke="none" points="3777,6402 3752,6388 3752,6415"/>
					<g>
						<path fill="#FFD0D0" stroke="#A07070" stroke-width="3" stroke-dasharray="none" d="M 3802,2727 L 3552,2852 L 3802,2977 L 4052,2852 Z"/>
						<text x="3802" y="2817" fill="#000000" font-family="Arial" font-size="32pt" text-anchor="middle" direction="ltr">
							<tspan x="3802" dy="50" unicode-bidi="embed">array[contador]&lt;2</tspan>
						</text>
					</g>
					<g>
					</g>
					<g>
						<polyline fill="none" stroke="#404040" stroke-width="6" stroke-dasharray="none" points="3227,3227 3502,3227 3502,3463"/>
						<polygon fill="#404040" stroke="none" points="3502,3477 3515,3452 3488,3452"/>
						<polyline fill="none" stroke="#404040" stroke-width="6" stroke-dasharray="none" points="3502,3752 3502,6277 2915,6277"/>
						<polygon fill="#404040" stroke="none" points="2902,6277 2926,6290 2926,6263"/>
						<polyline fill="none" stroke="#404040" stroke-width="6" stroke-dasharray="none" points="2527,3227 2252,3227 2252,3463"/>
						<polygon fill="#404040" stroke="none" points="2252,3477 2265,3452 2238,3452"/>
						<polyline fill="none" stroke="#404040" stroke-width="6" stroke-dasharray="none" points="2252,6177 2252,6277 2838,6277"/>
						<polygon fill="#404040" stroke="none" points="2852,6277 2827,6263 2827,6290"/>
						<g>
							<path fill="#FFD0D0" stroke="#A07070" stroke-width="3" stroke-dasharray="none" d="M 2877,3027 L 2502,3227 L 2877,3427 L 3252,3227 Z"/>
							<text x="2877" y="3167" fill="#000000" font-family="Arial" font-size="32pt" text-anchor="middle" direction="ltr">
								<tspan x="2877" dy="50" unicode-bidi="embed">array[contador]==2||array</tspan>
								<tspan x="2877" dy="50" unicode-bidi="embed">[contador]==3</tspan>
							</text>
						</g>
						<g>
							<polyline fill="none" stroke="#404040" stroke-width="6" stroke-dasharray="none" points="3502,3577 3502,3638"/>
							<polygon fill="#404040" stroke="none" points="3502,3652 3515,3627 3488,3627"/>
							<g>
								<path fill="#FFFFD0" stroke="#A0A070" stroke-width="3" stroke-dasharray="none" d="M 3252,3477 L 3252,3577 L 3752,3577 L 3752,3477 Z"/>
								<text x="3502" y="3492" fill="#000000" font-family="Arial" font-size="32pt" text-anchor="middle" direction="ltr">
									<tspan x="3502" dy="50" unicode-bidi="embed">aux[i] = array[contador]</tspan>
								</text>
							</g>
							<g>
								<path fill="#FFFFD0" stroke="#A0A070" stroke-width="3" stroke-dasharray="none" d="M 3352,3652 L 3352,3752 L 3652,3752 L 3652,3652 Z"/>
								<text x="3502" y="3667" fill="#000000" font-family="Arial" font-size="32pt" text-anchor="middle" direction="ltr">
									<tspan x="3502" dy="50" unicode-bidi="embed">i = i+1</tspan>
								</text>
							</g>
						</g>
						<g>
							<polyline fill="none" stroke="#404040" stroke-width="6" stroke-dasharray="none" points="2252,3577 2252,3638"/>
							<polygon fill="#404040" stroke="none" points="2252,3652 2265,3627 2238,3627"/>
							<polyline fill="none" stroke="#404040" stroke-width="6" stroke-dasharray="none" points="2252,3752 2252,3813"/>
							<polygon fill="#404040" stroke="none" points="2252,3827 2265,3802 2238,3802"/>
							<g>
								<path fill="#FFFFD0" stroke="#A0A070" stroke-width="3" stroke-dasharray="none" d="M 2102,3477 L 2102,3577 L 2402,3577 L 2402,3477 Z"/>
								<text x="2252" y="3492" fill="#000000" font-family="Arial" font-size="32pt" text-anchor="middle" direction="ltr">
									<tspan x="2252" dy="50" unicode-bidi="embed">k = 1</tspan>
								</text>
							</g>
							<g>
								<path fill="#FFFFD0" stroke="#A0A070" stroke-width="3" stroke-dasharray="none" d="M 2102,3652 L 2102,3752 L 2402,3752 L 2402,3652 Z"/>
								<text x="2252" y="3667" fill="#000000" font-family="Arial" font-size="32pt" text-anchor="middle" direction="ltr">
									<tspan x="2252" dy="50" unicode-bidi="embed">j = 0</tspan>
								</text>
							</g>
							<g>
								<polyline fill="none" stroke="#404040" stroke-width="6" stroke-dasharray="none" points="2527,3977 2802,3977 2802,6152 2290,6152"/>
								<polygon fill="#404040" stroke="none" points="2277,6152 2301,6165 2301,6138"/>
								<polyline fill="none" stroke="#404040" stroke-width="6" stroke-dasharray="none" points="1977,3977 852,3977 852,4163"/>
								<polygon fill="#404040" stroke="none" points="852,4177 865,4152 838,4152"/>
								<polyline fill="none" stroke="#404040" stroke-width="6" stroke-dasharray="none" points="852,6052 852,6152 2213,6152"/>
								<polygon fill="#404040" stroke="none" points="2227,6152 2202,6138 2202,6165"/>
								<g>
									<path fill="#FFD0D0" stroke="#A07070" stroke-width="3" stroke-dasharray="none" d="M 2252,3827 L 1952,3977 L 2252,4127 L 2552,3977 Z"/>
									<text x="2252" y="3942" fill="#000000" font-family="Arial" font-size="32pt" text-anchor="middle" direction="ltr">
										<tspan x="2252" dy="50" unicode-bidi="embed">array[contador]%2==0</tspan>
									</text>
								</g>
								<g>
								</g>
								<g>
									<polyline fill="none" stroke="#404040" stroke-width="6" stroke-dasharray="none" points="852,4477 852,5438"/>
									<polygon fill="#404040" stroke="none" points="852,5452 865,5427 838,5427"/>
									<g>
										<polyline fill="none" stroke="#404040" stroke-width="6" stroke-dasharray="none" points="1127,4327 1502,4327 1502,4513"/>
										<polygon fill="#404040" stroke="none" points="1502,4527 1515,4502 1488,4502"/>
										<polyline fill="none" stroke="#404040" stroke-width="6" stroke-dasharray="none" points="1502,5277 1502,5352 902,5352 902,4490"/>
										<polygon fill="#404040" stroke="none" points="902,4477 888,4501 915,4501"/>
										<g>
											<polyline fill="none" stroke="#404040" stroke-width="6" stroke-dasharray="none" points="1502,5102 1502,5163"/>
											<polygon fill="#404040" stroke="none" points="1502,5177 1515,5152 1488,5152"/>
											<g>
												<polyline fill="none" stroke="#404040" stroke-width="6" stroke-dasharray="none" points="1777,4677 2052,4677 2052,4863"/>
												<polygon fill="#404040" stroke="none" points="2052,4877 2065,4852 2038,4852"/>
												<polyline fill="none" stroke="#404040" stroke-width="6" stroke-dasharray="none" points="2052,4977 2052,5077 1540,5077"/>
												<polygon fill="#404040" stroke="none" points="1527,5077 1551,5090 1551,5063"/>
												<polyline fill="none" stroke="#404040" stroke-width="6" stroke-dasharray="none" points="1227,4677 1027,4677 1027,5077 1463,5077"/>
												<polygon fill="#404040" stroke="none" points="1477,5077 1452,5063 1452,5090"/>
												<g>
													<path fill="#FFD0D0" stroke="#A07070" stroke-width="3" stroke-dasharray="none" d="M 1502,4527 L 1202,4677 L 1502,4827 L 1802,4677 Z"/>
													<text x="1502" y="4642" fill="#000000" font-family="Arial" font-size="32pt" text-anchor="middle" direction="ltr">
														<tspan x="1502" dy="50" unicode-bidi="embed">array[contador]%k==0</tspan>
													</text>
												</g>
												<g>
													<path fill="#FFFFD0" stroke="#A0A070" stroke-width="3" stroke-dasharray="none" d="M 1902,4877 L 1902,4977 L 2202,4977 L 2202,4877 Z"/>
													<text x="2052" y="4892" fill="#000000" font-family="Arial" font-size="32pt" text-anchor="middle" direction="ltr">
														<tspan x="2052" dy="50" unicode-bidi="embed">j = j+1</tspan>
													</text>
												</g>
												<g>
												</g>
												<ellipse cx="1502" cy="5077" rx="25" ry="25" fill="#FFD0D0" stroke="#A07070" stroke-width="3"/>
												<text x="1927" y="4592" fill="#000000" font-family="Arial" font-size="32pt" text-anchor="middle" direction="ltr">
													<tspan x="1927" dy="50" unicode-bidi="embed">Verdadero</tspan>
												</text>
												<text x="1114" y="4592" fill="#000000" font-family="Arial" font-size="32pt" text-anchor="middle" direction="ltr">
													<tspan x="1114" dy="50" unicode-bidi="embed">Falso</tspan>
												</text>
											</g>
											<g>
												<path fill="#FFFFD0" stroke="#A0A070" stroke-width="3" stroke-dasharray="none" d="M 1352,5177 L 1352,5277 L 1652,5277 L 1652,5177 Z"/>
												<text x="1502" y="5192" fill="#000000" font-family="Arial" font-size="32pt" text-anchor="middle" direction="ltr">
													<tspan x="1502" dy="50" unicode-bidi="embed">k = k+1</tspan>
												</text>
											</g>
										</g>
										<g>
											<path fill="#FFE0A0" stroke="#A08040" stroke-width="3" stroke-dasharray="none" d="M 852,4177 L 577,4327 L 852,4477 L 1127,4327 Z"/>
											<text x="852" y="4292" fill="#000000" font-family="Arial" font-size="32pt" text-anchor="middle" direction="ltr">
												<tspan x="852" dy="50" unicode-bidi="embed">k&lt;=array[contador]</tspan>
											</text>
										</g>
										<text x="1252" y="4242" fill="#000000" font-family="Arial" font-size="32pt" text-anchor="middle" direction="ltr">
											<tspan x="1252" dy="50" unicode-bidi="embed">Verdadero</tspan>
										</text>
										<text x="764" y="4492" fill="#000000" font-family="Arial" font-size="32pt" text-anchor="middle" direction="ltr">
											<tspan x="764" dy="50" unicode-bidi="embed">Falso</tspan>
										</text>
									</g>
									<g>
										<polyline fill="none" stroke="#404040" stroke-width="6" stroke-dasharray="none" points="977,5527 1252,5527 1252,5638"/>
										<polygon fill="#404040" stroke="none" points="1252,5652 1265,5627 1238,5627"/>
										<polyline fill="none" stroke="#404040" stroke-width="6" stroke-dasharray="none" points="1252,5927 1252,6027 890,6027"/>
										<polygon fill="#404040" stroke="none" points="877,6027 901,6040 901,6013"/>
										<polyline fill="none" stroke="#404040" stroke-width="6" stroke-dasharray="none" points="727,5527 527,5527 527,6027 813,6027"/>
										<polygon fill="#404040" stroke="none" points="827,6027 802,6013 802,6040"/>
										<g>
											<path fill="#FFD0D0" stroke="#A07070" stroke-width="3" stroke-dasharray="none" d="M 852,5452 L 702,5527 L 852,5602 L 1002,5527 Z"/>
											<text x="852" y="5492" fill="#000000" font-family="Arial" font-size="32pt" text-anchor="middle" direction="ltr">
												<tspan x="852" dy="50" unicode-bidi="embed">j&lt;=2</tspan>
											</text>
										</g>
										<g>
											<polyline fill="none" stroke="#404040" stroke-width="6" stroke-dasharray="none" points="1252,5752 1252,5813"/>
											<polygon fill="#404040" stroke="none" points="1252,5827 1265,5802 1238,5802"/>
											<g>
												<path fill="#FFFFD0" stroke="#A0A070" stroke-width="3" stroke-dasharray="none" d="M 1002,5652 L 1002,5752 L 1502,5752 L 1502,5652 Z"/>
												<text x="1252" y="5667" fill="#000000" font-family="Arial" font-size="32pt" text-anchor="middle" direction="ltr">
													<tspan x="1252" dy="50" unicode-bidi="embed">aux[i] = array[contador]</tspan>
												</text>
											</g>
											<g>
												<path fill="#FFFFD0" stroke="#A0A070" stroke-width="3" stroke-dasharray="none" d="M 1102,5827 L 1102,5927 L 1402,5927 L 1402,5827 Z"/>
												<text x="1252" y="5842" fill="#000000" font-family="Arial" font-size="32pt" text-anchor="middle" direction="ltr">
													<tspan x="1252" dy="50" unicode-bidi="embed">i = i+1</tspan>
												</text>
											</g>
										</g>
										<g>
										</g>
										<ellipse cx="852" cy="6027" rx="25" ry="25" fill="#FFD0D0" stroke="#A07070" stroke-width="3"/>
										<text x="1127" y="5442" fill="#000000" font-family="Arial" font-size="32pt" text-anchor="middle" direction="ltr">
											<tspan x="1127" dy="50" unicode-bidi="embed">Verdadero</tspan>
										</text>
										<text x="614" y="5442" fill="#000000" font-family="Arial" font-size="32pt" text-anchor="middle" direction="ltr">
											<tspan x="614" dy="50" unicode-bidi="embed">Falso</tspan>
										</text>
									</g>
								</g>
								<ellipse cx="2252" cy="6152" rx="25" ry="25" fill="#FFD0D0" stroke="#A07070" stroke-width="3"/>
								<text x="2677" y="3892" fill="#000000" font-family="Arial" font-size="32pt" text-anchor="middle" direction="ltr">
									<tspan x="2677" dy="50" unicode-bidi="embed">Verdadero</tspan>
								</text>
								<text x="1864" y="3892" fill="#000000" font-family="Arial" font-size="32pt" text-anchor="middle" direction="ltr">
									<tspan x="1864" dy="50" unicode-bidi="embed">Falso</tspan>
								</text>
							</g>
						</g>
						<ellipse cx="2877" cy="6277" rx="25" ry="25" fill="#FFD0D0" stroke="#A07070" stroke-width="3"/>
						<text x="3377" y="3142" fill="#000000" font-family="Arial" font-size="32pt" text-anchor="middle" direction="ltr">
							<tspan x="3377" dy="50" unicode-bidi="embed">Verdadero</tspan>
						</text>
						<text x="2414" y="3142" fill="#000000" font-family="Arial" font-size="32pt" text-anchor="middle" direction="ltr">
							<tspan x="2414" dy="50" unicode-bidi="embed">Falso</tspan>
						</text>
					</g>
					<ellipse cx="3802" cy="6402" rx="25" ry="25" fill="#FFD0D0" stroke="#A07070" stroke-width="3"/>
					<text x="4177" y="2767" fill="#000000" font-family="Arial" font-size="32pt" text-anchor="middle" direction="ltr">
						<tspan x="4177" dy="50" unicode-bidi="embed">Verdadero</tspan>
					</text>
					<text x="3464" y="2767" fill="#000000" font-family="Arial" font-size="32pt" text-anchor="middle" direction="ltr">
						<tspan x="3464" dy="50" unicode-bidi="embed">Falso</tspan>
					</text>
				</g>
				<g>
					<path fill="#FFE0A0" stroke="#A08040" stroke-width="3" stroke-dasharray="none" d="M 52,2577 L 2,2627 L 52,2677 L 502,2677 L 552,2627 L 502,2577 Z"/>
					<text x="277" y="2592" fill="#000000" font-family="Arial" font-size="32pt" text-anchor="middle" direction="ltr">
						<tspan x="277" dy="50" unicode-bidi="embed">contador = 0 hasta 3</tspan>
					</text>
				</g>
				<text x="677" y="2542" fill="#000000" font-family="Arial" font-size="32pt" text-anchor="middle" direction="ltr">
					<tspan x="677" dy="50" unicode-bidi="embed">Siguiente</tspan>
				</text>
				<text x="189" y="2692" fill="#000000" font-family="Arial" font-size="32pt" text-anchor="middle" direction="ltr">
					<tspan x="189" dy="50" unicode-bidi="embed">Hecho</tspan>
				</text>
			</g>
			<g>
				<polyline fill="none" stroke="#404040" stroke-width="6" stroke-dasharray="none" points="552,6677 4052,6677 4052,6763"/>
				<polygon fill="#404040" stroke="none" points="4052,6777 4065,6752 4038,6752"/>
				<polyline fill="none" stroke="#404040" stroke-width="6" stroke-dasharray="none" points="4052,10477 4052,10552 327,10552 327,6740"/>
				<polygon fill="#404040" stroke="none" points="327,6727 313,6751 340,6751"/>
				<g>
					<polyline fill="none" stroke="#404040" stroke-width="6" stroke-dasharray="none" points="4277,6902 4552,6902 4552,7063"/>
					<polygon fill="#404040" stroke="none" points="4552,7077 4565,7052 4538,7052"/>
					<polyline fill="none" stroke="#404040" stroke-width="6" stroke-dasharray="none" points="4552,7352 4552,10452 4090,10452"/>
					<polygon fill="#404040" stroke="none" points="4077,10452 4101,10465 4101,10438"/>
					<polyline fill="none" stroke="#404040" stroke-width="6" stroke-dasharray="none" points="3827,6902 3352,6902 3352,7063"/>
					<polygon fill="#404040" stroke="none" points="3352,7077 3365,7052 3338,7052"/>
					<polyline fill="none" stroke="#404040" stroke-width="6" stroke-dasharray="none" points="3352,10352 3352,10452 4013,10452"/>
					<polygon fill="#404040" stroke="none" points="4027,10452 4002,10438 4002,10465"/>
					<g>
						<path fill="#FFD0D0" stroke="#A07070" stroke-width="3" stroke-dasharray="none" d="M 4052,6777 L 3802,6902 L 4052,7027 L 4302,6902 Z"/>
						<text x="4052" y="6867" fill="#000000" font-family="Arial" font-size="32pt" text-anchor="middle" direction="ltr">
							<tspan x="4052" dy="50" unicode-bidi="embed">array[contador]&lt;2</tspan>
						</text>
					</g>
					<g>
						<polyline fill="none" stroke="#404040" stroke-width="6" stroke-dasharray="none" points="4552,7177 4552,7238"/>
						<polygon fill="#404040" stroke="none" points="4552,7252 4565,7227 4538,7227"/>
						<g>
							<path fill="#FFFFD0" stroke="#A0A070" stroke-width="3" stroke-dasharray="none" d="M 4302,7077 L 4302,7177 L 4802,7177 L 4802,7077 Z"/>
							<text x="4552" y="7092" fill="#000000" font-family="Arial" font-size="32pt" text-anchor="middle" direction="ltr">
								<tspan x="4552" dy="50" unicode-bidi="embed">aux[i] = array[contador]</tspan>
							</text>
						</g>
						<g>
							<path fill="#FFFFD0" stroke="#A0A070" stroke-width="3" stroke-dasharray="none" d="M 4402,7252 L 4402,7352 L 4702,7352 L 4702,7252 Z"/>
							<text x="4552" y="7267" fill="#000000" font-family="Arial" font-size="32pt" text-anchor="middle" direction="ltr">
								<tspan x="4552" dy="50" unicode-bidi="embed">i = i+1</tspan>
							</text>
						</g>
					</g>
					<g>
						<polyline fill="none" stroke="#404040" stroke-width="6" stroke-dasharray="none" points="3702,7277 3977,7277 3977,10327 3390,10327"/>
						<polygon fill="#404040" stroke="none" points="3377,10327 3401,10340 3401,10313"/>
						<polyline fill="none" stroke="#404040" stroke-width="6" stroke-dasharray="none" points="3002,7277 2502,7277 2502,7513"/>
						<polygon fill="#404040" stroke="none" points="2502,7527 2515,7502 2488,7502"/>
						<polyline fill="none" stroke="#404040" stroke-width="6" stroke-dasharray="none" points="2502,10227 2502,10327 3313,10327"/>
						<polygon fill="#404040" stroke="none" points="3327,10327 3302,10313 3302,10340"/>
						<g>
							<path fill="#FFD0D0" stroke="#A07070" stroke-width="3" stroke-dasharray="none" d="M 3352,7077 L 2977,7277 L 3352,7477 L 3727,7277 Z"/>
							<text x="3352" y="7217" fill="#000000" font-family="Arial" font-size="32pt" text-anchor="middle" direction="ltr">
								<tspan x="3352" dy="50" unicode-bidi="embed">array[contador]==2||array</tspan>
								<tspan x="3352" dy="50" unicode-bidi="embed">[contador]==3</tspan>
							</text>
						</g>
						<g>
						</g>
						<g>
							<polyline fill="none" stroke="#404040" stroke-width="6" stroke-dasharray="none" points="2502,7627 2502,7688"/>
							<polygon fill="#404040" stroke="none" points="2502,7702 2515,7677 2488,7677"/>
							<polyline fill="none" stroke="#404040" stroke-width="6" stroke-dasharray="none" points="2502,7802 2502,7863"/>
							<polygon fill="#404040" stroke="none" points="2502,7877 2515,7852 2488,7852"/>
							<g>
								<path fill="#FFFFD0" stroke="#A0A070" stroke-width="3" stroke-dasharray="none" d="M 2352,7527 L 2352,7627 L 2652,7627 L 2652,7527 Z"/>
								<text x="2502" y="7542" fill="#000000" font-family="Arial" font-size="32pt" text-anchor="middle" direction="ltr">
									<tspan x="2502" dy="50" unicode-bidi="embed">k = 1</tspan>
								</text>
							</g>
							<g>
								<path fill="#FFFFD0" stroke="#A0A070" stroke-width="3" stroke-dasharray="none" d="M 2352,7702 L 2352,7802 L 2652,7802 L 2652,7702 Z"/>
								<text x="2502" y="7717" fill="#000000" font-family="Arial" font-size="32pt" text-anchor="middle" direction="ltr">
									<tspan x="2502" dy="50" unicode-bidi="embed">j = 0</tspan>
								</text>
							</g>
							<g>
								<polyline fill="none" stroke="#404040" stroke-width="6" stroke-dasharray="none" points="2777,8027 3052,8027 3052,8213"/>
								<polygon fill="#404040" stroke="none" points="3052,8227 3065,8202 3038,8202"/>
								<polyline fill="none" stroke="#404040" stroke-width="6" stroke-dasharray="none" points="3052,8502 3052,10202 2540,10202"/>
								<polygon fill="#404040" stroke="none" points="2527,10202 2551,10215 2551,10188"/>
								<polyline fill="none" stroke="#404040" stroke-width="6" stroke-dasharray="none" points="2227,8027 1102,8027 1102,8213"/>
								<polygon fill="#404040" stroke="none" points="1102,8227 1115,8202 1088,8202"/>
								<polyline fill="none" stroke="#404040" stroke-width="6" stroke-dasharray="none" points="1102,10102 1102,10202 2463,10202"/>
								<polygon fill="#404040" stroke="none" points="2477,10202 2452,10188 2452,10215"/>
								<g>
									<path fill="#FFD0D0" stroke="#A07070" stroke-width="3" stroke-dasharray="none" d="M 2502,7877 L 2202,8027 L 2502,8177 L 2802,8027 Z"/>
									<text x="2502" y="7992" fill="#000000" font-family="Arial" font-size="32pt" text-anchor="middle" direction="ltr">
										<tspan x="2502" dy="50" unicode-bidi="embed">array[contador]%2==0</tspan>
									</text>
								</g>
								<g>
									<polyline fill="none" stroke="#404040" stroke-width="6" stroke-dasharray="none" points="3052,8327 3052,8388"/>
									<polygon fill="#404040" stroke="none" points="3052,8402 3065,8377 3038,8377"/>
									<g>
										<path fill="#FFFFD0" stroke="#A0A070" stroke-width="3" stroke-dasharray="none" d="M 2802,8227 L 2802,8327 L 3302,8327 L 3302,8227 Z"/>
										<text x="3052" y="8242" fill="#000000" font-family="Arial" font-size="32pt" text-anchor="middle" direction="ltr">
											<tspan x="3052" dy="50" unicode-bidi="embed">aux[i] = array[contador]</tspan>
										</text>
									</g>
									<g>
										<path fill="#FFFFD0" stroke="#A0A070" stroke-width="3" stroke-dasharray="none" d="M 2902,8402 L 2902,8502 L 3202,8502 L 3202,8402 Z"/>
										<text x="3052" y="8417" fill="#000000" font-family="Arial" font-size="32pt" text-anchor="middle" direction="ltr">
											<tspan x="3052" dy="50" unicode-bidi="embed">i = i+1</tspan>
										</text>
									</g>
								</g>
								<g>
									<polyline fill="none" stroke="#404040" stroke-width="6" stroke-dasharray="none" points="1102,8527 1102,9488"/>
									<polygon fill="#404040" stroke="none" points="1102,9502 1115,9477 1088,9477"/>
									<g>
										<polyline fill="none" stroke="#404040" stroke-width="6" stroke-dasharray="none" points="1377,8377 1752,8377 1752,8563"/>
										<polygon fill="#404040" stroke="none" points="1752,8577 1765,8552 1738,8552"/>
										<polyline fill="none" stroke="#404040" stroke-width="6" stroke-dasharray="none" points="1752,9327 1752,9402 1152,9402 1152,8540"/>
										<polygon fill="#404040" stroke="none" points="1152,8527 1138,8551 1165,8551"/>
										<g>
											<polyline fill="none" stroke="#404040" stroke-width="6" stroke-dasharray="none" points="1752,9152 1752,9213"/>
											<polygon fill="#404040" stroke="none" points="1752,9227 1765,9202 1738,9202"/>
											<g>
												<polyline fill="none" stroke="#404040" stroke-width="6" stroke-dasharray="none" points="2027,8727 2302,8727 2302,8913"/>
												<polygon fill="#404040" stroke="none" points="2302,8927 2315,8902 2288,8902"/>
												<polyline fill="none" stroke="#404040" stroke-width="6" stroke-dasharray="none" points="2302,9027 2302,9127 1790,9127"/>
												<polygon fill="#404040" stroke="none" points="1777,9127 1801,9140 1801,9113"/>
												<polyline fill="none" stroke="#404040" stroke-width="6" stroke-dasharray="none" points="1477,8727 1277,8727 1277,9127 1713,9127"/>
												<polygon fill="#404040" stroke="none" points="1727,9127 1702,9113 1702,9140"/>
												<g>
													<path fill="#FFD0D0" stroke="#A07070" stroke-width="3" stroke-dasharray="none" d="M 1752,8577 L 1452,8727 L 1752,8877 L 2052,8727 Z"/>
													<text x="1752" y="8692" fill="#000000" font-family="Arial" font-size="32pt" text-anchor="middle" direction="ltr">
														<tspan x="1752" dy="50" unicode-bidi="embed">array[contador]%k==0</tspan>
													</text>
												</g>
												<g>
													<path fill="#FFFFD0" stroke="#A0A070" stroke-width="3" stroke-dasharray="none" d="M 2152,8927 L 2152,9027 L 2452,9027 L 2452,8927 Z"/>
													<text x="2302" y="8942" fill="#000000" font-family="Arial" font-size="32pt" text-anchor="middle" direction="ltr">
														<tspan x="2302" dy="50" unicode-bidi="embed">j = j+1</tspan>
													</text>
												</g>
												<g>
												</g>
												<ellipse cx="1752" cy="9127" rx="25" ry="25" fill="#FFD0D0" stroke="#A07070" stroke-width="3"/>
												<text x="2177" y="8642" fill="#000000" font-family="Arial" font-size="32pt" text-anchor="middle" direction="ltr">
													<tspan x="2177" dy="50" unicode-bidi="embed">Verdadero</tspan>
												</text>
												<text x="1364" y="8642" fill="#000000" font-family="Arial" font-size="32pt" text-anchor="middle" direction="ltr">
													<tspan x="1364" dy="50" unicode-bidi="embed">Falso</tspan>
												</text>
											</g>
											<g>
												<path fill="#FFFFD0" stroke="#A0A070" stroke-width="3" stroke-dasharray="none" d="M 1602,9227 L 1602,9327 L 1902,9327 L 1902,9227 Z"/>
												<text x="1752" y="9242" fill="#000000" font-family="Arial" font-size="32pt" text-anchor="middle" direction="ltr">
													<tspan x="1752" dy="50" unicode-bidi="embed">k = k+1</tspan>
												</text>
											</g>
										</g>
										<g>
											<path fill="#FFE0A0" stroke="#A08040" stroke-width="3" stroke-dasharray="none" d="M 1102,8227 L 827,8377 L 1102,8527 L 1377,8377 Z"/>
											<text x="1102" y="8342" fill="#000000" font-family="Arial" font-size="32pt" text-anchor="middle" direction="ltr">
												<tspan x="1102" dy="50" unicode-bidi="embed">k&lt;=array[contador]</tspan>
											</text>
										</g>
										<text x="1502" y="8292" fill="#000000" font-family="Arial" font-size="32pt" text-anchor="middle" direction="ltr">
											<tspan x="1502" dy="50" unicode-bidi="embed">Verdadero</tspan>
										</text>
										<text x="1014" y="8542" fill="#000000" font-family="Arial" font-size="32pt" text-anchor="middle" direction="ltr">
											<tspan x="1014" dy="50" unicode-bidi="embed">Falso</tspan>
										</text>
									</g>
									<g>
										<polyline fill="none" stroke="#404040" stroke-width="6" stroke-dasharray="none" points="1227,9577 1502,9577 1502,10077 1140,10077"/>
										<polygon fill="#404040" stroke="none" points="1127,10077 1151,10090 1151,10063"/>
										<polyline fill="none" stroke="#404040" stroke-width="6" stroke-dasharray="none" points="977,9577 777,9577 777,9688"/>
										<polygon fill="#404040" stroke="none" points="777,9702 790,9677 763,9677"/>
										<polyline fill="none" stroke="#404040" stroke-width="6" stroke-dasharray="none" points="777,9977 777,10077 1063,10077"/>
										<polygon fill="#404040" stroke="none" points="1077,10077 1052,10063 1052,10090"/>
										<g>
											<path fill="#FFD0D0" stroke="#A07070" stroke-width="3" stroke-dasharray="none" d="M 1102,9502 L 952,9577 L 1102,9652 L 1252,9577 Z"/>
											<text x="1102" y="9542" fill="#000000" font-family="Arial" font-size="32pt" text-anchor="middle" direction="ltr">
												<tspan x="1102" dy="50" unicode-bidi="embed">j&lt;=2</tspan>
											</text>
										</g>
										<g>
										</g>
										<g>
											<polyline fill="none" stroke="#404040" stroke-width="6" stroke-dasharray="none" points="777,9802 777,9863"/>
											<polygon fill="#404040" stroke="none" points="777,9877 790,9852 763,9852"/>
											<g>
												<path fill="#FFFFD0" stroke="#A0A070" stroke-width="3" stroke-dasharray="none" d="M 527,9702 L 527,9802 L 1027,9802 L 1027,9702 Z"/>
												<text x="777" y="9717" fill="#000000" font-family="Arial" font-size="32pt" text-anchor="middle" direction="ltr">
													<tspan x="777" dy="50" unicode-bidi="embed">aux[i] = array[contador]</tspan>
												</text>
											</g>
											<g>
												<path fill="#FFFFD0" stroke="#A0A070" stroke-width="3" stroke-dasharray="none" d="M 627,9877 L 627,9977 L 927,9977 L 927,9877 Z"/>
												<text x="777" y="9892" fill="#000000" font-family="Arial" font-size="32pt" text-anchor="middle" direction="ltr">
													<tspan x="777" dy="50" unicode-bidi="embed">i = i+1</tspan>
												</text>
											</g>
										</g>
										<ellipse cx="1102" cy="10077" rx="25" ry="25" fill="#FFD0D0" stroke="#A07070" stroke-width="3"/>
										<text x="1377" y="9492" fill="#000000" font-family="Arial" font-size="32pt" text-anchor="middle" direction="ltr">
											<tspan x="1377" dy="50" unicode-bidi="embed">Verdadero</tspan>
										</text>
										<text x="864" y="9492" fill="#000000" font-family="Arial" font-size="32pt" text-anchor="middle" direction="ltr">
											<tspan x="864" dy="50" unicode-bidi="embed">Falso</tspan>
										</text>
									</g>
								</g>
								<ellipse cx="2502" cy="10202" rx="25" ry="25" fill="#FFD0D0" stroke="#A07070" stroke-width="3"/>
								<text x="2927" y="7942" fill="#000000" font-family="Arial" font-size="32pt" text-anchor="middle" direction="ltr">
									<tspan x="2927" dy="50" unicode-bidi="embed">Verdadero</tspan>
								</text>
								<text x="2114" y="7942" fill="#000000" font-family="Arial" font-size="32pt" text-anchor="middle" direction="ltr">
									<tspan x="2114" dy="50" unicode-bidi="embed">Falso</tspan>
								</text>
							</g>
						</g>
						<ellipse cx="3352" cy="10327" rx="25" ry="25" fill="#FFD0D0" stroke="#A07070" stroke-width="3"/>
						<text x="3852" y="7192" fill="#000000" font-family="Arial" font-size="32pt" text-anchor="middle" direction="ltr">
							<tspan x="3852" dy="50" unicode-bidi="embed">Verdadero</tspan>
						</text>
						<text x="2889" y="7192" fill="#000000" font-family="Arial" font-size="32pt" text-anchor="middle" direction="ltr">
							<tspan x="2889" dy="50" unicode-bidi="embed">Falso</tspan>
						</text>
					</g>
					<ellipse cx="4052" cy="10452" rx="25" ry="25" fill="#FFD0D0" stroke="#A07070" stroke-width="3"/>
					<text x="4427" y="6817" fill="#000000" font-family="Arial" font-size="32pt" text-anchor="middle" direction="ltr">
						<tspan x="4427" dy="50" unicode-bidi="embed">Verdadero</tspan>
					</text>
					<text x="3714" y="6817" fill="#000000" font-family="Arial" font-size="32pt" text-anchor="middle" direction="ltr">
						<tspan x="3714" dy="50" unicode-bidi="embed">Falso</tspan>
					</text>
				</g>
				<g>
					<path fill="#FFE0A0" stroke="#A08040" stroke-width="3" stroke-dasharray="none" d="M 52,6627 L 2,6677 L 52,6727 L 502,6727 L 552,6677 L 502,6627 Z"/>
					<text x="277" y="6642" fill="#000000" font-family="Arial" font-size="32pt" text-anchor="middle" direction="ltr">
						<tspan x="277" dy="50" unicode-bidi="embed">contador = 0 hasta 3</tspan>
					</text>
				</g>
				<text x="677" y="6592" fill="#000000" font-family="Arial" font-size="32pt" text-anchor="middle" direction="ltr">
					<tspan x="677" dy="50" unicode-bidi="embed">Siguiente</tspan>
				</text>
				<text x="189" y="6742" fill="#000000" font-family="Arial" font-size="32pt" text-anchor="middle" direction="ltr">
					<tspan x="189" dy="50" unicode-bidi="embed">Hecho</tspan>
				</text>
			</g>
		</g>
	</g>
</svg>
