<?xml version="1.0" encoding="UTF-8" standalone="no"?>
<!-- Created by Flowgorithm 3.4.1 (http://flowgorithm.org) -->

<svg xmlns:svg="http://www.w3.org/2000/svg" xmlns="http://www.w3.org/2000/svg" version="1.1" width="704" height="1629">
	<g>
		<polyline fill="none" stroke="#404040" stroke-width="6" stroke-dasharray="none" points="352,102 352,163"/>
		<polygon fill="#404040" stroke="none" points="352,177 365,152 338,152"/>
		<polyline fill="none" stroke="#404040" stroke-width="6" stroke-dasharray="none" points="352,1452 352,1513"/>
		<polygon fill="#404040" stroke="none" points="352,1527 365,1502 338,1502"/>
		<g>
			<path fill="#F0D0FF" stroke="#9070A0" stroke-width="3" stroke-dasharray="none" d="M 252,2 A 50 50, 0, 0 0, 252 102 L 452,102 A 50 50, 0, 0 0, 452 2 Z"/>
			<text x="352" y="17" fill="#000000" font-family="Arial" font-size="32pt" text-anchor="middle" direction="ltr">
				<tspan x="352" dy="50" unicode-bidi="embed">Principal</tspan>
			</text>
		</g>
		<g>
			<path fill="#F0D0FF" stroke="#9070A0" stroke-width="3" stroke-dasharray="none" d="M 252,1527 A 50 50, 0, 0 0, 252 1627 L 452,1627 A 50 50, 0, 0 0, 452 1527 Z"/>
			<text x="352" y="1542" fill="#000000" font-family="Arial" font-size="32pt" text-anchor="middle" direction="ltr">
				<tspan x="352" dy="50" unicode-bidi="embed">Fin</tspan>
			</text>
		</g>
		<g>
			<polyline fill="none" stroke="#404040" stroke-width="6" stroke-dasharray="none" points="352,302 352,363"/>
			<polygon fill="#404040" stroke="none" points="352,377 365,352 338,352"/>
			<polyline fill="none" stroke="#404040" stroke-width="6" stroke-dasharray="none" points="352,502 352,563"/>
			<polygon fill="#404040" stroke="none" points="352,577 365,552 338,552"/>
			<polyline fill="none" stroke="#404040" stroke-width="6" stroke-dasharray="none" points="352,677 352,738"/>
			<polygon fill="#404040" stroke="none" points="352,752 365,727 338,727"/>
			<polyline fill="none" stroke="#404040" stroke-width="6" stroke-dasharray="none" points="352,852 352,913"/>
			<polygon fill="#404040" stroke="none" points="352,927 365,902 338,902"/>
			<polyline fill="none" stroke="#404040" stroke-width="6" stroke-dasharray="none" points="352,1052 352,1113"/>
			<polygon fill="#404040" stroke="none" points="352,1127 365,1102 338,1102"/>
			<polyline fill="none" stroke="#404040" stroke-width="6" stroke-dasharray="none" points="352,1277 352,1338"/>
			<polygon fill="#404040" stroke="none" points="352,1352 365,1327 338,1327"/>
			<g>
				<path fill="#FFFFD0" stroke="#A0A070" stroke-width="3" stroke-dasharray="none" d="M 202,177 L 202,302 L 502,302 L 502,177 Z"/>
				<polyline fill="none" stroke="#A0A070" stroke-width="3" stroke-dasharray="none" points="202,202 502,202"/>
				<polyline fill="none" stroke="#A0A070" stroke-width="3" stroke-dasharray="none" points="227,177 227,302"/>
				<text x="364" y="217" fill="#000000" font-family="Arial" font-size="32pt" text-anchor="middle" direction="ltr">
					<tspan x="364" dy="50" unicode-bidi="embed">Real radio</tspan>
				</text>
			</g>
			<g>
				<path fill="#FFFFD0" stroke="#A0A070" stroke-width="3" stroke-dasharray="none" d="M 202,377 L 202,502 L 502,502 L 502,377 Z"/>
				<polyline fill="none" stroke="#A0A070" stroke-width="3" stroke-dasharray="none" points="202,402 502,402"/>
				<polyline fill="none" stroke="#A0A070" stroke-width="3" stroke-dasharray="none" points="227,377 227,502"/>
				<text x="364" y="417" fill="#000000" font-family="Arial" font-size="32pt" text-anchor="middle" direction="ltr">
					<tspan x="364" dy="50" unicode-bidi="embed">Real altura</tspan>
				</text>
			</g>
			<g>
				<path fill="#C0E0FF" stroke="#6080A0" stroke-width="3" stroke-dasharray="none" d="M 177,577 L 127,677 L 527,677 L 577,577 Z"/>
				<text x="352" y="592" fill="#000000" font-family="Arial" font-size="32pt" text-anchor="middle" direction="ltr">
					<tspan x="352" dy="50" unicode-bidi="embed">Entrada radio</tspan>
				</text>
			</g>
			<g>
				<path fill="#C0E0FF" stroke="#6080A0" stroke-width="3" stroke-dasharray="none" d="M 177,752 L 127,852 L 527,852 L 577,752 Z"/>
				<text x="352" y="767" fill="#000000" font-family="Arial" font-size="32pt" text-anchor="middle" direction="ltr">
					<tspan x="352" dy="50" unicode-bidi="embed">Entrada altura</tspan>
				</text>
			</g>
			<g>
				<path fill="#FFFFD0" stroke="#A0A070" stroke-width="3" stroke-dasharray="none" d="M 152,927 L 152,1052 L 552,1052 L 552,927 Z"/>
				<polyline fill="none" stroke="#A0A070" stroke-width="3" stroke-dasharray="none" points="152,952 552,952"/>
				<polyline fill="none" stroke="#A0A070" stroke-width="3" stroke-dasharray="none" points="177,927 177,1052"/>
				<text x="364" y="967" fill="#000000" font-family="Arial" font-size="32pt" text-anchor="middle" direction="ltr">
					<tspan x="364" dy="50" unicode-bidi="embed">Real resultado</tspan>
				</text>
			</g>
			<g>
				<path fill="#FFFFD0" stroke="#A0A070" stroke-width="3" stroke-dasharray="none" d="M 102,1127 L 102,1277 L 602,1277 L 602,1127 Z"/>
				<text x="352" y="1142" fill="#000000" font-family="Arial" font-size="32pt" text-anchor="middle" direction="ltr">
					<tspan x="352" dy="50" unicode-bidi="embed">resultado = (pi*radio^2*</tspan>
					<tspan x="352" dy="50" unicode-bidi="embed">altura)/3</tspan>
				</text>
			</g>
			<g>
				<path fill="#D0FFD0" stroke="#70A070" stroke-width="3" stroke-dasharray="none" d="M 52,1352 L 2,1452 L 652,1452 L 702,1352 Z"/>
				<text x="352" y="1367" fill="#000000" font-family="Arial" font-size="32pt" text-anchor="middle" direction="ltr">
					<tspan x="352" dy="50" unicode-bidi="embed">Salida tofixed(resultado,2)</tspan>
				</text>
			</g>
		</g>
	</g>
</svg>
