<?xml version="1.0" encoding="UTF-8" standalone="no"?>
<!-- Created by Flowgorithm 3.5.1 (http://flowgorithm.org) -->

<svg xmlns:svg="http://www.w3.org/2000/svg" xmlns="http://www.w3.org/2000/svg" version="1.1" width="2054" height="3154">
	<g>
		<polyline fill="none" stroke="#404040" stroke-width="6" stroke-dasharray="none" points="277,102 277,163"/>
		<polygon fill="#404040" stroke="none" points="277,177 290,152 263,152"/>
		<polyline fill="none" stroke="#404040" stroke-width="6" stroke-dasharray="none" points="277,2152 277,3038"/>
		<polygon fill="#404040" stroke="none" points="277,3052 290,3027 263,3027"/>
		<g>
			<path fill="#F0E0FF" stroke="#9070A0" stroke-width="3" stroke-dasharray="none" d="M 177,2 A 50 50, 0, 0 0, 177 102 L 377,102 A 50 50, 0, 0 0, 377 2 Z"/>
			<text x="277" y="17" fill="#000000" font-family="Arial" font-size="32pt" text-anchor="middle" direction="ltr">
				<tspan x="277" dy="50" unicode-bidi="embed">Principal</tspan>
			</text>
		</g>
		<g>
			<path fill="#F0E0FF" stroke="#9070A0" stroke-width="3" stroke-dasharray="none" d="M 177,3052 A 50 50, 0, 0 0, 177 3152 L 377,3152 A 50 50, 0, 0 0, 377 3052 Z"/>
			<text x="277" y="3067" fill="#000000" font-family="Arial" font-size="32pt" text-anchor="middle" direction="ltr">
				<tspan x="277" dy="50" unicode-bidi="embed">Fin</tspan>
			</text>
		</g>
		<g>
			<polyline fill="none" stroke="#404040" stroke-width="6" stroke-dasharray="none" points="277,302 277,363"/>
			<polygon fill="#404040" stroke="none" points="277,377 290,352 263,352"/>
			<polyline fill="none" stroke="#404040" stroke-width="6" stroke-dasharray="none" points="277,502 277,588"/>
			<polygon fill="#404040" stroke="none" points="277,602 290,577 263,577"/>
			<polyline fill="none" stroke="#404040" stroke-width="6" stroke-dasharray="none" points="277,702 277,1063"/>
			<polygon fill="#404040" stroke="none" points="277,1077 290,1052 263,1052"/>
			<polyline fill="none" stroke="#404040" stroke-width="6" stroke-dasharray="none" points="277,1202 277,1263"/>
			<polygon fill="#404040" stroke="none" points="277,1277 290,1252 263,1252"/>
			<polyline fill="none" stroke="#404040" stroke-width="6" stroke-dasharray="none" points="277,1377 277,1438"/>
			<polygon fill="#404040" stroke="none" points="277,1452 290,1427 263,1427"/>
			<polyline fill="none" stroke="#404040" stroke-width="6" stroke-dasharray="none" points="277,1577 277,1638"/>
			<polygon fill="#404040" stroke="none" points="277,1652 290,1627 263,1627"/>
			<polyline fill="none" stroke="#404040" stroke-width="6" stroke-dasharray="none" points="277,1752 277,1813"/>
			<polygon fill="#404040" stroke="none" points="277,1827 290,1802 263,1802"/>
			<polyline fill="none" stroke="#404040" stroke-width="6" stroke-dasharray="none" points="277,1952 277,2038"/>
			<polygon fill="#404040" stroke="none" points="277,2052 290,2027 263,2027"/>
			<g>
				<path fill="#FFFFD0" stroke="#A0A070" stroke-width="3" stroke-dasharray="none" d="M 27,177 L 27,302 L 527,302 L 527,177 Z"/>
				<polyline fill="none" stroke="#A0A070" stroke-width="3" stroke-dasharray="none" points="27,202 527,202"/>
				<polyline fill="none" stroke="#A0A070" stroke-width="3" stroke-dasharray="none" points="52,177 52,302"/>
				<text x="289" y="217" fill="#000000" font-family="Arial" font-size="32pt" text-anchor="middle" direction="ltr">
					<tspan x="289" dy="50" unicode-bidi="embed">Entero Matriz num[7]</tspan>
				</text>
			</g>
			<g>
				<path fill="#FFFFD0" stroke="#A0A070" stroke-width="3" stroke-dasharray="none" d="M 77,377 L 77,502 L 477,502 L 477,377 Z"/>
				<polyline fill="none" stroke="#A0A070" stroke-width="3" stroke-dasharray="none" points="77,402 477,402"/>
				<polyline fill="none" stroke="#A0A070" stroke-width="3" stroke-dasharray="none" points="102,377 102,502"/>
				<text x="289" y="417" fill="#000000" font-family="Arial" font-size="32pt" text-anchor="middle" direction="ltr">
					<tspan x="289" dy="50" unicode-bidi="embed">Entero contador</tspan>
				</text>
			</g>
			<g>
				<polyline fill="none" stroke="#404040" stroke-width="6" stroke-dasharray="none" points="552,652 777,652 777,738"/>
				<polygon fill="#404040" stroke="none" points="777,752 790,727 763,727"/>
				<polyline fill="none" stroke="#404040" stroke-width="6" stroke-dasharray="none" points="777,902 777,977 327,977 327,715"/>
				<polygon fill="#404040" stroke="none" points="327,702 313,726 340,726"/>
				<g>
					<path fill="#FFFFD0" stroke="#A0A070" stroke-width="3" stroke-dasharray="none" d="M 502,752 L 502,902 L 1052,902 L 1052,752 Z"/>
					<text x="777" y="767" fill="#000000" font-family="Arial" font-size="32pt" text-anchor="middle" direction="ltr">
						<tspan x="777" dy="50" unicode-bidi="embed">num[contador] = random</tspan>
						<tspan x="777" dy="50" unicode-bidi="embed">(15)</tspan>
					</text>
				</g>
				<g>
					<path fill="#FFE0A0" stroke="#A08040" stroke-width="3" stroke-dasharray="none" d="M 52,602 L 2,652 L 52,702 L 502,702 L 552,652 L 502,602 Z"/>
					<text x="277" y="617" fill="#000000" font-family="Arial" font-size="32pt" text-anchor="middle" direction="ltr">
						<tspan x="277" dy="50" unicode-bidi="embed">contador = 0 hasta 6</tspan>
					</text>
				</g>
				<text x="677" y="567" fill="#000000" font-family="Arial" font-size="32pt" text-anchor="middle" direction="ltr">
					<tspan x="677" dy="50" unicode-bidi="embed">Siguiente</tspan>
				</text>
				<text x="189" y="717" fill="#000000" font-family="Arial" font-size="32pt" text-anchor="middle" direction="ltr">
					<tspan x="189" dy="50" unicode-bidi="embed">Hecho</tspan>
				</text>
			</g>
			<g>
				<path fill="#FFFFD0" stroke="#A0A070" stroke-width="3" stroke-dasharray="none" d="M 102,1077 L 102,1202 L 452,1202 L 452,1077 Z"/>
				<polyline fill="none" stroke="#A0A070" stroke-width="3" stroke-dasharray="none" points="102,1102 452,1102"/>
				<polyline fill="none" stroke="#A0A070" stroke-width="3" stroke-dasharray="none" points="127,1077 127,1202"/>
				<text x="289" y="1117" fill="#000000" font-family="Arial" font-size="32pt" text-anchor="middle" direction="ltr">
					<tspan x="289" dy="50" unicode-bidi="embed">Entero buscar</tspan>
				</text>
			</g>
			<g>
				<path fill="#B0E0FF" stroke="#5080A0" stroke-width="3" stroke-dasharray="none" d="M 102,1277 L 52,1377 L 452,1377 L 502,1277 Z"/>
				<text x="277" y="1292" fill="#000000" font-family="Arial" font-size="32pt" text-anchor="middle" direction="ltr">
					<tspan x="277" dy="50" unicode-bidi="embed">Entrada buscar</tspan>
				</text>
			</g>
			<g>
				<path fill="#FFFFD0" stroke="#A0A070" stroke-width="3" stroke-dasharray="none" d="M 52,1452 L 52,1577 L 502,1577 L 502,1452 Z"/>
				<polyline fill="none" stroke="#A0A070" stroke-width="3" stroke-dasharray="none" points="52,1477 502,1477"/>
				<polyline fill="none" stroke="#A0A070" stroke-width="3" stroke-dasharray="none" points="77,1452 77,1577"/>
				<text x="289" y="1492" fill="#000000" font-family="Arial" font-size="32pt" text-anchor="middle" direction="ltr">
					<tspan x="289" dy="50" unicode-bidi="embed">Entero reemplazar</tspan>
				</text>
			</g>
			<g>
				<path fill="#B0E0FF" stroke="#5080A0" stroke-width="3" stroke-dasharray="none" d="M 52,1652 L 2,1752 L 502,1752 L 552,1652 Z"/>
				<text x="277" y="1667" fill="#000000" font-family="Arial" font-size="32pt" text-anchor="middle" direction="ltr">
					<tspan x="277" dy="50" unicode-bidi="embed">Entrada reemplazar</tspan>
				</text>
			</g>
			<g>
				<path fill="#FFFFD0" stroke="#A0A070" stroke-width="3" stroke-dasharray="none" d="M 52,1827 L 52,1952 L 502,1952 L 502,1827 Z"/>
				<polyline fill="none" stroke="#A0A070" stroke-width="3" stroke-dasharray="none" points="52,1852 502,1852"/>
				<polyline fill="none" stroke="#A0A070" stroke-width="3" stroke-dasharray="none" points="77,1827 77,1952"/>
				<text x="289" y="1867" fill="#000000" font-family="Arial" font-size="32pt" text-anchor="middle" direction="ltr">
					<tspan x="289" dy="50" unicode-bidi="embed">Entero Matriz nm[7]</tspan>
				</text>
			</g>
			<g>
				<polyline fill="none" stroke="#404040" stroke-width="6" stroke-dasharray="none" points="552,2102 1177,2102 1177,2188"/>
				<polygon fill="#404040" stroke="none" points="1177,2202 1190,2177 1163,2177"/>
				<polyline fill="none" stroke="#404040" stroke-width="6" stroke-dasharray="none" points="1177,2877 1177,2952 327,2952 327,2165"/>
				<polygon fill="#404040" stroke="none" points="327,2152 313,2176 340,2176"/>
				<g>
					<polyline fill="none" stroke="#404040" stroke-width="6" stroke-dasharray="none" points="1477,2377 1752,2377 1752,2588"/>
					<polygon fill="#404040" stroke="none" points="1752,2602 1765,2577 1738,2577"/>
					<polyline fill="none" stroke="#404040" stroke-width="6" stroke-dasharray="none" points="1752,2702 1752,2852 1215,2852"/>
					<polygon fill="#404040" stroke="none" points="1202,2852 1226,2865 1226,2838"/>
					<polyline fill="none" stroke="#404040" stroke-width="6" stroke-dasharray="none" points="877,2377 677,2377 677,2588"/>
					<polygon fill="#404040" stroke="none" points="677,2602 690,2577 663,2577"/>
					<polyline fill="none" stroke="#404040" stroke-width="6" stroke-dasharray="none" points="677,2752 677,2852 1138,2852"/>
					<polygon fill="#404040" stroke="none" points="1152,2852 1127,2838 1127,2865"/>
					<g>
						<path fill="#FFD0D0" stroke="#A07070" stroke-width="3" stroke-dasharray="none" d="M 1177,2202 L 852,2377 L 1177,2552 L 1502,2377 Z"/>
						<text x="1177" y="2342" fill="#000000" font-family="Arial" font-size="32pt" text-anchor="middle" direction="ltr">
							<tspan x="1177" dy="50" unicode-bidi="embed">num[contador]==buscar</tspan>
						</text>
					</g>
					<g>
						<path fill="#FFFFD0" stroke="#A0A070" stroke-width="3" stroke-dasharray="none" d="M 1452,2602 L 1452,2702 L 2052,2702 L 2052,2602 Z"/>
						<text x="1752" y="2617" fill="#000000" font-family="Arial" font-size="32pt" text-anchor="middle" direction="ltr">
							<tspan x="1752" dy="50" unicode-bidi="embed">nm[contador] = reemplazar</tspan>
						</text>
					</g>
					<g>
						<path fill="#FFFFD0" stroke="#A0A070" stroke-width="3" stroke-dasharray="none" d="M 452,2602 L 452,2752 L 902,2752 L 902,2602 Z"/>
						<text x="677" y="2617" fill="#000000" font-family="Arial" font-size="32pt" text-anchor="middle" direction="ltr">
							<tspan x="677" dy="50" unicode-bidi="embed">nm[contador] = num</tspan>
							<tspan x="677" dy="50" unicode-bidi="embed">[contador]</tspan>
						</text>
					</g>
					<ellipse cx="1177" cy="2852" rx="25" ry="25" fill="#FFD0D0" stroke="#A07070" stroke-width="3"/>
					<text x="1627" y="2292" fill="#000000" font-family="Arial" font-size="32pt" text-anchor="middle" direction="ltr">
						<tspan x="1627" dy="50" unicode-bidi="embed">Verdadero</tspan>
					</text>
					<text x="764" y="2292" fill="#000000" font-family="Arial" font-size="32pt" text-anchor="middle" direction="ltr">
						<tspan x="764" dy="50" unicode-bidi="embed">Falso</tspan>
					</text>
				</g>
				<g>
					<path fill="#FFE0A0" stroke="#A08040" stroke-width="3" stroke-dasharray="none" d="M 52,2052 L 2,2102 L 52,2152 L 502,2152 L 552,2102 L 502,2052 Z"/>
					<text x="277" y="2067" fill="#000000" font-family="Arial" font-size="32pt" text-anchor="middle" direction="ltr">
						<tspan x="277" dy="50" unicode-bidi="embed">contador = 0 hasta 6</tspan>
					</text>
				</g>
				<text x="677" y="2017" fill="#000000" font-family="Arial" font-size="32pt" text-anchor="middle" direction="ltr">
					<tspan x="677" dy="50" unicode-bidi="embed">Siguiente</tspan>
				</text>
				<text x="189" y="2167" fill="#000000" font-family="Arial" font-size="32pt" text-anchor="middle" direction="ltr">
					<tspan x="189" dy="50" unicode-bidi="embed">Hecho</tspan>
				</text>
			</g>
		</g>
	</g>
</svg>
