<?xml version="1.0" encoding="UTF-8" standalone="no"?>
<!-- Created by Flowgorithm 3.4.1 (http://flowgorithm.org) -->

<svg xmlns:svg="http://www.w3.org/2000/svg" xmlns="http://www.w3.org/2000/svg" version="1.1" width="1754" height="2929">
	<g>
		<polyline fill="none" stroke="#404040" stroke-width="6" stroke-dasharray="none" points="402,102 402,163"/>
		<polygon fill="#404040" stroke="none" points="402,177 415,152 388,152"/>
		<polyline fill="none" stroke="#404040" stroke-width="6" stroke-dasharray="none" points="402,2752 402,2813"/>
		<polygon fill="#404040" stroke="none" points="402,2827 415,2802 388,2802"/>
		<g>
			<path fill="#F0D0FF" stroke="#9070A0" stroke-width="3" stroke-dasharray="none" d="M 302,2 A 50 50, 0, 0 0, 302 102 L 502,102 A 50 50, 0, 0 0, 502 2 Z"/>
			<text x="402" y="17" fill="#000000" font-family="Arial" font-size="32pt" text-anchor="middle" direction="ltr">
				<tspan x="402" dy="50" unicode-bidi="embed">Principal</tspan>
			</text>
		</g>
		<g>
			<path fill="#F0D0FF" stroke="#9070A0" stroke-width="3" stroke-dasharray="none" d="M 302,2827 A 50 50, 0, 0 0, 302 2927 L 502,2927 A 50 50, 0, 0 0, 502 2827 Z"/>
			<text x="402" y="2842" fill="#000000" font-family="Arial" font-size="32pt" text-anchor="middle" direction="ltr">
				<tspan x="402" dy="50" unicode-bidi="embed">Fin</tspan>
			</text>
		</g>
		<g>
			<polyline fill="none" stroke="#404040" stroke-width="6" stroke-dasharray="none" points="402,302 402,363"/>
			<polygon fill="#404040" stroke="none" points="402,377 415,352 388,352"/>
			<polyline fill="none" stroke="#404040" stroke-width="6" stroke-dasharray="none" points="402,502 402,563"/>
			<polygon fill="#404040" stroke="none" points="402,577 415,552 388,552"/>
			<polyline fill="none" stroke="#404040" stroke-width="6" stroke-dasharray="none" points="402,702 402,763"/>
			<polygon fill="#404040" stroke="none" points="402,777 415,752 388,752"/>
			<polyline fill="none" stroke="#404040" stroke-width="6" stroke-dasharray="none" points="402,877 402,938"/>
			<polygon fill="#404040" stroke="none" points="402,952 415,927 388,927"/>
			<polyline fill="none" stroke="#404040" stroke-width="6" stroke-dasharray="none" points="402,1077 402,1138"/>
			<polygon fill="#404040" stroke="none" points="402,1152 415,1127 388,1127"/>
			<polyline fill="none" stroke="#404040" stroke-width="6" stroke-dasharray="none" points="402,1252 402,1338"/>
			<polygon fill="#404040" stroke="none" points="402,1352 415,1327 388,1327"/>
			<polyline fill="none" stroke="#404040" stroke-width="6" stroke-dasharray="none" points="402,1452 402,2313"/>
			<polygon fill="#404040" stroke="none" points="402,2327 415,2302 388,2302"/>
			<polyline fill="none" stroke="#404040" stroke-width="6" stroke-dasharray="none" points="402,2527 402,2588"/>
			<polygon fill="#404040" stroke="none" points="402,2602 415,2577 388,2577"/>
			<g>
				<path fill="#FFFFD0" stroke="#A0A070" stroke-width="3" stroke-dasharray="none" d="M 202,177 L 202,302 L 602,302 L 602,177 Z"/>
				<polyline fill="none" stroke="#A0A070" stroke-width="3" stroke-dasharray="none" points="202,202 602,202"/>
				<polyline fill="none" stroke="#A0A070" stroke-width="3" stroke-dasharray="none" points="227,177 227,302"/>
				<text x="414" y="217" fill="#000000" font-family="Arial" font-size="32pt" text-anchor="middle" direction="ltr">
					<tspan x="414" dy="50" unicode-bidi="embed">Entero numero</tspan>
				</text>
			</g>
			<g>
				<path fill="#FFFFD0" stroke="#A0A070" stroke-width="3" stroke-dasharray="none" d="M 202,377 L 202,502 L 602,502 L 602,377 Z"/>
				<polyline fill="none" stroke="#A0A070" stroke-width="3" stroke-dasharray="none" points="202,402 602,402"/>
				<polyline fill="none" stroke="#A0A070" stroke-width="3" stroke-dasharray="none" points="227,377 227,502"/>
				<text x="414" y="417" fill="#000000" font-family="Arial" font-size="32pt" text-anchor="middle" direction="ltr">
					<tspan x="414" dy="50" unicode-bidi="embed">Entero contador</tspan>
				</text>
			</g>
			<g>
				<path fill="#FFFFD0" stroke="#A0A070" stroke-width="3" stroke-dasharray="none" d="M 252,577 L 252,702 L 552,702 L 552,577 Z"/>
				<polyline fill="none" stroke="#A0A070" stroke-width="3" stroke-dasharray="none" points="252,602 552,602"/>
				<polyline fill="none" stroke="#A0A070" stroke-width="3" stroke-dasharray="none" points="277,577 277,702"/>
				<text x="414" y="617" fill="#000000" font-family="Arial" font-size="32pt" text-anchor="middle" direction="ltr">
					<tspan x="414" dy="50" unicode-bidi="embed">Entero posi</tspan>
				</text>
			</g>
			<g>
				<path fill="#FFFFD0" stroke="#A0A070" stroke-width="3" stroke-dasharray="none" d="M 252,777 L 252,877 L 552,877 L 552,777 Z"/>
				<text x="402" y="792" fill="#000000" font-family="Arial" font-size="32pt" text-anchor="middle" direction="ltr">
					<tspan x="402" dy="50" unicode-bidi="embed">posi = 0</tspan>
				</text>
			</g>
			<g>
				<path fill="#FFFFD0" stroke="#A0A070" stroke-width="3" stroke-dasharray="none" d="M 227,952 L 227,1077 L 577,1077 L 577,952 Z"/>
				<polyline fill="none" stroke="#A0A070" stroke-width="3" stroke-dasharray="none" points="227,977 577,977"/>
				<polyline fill="none" stroke="#A0A070" stroke-width="3" stroke-dasharray="none" points="252,952 252,1077"/>
				<text x="414" y="992" fill="#000000" font-family="Arial" font-size="32pt" text-anchor="middle" direction="ltr">
					<tspan x="414" dy="50" unicode-bidi="embed">Entero nega</tspan>
				</text>
			</g>
			<g>
				<path fill="#FFFFD0" stroke="#A0A070" stroke-width="3" stroke-dasharray="none" d="M 252,1152 L 252,1252 L 552,1252 L 552,1152 Z"/>
				<text x="402" y="1167" fill="#000000" font-family="Arial" font-size="32pt" text-anchor="middle" direction="ltr">
					<tspan x="402" dy="50" unicode-bidi="embed">nega = 0</tspan>
				</text>
			</g>
			<g>
				<polyline fill="none" stroke="#404040" stroke-width="6" stroke-dasharray="none" points="677,1402 1127,1402 1127,1488"/>
				<polygon fill="#404040" stroke="none" points="1127,1502 1140,1477 1113,1477"/>
				<polyline fill="none" stroke="#404040" stroke-width="6" stroke-dasharray="none" points="1127,2152 1127,2227 452,2227 452,1465"/>
				<polygon fill="#404040" stroke="none" points="452,1452 438,1476 465,1476"/>
				<g>
					<polyline fill="none" stroke="#404040" stroke-width="6" stroke-dasharray="none" points="1127,1602 1127,1663"/>
					<polygon fill="#404040" stroke="none" points="1127,1677 1140,1652 1113,1652"/>
					<g>
						<path fill="#C0E0FF" stroke="#6080A0" stroke-width="3" stroke-dasharray="none" d="M 927,1502 L 877,1602 L 1327,1602 L 1377,1502 Z"/>
						<text x="1127" y="1517" fill="#000000" font-family="Arial" font-size="32pt" text-anchor="middle" direction="ltr">
							<tspan x="1127" dy="50" unicode-bidi="embed">Entrada numero</tspan>
						</text>
					</g>
					<g>
						<polyline fill="none" stroke="#404040" stroke-width="6" stroke-dasharray="none" points="1302,1777 1577,1777 1577,1913"/>
						<polygon fill="#404040" stroke="none" points="1577,1927 1590,1902 1563,1902"/>
						<polyline fill="none" stroke="#404040" stroke-width="6" stroke-dasharray="none" points="1577,2027 1577,2127 1165,2127"/>
						<polygon fill="#404040" stroke="none" points="1152,2127 1176,2140 1176,2113"/>
						<polyline fill="none" stroke="#404040" stroke-width="6" stroke-dasharray="none" points="952,1777 752,1777 752,1913"/>
						<polygon fill="#404040" stroke="none" points="752,1927 765,1902 738,1902"/>
						<polyline fill="none" stroke="#404040" stroke-width="6" stroke-dasharray="none" points="752,2027 752,2127 1088,2127"/>
						<polygon fill="#404040" stroke="none" points="1102,2127 1077,2113 1077,2140"/>
						<g>
							<path fill="#FFD0D0" stroke="#A07070" stroke-width="3" stroke-dasharray="none" d="M 1127,1677 L 927,1777 L 1127,1877 L 1327,1777 Z"/>
							<text x="1127" y="1742" fill="#000000" font-family="Arial" font-size="32pt" text-anchor="middle" direction="ltr">
								<tspan x="1127" dy="50" unicode-bidi="embed">numero&gt;=0</tspan>
							</text>
						</g>
						<g>
							<path fill="#FFFFD0" stroke="#A0A070" stroke-width="3" stroke-dasharray="none" d="M 1402,1927 L 1402,2027 L 1752,2027 L 1752,1927 Z"/>
							<text x="1577" y="1942" fill="#000000" font-family="Arial" font-size="32pt" text-anchor="middle" direction="ltr">
								<tspan x="1577" dy="50" unicode-bidi="embed">posi = posi+1</tspan>
							</text>
						</g>
						<g>
							<path fill="#FFFFD0" stroke="#A0A070" stroke-width="3" stroke-dasharray="none" d="M 577,1927 L 577,2027 L 927,2027 L 927,1927 Z"/>
							<text x="752" y="1942" fill="#000000" font-family="Arial" font-size="32pt" text-anchor="middle" direction="ltr">
								<tspan x="752" dy="50" unicode-bidi="embed">nega = nega+1</tspan>
							</text>
						</g>
						<ellipse cx="1127" cy="2127" rx="25" ry="25" fill="#FFD0D0" stroke="#A07070" stroke-width="3"/>
						<text x="1452" y="1692" fill="#000000" font-family="Arial" font-size="32pt" text-anchor="middle" direction="ltr">
							<tspan x="1452" dy="50" unicode-bidi="embed">Verdadero</tspan>
						</text>
						<text x="839" y="1692" fill="#000000" font-family="Arial" font-size="32pt" text-anchor="middle" direction="ltr">
							<tspan x="839" dy="50" unicode-bidi="embed">Falso</tspan>
						</text>
					</g>
				</g>
				<g>
					<path fill="#FFE0A0" stroke="#A08040" stroke-width="3" stroke-dasharray="none" d="M 177,1352 L 127,1402 L 177,1452 L 627,1452 L 677,1402 L 627,1352 Z"/>
					<text x="402" y="1367" fill="#000000" font-family="Arial" font-size="32pt" text-anchor="middle" direction="ltr">
						<tspan x="402" dy="50" unicode-bidi="embed">contador = 0 hasta 2</tspan>
					</text>
				</g>
				<text x="802" y="1317" fill="#000000" font-family="Arial" font-size="32pt" text-anchor="middle" direction="ltr">
					<tspan x="802" dy="50" unicode-bidi="embed">Siguiente</tspan>
				</text>
				<text x="314" y="1467" fill="#000000" font-family="Arial" font-size="32pt" text-anchor="middle" direction="ltr">
					<tspan x="314" dy="50" unicode-bidi="embed">Hecho</tspan>
				</text>
			</g>
			<g>
				<path fill="#D0FFD0" stroke="#70A070" stroke-width="3" stroke-dasharray="none" d="M 127,2327 L 27,2527 L 677,2527 L 777,2327 Z"/>
				<text x="402" y="2342" fill="#000000" font-family="Arial" font-size="32pt" text-anchor="middle" direction="ltr">
					<tspan x="402" dy="50" unicode-bidi="embed">Salida &quot;En la lista</tspan>
					<tspan x="402" dy="50" unicode-bidi="embed"> introducida hay &quot; &amp;posi</tspan>
					<tspan x="402" dy="50" unicode-bidi="embed"> &amp;&quot; numeros positivos&quot;</tspan>
				</text>
			</g>
			<g>
				<path fill="#D0FFD0" stroke="#70A070" stroke-width="3" stroke-dasharray="none" d="M 77,2602 L 2,2752 L 727,2752 L 802,2602 Z"/>
				<text x="402" y="2617" fill="#000000" font-family="Arial" font-size="32pt" text-anchor="middle" direction="ltr">
					<tspan x="402" dy="50" unicode-bidi="embed">Salida &quot;y &quot; &amp;nega &amp;&quot; numeros</tspan>
					<tspan x="402" dy="50" unicode-bidi="embed"> negativos&quot;</tspan>
				</text>
			</g>
		</g>
	</g>
</svg>
