<?xml version="1.0" encoding="UTF-8" standalone="no"?>
<!-- Created by Flowgorithm 3.4.1 (http://flowgorithm.org) -->

<svg xmlns:svg="http://www.w3.org/2000/svg" xmlns="http://www.w3.org/2000/svg" version="1.1" width="1929" height="2829">
	<g>
		<polyline fill="none" stroke="#404040" stroke-width="6" stroke-dasharray="none" points="227,102 227,163"/>
		<polygon fill="#404040" stroke="none" points="227,177 240,152 213,152"/>
		<polyline fill="none" stroke="#404040" stroke-width="6" stroke-dasharray="none" points="227,1077 227,2713"/>
		<polygon fill="#404040" stroke="none" points="227,2727 240,2702 213,2702"/>
		<g>
			<path fill="#F0D0FF" stroke="#9070A0" stroke-width="3" stroke-dasharray="none" d="M 127,2 A 50 50, 0, 0 0, 127 102 L 327,102 A 50 50, 0, 0 0, 327 2 Z"/>
			<text x="227" y="17" fill="#000000" font-family="Arial" font-size="32pt" text-anchor="middle" direction="ltr">
				<tspan x="227" dy="50" unicode-bidi="embed">Principal</tspan>
			</text>
		</g>
		<g>
			<path fill="#F0D0FF" stroke="#9070A0" stroke-width="3" stroke-dasharray="none" d="M 127,2727 A 50 50, 0, 0 0, 127 2827 L 327,2827 A 50 50, 0, 0 0, 327 2727 Z"/>
			<text x="227" y="2742" fill="#000000" font-family="Arial" font-size="32pt" text-anchor="middle" direction="ltr">
				<tspan x="227" dy="50" unicode-bidi="embed">Fin</tspan>
			</text>
		</g>
		<g>
			<polyline fill="none" stroke="#404040" stroke-width="6" stroke-dasharray="none" points="227,302 227,363"/>
			<polygon fill="#404040" stroke="none" points="227,377 240,352 213,352"/>
			<polyline fill="none" stroke="#404040" stroke-width="6" stroke-dasharray="none" points="227,502 227,563"/>
			<polygon fill="#404040" stroke="none" points="227,577 240,552 213,552"/>
			<polyline fill="none" stroke="#404040" stroke-width="6" stroke-dasharray="none" points="227,702 227,763"/>
			<polygon fill="#404040" stroke="none" points="227,777 240,752 213,752"/>
			<polyline fill="none" stroke="#404040" stroke-width="6" stroke-dasharray="none" points="227,877 227,963"/>
			<polygon fill="#404040" stroke="none" points="227,977 240,952 213,952"/>
			<g>
				<path fill="#FFFFD0" stroke="#A0A070" stroke-width="3" stroke-dasharray="none" d="M 77,177 L 77,302 L 377,302 L 377,177 Z"/>
				<polyline fill="none" stroke="#A0A070" stroke-width="3" stroke-dasharray="none" points="77,202 377,202"/>
				<polyline fill="none" stroke="#A0A070" stroke-width="3" stroke-dasharray="none" points="102,177 102,302"/>
				<text x="239" y="217" fill="#000000" font-family="Arial" font-size="32pt" text-anchor="middle" direction="ltr">
					<tspan x="239" dy="50" unicode-bidi="embed">Entero n</tspan>
				</text>
			</g>
			<g>
				<path fill="#FFFFD0" stroke="#A0A070" stroke-width="3" stroke-dasharray="none" d="M 77,377 L 77,502 L 377,502 L 377,377 Z"/>
				<polyline fill="none" stroke="#A0A070" stroke-width="3" stroke-dasharray="none" points="77,402 377,402"/>
				<polyline fill="none" stroke="#A0A070" stroke-width="3" stroke-dasharray="none" points="102,377 102,502"/>
				<text x="239" y="417" fill="#000000" font-family="Arial" font-size="32pt" text-anchor="middle" direction="ltr">
					<tspan x="239" dy="50" unicode-bidi="embed">Entero i</tspan>
				</text>
			</g>
			<g>
				<path fill="#FFFFD0" stroke="#A0A070" stroke-width="3" stroke-dasharray="none" d="M 27,577 L 27,702 L 427,702 L 427,577 Z"/>
				<polyline fill="none" stroke="#A0A070" stroke-width="3" stroke-dasharray="none" points="27,602 427,602"/>
				<polyline fill="none" stroke="#A0A070" stroke-width="3" stroke-dasharray="none" points="52,577 52,702"/>
				<text x="239" y="617" fill="#000000" font-family="Arial" font-size="32pt" text-anchor="middle" direction="ltr">
					<tspan x="239" dy="50" unicode-bidi="embed">Entero contador</tspan>
				</text>
			</g>
			<g>
				<path fill="#FFFFD0" stroke="#A0A070" stroke-width="3" stroke-dasharray="none" d="M 77,777 L 77,877 L 377,877 L 377,777 Z"/>
				<text x="227" y="792" fill="#000000" font-family="Arial" font-size="32pt" text-anchor="middle" direction="ltr">
					<tspan x="227" dy="50" unicode-bidi="embed">contador = 0</tspan>
				</text>
			</g>
			<g>
				<polyline fill="none" stroke="#404040" stroke-width="6" stroke-dasharray="none" points="452,1027 777,1027 777,1138"/>
				<polygon fill="#404040" stroke="none" points="777,1152 790,1127 763,1127"/>
				<polyline fill="none" stroke="#404040" stroke-width="6" stroke-dasharray="none" points="777,2552 777,2627 277,2627 277,1090"/>
				<polygon fill="#404040" stroke="none" points="277,1077 263,1101 290,1101"/>
				<g>
					<polyline fill="none" stroke="#404040" stroke-width="6" stroke-dasharray="none" points="777,1252 777,1888"/>
					<polygon fill="#404040" stroke="none" points="777,1902 790,1877 763,1877"/>
					<polyline fill="none" stroke="#404040" stroke-width="6" stroke-dasharray="none" points="777,2377 777,2438"/>
					<polygon fill="#404040" stroke="none" points="777,2452 790,2427 763,2427"/>
					<g>
						<polyline fill="none" stroke="#404040" stroke-width="6" stroke-dasharray="none" points="977,1202 1277,1202 1277,1288"/>
						<polygon fill="#404040" stroke="none" points="1277,1302 1290,1277 1263,1277"/>
						<polyline fill="none" stroke="#404040" stroke-width="6" stroke-dasharray="none" points="1277,1727 1277,1802 827,1802 827,1265"/>
						<polygon fill="#404040" stroke="none" points="827,1252 813,1276 840,1276"/>
						<g>
							<polyline fill="none" stroke="#404040" stroke-width="6" stroke-dasharray="none" points="1402,1377 1677,1377 1677,1488"/>
							<polygon fill="#404040" stroke="none" points="1677,1502 1690,1477 1663,1477"/>
							<polyline fill="none" stroke="#404040" stroke-width="6" stroke-dasharray="none" points="1677,1602 1677,1702 1315,1702"/>
							<polygon fill="#404040" stroke="none" points="1302,1702 1326,1715 1326,1688"/>
							<polyline fill="none" stroke="#404040" stroke-width="6" stroke-dasharray="none" points="1152,1377 952,1377 952,1702 1238,1702"/>
							<polygon fill="#404040" stroke="none" points="1252,1702 1227,1688 1227,1715"/>
							<g>
								<path fill="#FFD0D0" stroke="#A07070" stroke-width="3" stroke-dasharray="none" d="M 1277,1302 L 1127,1377 L 1277,1452 L 1427,1377 Z"/>
								<text x="1277" y="1342" fill="#000000" font-family="Arial" font-size="32pt" text-anchor="middle" direction="ltr">
									<tspan x="1277" dy="50" unicode-bidi="embed">n%i==0</tspan>
								</text>
							</g>
							<g>
								<path fill="#FFFFD0" stroke="#A0A070" stroke-width="3" stroke-dasharray="none" d="M 1427,1502 L 1427,1602 L 1927,1602 L 1927,1502 Z"/>
								<text x="1677" y="1517" fill="#000000" font-family="Arial" font-size="32pt" text-anchor="middle" direction="ltr">
									<tspan x="1677" dy="50" unicode-bidi="embed">contador = contador+1</tspan>
								</text>
							</g>
							<g>
							</g>
							<ellipse cx="1277" cy="1702" rx="25" ry="25" fill="#FFD0D0" stroke="#A07070" stroke-width="3"/>
							<text x="1552" y="1292" fill="#000000" font-family="Arial" font-size="32pt" text-anchor="middle" direction="ltr">
								<tspan x="1552" dy="50" unicode-bidi="embed">Verdadero</tspan>
							</text>
							<text x="1039" y="1292" fill="#000000" font-family="Arial" font-size="32pt" text-anchor="middle" direction="ltr">
								<tspan x="1039" dy="50" unicode-bidi="embed">Falso</tspan>
							</text>
						</g>
						<g>
							<path fill="#FFE0A0" stroke="#A08040" stroke-width="3" stroke-dasharray="none" d="M 627,1152 L 577,1202 L 627,1252 L 927,1252 L 977,1202 L 927,1152 Z"/>
							<text x="777" y="1167" fill="#000000" font-family="Arial" font-size="32pt" text-anchor="middle" direction="ltr">
								<tspan x="777" dy="50" unicode-bidi="embed">i = 1 hasta n</tspan>
							</text>
						</g>
						<text x="1102" y="1117" fill="#000000" font-family="Arial" font-size="32pt" text-anchor="middle" direction="ltr">
							<tspan x="1102" dy="50" unicode-bidi="embed">Siguiente</tspan>
						</text>
						<text x="689" y="1267" fill="#000000" font-family="Arial" font-size="32pt" text-anchor="middle" direction="ltr">
							<tspan x="689" dy="50" unicode-bidi="embed">Hecho</tspan>
						</text>
					</g>
					<g>
						<polyline fill="none" stroke="#404040" stroke-width="6" stroke-dasharray="none" points="952,2002 1227,2002 1227,2138"/>
						<polygon fill="#404040" stroke="none" points="1227,2152 1240,2127 1213,2127"/>
						<polyline fill="none" stroke="#404040" stroke-width="6" stroke-dasharray="none" points="1227,2252 1227,2352 815,2352"/>
						<polygon fill="#404040" stroke="none" points="802,2352 826,2365 826,2338"/>
						<polyline fill="none" stroke="#404040" stroke-width="6" stroke-dasharray="none" points="602,2002 402,2002 402,2352 738,2352"/>
						<polygon fill="#404040" stroke="none" points="752,2352 727,2338 727,2365"/>
						<g>
							<path fill="#FFD0D0" stroke="#A07070" stroke-width="3" stroke-dasharray="none" d="M 777,1902 L 577,2002 L 777,2102 L 977,2002 Z"/>
							<text x="777" y="1967" fill="#000000" font-family="Arial" font-size="32pt" text-anchor="middle" direction="ltr">
								<tspan x="777" dy="50" unicode-bidi="embed">contador&lt;=2</tspan>
							</text>
						</g>
						<g>
							<path fill="#D0FFD0" stroke="#70A070" stroke-width="3" stroke-dasharray="none" d="M 1102,2152 L 1052,2252 L 1352,2252 L 1402,2152 Z"/>
							<text x="1227" y="2167" fill="#000000" font-family="Arial" font-size="32pt" text-anchor="middle" direction="ltr">
								<tspan x="1227" dy="50" unicode-bidi="embed">Salida n</tspan>
							</text>
						</g>
						<g>
						</g>
						<ellipse cx="777" cy="2352" rx="25" ry="25" fill="#FFD0D0" stroke="#A07070" stroke-width="3"/>
						<text x="1102" y="1917" fill="#000000" font-family="Arial" font-size="32pt" text-anchor="middle" direction="ltr">
							<tspan x="1102" dy="50" unicode-bidi="embed">Verdadero</tspan>
						</text>
						<text x="489" y="1917" fill="#000000" font-family="Arial" font-size="32pt" text-anchor="middle" direction="ltr">
							<tspan x="489" dy="50" unicode-bidi="embed">Falso</tspan>
						</text>
					</g>
					<g>
						<path fill="#FFFFD0" stroke="#A0A070" stroke-width="3" stroke-dasharray="none" d="M 627,2452 L 627,2552 L 927,2552 L 927,2452 Z"/>
						<text x="777" y="2467" fill="#000000" font-family="Arial" font-size="32pt" text-anchor="middle" direction="ltr">
							<tspan x="777" dy="50" unicode-bidi="embed">contador = 0</tspan>
						</text>
					</g>
				</g>
				<g>
					<path fill="#FFE0A0" stroke="#A08040" stroke-width="3" stroke-dasharray="none" d="M 52,977 L 2,1027 L 52,1077 L 402,1077 L 452,1027 L 402,977 Z"/>
					<text x="227" y="992" fill="#000000" font-family="Arial" font-size="32pt" text-anchor="middle" direction="ltr">
						<tspan x="227" dy="50" unicode-bidi="embed">n = 2 hasta 100</tspan>
					</text>
				</g>
				<text x="577" y="942" fill="#000000" font-family="Arial" font-size="32pt" text-anchor="middle" direction="ltr">
					<tspan x="577" dy="50" unicode-bidi="embed">Siguiente</tspan>
				</text>
				<text x="139" y="1092" fill="#000000" font-family="Arial" font-size="32pt" text-anchor="middle" direction="ltr">
					<tspan x="139" dy="50" unicode-bidi="embed">Hecho</tspan>
				</text>
			</g>
		</g>
	</g>
</svg>
