<?xml version="1.0" encoding="UTF-8" standalone="no"?>
<!-- Created by Flowgorithm 3.4.1 (http://flowgorithm.org) -->

<svg xmlns:svg="http://www.w3.org/2000/svg" xmlns="http://www.w3.org/2000/svg" version="1.1" width="654" height="3229">
	<g>
		<polyline fill="none" stroke="#404040" stroke-width="6" stroke-dasharray="none" points="327,102 327,163"/>
		<polygon fill="#404040" stroke="none" points="327,177 340,152 313,152"/>
		<polyline fill="none" stroke="#404040" stroke-width="6" stroke-dasharray="none" points="327,3052 327,3113"/>
		<polygon fill="#404040" stroke="none" points="327,3127 340,3102 313,3102"/>
		<g>
			<path fill="#F0D0FF" stroke="#9070A0" stroke-width="3" stroke-dasharray="none" d="M 227,2 A 50 50, 0, 0 0, 227 102 L 427,102 A 50 50, 0, 0 0, 427 2 Z"/>
			<text x="327" y="17" fill="#000000" font-family="Arial" font-size="32pt" text-anchor="middle" direction="ltr">
				<tspan x="327" dy="50" unicode-bidi="embed">Principal</tspan>
			</text>
		</g>
		<g>
			<path fill="#F0D0FF" stroke="#9070A0" stroke-width="3" stroke-dasharray="none" d="M 227,3127 A 50 50, 0, 0 0, 227 3227 L 427,3227 A 50 50, 0, 0 0, 427 3127 Z"/>
			<text x="327" y="3142" fill="#000000" font-family="Arial" font-size="32pt" text-anchor="middle" direction="ltr">
				<tspan x="327" dy="50" unicode-bidi="embed">Fin</tspan>
			</text>
		</g>
		<g>
			<polyline fill="none" stroke="#404040" stroke-width="6" stroke-dasharray="none" points="327,302 327,363"/>
			<polygon fill="#404040" stroke="none" points="327,377 340,352 313,352"/>
			<polyline fill="none" stroke="#404040" stroke-width="6" stroke-dasharray="none" points="327,502 327,563"/>
			<polygon fill="#404040" stroke="none" points="327,577 340,552 313,552"/>
			<polyline fill="none" stroke="#404040" stroke-width="6" stroke-dasharray="none" points="327,677 327,738"/>
			<polygon fill="#404040" stroke="none" points="327,752 340,727 313,727"/>
			<polyline fill="none" stroke="#404040" stroke-width="6" stroke-dasharray="none" points="327,852 327,913"/>
			<polygon fill="#404040" stroke="none" points="327,927 340,902 313,902"/>
			<polyline fill="none" stroke="#404040" stroke-width="6" stroke-dasharray="none" points="327,1052 327,1113"/>
			<polygon fill="#404040" stroke="none" points="327,1127 340,1102 313,1102"/>
			<polyline fill="none" stroke="#404040" stroke-width="6" stroke-dasharray="none" points="327,1252 327,1313"/>
			<polygon fill="#404040" stroke="none" points="327,1327 340,1302 313,1302"/>
			<polyline fill="none" stroke="#404040" stroke-width="6" stroke-dasharray="none" points="327,1452 327,1513"/>
			<polygon fill="#404040" stroke="none" points="327,1527 340,1502 313,1502"/>
			<polyline fill="none" stroke="#404040" stroke-width="6" stroke-dasharray="none" points="327,1652 327,1713"/>
			<polygon fill="#404040" stroke="none" points="327,1727 340,1702 313,1702"/>
			<polyline fill="none" stroke="#404040" stroke-width="6" stroke-dasharray="none" points="327,1827 327,1888"/>
			<polygon fill="#404040" stroke="none" points="327,1902 340,1877 313,1877"/>
			<polyline fill="none" stroke="#404040" stroke-width="6" stroke-dasharray="none" points="327,2002 327,2063"/>
			<polygon fill="#404040" stroke="none" points="327,2077 340,2052 313,2052"/>
			<polyline fill="none" stroke="#404040" stroke-width="6" stroke-dasharray="none" points="327,2177 327,2238"/>
			<polygon fill="#404040" stroke="none" points="327,2252 340,2227 313,2227"/>
			<polyline fill="none" stroke="#404040" stroke-width="6" stroke-dasharray="none" points="327,2352 327,2413"/>
			<polygon fill="#404040" stroke="none" points="327,2427 340,2402 313,2402"/>
			<polyline fill="none" stroke="#404040" stroke-width="6" stroke-dasharray="none" points="327,2527 327,2588"/>
			<polygon fill="#404040" stroke="none" points="327,2602 340,2577 313,2577"/>
			<polyline fill="none" stroke="#404040" stroke-width="6" stroke-dasharray="none" points="327,2702 327,2763"/>
			<polygon fill="#404040" stroke="none" points="327,2777 340,2752 313,2752"/>
			<polyline fill="none" stroke="#404040" stroke-width="6" stroke-dasharray="none" points="327,2877 327,2938"/>
			<polygon fill="#404040" stroke="none" points="327,2952 340,2927 313,2927"/>
			<g>
				<path fill="#FFFFD0" stroke="#A0A070" stroke-width="3" stroke-dasharray="none" d="M 177,177 L 177,302 L 477,302 L 477,177 Z"/>
				<polyline fill="none" stroke="#A0A070" stroke-width="3" stroke-dasharray="none" points="177,202 477,202"/>
				<polyline fill="none" stroke="#A0A070" stroke-width="3" stroke-dasharray="none" points="202,177 202,302"/>
				<text x="339" y="217" fill="#000000" font-family="Arial" font-size="32pt" text-anchor="middle" direction="ltr">
					<tspan x="339" dy="50" unicode-bidi="embed">Entero x</tspan>
				</text>
			</g>
			<g>
				<path fill="#FFFFD0" stroke="#A0A070" stroke-width="3" stroke-dasharray="none" d="M 177,377 L 177,502 L 477,502 L 477,377 Z"/>
				<polyline fill="none" stroke="#A0A070" stroke-width="3" stroke-dasharray="none" points="177,402 477,402"/>
				<polyline fill="none" stroke="#A0A070" stroke-width="3" stroke-dasharray="none" points="202,377 202,502"/>
				<text x="339" y="417" fill="#000000" font-family="Arial" font-size="32pt" text-anchor="middle" direction="ltr">
					<tspan x="339" dy="50" unicode-bidi="embed">Entero y</tspan>
				</text>
			</g>
			<g>
				<path fill="#C0E0FF" stroke="#6080A0" stroke-width="3" stroke-dasharray="none" d="M 202,577 L 152,677 L 452,677 L 502,577 Z"/>
				<text x="327" y="592" fill="#000000" font-family="Arial" font-size="32pt" text-anchor="middle" direction="ltr">
					<tspan x="327" dy="50" unicode-bidi="embed">Entrada x</tspan>
				</text>
			</g>
			<g>
				<path fill="#C0E0FF" stroke="#6080A0" stroke-width="3" stroke-dasharray="none" d="M 202,752 L 152,852 L 452,852 L 502,752 Z"/>
				<text x="327" y="767" fill="#000000" font-family="Arial" font-size="32pt" text-anchor="middle" direction="ltr">
					<tspan x="327" dy="50" unicode-bidi="embed">Entrada y</tspan>
				</text>
			</g>
			<g>
				<path fill="#FFFFD0" stroke="#A0A070" stroke-width="3" stroke-dasharray="none" d="M 152,927 L 152,1052 L 502,1052 L 502,927 Z"/>
				<polyline fill="none" stroke="#A0A070" stroke-width="3" stroke-dasharray="none" points="152,952 502,952"/>
				<polyline fill="none" stroke="#A0A070" stroke-width="3" stroke-dasharray="none" points="177,927 177,1052"/>
				<text x="339" y="967" fill="#000000" font-family="Arial" font-size="32pt" text-anchor="middle" direction="ltr">
					<tspan x="339" dy="50" unicode-bidi="embed">Entero suma</tspan>
				</text>
			</g>
			<g>
				<path fill="#FFFFD0" stroke="#A0A070" stroke-width="3" stroke-dasharray="none" d="M 152,1127 L 152,1252 L 502,1252 L 502,1127 Z"/>
				<polyline fill="none" stroke="#A0A070" stroke-width="3" stroke-dasharray="none" points="152,1152 502,1152"/>
				<polyline fill="none" stroke="#A0A070" stroke-width="3" stroke-dasharray="none" points="177,1127 177,1252"/>
				<text x="339" y="1167" fill="#000000" font-family="Arial" font-size="32pt" text-anchor="middle" direction="ltr">
					<tspan x="339" dy="50" unicode-bidi="embed">Entero resta</tspan>
				</text>
			</g>
			<g>
				<path fill="#FFFFD0" stroke="#A0A070" stroke-width="3" stroke-dasharray="none" d="M 77,1327 L 77,1452 L 577,1452 L 577,1327 Z"/>
				<polyline fill="none" stroke="#A0A070" stroke-width="3" stroke-dasharray="none" points="77,1352 577,1352"/>
				<polyline fill="none" stroke="#A0A070" stroke-width="3" stroke-dasharray="none" points="102,1327 102,1452"/>
				<text x="339" y="1367" fill="#000000" font-family="Arial" font-size="32pt" text-anchor="middle" direction="ltr">
					<tspan x="339" dy="50" unicode-bidi="embed">Entero multiplicacion</tspan>
				</text>
			</g>
			<g>
				<path fill="#FFFFD0" stroke="#A0A070" stroke-width="3" stroke-dasharray="none" d="M 152,1527 L 152,1652 L 502,1652 L 502,1527 Z"/>
				<polyline fill="none" stroke="#A0A070" stroke-width="3" stroke-dasharray="none" points="152,1552 502,1552"/>
				<polyline fill="none" stroke="#A0A070" stroke-width="3" stroke-dasharray="none" points="177,1527 177,1652"/>
				<text x="339" y="1567" fill="#000000" font-family="Arial" font-size="32pt" text-anchor="middle" direction="ltr">
					<tspan x="339" dy="50" unicode-bidi="embed">Real division</tspan>
				</text>
			</g>
			<g>
				<path fill="#FFFFD0" stroke="#A0A070" stroke-width="3" stroke-dasharray="none" d="M 177,1727 L 177,1827 L 477,1827 L 477,1727 Z"/>
				<text x="327" y="1742" fill="#000000" font-family="Arial" font-size="32pt" text-anchor="middle" direction="ltr">
					<tspan x="327" dy="50" unicode-bidi="embed">suma = x+y</tspan>
				</text>
			</g>
			<g>
				<path fill="#FFFFD0" stroke="#A0A070" stroke-width="3" stroke-dasharray="none" d="M 177,1902 L 177,2002 L 477,2002 L 477,1902 Z"/>
				<text x="327" y="1917" fill="#000000" font-family="Arial" font-size="32pt" text-anchor="middle" direction="ltr">
					<tspan x="327" dy="50" unicode-bidi="embed">resta = x-y</tspan>
				</text>
			</g>
			<g>
				<path fill="#FFFFD0" stroke="#A0A070" stroke-width="3" stroke-dasharray="none" d="M 102,2077 L 102,2177 L 552,2177 L 552,2077 Z"/>
				<text x="327" y="2092" fill="#000000" font-family="Arial" font-size="32pt" text-anchor="middle" direction="ltr">
					<tspan x="327" dy="50" unicode-bidi="embed">multiplicacion = x*y</tspan>
				</text>
			</g>
			<g>
				<path fill="#FFFFD0" stroke="#A0A070" stroke-width="3" stroke-dasharray="none" d="M 152,2252 L 152,2352 L 502,2352 L 502,2252 Z"/>
				<text x="327" y="2267" fill="#000000" font-family="Arial" font-size="32pt" text-anchor="middle" direction="ltr">
					<tspan x="327" dy="50" unicode-bidi="embed">division = x/y</tspan>
				</text>
			</g>
			<g>
				<path fill="#D0FFD0" stroke="#70A070" stroke-width="3" stroke-dasharray="none" d="M 177,2427 L 127,2527 L 477,2527 L 527,2427 Z"/>
				<text x="327" y="2442" fill="#000000" font-family="Arial" font-size="32pt" text-anchor="middle" direction="ltr">
					<tspan x="327" dy="50" unicode-bidi="embed">Salida suma</tspan>
				</text>
			</g>
			<g>
				<path fill="#D0FFD0" stroke="#70A070" stroke-width="3" stroke-dasharray="none" d="M 177,2602 L 127,2702 L 477,2702 L 527,2602 Z"/>
				<text x="327" y="2617" fill="#000000" font-family="Arial" font-size="32pt" text-anchor="middle" direction="ltr">
					<tspan x="327" dy="50" unicode-bidi="embed">Salida resta</tspan>
				</text>
			</g>
			<g>
				<path fill="#D0FFD0" stroke="#70A070" stroke-width="3" stroke-dasharray="none" d="M 102,2777 L 52,2877 L 552,2877 L 602,2777 Z"/>
				<text x="327" y="2792" fill="#000000" font-family="Arial" font-size="32pt" text-anchor="middle" direction="ltr">
					<tspan x="327" dy="50" unicode-bidi="embed">Salida multiplicacion</tspan>
				</text>
			</g>
			<g>
				<path fill="#D0FFD0" stroke="#70A070" stroke-width="3" stroke-dasharray="none" d="M 52,2952 L 2,3052 L 602,3052 L 652,2952 Z"/>
				<text x="327" y="2967" fill="#000000" font-family="Arial" font-size="32pt" text-anchor="middle" direction="ltr">
					<tspan x="327" dy="50" unicode-bidi="embed">Salida tofixed(division,2)</tspan>
				</text>
			</g>
		</g>
	</g>
</svg>
