<?xml version="1.0" encoding="UTF-8" standalone="no"?>
<!-- Created by Flowgorithm 3.4.1 (http://flowgorithm.org) -->

<svg xmlns:svg="http://www.w3.org/2000/svg" xmlns="http://www.w3.org/2000/svg" version="1.1" width="704" height="1204">
	<g>
		<polyline fill="none" stroke="#404040" stroke-width="6" stroke-dasharray="none" points="352,102 352,163"/>
		<polygon fill="#404040" stroke="none" points="352,177 365,152 338,152"/>
		<polyline fill="none" stroke="#404040" stroke-width="6" stroke-dasharray="none" points="352,1027 352,1088"/>
		<polygon fill="#404040" stroke="none" points="352,1102 365,1077 338,1077"/>
		<g>
			<path fill="#F0D0FF" stroke="#9070A0" stroke-width="3" stroke-dasharray="none" d="M 252,2 A 50 50, 0, 0 0, 252 102 L 452,102 A 50 50, 0, 0 0, 452 2 Z"/>
			<text x="352" y="17" fill="#000000" font-family="Arial" font-size="32pt" text-anchor="middle" direction="ltr">
				<tspan x="352" dy="50" unicode-bidi="embed">Principal</tspan>
			</text>
		</g>
		<g>
			<path fill="#F0D0FF" stroke="#9070A0" stroke-width="3" stroke-dasharray="none" d="M 252,1102 A 50 50, 0, 0 0, 252 1202 L 452,1202 A 50 50, 0, 0 0, 452 1102 Z"/>
			<text x="352" y="1117" fill="#000000" font-family="Arial" font-size="32pt" text-anchor="middle" direction="ltr">
				<tspan x="352" dy="50" unicode-bidi="embed">Fin</tspan>
			</text>
		</g>
		<g>
			<polyline fill="none" stroke="#404040" stroke-width="6" stroke-dasharray="none" points="352,302 352,363"/>
			<polygon fill="#404040" stroke="none" points="352,377 365,352 338,352"/>
			<polyline fill="none" stroke="#404040" stroke-width="6" stroke-dasharray="none" points="352,502 352,563"/>
			<polygon fill="#404040" stroke="none" points="352,577 365,552 338,552"/>
			<polyline fill="none" stroke="#404040" stroke-width="6" stroke-dasharray="none" points="352,677 352,738"/>
			<polygon fill="#404040" stroke="none" points="352,752 365,727 338,727"/>
			<polyline fill="none" stroke="#404040" stroke-width="6" stroke-dasharray="none" points="352,852 352,913"/>
			<polygon fill="#404040" stroke="none" points="352,927 365,902 338,902"/>
			<g>
				<path fill="#FFFFD0" stroke="#A0A070" stroke-width="3" stroke-dasharray="none" d="M 177,177 L 177,302 L 527,302 L 527,177 Z"/>
				<polyline fill="none" stroke="#A0A070" stroke-width="3" stroke-dasharray="none" points="177,202 527,202"/>
				<polyline fill="none" stroke="#A0A070" stroke-width="3" stroke-dasharray="none" points="202,177 202,302"/>
				<text x="364" y="217" fill="#000000" font-family="Arial" font-size="32pt" text-anchor="middle" direction="ltr">
					<tspan x="364" dy="50" unicode-bidi="embed">Real pesetas</tspan>
				</text>
			</g>
			<g>
				<path fill="#FFFFD0" stroke="#A0A070" stroke-width="3" stroke-dasharray="none" d="M 152,377 L 152,502 L 552,502 L 552,377 Z"/>
				<polyline fill="none" stroke="#A0A070" stroke-width="3" stroke-dasharray="none" points="152,402 552,402"/>
				<polyline fill="none" stroke="#A0A070" stroke-width="3" stroke-dasharray="none" points="177,377 177,502"/>
				<text x="364" y="417" fill="#000000" font-family="Arial" font-size="32pt" text-anchor="middle" direction="ltr">
					<tspan x="364" dy="50" unicode-bidi="embed">Real resultado</tspan>
				</text>
			</g>
			<g>
				<path fill="#C0E0FF" stroke="#6080A0" stroke-width="3" stroke-dasharray="none" d="M 152,577 L 102,677 L 552,677 L 602,577 Z"/>
				<text x="352" y="592" fill="#000000" font-family="Arial" font-size="32pt" text-anchor="middle" direction="ltr">
					<tspan x="352" dy="50" unicode-bidi="embed">Entrada pesetas</tspan>
				</text>
			</g>
			<g>
				<path fill="#FFFFD0" stroke="#A0A070" stroke-width="3" stroke-dasharray="none" d="M 77,752 L 77,852 L 627,852 L 627,752 Z"/>
				<text x="352" y="767" fill="#000000" font-family="Arial" font-size="32pt" text-anchor="middle" direction="ltr">
					<tspan x="352" dy="50" unicode-bidi="embed">resultado = pesetas/6.96</tspan>
				</text>
			</g>
			<g>
				<path fill="#D0FFD0" stroke="#70A070" stroke-width="3" stroke-dasharray="none" d="M 52,927 L 2,1027 L 652,1027 L 702,927 Z"/>
				<text x="352" y="942" fill="#000000" font-family="Arial" font-size="32pt" text-anchor="middle" direction="ltr">
					<tspan x="352" dy="50" unicode-bidi="embed">Salida tofixed(resultado,2)</tspan>
				</text>
			</g>
		</g>
	</g>
</svg>
