<?xml version="1.0" standalone="no"?>
<!DOCTYPE svg PUBLIC "-//W3C//DTD SVG 20010904//EN"
 "http://www.w3.org/TR/2001/REC-SVG-20010904/DTD/svg10.dtd">
<svg version="1.0" xmlns="http://www.w3.org/2000/svg"
 width="400.000000pt" height="400.000000pt" viewBox="0 0 400.000000 400.000000"
 preserveAspectRatio="xMidYMid meet">

<g transform="translate(0.000000,400.000000) scale(0.100000,-0.100000)"
fill="#000000" stroke="none">
<path d="M0 2000 l0 -2000 2000 0 2000 0 0 2000 0 2000 -2000 0 -2000 0 0
-2000z m568 1804 c15 -11 22 -25 22 -50 0 -29 -3 -34 -24 -34 -21 0 -25 6 -28
33 -6 60 -23 28 -23 -43 0 -40 4 -70 10 -70 6 0 11 11 13 25 3 19 9 25 28 25
20 0 24 -5 24 -29 0 -53 -72 -81 -112 -44 -14 13 -18 31 -18 94 0 69 2 80 22
93 12 9 32 16 43 16 11 0 31 -7 43 -16z m92 -73 c0 -50 5 -93 10 -96 6 -4 10
28 10 89 0 96 0 96 25 96 25 0 25 0 25 -94 0 -104 -10 -126 -57 -126 -51 0
-63 23 -63 127 0 93 0 93 25 93 25 0 25 -1 25 -89z m201 -21 l15 -110 -28 0
c-21 0 -28 5 -28 20 0 11 -4 20 -10 20 -5 0 -10 -9 -10 -20 0 -16 -7 -20 -31
-20 -31 0 -31 0 -25 43 3 23 8 67 12 97 8 79 9 80 52 80 l38 0 15 -110z m85
83 c10 -48 12 -49 13 -10 1 33 4 37 26 37 l25 0 0 -110 0 -110 -25 0 c-19 0
-26 7 -31 28 -10 47 -12 48 -13 10 -1 -34 -4 -38 -26 -38 l-25 0 0 110 0 110
25 0 c19 0 26 -7 31 -27z m185 17 c17 -9 19 -22 19 -98 0 -55 -4 -92 -12 -100
-7 -7 -34 -12 -60 -12 l-48 0 0 110 0 110 41 0 c22 0 49 -5 60 -10z m141 -7
c24 -22 26 -163 2 -187 -20 -21 -63 -20 -86 1 -25 22 -26 157 -1 185 20 22 61
23 85 1z m144 -10 c10 -48 12 -49 13 -10 1 33 4 37 26 37 l25 0 0 -110 0 -110
-25 0 c-19 0 -26 7 -31 28 -10 47 -12 48 -13 10 -1 -34 -4 -38 -26 -38 l-25 0
0 110 0 110 25 0 c19 0 26 -7 31 -27z m186 10 c24 -22 26 -163 2 -187 -20 -21
-63 -20 -86 1 -25 22 -26 157 -1 185 20 22 61 23 85 1z m138 -73 c0 -83 1 -90
20 -90 13 0 20 -7 20 -20 0 -17 -7 -20 -45 -20 l-45 0 0 110 0 110 25 0 c25 0
25 -1 25 -90z m150 70 c0 -13 -7 -20 -20 -20 -15 0 -20 -7 -20 -25 0 -18 5
-25 20 -25 13 0 20 -7 20 -20 0 -13 -7 -20 -20 -20 -15 0 -20 -7 -20 -25 0
-18 5 -25 20 -25 13 0 20 -7 20 -20 0 -17 -7 -20 -45 -20 l-45 0 0 110 0 110
45 0 c38 0 45 -3 45 -20z m160 0 c0 -13 -7 -20 -20 -20 -15 0 -20 -7 -20 -25
0 -18 5 -25 20 -25 13 0 20 -7 20 -20 0 -13 -7 -20 -20 -20 -15 0 -20 -7 -20
-25 0 -18 5 -25 20 -25 13 0 20 -7 20 -20 0 -17 -7 -20 -45 -20 l-45 0 0 110
0 110 45 0 c38 0 45 -3 45 -20z m76 -7 c10 -48 12 -49 13 -10 1 33 4 37 26 37
l25 0 0 -110 0 -110 -25 0 c-19 0 -26 7 -31 28 -10 47 -12 48 -13 10 -1 -34
-4 -38 -26 -38 l-25 0 0 110 0 110 25 0 c19 0 26 -7 31 -27z m204 7 c0 -13 -7
-20 -20 -20 -19 0 -20 -7 -20 -90 0 -89 0 -90 -25 -90 -25 0 -25 1 -25 90 0
73 -3 90 -15 90 -8 0 -15 9 -15 20 0 18 7 20 60 20 53 0 60 -2 60 -20z m70
-90 l0 -110 -25 0 -25 0 0 110 0 110 25 0 25 0 0 -110z m110 90 c0 -13 -7 -20
-20 -20 -15 0 -20 -7 -20 -25 0 -18 5 -25 20 -25 13 0 20 -7 20 -20 0 -13 -7
-20 -20 -20 -15 0 -20 -7 -20 -25 0 -18 5 -25 20 -25 13 0 20 -7 20 -20 0 -17
-7 -20 -45 -20 l-45 0 0 110 0 110 45 0 c38 0 45 -3 45 -20z m76 -7 c10 -48
12 -49 13 -10 1 33 4 37 26 37 l25 0 0 -110 0 -110 -25 0 c-19 0 -26 7 -31 28
-10 47 -12 48 -13 10 -1 -34 -4 -38 -26 -38 l-25 0 0 110 0 110 25 0 c19 0 26
-7 31 -27z m185 17 c17 -9 19 -22 19 -98 0 -55 -4 -92 -12 -100 -7 -7 -34 -12
-60 -12 l-48 0 0 110 0 110 41 0 c22 0 49 -5 60 -10z m129 -10 c0 -13 -7 -20
-20 -20 -15 0 -20 -7 -20 -25 0 -18 5 -25 20 -25 13 0 20 -7 20 -20 0 -13 -7
-20 -20 -20 -15 0 -20 -7 -20 -25 0 -18 5 -25 20 -25 13 0 20 -7 20 -20 0 -17
-7 -20 -45 -20 l-45 0 0 110 0 110 45 0 c38 0 45 -3 45 -20z m121 10 c11 -6
19 -21 19 -35 0 -20 -5 -25 -25 -25 -16 0 -25 6 -25 15 0 8 -4 15 -10 15 -19
0 -10 -17 25 -49 29 -26 35 -39 35 -71 0 -29 -5 -42 -19 -50 -46 -24 -101 1
-101 47 0 18 5 23 25 23 18 0 25 -5 25 -19 0 -11 5 -23 10 -26 6 -3 10 2 10
13 0 10 -16 32 -35 49 -73 65 -19 158 66 113z m200 -100 l15 -110 -28 0 c-21
0 -28 5 -28 20 0 11 -4 20 -10 20 -5 0 -10 -9 -10 -20 0 -16 -7 -20 -31 -20
-31 0 -31 0 -25 43 3 23 8 67 12 97 8 79 9 80 52 80 l38 0 15 -110z m129 20
c0 -83 1 -90 20 -90 13 0 20 -7 20 -20 0 -17 -7 -20 -45 -20 l-45 0 0 110 0
110 25 0 c25 0 25 -1 25 -90z m181 -20 l15 -110 -28 0 c-21 0 -28 5 -28 20 0
11 -4 20 -10 20 -5 0 -10 -9 -10 -20 0 -16 -7 -20 -31 -20 -31 0 -31 0 -25 43
3 23 8 67 12 97 8 79 9 80 52 80 l38 0 15 -110z m-3321 -275 l5 -40 8 43 c7
40 9 42 42 42 l35 0 0 -110 0 -110 -25 0 c-24 0 -25 3 -27 58 -1 36 -3 44 -5
22 -6 -60 -13 -80 -27 -80 -9 0 -17 20 -24 58 l-9 57 -2 -57 c-1 -55 -2 -58
-26 -58 l-25 0 0 111 0 110 38 -3 c35 -3 37 -5 42 -43z m221 -65 l15 -110 -28
0 c-21 0 -28 5 -28 20 0 11 -4 20 -10 20 -5 0 -10 -9 -10 -20 0 -16 -7 -20
-31 -20 -31 0 -31 0 -25 43 3 23 8 67 12 97 8 79 9 80 52 80 l38 0 15 -110z
m139 90 c0 -13 -7 -20 -20 -20 -19 0 -20 -7 -20 -90 0 -89 0 -90 -25 -90 -25
0 -25 1 -25 90 0 73 -3 90 -15 90 -8 0 -15 9 -15 20 0 18 7 20 60 20 53 0 60
-2 60 -20z m110 0 c0 -13 -7 -20 -20 -20 -15 0 -20 -7 -20 -25 0 -18 5 -25 20
-25 13 0 20 -7 20 -20 0 -13 -7 -20 -20 -20 -15 0 -20 -7 -20 -25 0 -18 5 -25
20 -25 13 0 20 -7 20 -20 0 -17 -7 -20 -45 -20 l-45 0 0 110 0 110 45 0 c38 0
45 -3 45 -20z m128 8 c16 -16 16 -88 0 -88 -9 0 -9 -3 0 -12 7 -7 12 -34 12
-60 0 -45 -2 -48 -25 -48 -23 0 -25 3 -25 50 0 28 -4 50 -10 50 -5 0 -10 -22
-10 -50 0 -47 -2 -50 -25 -50 l-25 0 0 110 0 110 48 0 c26 0 53 -5 60 -12z
m82 -98 l0 -110 -25 0 -25 0 0 110 0 110 25 0 25 0 0 -110z m131 0 l15 -110
-28 0 c-21 0 -28 5 -28 20 0 11 -4 20 -10 20 -5 0 -10 -9 -10 -20 0 -16 -7
-20 -31 -20 -31 0 -31 0 -25 43 3 23 8 67 12 97 8 79 9 80 52 80 l38 0 15
-110z m180 100 c17 -9 19 -22 19 -98 0 -55 -4 -92 -12 -100 -7 -7 -34 -12 -60
-12 l-48 0 0 110 0 110 41 0 c22 0 49 -5 60 -10z m129 -10 c0 -13 -7 -20 -20
-20 -15 0 -20 -7 -20 -25 0 -18 5 -25 20 -25 13 0 20 -7 20 -20 0 -13 -7 -20
-20 -20 -15 0 -20 -7 -20 -25 0 -18 5 -25 20 -25 13 0 20 -7 20 -20 0 -17 -7
-20 -45 -20 l-45 0 0 110 0 110 45 0 c38 0 45 -3 45 -20z m171 10 c14 -8 19
-21 19 -53 0 -48 -13 -67 -47 -67 -21 0 -23 -5 -23 -45 0 -41 -2 -45 -25 -45
l-25 0 0 110 0 110 41 0 c22 0 49 -5 60 -10z m147 -2 c7 -7 12 -29 12 -50 0
-23 -5 -38 -12 -38 -9 0 -9 -3 0 -12 7 -7 12 -34 12 -60 0 -45 -2 -48 -25 -48
-23 0 -25 3 -25 50 0 28 -4 50 -10 50 -5 0 -10 -22 -10 -50 0 -47 -2 -50 -25
-50 l-25 0 0 110 0 110 48 0 c26 0 53 -5 60 -12z m134 -5 c24 -22 26 -163 2
-187 -20 -21 -63 -20 -86 1 -25 22 -26 157 -1 185 20 22 61 23 85 1z m140 0
c10 -9 18 -27 18 -40 0 -18 -5 -23 -25 -23 -20 0 -25 5 -25 26 0 14 -4 23 -10
19 -14 -9 -13 -142 2 -151 8 -5 9 5 5 39 -7 47 -7 47 23 47 30 0 30 0 30 -59
l0 -58 -42 -1 c-66 0 -78 17 -78 106 0 56 4 80 17 94 20 22 61 23 85 1z m146
5 c7 -7 12 -29 12 -50 0 -23 -5 -38 -12 -38 -9 0 -9 -3 0 -12 7 -7 12 -34 12
-60 0 -45 -2 -48 -25 -48 -23 0 -25 3 -25 50 0 28 -4 50 -10 50 -5 0 -10 -22
-10 -50 0 -47 -2 -50 -25 -50 l-25 0 0 110 0 110 48 0 c26 0 53 -5 60 -12z
m143 -98 l15 -110 -28 0 c-21 0 -28 5 -28 20 0 11 -4 20 -10 20 -5 0 -10 -9
-10 -20 0 -16 -7 -20 -31 -20 -31 0 -31 0 -25 43 3 23 8 67 12 97 8 79 9 80
52 80 l38 0 15 -110z m109 65 l5 -40 8 43 c7 40 9 42 42 42 l35 0 0 -110 0
-110 -25 0 c-24 0 -25 3 -27 58 -1 36 -3 44 -5 22 -6 -60 -13 -80 -27 -80 -9
0 -17 20 -24 58 l-9 57 -2 -57 c-1 -55 -2 -58 -26 -58 l-25 0 0 111 0 110 38
-3 c35 -3 37 -5 42 -43z m221 -65 l15 -110 -28 0 c-21 0 -28 5 -28 20 0 11 -4
20 -10 20 -5 0 -10 -9 -10 -20 0 -16 -7 -20 -31 -20 -31 0 -31 0 -25 43 3 23
8 67 12 97 8 79 9 80 52 80 l38 0 15 -110z m137 94 c15 -11 22 -25 22 -50 0
-29 -3 -34 -24 -34 -21 0 -25 6 -28 33 -6 60 -23 28 -23 -43 0 -40 4 -70 10
-70 6 0 11 11 13 25 3 19 9 25 28 25 20 0 24 -5 24 -29 0 -53 -72 -81 -112
-44 -14 13 -18 31 -18 94 0 69 2 80 22 93 12 9 32 16 43 16 11 0 31 -7 43 -16z
m92 -94 l0 -110 -25 0 -25 0 0 110 0 110 25 0 25 0 0 -110z m122 93 c24 -22
26 -163 2 -187 -20 -21 -63 -20 -86 1 -25 22 -26 157 -1 185 20 22 61 23 85 1z
m96 -20 l10 -38 1 38 c1 33 4 37 26 37 l25 0 0 -110 0 -110 -25 0 c-19 0 -26
7 -31 28 -10 47 -12 48 -13 10 -1 -34 -4 -38 -26 -38 l-25 0 0 110 c0 109 0
110 24 110 19 0 26 -7 34 -37z m233 27 c21 -12 27 -74 9 -85 -8 -5 -8 -11 0
-20 6 -8 10 -33 8 -57 l-3 -43 -57 -3 -58 -3 0 111 0 110 41 0 c22 0 49 -5 60
-10z m150 -100 l15 -110 -28 0 c-21 0 -28 5 -28 20 0 11 -4 20 -10 20 -5 0
-10 -9 -10 -20 0 -16 -7 -20 -31 -20 -31 0 -31 0 -25 43 3 23 8 67 12 97 8 79
9 80 52 80 l38 0 15 -110z m130 100 c11 -6 19 -21 19 -35 0 -20 -5 -25 -25
-25 -16 0 -25 6 -25 15 0 8 -4 15 -10 15 -19 0 -10 -17 25 -49 29 -26 35 -39
35 -71 0 -29 -5 -42 -19 -50 -46 -24 -101 1 -101 47 0 18 5 23 25 23 18 0 25
-5 25 -19 0 -11 5 -23 10 -26 6 -3 10 2 10 13 0 10 -16 32 -35 49 -73 65 -19
158 66 113z m89 -100 l0 -110 -25 0 -25 0 0 110 0 110 25 0 25 0 0 -110z m128
94 c15 -11 22 -25 22 -50 0 -29 -3 -34 -24 -34 -21 0 -25 6 -28 33 -6 60 -23
28 -23 -43 0 -40 4 -70 10 -70 6 0 11 11 13 25 3 19 9 25 28 25 20 0 24 -5 24
-29 0 -53 -72 -81 -112 -44 -14 13 -18 31 -18 94 0 69 2 80 22 93 12 9 32 16
43 16 11 0 31 -7 43 -16z m153 -94 l15 -110 -28 0 c-21 0 -28 5 -28 20 0 11
-4 20 -10 20 -5 0 -10 -9 -10 -20 0 -16 -7 -20 -31 -20 -31 0 -31 0 -25 43 3
23 8 67 12 97 8 79 9 80 52 80 l38 0 15 -110z m-171 -1370 l0 -1150 -1700 0
-1700 0 0 1150 0 1150 1700 0 1700 0 0 -1150z m-36 -1895 c3 -8 0 -15 -5 -15
-7 0 -9 -11 -7 -25 4 -17 1 -25 -8 -25 -8 0 -14 10 -14 24 0 48 21 73 34 41z
m-744 -19 c0 -22 -11 -46 -21 -46 -5 0 -7 12 -4 28 6 26 6 26 -9 8 -9 -11 -16
-23 -16 -28 0 -4 -4 -8 -8 -8 -5 0 -7 13 -4 30 4 25 9 30 33 30 18 0 29 -5 29
-14z m34 6 c7 -12 -4 -52 -14 -52 -5 0 -8 14 -8 30 1 29 11 39 22 22z m74 -9
c2 -8 -6 -13 -23 -13 -16 0 -24 -4 -20 -11 4 -6 13 -8 21 -5 8 3 14 1 14 -4 0
-15 -48 -12 -53 3 -2 6 0 20 5 30 10 20 49 20 56 0z m72 3 c0 -22 -11 -46 -21
-46 -5 0 -7 12 -4 28 6 26 6 26 -9 8 -9 -11 -16 -23 -16 -28 0 -4 -4 -8 -8 -8
-5 0 -7 13 -4 30 4 25 9 30 33 30 18 0 29 -5 29 -14z m34 6 c7 -12 -4 -52 -14
-52 -5 0 -8 14 -8 30 1 29 11 39 22 22z m74 -9 c2 -8 -6 -13 -23 -13 -16 0
-24 -4 -20 -11 4 -6 13 -8 21 -5 8 3 14 1 14 -4 0 -15 -48 -12 -53 3 -2 6 0
20 5 30 10 20 49 20 56 0z m67 -15 c-8 -37 -21 -48 -50 -47 -18 1 -18 2 -2 6
17 4 17 6 1 17 -24 18 -2 56 32 56 24 0 25 -3 19 -32z m73 15 c2 -8 -6 -13
-23 -13 -16 0 -24 -4 -20 -11 4 -6 13 -8 21 -5 8 3 14 1 14 -4 0 -15 -48 -12
-53 3 -2 6 0 20 5 30 10 20 49 20 56 0z m72 3 c0 -21 -11 -46 -20 -46 -4 0 -5
12 -3 28 4 26 4 26 -11 8 -9 -11 -16 -23 -16 -28 0 -4 -4 -8 -8 -8 -5 0 -7 13
-4 30 4 25 9 30 33 30 18 0 29 -5 29 -14z m78 -3 c2 -8 -6 -13 -23 -13 -16 0
-24 -4 -20 -11 4 -6 13 -8 21 -5 8 3 14 1 14 -4 0 -15 -48 -12 -53 3 -2 6 0
20 5 30 10 20 49 20 56 0z m50 10 c-9 -2 -19 -15 -22 -29 -9 -34 -23 -30 -18
6 4 25 9 30 31 29 15 -1 19 -3 9 -6z m64 2 c3 -3 3 -17 0 -31 -4 -20 -10 -24
-30 -22 -33 4 -40 24 -11 33 17 6 19 9 8 16 -11 7 -9 9 7 9 11 0 23 -2 26 -5z
m124 -10 c8 -19 -13 -45 -36 -45 -22 0 -30 19 -18 43 11 21 47 23 54 2z m52 8
c-9 -2 -19 -15 -22 -29 -9 -34 -23 -30 -18 6 4 25 9 30 31 29 15 -1 19 -3 9
-6z m110 -10 c2 -8 -6 -13 -23 -13 -16 0 -24 -4 -20 -11 4 -6 13 -8 21 -5 8 3
14 1 14 -4 0 -15 -48 -12 -53 3 -2 6 0 20 5 30 10 20 49 20 56 0z m62 7 c0 -5
-8 -7 -17 -4 -16 5 -16 4 1 -10 10 -8 15 -19 11 -25 -8 -13 -55 -15 -55 -2 0
5 10 7 23 4 21 -5 21 -5 3 9 -10 8 -16 20 -12 26 9 14 46 16 46 2z m-145 -40
c-3 -5 -11 -10 -16 -10 -6 0 -7 5 -4 10 3 6 11 10 16 10 6 0 7 -4 4 -10z"/>
<path d="M800 3715 c0 -19 4 -35 8 -35 4 0 6 16 4 35 -2 19 -6 35 -8 35 -2 0
-4 -16 -4 -35z"/>
<path d="M1080 3709 c0 -51 4 -78 10 -74 6 3 10 40 10 81 0 43 -4 74 -10 74
-6 0 -10 -34 -10 -81z"/>
<path d="M1227 3783 c-11 -10 -8 -141 3 -148 6 -4 10 23 10 74 0 81 -1 87 -13
74z"/>
<path d="M1557 3783 c-11 -10 -8 -141 3 -148 6 -4 10 23 10 74 0 81 -1 87 -13
74z"/>
<path d="M2720 3709 c0 -51 4 -78 10 -74 6 3 10 40 10 81 0 43 -4 74 -10 74
-6 0 -10 -34 -10 -81z"/>
<path d="M3160 3715 c0 -19 4 -35 8 -35 4 0 6 16 4 35 -2 19 -6 35 -8 35 -2 0
-4 -16 -4 -35z"/>
<path d="M3470 3715 c0 -19 4 -35 8 -35 4 0 6 16 4 35 -2 19 -6 35 -8 35 -2 0
-4 -16 -4 -35z"/>
<path d="M370 3375 c0 -19 4 -35 8 -35 4 0 6 16 4 35 -2 19 -6 35 -8 35 -2 0
-4 -16 -4 -35z"/>
<path d="M750 3421 c0 -17 5 -31 10 -31 6 0 10 11 10 24 0 14 -4 28 -10 31 -6
4 -10 -7 -10 -24z"/>
<path d="M960 3375 c0 -19 4 -35 8 -35 4 0 6 16 4 35 -2 19 -6 35 -8 35 -2 0
-4 -16 -4 -35z"/>
<path d="M1150 3369 c0 -51 4 -78 10 -74 6 3 10 40 10 81 0 43 -4 74 -10 74
-6 0 -10 -34 -10 -81z"/>
<path d="M1450 3415 c0 -19 5 -35 10 -35 6 0 10 16 10 35 0 19 -4 35 -10 35
-5 0 -10 -16 -10 -35z"/>
<path d="M1590 3421 c0 -17 5 -31 10 -31 6 0 10 11 10 24 0 14 -4 28 -10 31
-6 4 -10 -7 -10 -24z"/>
<path d="M1737 3443 c-11 -10 -8 -141 3 -148 6 -4 10 23 10 74 0 81 -1 87 -13
74z"/>
<path d="M2010 3421 c0 -17 5 -31 10 -31 6 0 10 11 10 24 0 14 -4 28 -10 31
-6 4 -10 -7 -10 -24z"/>
<path d="M2150 3375 c0 -19 4 -35 8 -35 4 0 6 16 4 35 -2 19 -6 35 -8 35 -2 0
-4 -16 -4 -35z"/>
<path d="M2480 3375 c0 -19 4 -35 8 -35 4 0 6 16 4 35 -2 19 -6 35 -8 35 -2 0
-4 -16 -4 -35z"/>
<path d="M2847 3443 c-11 -10 -8 -141 3 -148 6 -4 10 23 10 74 0 81 -1 87 -13
74z"/>
<path d="M3170 3420 c0 -16 5 -30 10 -30 6 0 10 14 10 30 0 17 -4 30 -10 30
-5 0 -10 -13 -10 -30z"/>
<path d="M3170 3325 c0 -19 5 -35 10 -35 6 0 10 16 10 35 0 19 -4 35 -10 35
-5 0 -10 -16 -10 -35z"/>
<path d="M3310 3375 c0 -19 4 -35 8 -35 4 0 6 16 4 35 -2 19 -6 35 -8 35 -2 0
-4 -16 -4 -35z"/>
<path d="M3810 3375 c0 -19 4 -35 8 -35 4 0 6 16 4 35 -2 19 -6 35 -8 35 -2 0
-4 -16 -4 -35z"/>
<path d="M344 3101 c-6 -6 -5 -1311 1 -1311 3 0 27 11 53 24 85 43 160 60 262
59 214 -1 397 -109 485 -287 40 -79 44 -106 15 -113 -11 -3 -20 -10 -20 -15 0
-6 7 -7 18 -2 9 4 60 9 113 9 53 1 101 5 108 9 6 4 11 4 11 0 0 -3 6 -2 13 4
7 6 60 13 118 16 94 5 109 3 163 -19 33 -13 61 -23 63 -21 2 2 -12 27 -31 57
-37 55 -127 251 -129 280 -1 9 -6 15 -13 12 -11 -4 -79 125 -70 134 2 2 18
-24 35 -59 24 -48 37 -62 53 -63 19 0 31 -22 83 -150 34 -82 85 -190 115 -238
29 -48 51 -89 49 -90 -24 -13 -166 -80 -207 -97 -42 -18 -51 -26 -47 -41 5
-14 1 -19 -12 -19 -16 -1 -15 -3 5 -19 12 -11 22 -24 22 -30 0 -6 10 -15 21
-22 16 -8 20 -8 14 1 -4 7 5 5 23 -4 17 -9 53 -16 79 -16 65 0 79 -10 54 -39
-11 -13 -24 -20 -30 -17 -5 3 -7 -2 -4 -13 7 -27 78 -101 97 -101 8 0 16 -6
18 -12 4 -10 194 -14 896 -16 l892 -4 0 1106 0 1106 -1656 2 c-911 2 -1658 1
-1660 -1z m1940 -38 c23 -10 36 -23 34 -33 -2 -9 5 -28 14 -42 17 -25 17 -26
-7 -32 -13 -3 -45 -19 -72 -35 -26 -16 -68 -40 -93 -55 -25 -15 -67 -45 -95
-67 -27 -22 -77 -55 -110 -74 -77 -43 -171 -123 -222 -188 -16 -20 -17 -47 -1
-47 9 0 9 -3 0 -12 -9 -9 -16 -8 -29 3 -10 8 -30 15 -45 14 -24 -1 -29 4 -34
33 -17 91 22 170 150 297 133 132 238 206 355 251 43 16 105 11 155 -13z m154
-169 c-1 -9 -9 -19 -16 -22 -11 -3 -12 0 -3 17 7 12 9 27 5 34 -5 9 -4 9 5 1
7 -7 11 -20 9 -30z m-1988 -118 c0 -19 -17 -29 -37 -22 -12 5 -13 9 -3 21 16
19 40 19 40 1z m1970 -40 c23 -13 22 -14 -29 -13 -49 2 -55 -1 -82 -33 -16
-19 -29 -40 -29 -47 0 -7 -7 -13 -15 -13 -18 0 -19 9 -5 47 24 63 100 92 160
59z m-1572 -35 c32 -17 23 -34 -24 -46 -21 -5 -47 -18 -58 -29 -16 -16 -27
-18 -85 -11 -36 3 -96 10 -132 13 -42 5 -72 13 -83 25 -10 9 -22 17 -27 17
-19 0 -8 30 14 35 57 12 81 13 222 11 98 -1 158 -7 173 -15z m1561 -23 c-2 -2
-20 -16 -39 -33 l-35 -30 29 33 c17 17 34 32 40 32 5 0 7 -1 5 -2z m-215 -17
c18 -7 18 -8 2 -14 -16 -6 -56 7 -56 18 0 7 32 5 54 -4z m460 -8 c4 -4 35 -7
69 -5 34 1 69 -2 77 -7 21 -14 -1 -50 -83 -133 -37 -37 -66 -72 -63 -77 3 -4
-16 -7 -42 -7 -44 1 -47 3 -50 29 -2 15 1 27 7 27 6 0 11 12 11 28 0 15 9 41
20 57 11 17 20 42 20 56 0 35 16 50 34 32z m-814 -53 c0 -5 -4 -10 -10 -10 -5
0 -10 5 -10 10 0 6 5 10 10 10 6 0 10 -4 10 -10z m985 -130 c-10 -11 -23 -20
-29 -20 -6 0 0 9 14 20 32 25 38 25 15 0z m298 -20 c57 -25 58 -34 3 -19 -44
12 -104 1 -167 -31 -50 -26 -53 -26 -44 13 3 17 8 39 9 47 3 18 67 28 116 18
19 -4 57 -17 83 -28z m-1393 6 c0 -2 -7 -7 -16 -10 -8 -3 -12 -2 -9 4 6 10 25
14 25 6z m-863 -31 c3 -9 -3 -25 -13 -36 -28 -31 -101 -71 -121 -67 -14 3 -9
12 27 52 57 62 95 80 107 51z m823 -16 c0 -6 -4 -7 -10 -4 -5 3 -10 11 -10 16
0 6 5 7 10 4 6 -3 10 -11 10 -16z m45 -19 c3 -5 1 -10 -4 -10 -6 0 -11 5 -11
10 0 6 2 10 4 10 3 0 8 -4 11 -10z m72 -85 c8 -9 13 -19 9 -22 -7 -7 -36 16
-36 28 0 13 10 11 27 -6z m-74 -78 c1 -5 21 0 43 11 22 11 56 23 75 27 33 6
41 2 95 -43 32 -27 68 -59 79 -72 l20 -23 -22 12 c-22 11 -23 10 -23 -19 0
-18 -11 -46 -26 -65 -22 -30 -31 -34 -64 -32 -21 1 -36 5 -34 9 3 4 -1 10 -9
15 -7 4 -23 24 -35 43 -32 52 -27 32 14 -50 24 -50 38 -69 44 -60 7 11 17 10
57 -4 67 -25 133 -26 133 -4 0 20 22 28 70 25 35 -3 35 -3 31 -47 -2 -24 -7
-53 -11 -64 -9 -24 44 -94 111 -147 35 -27 39 -29 37 -10 -5 35 16 27 27 -11
15 -55 31 -67 40 -29 7 32 29 61 46 61 5 0 2 -11 -6 -24 -9 -13 -20 -38 -25
-55 -8 -29 -6 -34 47 -79 31 -26 90 -77 132 -114 42 -38 79 -68 83 -68 3 0 14
25 23 55 10 30 24 60 31 66 21 18 80 2 119 -32 19 -17 39 -28 45 -24 20 12 10
-18 -26 -76 -34 -57 -50 -68 -69 -50 -17 15 -105 40 -105 30 0 -6 -13 -1 -28
9 -27 20 -28 20 -67 1 -24 -11 -51 -16 -67 -13 -28 6 -35 -3 -20 -22 4 -5 -52
52 -125 126 -73 74 -132 130 -133 123 0 -7 -10 -10 -27 -7 -19 3 -68 45 -148
124 -66 66 -124 123 -129 127 -13 10 275 -306 384 -422 46 -49 102 -110 125
-135 48 -54 -88 81 -233 232 -57 59 -108 111 -115 115 -16 10 81 -115 120
-154 18 -18 30 -33 28 -33 -2 0 6 -10 18 -23 12 -13 47 -52 77 -87 30 -35 63
-72 72 -81 18 -19 38 -53 38 -65 0 -4 -6 1 -14 11 -7 10 -19 16 -27 13 -8 -3
-23 -2 -34 3 -17 6 -17 8 -2 8 9 1 17 5 17 11 0 11 -32 1 -42 -14 -5 -7 -8 -7
-8 2 0 6 -7 12 -15 12 -16 0 -33 13 -98 73 -55 49 -66 47 -24 -5 44 -55 50
-67 35 -64 -7 1 -15 6 -16 11 -11 29 -25 45 -50 57 -15 7 -27 19 -27 25 0 7
-15 26 -32 42 -18 17 -33 35 -33 41 0 6 -15 26 -34 44 -40 41 -206 270 -206
285 0 6 12 11 27 11 21 0 24 3 15 12 -9 9 -9 15 1 26 6 8 17 38 22 66 8 38 17
54 35 64 23 12 21 13 -26 8 -37 -5 -51 -3 -51 7 0 17 -123 247 -132 247 -5 0
-21 -10 -37 -22 -16 -12 -30 -23 -32 -24 -4 -2 55 -88 98 -144 15 -19 35 -49
43 -67 15 -28 15 -35 1 -68 -14 -34 -14 -38 3 -51 10 -7 25 -11 33 -8 48 19
50 13 6 -20 l-49 -38 -26 28 c-69 77 -141 175 -135 186 4 6 3 8 -4 4 -13 -8
-52 40 -52 66 0 11 5 29 12 41 7 12 12 44 12 71 1 32 6 51 15 54 10 3 12 -4 9
-32 -4 -36 4 -47 18 -25 4 7 8 24 9 38 3 46 5 51 15 51 6 0 8 -11 4 -25 -7
-28 7 -33 26 -10 10 12 10 22 2 39 -6 13 -8 27 -4 31 6 6 28 -17 35 -38z
m1604 -18 c42 -35 -20 -150 -285 -532 -103 -149 -139 -194 -147 -184 -5 7 -18
16 -27 20 -24 9 -225 144 -233 157 -5 9 26 65 45 80 4 3 25 32 47 65 22 33 63
88 91 123 28 35 54 73 58 85 22 70 126 163 215 193 52 17 212 12 236 -7z
m-2287 -55 c0 -8 -5 -12 -10 -9 -6 4 -8 11 -5 16 9 14 15 11 15 -7z m449 -53
c-6 -18 -9 -60 -7 -94 5 -62 5 -62 -10 -27 -15 36 -12 84 7 134 16 39 24 28
10 -13z m761 -192 c0 -37 -4 -58 -10 -54 -16 10 -11 115 6 115 2 0 4 -27 4
-61z m-430 -49 c0 -5 -2 -10 -4 -10 -3 0 -8 5 -11 10 -3 6 -1 10 4 10 6 0 11
-4 11 -10z m457 -21 c-5 -20 -5 -20 13 -4 19 17 19 16 8 -13 -9 -24 -15 -29
-25 -20 -14 11 -17 40 -6 51 12 12 15 7 10 -14z m-515 -114 c59 -106 71 -136
36 -95 -17 20 -20 21 -13 5 13 -33 18 -136 7 -147 -16 -16 -66 67 -126 205
-51 118 -52 122 -32 129 55 17 68 8 128 -97z m1399 17 c-12 -22 -41 -48 -41
-36 0 8 40 54 47 54 2 0 -1 -8 -6 -18z m-794 -44 c-3 -8 -6 -5 -6 6 -1 11 2
17 5 13 3 -3 4 -12 1 -19z m-529 -123 c-3 -3 -9 2 -12 12 -6 14 -5 15 5 6 7
-7 10 -15 7 -18z m447 -95 c10 -11 16 -20 13 -20 -3 0 -13 9 -23 20 -10 11
-16 20 -13 20 3 0 13 -9 23 -20z m-179 -217 c12 -4 -6 -12 -56 -24 -41 -10
-76 -16 -78 -14 -2 2 13 13 35 24 40 21 70 25 99 14z"/>
<path d="M2285 3040 c-3 -5 -1 -10 4 -10 6 0 11 5 11 10 0 6 -2 10 -4 10 -3 0
-8 -4 -11 -10z"/>
<path d="M1644 2122 c-20 -14 -55 -73 -51 -85 3 -7 6 -4 6 6 1 10 6 15 11 12
6 -4 8 -11 4 -16 -3 -5 -2 -8 3 -7 11 4 94 -88 86 -95 -3 -4 -1 -7 5 -7 7 0
24 -13 39 -30 19 -22 30 -27 39 -20 12 11 8 53 -5 45 -8 -4 -91 87 -130 143
-35 50 -10 37 33 -18 22 -28 41 -48 43 -46 5 5 -55 114 -66 120 -4 3 -11 2
-17 -2z"/>
<path d="M1877 1744 c-6 -6 177 -259 196 -271 6 -3 -8 20 -31 53 -23 33 -42
65 -42 72 0 7 -7 12 -15 12 -8 0 -15 9 -15 19 0 11 -4 22 -9 26 -6 3 -20 26
-32 50 -21 42 -37 54 -52 39z"/>
<path d="M3190 1983 c-47 -53 -100 -140 -100 -163 0 -8 -9 -33 -21 -55 -25
-48 -16 -39 38 35 52 72 137 219 131 226 -3 3 -25 -17 -48 -43z"/>
<path d="M541 1814 c-73 -19 -166 -62 -187 -85 -15 -16 -15 -38 -8 -216 4
-109 9 -190 12 -180 3 17 5 17 22 2 17 -15 19 -14 39 13 11 17 25 40 30 53 6
18 16 24 42 25 19 0 72 4 119 8 47 4 114 9 150 11 36 2 92 5 125 7 l60 3 -2
140 -1 140 10 -125 c5 -69 11 -131 14 -138 2 -9 18 -12 46 -10 l43 3 0 93 0
94 -51 48 c-116 110 -305 157 -463 114z m36 -129 l0 -70 -7 60 c-4 33 -8 78
-8 100 0 38 1 38 8 10 4 -16 8 -61 7 -100z m126 58 c4 -38 6 -93 6 -123 l-1
-55 -8 50 c-12 76 -18 195 -10 195 4 0 10 -30 13 -67z m127 -35 c0 -45 -2 -79
-4 -77 -8 10 -14 159 -5 159 5 0 9 -37 9 -82z m-381 -18 c-1 -53 -6 -44 -12
24 -3 30 -1 43 4 35 5 -8 8 -34 8 -59z m8 -127 c-2 -16 -4 -3 -4 27 0 30 2 43
4 28 2 -16 2 -40 0 -55z m380 -50 c-2 -21 -4 -4 -4 37 0 41 2 58 4 38 2 -21 2
-55 0 -75z m-250 55 c-3 -7 -5 -2 -5 12 0 14 2 19 5 13 2 -7 2 -19 0 -25z
m-120 -85 c-3 -10 -5 -4 -5 12 0 17 2 24 5 18 2 -7 2 -21 0 -30z"/>
<path d="M1070 1544 l0 -75 33 3 c28 3 32 6 28 28 -3 26 -48 120 -56 120 -3 0
-5 -34 -5 -76z"/>
<path d="M1145 1273 c-49 -19 -97 -41 -105 -48 -16 -14 -135 -45 -175 -45 -14
0 -29 -9 -35 -20 -10 -18 -7 -22 22 -34 l33 -14 -30 -13 -30 -12 25 -7 c14 -5
50 -8 80 -9 46 -1 82 10 231 70 l176 72 -1 36 c-1 27 -7 38 -26 48 -37 19 -65
15 -165 -24z"/>
<path d="M3237 76 c-6 -16 2 -28 14 -20 12 7 11 34 0 34 -5 0 -11 -6 -14 -14z"/>
<path d="M3570 60 c0 -5 5 -10 10 -10 6 0 10 5 10 10 0 6 -4 10 -10 10 -5 0
-10 -4 -10 -10z"/>
<path d="M3697 76 c-6 -16 2 -28 14 -20 12 7 11 34 0 34 -5 0 -11 -6 -14 -14z"/>
</g>
</svg>
