<?xml version="1.0" standalone="no"?>
<!DOCTYPE svg PUBLIC "-//W3C//DTD SVG 20010904//EN"
 "http://www.w3.org/TR/2001/REC-SVG-20010904/DTD/svg10.dtd">
<svg version="1.0" xmlns="http://www.w3.org/2000/svg"
 width="1439.000000pt" height="1222.000000pt" viewBox="0 0 1439.000000 1222.000000"
 preserveAspectRatio="xMidYMid meet">
<metadata>
Created by potrace 1.16, written by Peter Selinger 2001-2019
</metadata>
<g transform="translate(0.000000,1222.000000) scale(0.100000,-0.100000)"
fill="#000000" stroke="none">
<path d="M0 6110 l0 -6110 4313 1 c2371 1 4296 5 4277 9 -19 4 -29 8 -22 9 7
0 11 5 7 10 -3 5 2 28 11 50 20 50 69 84 154 106 36 9 74 21 85 26 11 5 35 11
54 13 52 6 108 88 133 196 6 25 14 52 19 60 5 8 16 31 25 50 19 44 85 98 127
104 18 2 77 9 132 15 131 15 131 15 150 31 12 10 15 23 11 43 -10 48 9 60 54
37 63 -32 113 -111 103 -163 -4 -23 7 -38 76 -104 45 -43 81 -85 81 -93 0 -9
5 -21 10 -26 24 -24 42 -129 35 -203 -3 -41 -9 -79 -12 -85 -10 -16 -9 -66 2
-67 6 -1 -3 -5 -20 -9 -16 -4 1008 -8 2278 -9 l2307 -1 0 6110 0 6110 -7195 0
-7195 0 0 -6110z m3650 5829 l0 -70 22 15 c29 21 92 20 123 0 36 -24 58 -92
53 -164 -8 -108 -65 -154 -184 -147 -39 2 -76 7 -82 11 -9 5 -12 68 -12 217
l0 209 40 0 40 0 0 -71z m2820 -144 l0 -215 -35 0 c-25 0 -35 4 -35 16 0 13
-5 12 -26 -5 -38 -30 -94 -28 -133 5 -54 45 -67 148 -28 224 26 53 72 80 135
80 l42 0 0 55 0 55 40 0 40 0 0 -215z m5530 30 l0 -185 45 0 c43 0 45 -1 45
-30 l0 -30 -135 0 -135 0 0 30 c0 29 1 30 50 30 l50 0 0 155 0 155 -45 0 c-43
0 -45 1 -45 30 l0 30 85 0 85 0 0 -185z m-7300 115 l0 -50 60 0 60 0 0 -30 0
-30 -60 0 -60 0 0 -90 c0 -103 10 -117 81 -105 38 7 39 6 39 -23 0 -36 -13
-42 -87 -42 -47 0 -59 4 -84 29 -28 29 -29 32 -29 130 l0 100 -42 3 c-38 3
-43 6 -43 28 0 22 5 25 43 28 42 3 42 3 42 43 0 32 4 41 23 49 49 19 57 14 57
-40z m-2350 -29 c11 -37 20 -74 20 -81 0 -28 16 4 36 73 l21 72 45 3 46 3 6
-88 c3 -48 8 -139 12 -200 l6 -113 -34 0 -35 0 -7 92 c-3 50 -6 116 -7 147
l-1 56 -27 -85 c-25 -76 -30 -85 -54 -88 -24 -3 -27 2 -46 66 -12 38 -22 75
-22 83 -4 31 -17 -111 -18 -188 l-1 -83 -36 0 -36 0 6 93 c3 50 8 140 12 200
l6 107 44 0 43 0 21 -69z m1101 -27 c61 -31 89 -159 51 -234 -36 -72 -138
-103 -213 -64 -91 46 -89 238 3 294 40 24 116 27 159 4z m1006 -17 c32 -30 37
-41 41 -90 l4 -57 -101 0 c-92 0 -101 -2 -101 -19 0 -10 9 -29 19 -42 18 -22
26 -24 95 -22 l76 2 0 -29 c0 -34 -13 -40 -97 -40 -122 0 -179 56 -171 169 8
106 59 161 150 161 41 0 54 -5 85 -33z m1304 17 c61 -31 89 -159 51 -234 -38
-76 -144 -105 -218 -60 -61 38 -82 154 -43 235 32 67 137 97 210 59z m990 -1
c36 -21 59 -69 59 -122 l0 -41 -100 0 c-91 0 -100 -2 -100 -19 0 -10 9 -29 19
-42 18 -22 26 -24 95 -22 l76 2 0 -29 c0 -34 -13 -40 -97 -40 -83 0 -128 21
-153 71 -43 84 -8 220 65 250 35 14 106 10 136 -8z m678 -4 c73 -69 67 -225
-11 -282 -16 -12 -49 -22 -83 -25 l-55 -4 0 -54 0 -54 -40 0 -40 0 0 215 0
215 35 0 c25 0 35 -4 35 -16 0 -13 5 -12 26 5 36 29 102 28 133 0z m346 -5
c14 -15 25 -30 25 -34 0 -4 3 -22 6 -39 6 -31 6 -31 -34 -31 -37 0 -41 3 -47
29 -11 52 -51 51 -85 -4 -16 -26 -20 -50 -20 -124 l0 -91 -40 0 -40 0 0 155 0
155 34 0 c22 0 36 -6 40 -16 5 -13 9 -13 32 5 39 31 98 28 129 -5z m296 10
c61 -31 89 -159 51 -234 -36 -73 -129 -101 -209 -63 -67 32 -94 152 -52 238
32 67 137 97 210 59z m367 6 c27 0 32 -3 32 -25 0 -18 -5 -25 -19 -25 -16 0
-18 -6 -14 -45 5 -41 3 -47 -31 -81 -34 -34 -39 -36 -91 -32 -46 2 -55 0 -55
-14 0 -13 14 -18 68 -23 112 -11 142 -30 142 -92 0 -64 -61 -103 -162 -103
-110 0 -166 57 -119 121 20 27 21 30 5 54 -15 22 -15 27 0 56 13 27 14 39 5
67 -14 43 -4 94 24 119 33 30 46 33 117 28 36 -3 80 -5 98 -5z m319 -5 c20
-14 43 -69 43 -102 0 -8 -14 -13 -39 -13 -35 0 -40 3 -46 29 -11 52 -51 51
-85 -4 -16 -26 -20 -50 -20 -124 l0 -91 -40 0 -40 0 0 155 0 155 35 0 c22 0
38 -6 41 -15 5 -13 10 -12 31 5 31 24 90 26 120 5z m304 0 c42 -22 49 -49 49
-186 l0 -119 -35 0 c-24 0 -35 5 -35 15 0 12 -6 11 -32 -5 -74 -45 -168 -5
-168 72 0 66 57 108 145 108 41 0 45 2 45 25 0 43 -48 52 -148 28 -21 -5 -23
-3 -20 28 2 26 9 35 28 40 47 13 140 9 171 -6z m262 -5 l14 -20 18 20 c23 26
67 26 91 -1 16 -18 19 -41 22 -160 l4 -139 -36 0 -36 0 0 118 c0 127 -10 161
-35 128 -8 -11 -16 -27 -16 -35 -1 -9 -2 -20 -4 -26 -1 -5 -3 -49 -3 -97 l-2
-88 -30 0 -30 0 0 114 c0 116 -4 146 -22 146 -21 0 -38 -72 -38 -165 l0 -95
-36 0 -35 0 2 155 2 155 33 0 c20 0 34 -5 34 -12 0 -8 6 -6 17 5 24 23 69 22
86 -3z m398 5 c42 -22 49 -49 49 -186 l0 -119 -35 0 c-24 0 -35 5 -35 15 0 12
-6 11 -32 -5 -74 -45 -168 -5 -168 72 0 66 57 108 145 108 41 0 45 2 45 25 0
43 -48 52 -148 28 -21 -5 -23 -3 -20 28 2 26 9 35 28 40 47 13 140 9 171 -6z
m364 -11 c14 -15 25 -30 25 -34 0 -4 3 -22 6 -39 6 -31 6 -31 -34 -31 -37 0
-41 3 -47 29 -11 52 -51 51 -85 -4 -16 -26 -20 -50 -20 -124 l0 -91 -40 0 -40
0 0 155 0 155 35 0 c22 0 38 -6 41 -15 5 -13 10 -12 31 5 38 30 98 27 128 -6z
m626 9 c36 -21 59 -69 59 -122 l0 -41 -100 0 c-80 0 -100 -3 -100 -14 0 -54
49 -80 131 -71 l59 7 0 -30 c0 -37 -12 -42 -97 -42 -83 0 -128 21 -153 71 -44
86 -9 219 65 249 34 15 106 11 136 -7z m333 7 c20 -7 26 -16 26 -40 0 -30 -1
-31 -37 -23 -46 9 -100 9 -110 -1 -15 -15 15 -40 68 -58 88 -29 123 -90 83
-146 -25 -37 -67 -52 -143 -52 -92 0 -101 4 -101 47 0 33 2 35 25 29 64 -16
110 -17 129 -3 30 22 13 44 -48 63 -69 22 -98 51 -98 98 0 43 6 52 46 77 34
21 117 26 160 9z m657 -7 c36 -21 59 -69 59 -122 l0 -41 -100 0 c-91 0 -100
-2 -100 -19 0 -10 9 -29 19 -42 18 -22 26 -24 95 -22 l76 2 0 -29 c0 -34 -13
-40 -97 -40 -83 0 -128 21 -153 71 -40 78 -14 199 52 239 41 25 109 26 149 3z
m-8941 -118 l0 -125 45 0 c43 0 45 -1 45 -30 l0 -30 -135 0 -135 0 0 30 c0 29
1 30 50 30 l50 0 0 95 0 95 -45 0 c-43 0 -45 1 -45 30 l0 30 85 0 85 0 0 -125z
m1370 -40 c0 -187 -8 -222 -62 -255 -23 -14 -50 -20 -90 -20 -78 0 -88 6 -88
47 0 34 1 34 33 27 46 -12 95 -10 110 5 8 8 13 60 15 156 l3 145 -75 0 -76 0
0 30 0 30 115 0 115 0 0 -165z m940 40 l0 -125 45 0 c43 0 45 -1 45 -30 l0
-30 -135 0 -135 0 0 30 c0 29 1 30 50 30 l50 0 0 95 0 95 -45 0 c-43 0 -45 1
-45 30 l0 30 85 0 85 0 0 -125z m239 18 c20 -56 39 -104 42 -108 3 -3 23 44
44 105 l37 110 43 0 43 0 -61 -155 -60 -155 -46 0 -46 0 -57 148 c-32 82 -58
152 -58 156 0 4 19 6 42 4 l41 -3 36 -102z m-4609 -618 l0 -215 -35 0 c-25 0
-35 4 -35 16 0 13 -5 12 -26 -5 -39 -31 -104 -28 -138 5 -50 50 -60 151 -23
224 26 53 72 80 135 80 l42 0 0 55 0 55 40 0 40 0 0 -215z m1470 144 l0 -71
25 16 c13 9 42 16 63 16 74 0 119 -75 109 -181 -6 -65 -32 -111 -77 -134 -33
-17 -136 -20 -174 -5 l-26 10 0 210 0 210 40 0 40 0 0 -71z m4720 -114 l0
-185 45 0 c43 0 45 -1 45 -30 l0 -30 -135 0 -135 0 0 30 c0 29 1 30 50 30 l50
0 0 155 0 155 -45 0 c-43 0 -45 1 -45 30 l0 30 85 0 85 0 0 -185z m-2350 115
l0 -50 60 0 60 0 0 -30 0 -30 -60 0 -60 0 0 -90 c0 -103 10 -117 81 -105 38 7
39 6 39 -23 0 -36 -13 -42 -87 -42 -47 0 -59 4 -84 29 -28 29 -29 32 -29 130
l0 100 -42 3 c-39 3 -43 5 -44 31 -1 25 2 27 42 27 l43 0 3 42 c2 35 7 43 28
49 48 13 50 11 50 -41z m7260 0 l0 -50 60 0 60 0 0 -30 0 -30 -60 0 -60 0 0
-90 c0 -103 10 -117 81 -105 38 7 39 6 39 -23 0 -36 -13 -42 -87 -42 -47 0
-59 4 -84 29 -28 29 -29 32 -29 130 l0 100 -42 3 c-37 3 -42 6 -45 31 -4 26
-2 27 41 27 l45 0 3 42 c2 35 7 43 28 49 48 13 50 11 50 -41z m-10819 -57 c36
-21 59 -69 59 -122 l0 -41 -100 0 c-91 0 -100 -2 -100 -19 0 -10 9 -29 19 -42
18 -22 26 -24 95 -22 l76 2 0 -28 c0 -36 -13 -41 -97 -41 -83 0 -128 21 -153
71 -25 48 -25 131 -2 179 36 72 135 103 203 63z m333 7 c20 -7 26 -16 26 -41
0 -30 -1 -30 -32 -22 -41 10 -105 10 -115 0 -15 -16 15 -41 68 -59 88 -29 123
-90 83 -146 -25 -37 -67 -52 -143 -52 -92 0 -101 4 -101 47 0 33 2 35 25 29
64 -16 110 -17 129 -3 29 22 13 43 -46 62 -59 20 -86 39 -99 72 -12 33 9 82
45 104 34 21 117 26 160 9z m364 -33 c3 -34 1 -38 -15 -33 -81 24 -117 13
-139 -41 -18 -42 -12 -91 15 -124 19 -24 63 -30 114 -16 28 8 28 7 25 -30 l-3
-38 -70 -3 c-81 -3 -122 16 -155 70 -28 46 -27 131 3 182 32 56 77 77 157 74
l65 -3 3 -38z m979 28 c20 -14 43 -69 43 -102 0 -8 -14 -13 -39 -13 -35 0 -40
3 -46 29 -11 52 -51 51 -85 -4 -16 -26 -20 -50 -20 -124 l0 -91 -40 0 -40 0 0
155 0 155 35 0 c22 0 38 -6 41 -15 5 -13 10 -12 31 5 31 24 90 26 120 5z m566
-5 c13 -19 13 -19 30 0 22 26 69 26 93 -1 16 -18 19 -41 22 -160 l4 -139 -36
0 -36 0 0 114 c0 114 -5 146 -21 146 -20 0 -30 -49 -31 -151 l-1 -109 -33 0
-34 0 0 108 c0 112 -6 152 -22 152 -21 0 -38 -72 -38 -165 l0 -95 -35 0 -35 0
0 155 0 155 35 0 c21 0 35 -5 35 -12 0 -8 6 -6 17 5 23 23 69 22 86 -3z m744
-13 c32 -30 37 -41 41 -90 l4 -57 -101 0 c-92 0 -101 -2 -101 -19 0 -10 9 -29
19 -42 18 -22 26 -24 95 -22 l76 2 0 -29 c0 -35 -13 -40 -102 -40 -115 0 -168
51 -168 162 0 101 61 168 152 168 41 0 54 -5 85 -33z m337 2 c25 -29 26 -35
26 -160 l0 -129 -40 0 -39 0 -3 121 c-3 102 -6 124 -20 133 -14 8 -23 5 -48
-19 -30 -28 -30 -30 -30 -132 l0 -103 -40 0 -40 0 0 155 0 155 35 0 c25 0 35
-4 35 -16 0 -13 4 -12 28 5 17 13 43 20 69 21 34 0 46 -5 67 -31z m635 17 c44
-23 63 -62 68 -135 5 -77 -14 -122 -67 -158 -43 -30 -119 -31 -165 -3 -88 54
-83 235 7 290 39 24 116 27 157 6z m1013 -24 c26 -25 32 -41 36 -86 l4 -56
-101 0 c-92 0 -101 -2 -101 -19 0 -10 9 -29 19 -42 18 -22 26 -24 95 -22 l76
3 0 -29 c0 -36 -13 -41 -102 -41 -84 0 -121 18 -149 72 -39 77 -13 197 53 238
50 32 129 24 170 -18z m661 12 c36 -36 50 -86 44 -155 -9 -97 -62 -149 -152
-149 l-45 0 0 -55 0 -55 -40 0 -40 0 0 215 0 215 35 0 c25 0 35 -4 35 -16 0
-13 4 -12 28 5 40 30 102 28 135 -5z m638 10 c61 -31 89 -159 51 -234 -36 -72
-138 -103 -213 -64 -91 46 -89 238 3 294 40 24 116 27 159 4z m364 -10 c14
-15 25 -30 25 -34 0 -4 3 -22 6 -39 6 -31 6 -31 -34 -31 -37 0 -41 3 -47 29
-11 52 -51 51 -85 -4 -16 -26 -20 -50 -20 -124 l0 -91 -40 0 -40 0 0 155 0
155 35 0 c22 0 38 -6 41 -15 5 -13 10 -12 31 5 38 30 98 27 128 -6z m296 11
c42 -22 49 -49 49 -186 l0 -119 -35 0 c-26 0 -35 4 -35 17 0 14 -2 14 -20 -2
-11 -10 -41 -20 -69 -23 -46 -4 -53 -2 -81 26 -72 73 -8 172 113 172 44 0 47
2 47 25 0 43 -48 52 -148 28 -21 -5 -23 -3 -20 28 2 26 9 35 28 40 47 13 140
9 171 -6z m367 -28 c3 -34 1 -38 -15 -33 -81 24 -117 13 -139 -41 -18 -42 -12
-91 15 -124 19 -24 63 -30 114 -16 28 8 28 7 25 -30 l-3 -38 -70 -3 c-81 -3
-122 16 -155 70 -28 46 -27 131 3 182 32 56 77 77 157 74 l65 -3 3 -38z m623
27 c61 -31 89 -159 51 -234 -54 -108 -223 -108 -266 0 -34 84 -8 191 56 230
40 24 116 27 159 4z m350 -13 l29 -29 0 -131 0 -131 -40 0 -39 0 -3 121 c-3
102 -6 124 -20 133 -14 8 -23 5 -48 -19 -30 -28 -30 -30 -30 -132 l0 -103 -40
0 -40 0 0 155 0 155 35 0 c25 0 35 -4 35 -16 0 -13 4 -12 28 5 41 31 97 28
133 -8z m1300 14 c42 -22 49 -49 49 -186 l0 -119 -35 0 c-26 0 -35 4 -35 17 0
14 -2 14 -20 -2 -11 -10 -41 -20 -69 -23 -46 -4 -53 -2 -81 26 -72 73 -8 172
113 172 44 0 47 2 47 25 0 43 -48 52 -148 28 -21 -5 -23 -3 -20 28 2 26 9 35
28 40 47 13 140 9 171 -6z m681 -23 c26 -25 32 -41 36 -86 l4 -56 -101 0 c-92
0 -101 -2 -101 -19 0 -10 9 -29 19 -42 18 -22 26 -24 95 -22 l76 2 0 -28 c0
-36 -13 -41 -102 -41 -84 0 -121 18 -149 72 -39 77 -13 197 53 238 50 32 129
24 170 -18z m329 9 l29 -29 0 -131 0 -131 -40 0 -39 0 -3 121 c-3 102 -6 124
-20 133 -14 8 -23 5 -48 -19 -30 -28 -30 -30 -30 -132 l0 -103 -40 0 -40 0 0
155 0 155 35 0 c25 0 35 -4 35 -16 0 -13 4 -12 28 5 41 31 97 28 133 -8z
m1004 3 c14 -15 25 -30 25 -34 0 -4 3 -22 6 -39 6 -31 6 -31 -34 -31 -37 0
-41 3 -47 29 -11 52 -51 51 -85 -4 -16 -26 -20 -50 -20 -124 l0 -91 -40 0 -40
0 0 155 0 155 35 0 c22 0 38 -6 41 -15 5 -13 10 -12 31 5 38 30 98 27 128 -6z
m295 11 c16 -8 34 -24 40 -34 5 -11 10 -76 10 -145 l0 -126 -35 0 c-24 0 -35
5 -35 15 0 12 -6 11 -32 -5 -74 -45 -168 -5 -168 72 0 66 57 108 145 108 41 0
45 2 45 25 0 43 -48 52 -148 28 -21 -5 -23 -3 -20 28 2 26 9 35 28 40 46 13
140 9 170 -6z m-11018 -116 c3 -102 6 -124 20 -133 14 -8 23 -5 48 19 30 28
30 30 30 132 l0 103 40 0 40 0 0 -155 0 -155 -35 0 c-25 0 -35 4 -35 16 0 13
-5 12 -26 -5 -41 -32 -98 -28 -135 8 l-29 29 0 131 0 131 40 0 39 0 3 -121z
m1088 -4 l0 -125 45 0 c43 0 45 -1 45 -30 l0 -30 -135 0 -135 0 0 30 c0 29 1
30 50 30 l50 0 0 95 0 95 -45 0 c-43 0 -45 1 -45 30 l0 30 85 0 85 0 0 -125z
m660 0 l0 -125 45 0 c43 0 45 -1 45 -30 l0 -30 -135 0 -135 0 0 30 c0 29 1 30
50 30 l50 0 0 95 0 95 -45 0 c-43 0 -45 1 -45 30 l0 30 85 0 85 0 0 -125z
m2562 76 l33 -49 33 49 c31 46 35 49 77 49 l44 0 -53 -77 -53 -77 47 -65 c69
-96 68 -91 13 -91 -48 0 -49 1 -78 50 -16 28 -32 50 -35 50 -3 0 -19 -22 -35
-50 -29 -49 -30 -50 -78 -50 -55 0 -55 -3 8 80 23 30 45 60 49 67 4 7 -15 42
-44 83 -27 38 -50 72 -50 75 0 3 20 5 45 5 43 0 46 -2 77 -49z m2388 -76 l0
-125 45 0 c43 0 45 -1 45 -30 l0 -30 -135 0 -135 0 0 30 c0 29 1 30 50 30 l50
0 0 95 0 95 -45 0 c-43 0 -45 1 -45 30 l0 30 85 0 85 0 0 -125z m1227 25 c18
-52 36 -102 39 -110 3 -8 24 35 46 98 l40 112 43 0 43 0 -68 -171 c-92 -228
-126 -269 -220 -269 -38 0 -40 2 -40 30 0 27 3 30 30 30 35 0 80 38 80 68 0
10 -25 81 -55 157 -30 77 -55 143 -55 148 0 4 19 7 41 5 l42 -3 34 -95z m992
-7 c20 -56 39 -104 42 -107 3 -3 22 44 43 104 l38 110 43 0 43 0 -59 -151
c-32 -83 -59 -152 -59 -155 0 -2 -21 -4 -47 -4 l-48 0 -57 148 c-32 81 -58
151 -58 156 0 4 19 6 42 4 l41 -3 36 -102z m1313 -14 c3 -102 6 -124 20 -133
14 -8 23 -5 48 19 30 28 30 30 30 132 l0 103 40 0 40 0 0 -155 0 -155 -35 0
c-25 0 -35 4 -35 16 0 13 -5 12 -26 -5 -41 -32 -98 -28 -135 8 l-29 29 0 131
0 131 40 0 39 0 3 -121z m-6856 -87 c35 -23 43 -85 18 -138 -17 -36 -82 -74
-127 -74 -22 0 -27 5 -27 24 0 19 7 25 35 30 51 10 61 36 33 85 -22 39 -22 40
-4 60 19 21 52 27 72 13z m711 -759 c47 -42 94 -158 106 -259 5 -41 4 -42 -32
-48 -52 -8 -221 -7 -221 2 2 40 23 163 35 205 31 105 68 138 112 100z m442
-18 c54 -62 73 -114 94 -250 30 -191 -29 -435 -104 -435 -10 0 -31 11 -46 26
l-28 25 35 -7 c19 -3 40 -7 45 -8 21 -3 8 74 -20 110 -39 51 -52 29 -19 -31
l27 -48 -44 7 c-24 4 -48 11 -52 15 -16 16 -57 142 -57 174 0 18 7 51 15 74
22 65 25 112 9 185 -14 63 -14 70 4 110 42 94 89 111 141 53z m340 -85 c40
-29 101 -111 101 -134 -1 -6 -9 -21 -19 -33 -15 -18 -30 -23 -70 -23 l-51 0 7
45 c11 82 -52 133 -68 55 -5 -23 -3 -45 7 -64 15 -32 13 -41 -10 -33 -21 8
-30 96 -16 161 11 54 12 56 44 56 21 0 49 -11 75 -30z m-669 -294 c0 -72 -8
-84 -64 -93 -20 -3 -39 -10 -42 -15 -3 -5 2 -38 11 -75 14 -54 14 -67 3 -74
-16 -11 -20 -11 -34 -1 -43 30 -107 169 -119 259 l-7 52 44 4 c23 2 80 4 126
5 l82 2 0 -64z m2630 -1566 c0 -131 3 -159 15 -164 37 -14 11 -26 -55 -26 -53
0 -70 3 -70 14 0 8 7 16 15 20 12 4 15 28 15 130 0 97 -3 128 -15 140 -8 8
-15 19 -15 24 0 10 89 31 103 25 4 -2 7 -75 7 -163z m-2435 125 c0 -18 -8 -20
-72 -23 l-73 -3 0 -34 0 -35 51 0 c43 0 55 -5 80 -29 22 -23 29 -39 29 -70 0
-83 -40 -121 -128 -121 -66 0 -104 29 -100 74 3 28 6 31 38 31 28 0 36 -4 38
-22 5 -33 26 -47 51 -33 16 8 21 20 21 53 0 65 -25 85 -80 66 -49 -18 -60 0
-60 93 l0 79 103 -3 c94 -3 102 -4 102 -23z m1471 2 c44 -23 69 -79 68 -152
-2 -124 -54 -164 -211 -165 -58 0 -93 4 -93 10 0 6 7 13 15 16 12 5 15 31 15
144 0 113 -3 139 -15 144 -8 3 -15 11 -15 17 0 18 198 7 236 -14z m-1839 -8
c54 -26 84 -68 91 -124 7 -62 -5 -108 -34 -140 -22 -24 -30 -26 -72 -21 -59 7
-68 8 -120 0 -52 -8 -72 7 -72 52 0 40 29 63 91 71 40 6 41 7 35 37 -4 17 -11
35 -16 40 -14 14 -39 -11 -33 -33 6 -24 -11 -35 -43 -27 -28 7 -33 45 -8 70
21 21 112 21 142 0 19 -13 22 -24 22 -87 0 -78 9 -107 27 -85 31 39 21 153
-17 193 -76 81 -215 39 -238 -73 -19 -89 10 -166 78 -206 28 -17 39 -18 84 -9
30 7 55 7 61 2 18 -18 -16 -33 -84 -37 -125 -7 -202 57 -209 175 -7 106 33
178 118 212 46 18 150 13 197 -10z m629 -84 c20 -20 25 -34 22 -63 l-3 -37
-72 -3 c-68 -3 -73 -4 -73 -25 0 -48 42 -67 91 -43 33 17 49 14 49 -9 0 -35
-123 -60 -171 -35 -29 16 -49 64 -49 121 0 45 4 55 34 85 31 31 40 34 90 34
47 0 61 -4 82 -25z m147 13 c4 -10 7 -10 18 0 21 19 86 15 109 -8 17 -17 20
-33 20 -109 0 -70 3 -90 15 -95 35 -13 11 -26 -50 -26 -51 0 -65 3 -65 15 0 8
5 15 10 15 6 0 10 37 10 90 0 72 -3 92 -15 96 -33 13 -45 -15 -45 -102 0 -46
4 -84 9 -84 5 0 11 -7 15 -15 4 -12 -6 -15 -64 -15 -53 0 -70 3 -70 14 0 8 7
16 15 20 12 4 15 24 15 86 0 62 -3 82 -15 86 -23 9 -18 32 8 37 45 9 75 7 80
-5z m295 -98 c1 -58 7 -109 12 -114 20 -20 8 -26 -55 -26 -61 0 -85 13 -50 26
12 5 15 25 15 90 0 66 -3 86 -15 90 -27 11 -16 33 18 37 74 10 72 13 75 -103z
m226 100 c49 -18 73 -121 44 -185 -22 -49 -111 -71 -171 -44 -71 32 -77 189
-10 228 23 13 104 14 137 1z m176 -7 c0 -15 1 -15 18 0 23 21 65 22 81 3 7 -8
11 -27 9 -43 -2 -22 -8 -28 -28 -28 -18 0 -25 5 -24 18 2 13 -4 17 -20 15 -19
-3 -21 -10 -24 -85 -2 -47 1 -83 7 -83 5 0 11 -7 15 -15 4 -12 -6 -15 -64 -15
-53 0 -70 3 -70 14 0 8 7 16 15 20 11 4 15 23 15 80 0 63 -3 77 -19 88 -33 23
-5 44 62 47 19 1 27 -4 27 -16z m676 -8 c20 -20 25 -34 22 -63 l-3 -37 -72 -3
c-69 -3 -73 -4 -73 -27 0 -37 27 -57 64 -49 73 17 98 1 47 -29 -29 -17 -117
-23 -136 -9 -36 25 -55 67 -55 119 0 49 4 59 34 89 31 31 40 34 90 34 47 0 61
-4 82 -25z m150 6 c-16 -17 -16 -25 -6 -58 26 -81 30 -82 56 -18 21 51 22 60
9 68 -29 16 -15 27 35 27 47 0 66 -12 37 -23 -7 -3 -32 -55 -56 -117 -42 -110
-43 -111 -73 -108 -29 3 -32 8 -65 103 -19 55 -41 107 -49 116 -8 8 -14 19
-14 22 0 4 32 7 72 7 70 0 71 0 54 -19z m350 -6 c20 -20 25 -34 22 -63 l-3
-37 -72 -3 c-68 -3 -73 -4 -73 -25 0 -48 42 -67 91 -43 33 16 49 14 49 -7 0
-23 -56 -47 -107 -47 -78 1 -113 41 -113 130 0 46 4 56 34 86 31 31 40 34 90
34 47 0 61 -4 82 -25z m410 -9 c30 -30 34 -40 34 -85 0 -57 -20 -105 -49 -121
-25 -13 -102 -13 -135 0 -73 27 -75 201 -3 230 12 5 44 9 71 9 42 1 52 -3 82
-33z m154 18 c0 -14 1 -14 16 0 16 16 69 21 99 10 42 -16 60 -135 30 -194 -19
-37 -43 -50 -94 -50 l-41 0 0 -40 c0 -29 4 -40 15 -40 8 0 15 -7 15 -15 0 -12
-14 -15 -70 -15 -53 0 -70 3 -70 14 0 8 7 16 15 20 12 4 15 29 15 135 0 102
-3 133 -15 145 -22 22 -18 34 13 39 58 9 72 7 72 -9z m396 -9 c20 -20 25 -34
22 -63 l-3 -37 -72 -3 c-68 -3 -73 -4 -73 -25 0 -48 42 -67 91 -43 33 17 49
14 49 -9 0 -22 -54 -45 -107 -45 -78 1 -113 41 -113 130 0 46 4 56 34 86 31
31 40 34 90 34 47 0 61 -4 82 -25z m144 8 c0 -15 1 -15 18 0 23 21 65 22 81 3
7 -8 11 -27 9 -43 -2 -22 -8 -28 -28 -28 -18 0 -25 5 -24 18 2 13 -4 17 -20
15 -19 -3 -21 -10 -24 -82 -2 -64 0 -81 13 -88 29 -17 4 -28 -61 -28 -60 0
-84 13 -49 26 12 5 15 24 15 84 0 57 -4 81 -15 90 -23 19 -18 38 13 43 59 9
72 7 72 -10z m-3770 -1848 l0 -185 45 0 c43 0 45 -1 45 -30 l0 -30 -135 0
-135 0 0 30 c0 29 1 30 50 30 l50 0 0 155 0 155 -45 0 c-43 0 -45 1 -45 30 l0
30 85 0 85 0 0 -185z m740 -30 l0 -215 -35 0 c-25 0 -35 4 -35 16 0 13 -5 12
-26 -5 -39 -31 -104 -28 -138 5 -50 50 -60 151 -23 224 26 53 72 80 135 80
l42 0 0 55 0 55 40 0 40 0 0 -215z m2310 0 l0 -215 -35 0 c-25 0 -35 4 -35 16
0 13 -5 12 -26 -5 -56 -44 -140 -16 -170 55 -20 47 -17 121 6 171 24 55 70 83
133 83 l47 0 0 55 0 55 40 0 40 0 0 -215z m905 195 c102 -49 103 -173 2 -223
-27 -14 -37 -25 -37 -43 0 -21 -5 -24 -35 -24 l-35 0 0 60 c0 59 0 60 28 60
15 0 38 7 50 16 48 33 13 88 -62 99 -44 7 -46 9 -46 41 0 34 0 34 47 34 26 0
65 -9 88 -20z m-1685 -50 l0 -50 60 0 60 0 0 -30 0 -30 -60 0 -60 0 0 -90 c0
-103 10 -117 81 -105 38 7 39 6 39 -23 0 -36 -13 -42 -87 -42 -47 0 -59 4 -84
29 -28 29 -29 32 -29 130 l0 101 -45 0 c-43 0 -45 1 -45 30 0 29 2 30 45 30
l45 0 0 44 c0 38 3 45 23 49 56 11 57 10 57 -43z m-3351 -47 c20 -46 38 -83
41 -82 3 0 23 38 44 84 l39 85 44 0 43 0 -65 -130 c-61 -123 -65 -133 -65
-200 l0 -70 -40 0 -40 0 0 70 c0 67 -3 77 -65 201 l-66 130 47 -3 47 -3 36
-82z m798 -26 c32 -30 37 -41 41 -90 l4 -57 -101 0 c-90 0 -101 -2 -101 -17 1
-49 53 -74 134 -66 l56 6 0 -31 c0 -37 -12 -42 -103 -42 -116 0 -167 49 -167
159 0 103 61 171 153 171 40 0 53 -5 84 -33z m1304 16 c36 -21 59 -69 59 -122
l0 -41 -100 0 c-91 0 -100 -2 -100 -19 0 -10 9 -29 19 -42 18 -22 26 -24 95
-22 l76 2 0 -29 c0 -35 -13 -40 -101 -40 -86 0 -122 17 -149 70 -45 88 -8 224
70 253 32 12 103 6 131 -10z m993 7 c20 -7 26 -16 26 -40 0 -30 -1 -31 -37
-24 -54 10 -92 9 -104 -3 -18 -18 -3 -31 62 -54 90 -33 123 -91 83 -147 -25
-37 -67 -52 -143 -52 -92 0 -101 4 -101 47 0 31 2 35 23 30 67 -16 113 -18
131 -4 30 22 13 44 -48 63 -70 22 -98 50 -98 99 0 38 22 71 57 86 28 11 119
11 149 -1z m657 -6 c36 -18 59 -67 59 -124 l0 -40 -100 0 c-80 0 -100 -3 -100
-14 0 -54 49 -80 131 -71 l59 7 0 -30 c0 -37 -12 -42 -102 -42 -48 0 -79 5
-100 18 -87 50 -92 215 -8 286 37 31 112 36 161 10z m660 -1 c36 -21 59 -69
59 -122 l0 -41 -100 0 c-84 0 -100 -2 -100 -16 0 -51 53 -77 136 -68 l54 7 0
-31 c0 -37 -12 -42 -97 -42 -117 0 -173 51 -173 159 0 78 33 140 85 161 34 15
106 11 136 -7z m333 7 c20 -7 26 -16 26 -41 0 -28 -3 -31 -22 -25 -60 16 -94
17 -113 2 -18 -13 -18 -16 -5 -29 8 -8 39 -22 67 -32 83 -26 116 -88 77 -143
-25 -37 -67 -52 -143 -52 -92 0 -101 4 -101 47 0 31 2 35 23 30 67 -16 113
-18 131 -4 30 22 13 44 -47 62 -30 8 -65 27 -78 41 -42 45 -24 120 36 145 28
11 119 11 149 -1z m-2112 -121 c3 -102 6 -124 20 -133 14 -8 23 -5 48 19 30
28 30 30 30 132 l0 103 40 0 40 0 0 -155 0 -155 -35 0 c-25 0 -35 4 -35 16 0
13 -5 12 -26 -5 -41 -32 -98 -28 -135 8 l-29 29 0 131 0 131 40 0 39 0 3 -121z
m-2862 -59 l0 -60 -30 0 c-39 0 -73 -33 -65 -63 10 -31 29 -44 80 -52 43 -6
45 -8 45 -41 0 -34 0 -34 -45 -34 -96 0 -165 57 -165 137 0 38 5 50 34 79 19
19 43 34 55 34 17 0 21 6 21 30 0 28 3 30 35 30 l35 0 0 -60z m6641 -530 c250
-25 490 -82 667 -158 252 -109 407 -237 486 -402 28 -59 31 -74 31 -160 0 -88
-2 -100 -36 -170 -63 -132 -178 -238 -360 -334 -152 -79 -328 -139 -531 -181
-25 -5 -26 -8 -21 -43 30 -208 122 -404 241 -514 56 -52 57 -56 9 -32 -163 84
-397 301 -519 481 l-39 58 -212 6 -212 5 -65 -64 c-116 -116 -256 -220 -381
-283 -80 -41 -98 -38 -51 9 62 62 172 296 172 367 0 19 -11 25 -87 45 -364 94
-638 271 -739 475 -37 75 -39 84 -39 175 0 91 2 100 37 171 47 93 110 166 213
242 88 66 276 160 400 201 156 50 388 95 565 109 104 8 375 6 471 -3z m-2456
-685 c279 -51 527 -184 652 -349 319 -423 -138 -904 -887 -933 l-145 -6 -64
-56 c-123 -109 -405 -333 -459 -365 -7 -4 7 18 31 50 59 78 121 194 156 290
47 129 51 119 -66 159 -369 124 -580 356 -560 614 5 66 42 181 58 181 5 0 9
-83 9 -185 l0 -185 73 0 c56 0 83 5 117 23 67 34 83 62 87 159 7 146 -36 189
-194 198 l-92 5 54 66 c149 184 425 311 765 353 75 9 378 -3 465 -19z m4309
-6 c34 -27 33 -51 -5 -83 -34 -29 -59 -34 -59 -11 0 9 -11 20 -25 27 -33 15
-75 -12 -75 -48 0 -22 -2 -25 -15 -14 -23 19 -19 83 8 108 48 45 127 55 171
21z m-10657 -154 c12 -22 27 -62 33 -90 14 -70 20 -184 11 -190 -5 -2 -22 -1
-37 4 -16 5 -78 19 -139 32 -60 12 -111 23 -113 24 -1 1 7 27 18 56 44 110
140 215 190 206 8 -1 25 -20 37 -42z m3431 -75 c450 -48 805 -226 915 -457 28
-60 32 -78 32 -153 0 -118 -36 -195 -138 -294 -206 -201 -545 -311 -994 -323
l-203 -6 -27 -36 c-44 -59 -143 -159 -213 -215 -91 -73 -145 -113 -139 -101
50 92 99 256 102 338 l2 59 -95 27 c-297 85 -513 230 -592 397 -29 61 -33 79
-33 154 0 75 4 93 32 153 108 228 459 405 903 456 109 12 335 13 448 1z m6694
-47 c15 -15 28 -30 28 -35 0 -10 -60 -48 -77 -48 -6 0 -14 9 -18 19 -14 46
-85 27 -85 -23 0 -26 -15 -10 -23 25 -8 32 15 66 57 85 41 18 84 10 118 -23z
m-10299 -137 c34 -8 89 -20 122 -26 99 -19 95 -16 95 -70 0 -183 -138 -460
-229 -460 -39 0 -119 95 -98 117 4 3 34 13 68 23 l63 17 18 64 c10 35 18 69
18 75 0 7 -23 19 -51 28 -76 25 -129 62 -129 89 0 19 18 92 35 145 5 15 12 15
88 -2z m5422 -70 c14 -15 26 -41 30 -71 14 -92 -31 -165 -101 -165 l-34 0 0
130 0 130 40 0 c30 0 47 -7 65 -24z m-5399 -186 c19 0 18 -25 -3 -80 -21 -56
-15 -50 -55 -59 -18 -5 -44 -11 -57 -16 -16 -5 -21 -4 -17 4 4 6 3 11 -3 11
-16 0 -18 33 -3 78 11 32 11 49 3 74 -19 54 -14 56 55 21 37 -18 73 -33 80
-33z m11120 -63 c-55 -120 -180 -283 -252 -327 -45 -28 -240 -80 -299 -80 -17
0 -55 44 -55 63 0 2 17 7 38 11 40 6 70 21 61 31 -3 3 -35 1 -70 -4 l-64 -9
-43 42 -44 43 77 12 c153 25 396 125 562 230 59 38 111 67 115 65 4 -3 -8 -37
-26 -77z m-6538 -1472 c6 -14 34 -37 61 -52 34 -19 51 -36 54 -53 3 -14 12
-61 21 -104 15 -74 15 -84 0 -135 -9 -31 -25 -92 -35 -136 -35 -147 -84 -305
-94 -301 -12 3 -12 1 11 166 15 115 19 128 50 166 55 67 83 154 49 154 -9 0
-15 -9 -15 -22 0 -27 -33 -103 -49 -112 -7 -5 -8 9 -4 46 10 78 9 113 -2 116
-9 2 -15 -22 -29 -123 -3 -16 -14 -100 -27 -185 -12 -85 -25 -173 -28 -195 -6
-36 -10 -41 -56 -58 -30 -12 -79 -20 -122 -21 -47 -1 -73 -5 -73 -12 0 -19 31
-25 90 -19 87 10 157 33 175 58 16 21 16 20 10 -28 -15 -121 -16 -126 -33
-121 -79 23 -193 0 -247 -49 -42 -40 -23 -40 56 -1 39 20 86 36 104 36 65 0
128 -30 193 -93 34 -34 62 -67 62 -73 0 -7 7 -14 15 -18 18 -7 20 -39 3 -66
-11 -18 -15 -17 -64 26 -57 48 -85 54 -134 29 -35 -18 -100 -97 -120 -145 -13
-32 -14 -32 -66 -27 -65 7 -127 35 -177 81 l-39 35 16 92 c9 51 16 112 16 135
0 44 -17 94 -32 94 -4 0 -8 11 -8 25 0 14 3 25 8 25 4 0 8 10 8 23 2 28 25
120 57 222 13 44 41 134 61 200 37 121 77 231 116 318 21 48 61 76 160 113 47
17 45 17 58 -11z m476 -60 c51 -22 57 -29 52 -48 -3 -12 -6 -34 -6 -49 0 -21
-5 -28 -20 -28 -29 0 -147 46 -182 72 -29 20 -30 22 -10 29 11 4 33 24 48 43
25 31 30 33 44 21 9 -8 42 -26 74 -40z m-130 -99 c26 -13 75 -33 108 -43 55
-17 59 -20 54 -45 -3 -14 -1 -49 3 -77 4 -28 5 -51 2 -51 -28 1 -146 32 -173
46 -42 22 -44 24 -63 114 -9 41 -18 86 -21 100 l-6 25 24 -22 c13 -13 46 -34
72 -47z m508 -126 l3 -95 -139 -3 c-76 -2 -142 0 -147 5 -4 4 4 36 19 70 l27
61 55 7 c58 7 117 33 140 60 25 30 38 -3 42 -105z m4968 37 c-83 -228 -310
-565 -468 -693 l-56 -46 -1 -92 c0 -77 -4 -99 -27 -148 -125 -268 -622 -458
-1198 -458 -251 0 -460 31 -670 100 -363 119 -562 304 -547 512 10 155 121
285 335 392 396 200 1007 243 1504 105 76 -21 80 -21 165 -5 98 19 414 108
471 132 20 9 69 27 107 41 149 54 333 157 378 213 31 38 33 20 7 -53z m-4795
49 c26 -11 36 -23 44 -53 22 -82 49 -274 56 -388 4 -66 9 -153 11 -193 5 -71
4 -74 -26 -102 -34 -31 -105 -51 -157 -43 -39 6 -45 -13 -9 -27 31 -12 91 -2
138 21 21 11 41 19 46 19 6 0 19 -19 30 -42 l20 -43 -67 -22 c-39 -13 -78 -20
-94 -17 -20 4 -39 -1 -67 -20 -22 -14 -42 -26 -46 -26 -20 0 16 277 61 465 13
55 27 115 30 133 6 29 1 100 -19 315 -5 41 0 43 49 23z m259 -925 c44 -21 102
-58 129 -83 l47 -44 -35 -13 c-19 -7 -52 -28 -72 -47 -36 -34 -38 -35 -53 -17
-13 16 -84 52 -132 67 -9 3 -28 27 -42 54 -13 26 -32 54 -40 61 -9 8 -16 17
-16 21 0 11 50 27 124 39 4 0 45 -16 90 -38z"/>
<path d="M3681 11814 c-29 -24 -31 -29 -31 -100 0 -71 1 -74 26 -80 57 -14
105 60 90 139 -7 35 -28 67 -46 67 -5 0 -22 -12 -39 -26z"/>
<path d="M6305 11816 c-30 -30 -40 -81 -26 -134 15 -55 43 -64 82 -26 27 26
29 33 29 100 0 56 -3 73 -16 78 -28 11 -44 6 -69 -18z"/>
<path d="M3331 11821 c-42 -42 -35 -157 10 -182 56 -29 105 29 96 115 -7 76
-62 111 -106 67z"/>
<path d="M5641 11821 c-42 -42 -35 -157 10 -182 56 -29 105 29 96 115 -7 76
-62 111 -106 67z"/>
<path d="M7311 11814 c-29 -24 -31 -29 -31 -100 0 -71 1 -74 26 -80 57 -14
105 60 90 139 -7 35 -28 67 -46 67 -5 0 -22 -12 -39 -26z"/>
<path d="M7951 11821 c-42 -42 -35 -157 10 -182 56 -29 105 29 96 115 -7 76
-62 111 -106 67z"/>
<path d="M537 11188 c-30 -30 -41 -86 -27 -137 14 -54 42 -62 81 -25 28 27 30
32 27 104 -3 73 -4 75 -30 78 -19 2 -35 -4 -51 -20z"/>
<path d="M2197 11182 c-24 -25 -27 -36 -27 -100 0 -69 1 -72 26 -78 35 -9 76
23 88 68 16 62 -11 138 -48 138 -7 0 -24 -13 -39 -28z"/>
<path d="M4834 11200 c-40 -16 -55 -95 -30 -154 24 -58 83 -60 112 -4 23 44
14 126 -16 150 -24 20 -34 21 -66 8z"/>
<path d="M6491 11184 c-29 -24 -31 -29 -31 -100 0 -71 1 -74 26 -80 57 -14
105 60 90 139 -7 35 -28 67 -46 67 -5 0 -22 -12 -39 -26z"/>
<path d="M7131 11191 c-45 -45 -34 -163 16 -182 58 -22 99 29 90 115 -7 76
-62 111 -106 67z"/>
<path d="M8793 11200 c-42 -17 -55 -127 -20 -173 20 -27 60 -31 88 -8 21 17
24 27 24 86 0 58 -3 69 -24 86 -25 21 -35 22 -68 9z"/>
<path d="M7580 8310 l0 -142 33 6 c45 8 73 44 80 102 12 95 -17 157 -81 170
l-32 7 0 -143z"/>
<path d="M6425 6516 c-30 -30 -40 -81 -26 -134 15 -55 43 -64 82 -26 27 26 29
33 29 100 0 56 -3 73 -16 78 -28 11 -44 6 -69 -18z"/>
<path d="M8753 6530 c-40 -16 -60 -85 -43 -149 14 -54 42 -62 81 -25 27 26 29
33 29 101 0 40 -4 73 -9 73 -5 0 -15 2 -23 4 -7 3 -23 1 -35 -4z"/>
<path d="M9948 5149 l-3 -191 86 4 c94 4 136 22 173 71 30 40 35 176 9 227
-27 53 -89 80 -185 80 l-77 0 -3 -191z m155 119 c32 -17 45 -38 52 -84 14 -89
-32 -164 -101 -164 l-34 0 0 130 0 130 31 0 c17 0 40 -5 52 -12z"/>
<path d="M10740 5263 c-8 -3 -25 -15 -37 -26 l-23 -20 0 21 c0 18 -6 22 -30
22 l-30 0 0 -150 0 -150 35 0 35 0 0 97 c0 92 1 98 27 125 15 15 34 28 43 28
34 0 40 -22 40 -137 l0 -113 36 0 36 0 -4 131 c-3 129 -3 131 -31 155 -27 23
-63 29 -97 17z"/>
<path d="M11012 5250 c-63 -39 -90 -148 -54 -220 33 -67 104 -93 201 -74 25 5
31 11 31 33 0 27 0 27 -64 23 -59 -4 -67 -2 -90 21 -49 49 -38 57 74 57 l100
0 0 35 c0 113 -107 180 -198 125z"/>
<path d="M11405 5258 c-11 -6 -26 -18 -32 -26 -11 -14 -13 -13 -13 6 0 18 -6
22 -35 22 l-35 0 0 -151 0 -150 38 3 37 3 1 92 c0 67 5 98 17 116 32 49 87 43
87 -9 0 -21 5 -24 35 -24 33 0 35 2 35 36 0 68 -76 115 -135 82z"/>
<path d="M11670 5252 c-50 -25 -75 -74 -75 -147 0 -104 58 -163 151 -152 86 9
128 62 128 162 1 42 -5 70 -19 92 -35 60 -117 80 -185 45z m110 -62 c29 -29
28 -127 0 -158 -59 -63 -132 14 -109 115 13 62 69 83 109 43z"/>
<path d="M10300 5230 c0 -29 2 -30 45 -30 l45 0 0 -90 0 -90 -50 0 c-49 0 -50
-1 -50 -30 l0 -30 128 0 129 0 1 30 c1 29 -1 30 -44 30 l-44 0 0 120 0 120
-80 0 -80 0 0 -30z"/>
<path d="M8216 4695 c-34 -23 -36 -23 -36 -5 0 16 -7 20 -30 20 l-30 0 0 -150
0 -150 35 0 35 0 0 97 c0 92 1 98 27 125 15 15 34 28 43 28 34 0 40 -22 40
-137 l0 -113 36 0 36 0 -4 131 c-3 129 -3 131 -31 155 -36 31 -75 30 -121 -1z"/>
<path d="M8512 4700 c-94 -57 -93 -239 1 -283 35 -17 112 -22 155 -11 16 5 22
14 22 33 0 27 0 27 -63 23 -68 -4 -99 11 -112 56 -6 22 -5 22 94 22 l101 0 0
35 c0 113 -107 180 -198 125z"/>
<path d="M8893 4700 c-27 -16 -33 -17 -33 -5 0 10 -11 15 -35 15 l-35 0 0
-150 0 -150 38 0 39 0 1 96 c1 68 5 103 16 119 31 47 86 40 86 -11 0 -21 5
-24 35 -24 33 0 35 2 35 36 0 26 -8 43 -29 65 -35 35 -72 37 -118 9z"/>
<path d="M9173 4706 c-87 -39 -109 -198 -37 -269 32 -32 98 -44 148 -27 97 32
127 186 52 267 -27 30 -40 36 -82 39 -30 3 -62 -1 -81 -10z m107 -66 c29 -29
28 -127 0 -158 -26 -27 -64 -28 -90 -2 -16 16 -20 33 -20 80 0 68 21 100 65
100 14 0 34 -9 45 -20z"/>
<path d="M7800 4680 c0 -29 2 -30 45 -30 l45 0 0 -90 0 -90 -50 0 c-49 0 -50
-1 -50 -30 l0 -30 129 0 129 0 -2 30 c-1 28 -3 30 -43 30 l-43 0 0 120 0 120
-80 0 -80 0 0 -30z"/>
<path d="M4625 4380 l0 -192 85 4 c97 5 137 21 172 70 20 29 23 45 23 125 0
77 -3 96 -21 120 -32 44 -70 57 -169 61 l-90 4 0 -192z m187 101 c9 -12 20
-42 24 -67 13 -91 -32 -164 -102 -164 l-34 0 0 131 0 132 47 -6 c32 -3 53 -12
65 -26z"/>
<path d="M5396 4475 c-34 -23 -36 -23 -36 -5 0 16 -7 20 -30 20 l-30 0 0 -150
0 -150 35 0 35 0 0 97 c0 92 1 98 27 125 31 33 58 36 73 9 5 -11 10 -67 10
-125 l0 -106 36 0 36 0 -4 131 c-3 129 -3 131 -31 155 -36 31 -75 30 -121 -1z"/>
<path d="M5692 4480 c-39 -24 -71 -89 -72 -142 0 -51 26 -113 56 -133 30 -20
109 -30 158 -21 31 6 36 11 36 34 l0 28 -63 -4 c-68 -4 -99 11 -112 56 -6 22
-5 22 94 22 l101 0 0 35 c0 113 -107 180 -198 125z"/>
<path d="M6073 4480 c-27 -16 -33 -17 -33 -5 0 10 -11 15 -35 15 l-35 0 0
-150 0 -150 40 0 40 0 0 100 c0 94 2 103 25 125 37 38 75 27 75 -22 0 -20 5
-23 35 -23 33 0 35 2 35 36 0 26 -8 43 -29 65 -35 35 -72 37 -118 9z"/>
<path d="M6353 4485 c-88 -38 -110 -185 -39 -262 27 -30 41 -36 82 -40 62 -5
110 18 139 67 27 47 27 142 1 186 -34 58 -115 79 -183 49z m107 -65 c16 -16
20 -33 20 -80 0 -68 -21 -100 -65 -100 -44 0 -65 32 -65 100 0 68 21 100 65
100 14 0 34 -9 45 -20z"/>
<path d="M4980 4460 c0 -29 2 -30 45 -30 l45 0 0 -90 0 -90 -50 0 c-49 0 -50
-1 -50 -30 l0 -30 128 0 128 0 0 30 c0 29 -2 30 -43 30 l-43 0 0 120 0 120
-80 0 -80 0 0 -30z"/>
<path d="M9970 1910 l0 -193 83 5 c103 5 143 25 175 88 20 38 23 57 20 122 -5
125 -45 160 -190 166 l-88 4 0 -192z m160 115 c46 -24 64 -112 36 -179 -18
-42 -51 -66 -93 -66 l-33 0 0 130 0 130 30 0 c17 0 44 -7 60 -15z"/>
<path d="M10736 2005 c-34 -23 -36 -23 -36 -5 0 16 -7 20 -30 20 l-30 0 0
-150 0 -150 35 0 35 0 0 97 c0 92 1 98 27 125 15 15 34 28 43 28 34 0 40 -22
40 -137 l0 -113 36 0 36 0 -4 131 c-3 129 -3 131 -31 155 -36 31 -75 30 -121
-1z"/>
<path d="M11040 2012 c-68 -34 -100 -147 -62 -221 32 -65 95 -90 186 -77 42 7
46 10 46 35 l0 27 -64 -4 c-59 -4 -67 -2 -90 21 -49 49 -38 57 74 57 l100 0 0
35 c0 53 -25 102 -62 125 -41 25 -82 25 -128 2z"/>
<path d="M11425 2018 c-11 -6 -26 -18 -32 -26 -11 -14 -13 -13 -13 6 0 18 -6
22 -35 22 l-35 0 0 -150 0 -150 39 0 40 0 -5 91 c-5 73 -2 95 11 115 35 54 95
53 95 -2 0 -21 5 -24 35 -24 33 0 35 2 35 36 0 68 -76 115 -135 82z"/>
<path d="M11693 2016 c-123 -56 -99 -282 32 -301 112 -17 189 69 170 193 -10
66 -56 111 -120 118 -32 3 -61 -1 -82 -10z m107 -66 c16 -16 20 -33 20 -80 0
-47 -4 -64 -20 -80 -60 -60 -132 17 -109 117 13 62 69 83 109 43z"/>
<path d="M10320 1990 c0 -29 2 -30 45 -30 l45 0 0 -90 0 -90 -50 0 c-49 0 -50
-1 -50 -30 l0 -31 128 3 127 3 0 25 c0 22 -5 25 -43 28 l-42 3 0 120 0 119
-80 0 -80 0 0 -30z"/>
<path d="M9187 90 c-19 -22 -39 -40 -46 -40 -6 0 -34 11 -61 25 l-48 25 -29
-28 c-15 -16 -36 -38 -45 -50 l-18 -22 225 0 c183 0 225 3 225 14 0 10 -150
116 -165 116 -2 0 -19 -18 -38 -40z"/>
</g>
</svg>
