<?xml version="1.0" encoding="UTF-8" standalone="no"?>
<!-- Created by Flowgorithm 3.4.1 (http://flowgorithm.org) -->

<svg xmlns:svg="http://www.w3.org/2000/svg" xmlns="http://www.w3.org/2000/svg" version="1.1" width="1079" height="1454">
	<g>
		<polyline fill="none" stroke="#404040" stroke-width="6" stroke-dasharray="none" points="227,102 227,163"/>
		<polygon fill="#404040" stroke="none" points="227,177 240,152 213,152"/>
		<polyline fill="none" stroke="#404040" stroke-width="6" stroke-dasharray="none" points="227,802 227,1338"/>
		<polygon fill="#404040" stroke="none" points="227,1352 240,1327 213,1327"/>
		<g>
			<path fill="#F0D0FF" stroke="#9070A0" stroke-width="3" stroke-dasharray="none" d="M 127,2 A 50 50, 0, 0 0, 127 102 L 327,102 A 50 50, 0, 0 0, 327 2 Z"/>
			<text x="227" y="17" fill="#000000" font-family="Arial" font-size="32pt" text-anchor="middle" direction="ltr">
				<tspan x="227" dy="50" unicode-bidi="embed">Principal</tspan>
			</text>
		</g>
		<g>
			<path fill="#F0D0FF" stroke="#9070A0" stroke-width="3" stroke-dasharray="none" d="M 127,1352 A 50 50, 0, 0 0, 127 1452 L 327,1452 A 50 50, 0, 0 0, 327 1352 Z"/>
			<text x="227" y="1367" fill="#000000" font-family="Arial" font-size="32pt" text-anchor="middle" direction="ltr">
				<tspan x="227" dy="50" unicode-bidi="embed">Fin</tspan>
			</text>
		</g>
		<g>
			<polyline fill="none" stroke="#404040" stroke-width="6" stroke-dasharray="none" points="227,302 227,363"/>
			<polygon fill="#404040" stroke="none" points="227,377 240,352 213,352"/>
			<polyline fill="none" stroke="#404040" stroke-width="6" stroke-dasharray="none" points="227,477 227,538"/>
			<polygon fill="#404040" stroke="none" points="227,552 240,527 213,527"/>
			<g>
				<path fill="#FFFFD0" stroke="#A0A070" stroke-width="3" stroke-dasharray="none" d="M 27,177 L 27,302 L 427,302 L 427,177 Z"/>
				<polyline fill="none" stroke="#A0A070" stroke-width="3" stroke-dasharray="none" points="27,202 427,202"/>
				<polyline fill="none" stroke="#A0A070" stroke-width="3" stroke-dasharray="none" points="52,177 52,302"/>
				<text x="239" y="217" fill="#000000" font-family="Arial" font-size="32pt" text-anchor="middle" direction="ltr">
					<tspan x="239" dy="50" unicode-bidi="embed">Entero contador</tspan>
				</text>
			</g>
			<g>
				<path fill="#FFFFD0" stroke="#A0A070" stroke-width="3" stroke-dasharray="none" d="M 77,377 L 77,477 L 377,477 L 377,377 Z"/>
				<text x="227" y="392" fill="#000000" font-family="Arial" font-size="32pt" text-anchor="middle" direction="ltr">
					<tspan x="227" dy="50" unicode-bidi="embed">contador = 0</tspan>
				</text>
			</g>
			<g>
				<polyline fill="none" stroke="#404040" stroke-width="6" stroke-dasharray="none" points="452,677 727,677 727,838"/>
				<polygon fill="#404040" stroke="none" points="727,852 740,827 713,827"/>
				<polyline fill="none" stroke="#404040" stroke-width="6" stroke-dasharray="none" points="727,1177 727,1252 277,1252 277,815"/>
				<polygon fill="#404040" stroke="none" points="277,802 263,826 290,826"/>
				<g>
					<polyline fill="none" stroke="#404040" stroke-width="6" stroke-dasharray="none" points="727,1002 727,1063"/>
					<polygon fill="#404040" stroke="none" points="727,1077 740,1052 713,1052"/>
					<g>
						<path fill="#D0FFD0" stroke="#70A070" stroke-width="3" stroke-dasharray="none" d="M 452,852 L 377,1002 L 1002,1002 L 1077,852 Z"/>
						<text x="727" y="867" fill="#000000" font-family="Arial" font-size="32pt" text-anchor="middle" direction="ltr">
							<tspan x="727" dy="50" unicode-bidi="embed">Salida &quot;Multiplos son: &quot;&amp;</tspan>
							<tspan x="727" dy="50" unicode-bidi="embed">contador</tspan>
						</text>
					</g>
					<g>
						<path fill="#FFFFD0" stroke="#A0A070" stroke-width="3" stroke-dasharray="none" d="M 477,1077 L 477,1177 L 977,1177 L 977,1077 Z"/>
						<text x="727" y="1092" fill="#000000" font-family="Arial" font-size="32pt" text-anchor="middle" direction="ltr">
							<tspan x="727" dy="50" unicode-bidi="embed">contador = contador+5</tspan>
						</text>
					</g>
				</g>
				<g>
					<path fill="#FFE0A0" stroke="#A08040" stroke-width="3" stroke-dasharray="none" d="M 227,552 L 2,677 L 227,802 L 452,677 Z"/>
					<text x="227" y="642" fill="#000000" font-family="Arial" font-size="32pt" text-anchor="middle" direction="ltr">
						<tspan x="227" dy="50" unicode-bidi="embed">contador&lt;=100</tspan>
					</text>
				</g>
				<text x="577" y="592" fill="#000000" font-family="Arial" font-size="32pt" text-anchor="middle" direction="ltr">
					<tspan x="577" dy="50" unicode-bidi="embed">Verdadero</tspan>
				</text>
				<text x="139" y="817" fill="#000000" font-family="Arial" font-size="32pt" text-anchor="middle" direction="ltr">
					<tspan x="139" dy="50" unicode-bidi="embed">Falso</tspan>
				</text>
			</g>
		</g>
	</g>
</svg>
