<?xml version="1.0" encoding="UTF-8" standalone="no"?>
<!-- Created by Flowgorithm 3.4.1 (http://flowgorithm.org) -->

<svg xmlns:svg="http://www.w3.org/2000/svg" xmlns="http://www.w3.org/2000/svg" version="1.1" width="3854" height="4804">
	<g>
		<polyline fill="none" stroke="#404040" stroke-width="6" stroke-dasharray="none" points="2752,102 2752,163"/>
		<polygon fill="#404040" stroke="none" points="2752,177 2765,152 2738,152"/>
		<polyline fill="none" stroke="#404040" stroke-width="6" stroke-dasharray="none" points="2752,4627 2752,4688"/>
		<polygon fill="#404040" stroke="none" points="2752,4702 2765,4677 2738,4677"/>
		<g>
			<path fill="#F0D0FF" stroke="#9070A0" stroke-width="3" stroke-dasharray="none" d="M 2652,2 A 50 50, 0, 0 0, 2652 102 L 2852,102 A 50 50, 0, 0 0, 2852 2 Z"/>
			<text x="2752" y="17" fill="#000000" font-family="Arial" font-size="32pt" text-anchor="middle" direction="ltr">
				<tspan x="2752" dy="50" unicode-bidi="embed">Principal</tspan>
			</text>
		</g>
		<g>
			<path fill="#F0D0FF" stroke="#9070A0" stroke-width="3" stroke-dasharray="none" d="M 2652,4702 A 50 50, 0, 0 0, 2652 4802 L 2852,4802 A 50 50, 0, 0 0, 2852 4702 Z"/>
			<text x="2752" y="4717" fill="#000000" font-family="Arial" font-size="32pt" text-anchor="middle" direction="ltr">
				<tspan x="2752" dy="50" unicode-bidi="embed">Fin</tspan>
			</text>
		</g>
		<g>
			<polyline fill="none" stroke="#404040" stroke-width="6" stroke-dasharray="none" points="2752,302 2752,363"/>
			<polygon fill="#404040" stroke="none" points="2752,377 2765,352 2738,352"/>
			<polyline fill="none" stroke="#404040" stroke-width="6" stroke-dasharray="none" points="2752,502 2752,563"/>
			<polygon fill="#404040" stroke="none" points="2752,577 2765,552 2738,552"/>
			<polyline fill="none" stroke="#404040" stroke-width="6" stroke-dasharray="none" points="2752,702 2752,763"/>
			<polygon fill="#404040" stroke="none" points="2752,777 2765,752 2738,752"/>
			<polyline fill="none" stroke="#404040" stroke-width="6" stroke-dasharray="none" points="2752,877 2752,938"/>
			<polygon fill="#404040" stroke="none" points="2752,952 2765,927 2738,927"/>
			<polyline fill="none" stroke="#404040" stroke-width="6" stroke-dasharray="none" points="2752,1052 2752,1113"/>
			<polygon fill="#404040" stroke="none" points="2752,1127 2765,1102 2738,1102"/>
			<polyline fill="none" stroke="#404040" stroke-width="6" stroke-dasharray="none" points="2752,1227 2752,1288"/>
			<polygon fill="#404040" stroke="none" points="2752,1302 2765,1277 2738,1277"/>
			<polyline fill="none" stroke="#404040" stroke-width="6" stroke-dasharray="none" points="2752,1427 2752,1488"/>
			<polygon fill="#404040" stroke="none" points="2752,1502 2765,1477 2738,1477"/>
			<polyline fill="none" stroke="#404040" stroke-width="6" stroke-dasharray="none" points="2752,1627 2752,1688"/>
			<polygon fill="#404040" stroke="none" points="2752,1702 2765,1677 2738,1677"/>
			<polyline fill="none" stroke="#404040" stroke-width="6" stroke-dasharray="none" points="2752,1827 2752,1902"/>
			<polyline fill="none" stroke="#404040" stroke-width="6" stroke-dasharray="none" points="2752,2052 2752,2113"/>
			<polygon fill="#404040" stroke="none" points="2752,2127 2765,2102 2738,2102"/>
			<polyline fill="none" stroke="#404040" stroke-width="6" stroke-dasharray="none" points="2752,3952 2752,4013"/>
			<polygon fill="#404040" stroke="none" points="2752,4027 2765,4002 2738,4002"/>
			<polyline fill="none" stroke="#404040" stroke-width="6" stroke-dasharray="none" points="2752,4177 2752,4238"/>
			<polygon fill="#404040" stroke="none" points="2752,4252 2765,4227 2738,4227"/>
			<polyline fill="none" stroke="#404040" stroke-width="6" stroke-dasharray="none" points="2752,4402 2752,4463"/>
			<polygon fill="#404040" stroke="none" points="2752,4477 2765,4452 2738,4452"/>
			<g>
				<path fill="#FFFFD0" stroke="#A0A070" stroke-width="3" stroke-dasharray="none" d="M 2602,177 L 2602,302 L 2902,302 L 2902,177 Z"/>
				<polyline fill="none" stroke="#A0A070" stroke-width="3" stroke-dasharray="none" points="2602,202 2902,202"/>
				<polyline fill="none" stroke="#A0A070" stroke-width="3" stroke-dasharray="none" points="2627,177 2627,302"/>
				<text x="2764" y="217" fill="#000000" font-family="Arial" font-size="32pt" text-anchor="middle" direction="ltr">
					<tspan x="2764" dy="50" unicode-bidi="embed">Real a</tspan>
				</text>
			</g>
			<g>
				<path fill="#FFFFD0" stroke="#A0A070" stroke-width="3" stroke-dasharray="none" d="M 2602,377 L 2602,502 L 2902,502 L 2902,377 Z"/>
				<polyline fill="none" stroke="#A0A070" stroke-width="3" stroke-dasharray="none" points="2602,402 2902,402"/>
				<polyline fill="none" stroke="#A0A070" stroke-width="3" stroke-dasharray="none" points="2627,377 2627,502"/>
				<text x="2764" y="417" fill="#000000" font-family="Arial" font-size="32pt" text-anchor="middle" direction="ltr">
					<tspan x="2764" dy="50" unicode-bidi="embed">Real b</tspan>
				</text>
			</g>
			<g>
				<path fill="#FFFFD0" stroke="#A0A070" stroke-width="3" stroke-dasharray="none" d="M 2602,577 L 2602,702 L 2902,702 L 2902,577 Z"/>
				<polyline fill="none" stroke="#A0A070" stroke-width="3" stroke-dasharray="none" points="2602,602 2902,602"/>
				<polyline fill="none" stroke="#A0A070" stroke-width="3" stroke-dasharray="none" points="2627,577 2627,702"/>
				<text x="2764" y="617" fill="#000000" font-family="Arial" font-size="32pt" text-anchor="middle" direction="ltr">
					<tspan x="2764" dy="50" unicode-bidi="embed">Real c</tspan>
				</text>
			</g>
			<g>
				<path fill="#C0E0FF" stroke="#6080A0" stroke-width="3" stroke-dasharray="none" d="M 2627,777 L 2577,877 L 2877,877 L 2927,777 Z"/>
				<text x="2752" y="792" fill="#000000" font-family="Arial" font-size="32pt" text-anchor="middle" direction="ltr">
					<tspan x="2752" dy="50" unicode-bidi="embed">Entrada a</tspan>
				</text>
			</g>
			<g>
				<path fill="#C0E0FF" stroke="#6080A0" stroke-width="3" stroke-dasharray="none" d="M 2627,952 L 2577,1052 L 2877,1052 L 2927,952 Z"/>
				<text x="2752" y="967" fill="#000000" font-family="Arial" font-size="32pt" text-anchor="middle" direction="ltr">
					<tspan x="2752" dy="50" unicode-bidi="embed">Entrada b</tspan>
				</text>
			</g>
			<g>
				<path fill="#C0E0FF" stroke="#6080A0" stroke-width="3" stroke-dasharray="none" d="M 2627,1127 L 2577,1227 L 2877,1227 L 2927,1127 Z"/>
				<text x="2752" y="1142" fill="#000000" font-family="Arial" font-size="32pt" text-anchor="middle" direction="ltr">
					<tspan x="2752" dy="50" unicode-bidi="embed">Entrada c</tspan>
				</text>
			</g>
			<g>
				<path fill="#FFFFD0" stroke="#A0A070" stroke-width="3" stroke-dasharray="none" d="M 2602,1302 L 2602,1427 L 2902,1427 L 2902,1302 Z"/>
				<polyline fill="none" stroke="#A0A070" stroke-width="3" stroke-dasharray="none" points="2602,1327 2902,1327"/>
				<polyline fill="none" stroke="#A0A070" stroke-width="3" stroke-dasharray="none" points="2627,1302 2627,1427"/>
				<text x="2764" y="1342" fill="#000000" font-family="Arial" font-size="32pt" text-anchor="middle" direction="ltr">
					<tspan x="2764" dy="50" unicode-bidi="embed">Real menor</tspan>
				</text>
			</g>
			<g>
				<path fill="#FFFFD0" stroke="#A0A070" stroke-width="3" stroke-dasharray="none" d="M 2602,1502 L 2602,1627 L 2902,1627 L 2902,1502 Z"/>
				<polyline fill="none" stroke="#A0A070" stroke-width="3" stroke-dasharray="none" points="2602,1527 2902,1527"/>
				<polyline fill="none" stroke="#A0A070" stroke-width="3" stroke-dasharray="none" points="2627,1502 2627,1627"/>
				<text x="2764" y="1542" fill="#000000" font-family="Arial" font-size="32pt" text-anchor="middle" direction="ltr">
					<tspan x="2764" dy="50" unicode-bidi="embed">Real medio</tspan>
				</text>
			</g>
			<g>
				<path fill="#FFFFD0" stroke="#A0A070" stroke-width="3" stroke-dasharray="none" d="M 2602,1702 L 2602,1827 L 2902,1827 L 2902,1702 Z"/>
				<polyline fill="none" stroke="#A0A070" stroke-width="3" stroke-dasharray="none" points="2602,1727 2902,1727"/>
				<polyline fill="none" stroke="#A0A070" stroke-width="3" stroke-dasharray="none" points="2627,1702 2627,1827"/>
				<text x="2764" y="1742" fill="#000000" font-family="Arial" font-size="32pt" text-anchor="middle" direction="ltr">
					<tspan x="2764" dy="50" unicode-bidi="embed">Real mayor</tspan>
				</text>
			</g>
			<g>
				<polygon fill="#FFA0A0" stroke="#A04C4C" stroke-width="3" points="2798,1996 2771,2023 2732,2023 2705,1996 2705,1957 2732,1930 2771,1930 2798,1957"/>
				<text x="2939" y="1942" fill="#000000" font-family="Arial" font-size="32pt" text-anchor="middle" direction="ltr">
					<tspan x="2939" dy="50" unicode-bidi="embed">Interrumpir</tspan>
				</text>
			</g>
			<g>
				<polyline fill="none" stroke="#404040" stroke-width="6" stroke-dasharray="none" points="2952,2252 3302,2252 3302,2413"/>
				<polygon fill="#404040" stroke="none" points="3302,2427 3315,2402 3288,2402"/>
				<polyline fill="none" stroke="#404040" stroke-width="6" stroke-dasharray="none" points="3302,3027 3302,3927 2790,3927"/>
				<polygon fill="#404040" stroke="none" points="2777,3927 2801,3940 2801,3913"/>
				<polyline fill="none" stroke="#404040" stroke-width="6" stroke-dasharray="none" points="2552,2252 1602,2252 1602,2413"/>
				<polygon fill="#404040" stroke="none" points="1602,2427 1615,2402 1588,2402"/>
				<polyline fill="none" stroke="#404040" stroke-width="6" stroke-dasharray="none" points="1602,3827 1602,3927 2713,3927"/>
				<polygon fill="#404040" stroke="none" points="2727,3927 2702,3913 2702,3940"/>
				<g>
					<path fill="#FFD0D0" stroke="#A07070" stroke-width="3" stroke-dasharray="none" d="M 2752,2127 L 2527,2252 L 2752,2377 L 2977,2252 Z"/>
					<text x="2752" y="2217" fill="#000000" font-family="Arial" font-size="32pt" text-anchor="middle" direction="ltr">
						<tspan x="2752" dy="50" unicode-bidi="embed">a&gt;=b&amp;&amp;a&gt;=c</tspan>
					</text>
				</g>
				<g>
					<polyline fill="none" stroke="#404040" stroke-width="6" stroke-dasharray="none" points="3302,2527 3302,2588"/>
					<polygon fill="#404040" stroke="none" points="3302,2602 3315,2577 3288,2577"/>
					<g>
						<path fill="#FFFFD0" stroke="#A0A070" stroke-width="3" stroke-dasharray="none" d="M 3152,2427 L 3152,2527 L 3452,2527 L 3452,2427 Z"/>
						<text x="3302" y="2442" fill="#000000" font-family="Arial" font-size="32pt" text-anchor="middle" direction="ltr">
							<tspan x="3302" dy="50" unicode-bidi="embed">mayor = a</tspan>
						</text>
					</g>
					<g>
						<polyline fill="none" stroke="#404040" stroke-width="6" stroke-dasharray="none" points="3427,2677 3702,2677 3702,2788"/>
						<polygon fill="#404040" stroke="none" points="3702,2802 3715,2777 3688,2777"/>
						<polyline fill="none" stroke="#404040" stroke-width="6" stroke-dasharray="none" points="3702,2902 3702,3002 3340,3002"/>
						<polygon fill="#404040" stroke="none" points="3327,3002 3351,3015 3351,2988"/>
						<polyline fill="none" stroke="#404040" stroke-width="6" stroke-dasharray="none" points="3177,2677 2977,2677 2977,2788"/>
						<polygon fill="#404040" stroke="none" points="2977,2802 2990,2777 2963,2777"/>
						<polyline fill="none" stroke="#404040" stroke-width="6" stroke-dasharray="none" points="2977,2902 2977,3002 3263,3002"/>
						<polygon fill="#404040" stroke="none" points="3277,3002 3252,2988 3252,3015"/>
						<g>
							<path fill="#FFD0D0" stroke="#A07070" stroke-width="3" stroke-dasharray="none" d="M 3302,2602 L 3152,2677 L 3302,2752 L 3452,2677 Z"/>
							<text x="3302" y="2642" fill="#000000" font-family="Arial" font-size="32pt" text-anchor="middle" direction="ltr">
								<tspan x="3302" dy="50" unicode-bidi="embed">b&lt;c</tspan>
							</text>
						</g>
						<g>
							<path fill="#FFFFD0" stroke="#A0A070" stroke-width="3" stroke-dasharray="none" d="M 3552,2802 L 3552,2902 L 3852,2902 L 3852,2802 Z"/>
							<text x="3702" y="2817" fill="#000000" font-family="Arial" font-size="32pt" text-anchor="middle" direction="ltr">
								<tspan x="3702" dy="50" unicode-bidi="embed">menor = b</tspan>
							</text>
						</g>
						<g>
							<path fill="#FFFFD0" stroke="#A0A070" stroke-width="3" stroke-dasharray="none" d="M 2827,2802 L 2827,2902 L 3127,2902 L 3127,2802 Z"/>
							<text x="2977" y="2817" fill="#000000" font-family="Arial" font-size="32pt" text-anchor="middle" direction="ltr">
								<tspan x="2977" dy="50" unicode-bidi="embed">menor = c</tspan>
							</text>
						</g>
						<ellipse cx="3302" cy="3002" rx="25" ry="25" fill="#FFD0D0" stroke="#A07070" stroke-width="3"/>
						<text x="3577" y="2592" fill="#000000" font-family="Arial" font-size="32pt" text-anchor="middle" direction="ltr">
							<tspan x="3577" dy="50" unicode-bidi="embed">Verdadero</tspan>
						</text>
						<text x="3064" y="2592" fill="#000000" font-family="Arial" font-size="32pt" text-anchor="middle" direction="ltr">
							<tspan x="3064" dy="50" unicode-bidi="embed">Falso</tspan>
						</text>
					</g>
				</g>
				<g>
					<polyline fill="none" stroke="#404040" stroke-width="6" stroke-dasharray="none" points="1802,2552 2152,2552 2152,2713"/>
					<polygon fill="#404040" stroke="none" points="2152,2727 2165,2702 2138,2702"/>
					<polyline fill="none" stroke="#404040" stroke-width="6" stroke-dasharray="none" points="2152,3327 2152,3802 1640,3802"/>
					<polygon fill="#404040" stroke="none" points="1627,3802 1651,3815 1651,3788"/>
					<polyline fill="none" stroke="#404040" stroke-width="6" stroke-dasharray="none" points="1402,2552 452,2552 452,2713"/>
					<polygon fill="#404040" stroke="none" points="452,2727 465,2702 438,2702"/>
					<polyline fill="none" stroke="#404040" stroke-width="6" stroke-dasharray="none" points="452,3702 452,3802 1563,3802"/>
					<polygon fill="#404040" stroke="none" points="1577,3802 1552,3788 1552,3815"/>
					<g>
						<path fill="#FFD0D0" stroke="#A07070" stroke-width="3" stroke-dasharray="none" d="M 1602,2427 L 1377,2552 L 1602,2677 L 1827,2552 Z"/>
						<text x="1602" y="2517" fill="#000000" font-family="Arial" font-size="32pt" text-anchor="middle" direction="ltr">
							<tspan x="1602" dy="50" unicode-bidi="embed">b&gt;=a&amp;&amp;b&gt;=c</tspan>
						</text>
					</g>
					<g>
						<polyline fill="none" stroke="#404040" stroke-width="6" stroke-dasharray="none" points="2152,2827 2152,2888"/>
						<polygon fill="#404040" stroke="none" points="2152,2902 2165,2877 2138,2877"/>
						<g>
							<path fill="#FFFFD0" stroke="#A0A070" stroke-width="3" stroke-dasharray="none" d="M 2002,2727 L 2002,2827 L 2302,2827 L 2302,2727 Z"/>
							<text x="2152" y="2742" fill="#000000" font-family="Arial" font-size="32pt" text-anchor="middle" direction="ltr">
								<tspan x="2152" dy="50" unicode-bidi="embed">mayor = b</tspan>
							</text>
						</g>
						<g>
							<polyline fill="none" stroke="#404040" stroke-width="6" stroke-dasharray="none" points="2277,2977 2552,2977 2552,3088"/>
							<polygon fill="#404040" stroke="none" points="2552,3102 2565,3077 2538,3077"/>
							<polyline fill="none" stroke="#404040" stroke-width="6" stroke-dasharray="none" points="2552,3202 2552,3302 2190,3302"/>
							<polygon fill="#404040" stroke="none" points="2177,3302 2201,3315 2201,3288"/>
							<polyline fill="none" stroke="#404040" stroke-width="6" stroke-dasharray="none" points="2027,2977 1827,2977 1827,3088"/>
							<polygon fill="#404040" stroke="none" points="1827,3102 1840,3077 1813,3077"/>
							<polyline fill="none" stroke="#404040" stroke-width="6" stroke-dasharray="none" points="1827,3202 1827,3302 2113,3302"/>
							<polygon fill="#404040" stroke="none" points="2127,3302 2102,3288 2102,3315"/>
							<g>
								<path fill="#FFD0D0" stroke="#A07070" stroke-width="3" stroke-dasharray="none" d="M 2152,2902 L 2002,2977 L 2152,3052 L 2302,2977 Z"/>
								<text x="2152" y="2942" fill="#000000" font-family="Arial" font-size="32pt" text-anchor="middle" direction="ltr">
									<tspan x="2152" dy="50" unicode-bidi="embed">a&lt;c</tspan>
								</text>
							</g>
							<g>
								<path fill="#FFFFD0" stroke="#A0A070" stroke-width="3" stroke-dasharray="none" d="M 2402,3102 L 2402,3202 L 2702,3202 L 2702,3102 Z"/>
								<text x="2552" y="3117" fill="#000000" font-family="Arial" font-size="32pt" text-anchor="middle" direction="ltr">
									<tspan x="2552" dy="50" unicode-bidi="embed">menor = a</tspan>
								</text>
							</g>
							<g>
								<path fill="#FFFFD0" stroke="#A0A070" stroke-width="3" stroke-dasharray="none" d="M 1677,3102 L 1677,3202 L 1977,3202 L 1977,3102 Z"/>
								<text x="1827" y="3117" fill="#000000" font-family="Arial" font-size="32pt" text-anchor="middle" direction="ltr">
									<tspan x="1827" dy="50" unicode-bidi="embed">menor = c</tspan>
								</text>
							</g>
							<ellipse cx="2152" cy="3302" rx="25" ry="25" fill="#FFD0D0" stroke="#A07070" stroke-width="3"/>
							<text x="2427" y="2892" fill="#000000" font-family="Arial" font-size="32pt" text-anchor="middle" direction="ltr">
								<tspan x="2427" dy="50" unicode-bidi="embed">Verdadero</tspan>
							</text>
							<text x="1914" y="2892" fill="#000000" font-family="Arial" font-size="32pt" text-anchor="middle" direction="ltr">
								<tspan x="1914" dy="50" unicode-bidi="embed">Falso</tspan>
							</text>
						</g>
					</g>
					<g>
						<polyline fill="none" stroke="#404040" stroke-width="6" stroke-dasharray="none" points="627,2827 1002,2827 1002,2963"/>
						<polygon fill="#404040" stroke="none" points="1002,2977 1015,2952 988,2952"/>
						<polyline fill="none" stroke="#404040" stroke-width="6" stroke-dasharray="none" points="1002,3577 1002,3677 490,3677"/>
						<polygon fill="#404040" stroke="none" points="477,3677 501,3690 501,3663"/>
						<polyline fill="none" stroke="#404040" stroke-width="6" stroke-dasharray="none" points="277,2827 77,2827 77,3677 413,3677"/>
						<polygon fill="#404040" stroke="none" points="427,3677 402,3663 402,3690"/>
						<g>
							<path fill="#FFD0D0" stroke="#A07070" stroke-width="3" stroke-dasharray="none" d="M 452,2727 L 252,2827 L 452,2927 L 652,2827 Z"/>
							<text x="452" y="2792" fill="#000000" font-family="Arial" font-size="32pt" text-anchor="middle" direction="ltr">
								<tspan x="452" dy="50" unicode-bidi="embed">c&gt;=a&amp;&amp;c&gt;=b</tspan>
							</text>
						</g>
						<g>
							<polyline fill="none" stroke="#404040" stroke-width="6" stroke-dasharray="none" points="1002,3077 1002,3138"/>
							<polygon fill="#404040" stroke="none" points="1002,3152 1015,3127 988,3127"/>
							<g>
								<path fill="#FFFFD0" stroke="#A0A070" stroke-width="3" stroke-dasharray="none" d="M 852,2977 L 852,3077 L 1152,3077 L 1152,2977 Z"/>
								<text x="1002" y="2992" fill="#000000" font-family="Arial" font-size="32pt" text-anchor="middle" direction="ltr">
									<tspan x="1002" dy="50" unicode-bidi="embed">mayor = c</tspan>
								</text>
							</g>
							<g>
								<polyline fill="none" stroke="#404040" stroke-width="6" stroke-dasharray="none" points="1127,3227 1402,3227 1402,3338"/>
								<polygon fill="#404040" stroke="none" points="1402,3352 1415,3327 1388,3327"/>
								<polyline fill="none" stroke="#404040" stroke-width="6" stroke-dasharray="none" points="1402,3452 1402,3552 1040,3552"/>
								<polygon fill="#404040" stroke="none" points="1027,3552 1051,3565 1051,3538"/>
								<polyline fill="none" stroke="#404040" stroke-width="6" stroke-dasharray="none" points="877,3227 677,3227 677,3338"/>
								<polygon fill="#404040" stroke="none" points="677,3352 690,3327 663,3327"/>
								<polyline fill="none" stroke="#404040" stroke-width="6" stroke-dasharray="none" points="677,3452 677,3552 963,3552"/>
								<polygon fill="#404040" stroke="none" points="977,3552 952,3538 952,3565"/>
								<g>
									<path fill="#FFD0D0" stroke="#A07070" stroke-width="3" stroke-dasharray="none" d="M 1002,3152 L 852,3227 L 1002,3302 L 1152,3227 Z"/>
									<text x="1002" y="3192" fill="#000000" font-family="Arial" font-size="32pt" text-anchor="middle" direction="ltr">
										<tspan x="1002" dy="50" unicode-bidi="embed">a&lt;b</tspan>
									</text>
								</g>
								<g>
									<path fill="#FFFFD0" stroke="#A0A070" stroke-width="3" stroke-dasharray="none" d="M 1252,3352 L 1252,3452 L 1552,3452 L 1552,3352 Z"/>
									<text x="1402" y="3367" fill="#000000" font-family="Arial" font-size="32pt" text-anchor="middle" direction="ltr">
										<tspan x="1402" dy="50" unicode-bidi="embed">menor = a</tspan>
									</text>
								</g>
								<g>
									<path fill="#FFFFD0" stroke="#A0A070" stroke-width="3" stroke-dasharray="none" d="M 527,3352 L 527,3452 L 827,3452 L 827,3352 Z"/>
									<text x="677" y="3367" fill="#000000" font-family="Arial" font-size="32pt" text-anchor="middle" direction="ltr">
										<tspan x="677" dy="50" unicode-bidi="embed">menor = b</tspan>
									</text>
								</g>
								<ellipse cx="1002" cy="3552" rx="25" ry="25" fill="#FFD0D0" stroke="#A07070" stroke-width="3"/>
								<text x="1277" y="3142" fill="#000000" font-family="Arial" font-size="32pt" text-anchor="middle" direction="ltr">
									<tspan x="1277" dy="50" unicode-bidi="embed">Verdadero</tspan>
								</text>
								<text x="764" y="3142" fill="#000000" font-family="Arial" font-size="32pt" text-anchor="middle" direction="ltr">
									<tspan x="764" dy="50" unicode-bidi="embed">Falso</tspan>
								</text>
							</g>
						</g>
						<g>
						</g>
						<ellipse cx="452" cy="3677" rx="25" ry="25" fill="#FFD0D0" stroke="#A07070" stroke-width="3"/>
						<text x="777" y="2742" fill="#000000" font-family="Arial" font-size="32pt" text-anchor="middle" direction="ltr">
							<tspan x="777" dy="50" unicode-bidi="embed">Verdadero</tspan>
						</text>
						<text x="164" y="2742" fill="#000000" font-family="Arial" font-size="32pt" text-anchor="middle" direction="ltr">
							<tspan x="164" dy="50" unicode-bidi="embed">Falso</tspan>
						</text>
					</g>
					<ellipse cx="1602" cy="3802" rx="25" ry="25" fill="#FFD0D0" stroke="#A07070" stroke-width="3"/>
					<text x="1952" y="2467" fill="#000000" font-family="Arial" font-size="32pt" text-anchor="middle" direction="ltr">
						<tspan x="1952" dy="50" unicode-bidi="embed">Verdadero</tspan>
					</text>
					<text x="1289" y="2467" fill="#000000" font-family="Arial" font-size="32pt" text-anchor="middle" direction="ltr">
						<tspan x="1289" dy="50" unicode-bidi="embed">Falso</tspan>
					</text>
				</g>
				<ellipse cx="2752" cy="3927" rx="25" ry="25" fill="#FFD0D0" stroke="#A07070" stroke-width="3"/>
				<text x="3102" y="2167" fill="#000000" font-family="Arial" font-size="32pt" text-anchor="middle" direction="ltr">
					<tspan x="3102" dy="50" unicode-bidi="embed">Verdadero</tspan>
				</text>
				<text x="2439" y="2167" fill="#000000" font-family="Arial" font-size="32pt" text-anchor="middle" direction="ltr">
					<tspan x="2439" dy="50" unicode-bidi="embed">Falso</tspan>
				</text>
			</g>
			<g>
				<path fill="#FFFFD0" stroke="#A0A070" stroke-width="3" stroke-dasharray="none" d="M 2502,4027 L 2502,4177 L 3002,4177 L 3002,4027 Z"/>
				<text x="2752" y="4042" fill="#000000" font-family="Arial" font-size="32pt" text-anchor="middle" direction="ltr">
					<tspan x="2752" dy="50" unicode-bidi="embed">medio = a+b+c-mayor-</tspan>
					<tspan x="2752" dy="50" unicode-bidi="embed">menor</tspan>
				</text>
			</g>
			<g>
				<path fill="#D0FFD0" stroke="#70A070" stroke-width="3" stroke-dasharray="none" d="M 2402,4252 L 2327,4402 L 3102,4402 L 3177,4252 Z"/>
				<text x="2752" y="4267" fill="#000000" font-family="Arial" font-size="32pt" text-anchor="middle" direction="ltr">
					<tspan x="2752" dy="50" unicode-bidi="embed">Salida menor&amp;&quot; , &quot;&amp;medio&amp;&quot; , &quot;&amp;</tspan>
					<tspan x="2752" dy="50" unicode-bidi="embed">mayor</tspan>
				</text>
			</g>
			<g>
				<path fill="#D0FFD0" stroke="#70A070" stroke-width="3" stroke-dasharray="none" d="M 2402,4477 L 2327,4627 L 3102,4627 L 3177,4477 Z"/>
				<text x="2752" y="4492" fill="#000000" font-family="Arial" font-size="32pt" text-anchor="middle" direction="ltr">
					<tspan x="2752" dy="50" unicode-bidi="embed">Salida mayor&amp;&quot; , &quot;&amp;medio&amp;&quot; , &quot;&amp;</tspan>
					<tspan x="2752" dy="50" unicode-bidi="embed">menor</tspan>
				</text>
			</g>
		</g>
	</g>
</svg>
