<?xml version="1.0" encoding="UTF-8" standalone="no"?>
<!-- Created by Flowgorithm 3.5.1 (http://flowgorithm.org) -->

<svg xmlns:svg="http://www.w3.org/2000/svg" xmlns="http://www.w3.org/2000/svg" version="1.1" width="3204" height="12804">
	<g>
		<polyline fill="none" stroke="#404040" stroke-width="6" stroke-dasharray="none" points="377,102 377,163"/>
		<polygon fill="#404040" stroke="none" points="377,177 390,152 363,152"/>
		<polyline fill="none" stroke="#404040" stroke-width="6" stroke-dasharray="none" points="377,11377 377,12688"/>
		<polygon fill="#404040" stroke="none" points="377,12702 390,12677 363,12677"/>
		<g>
			<path fill="#F0E0FF" stroke="#9070A0" stroke-width="3" stroke-dasharray="none" d="M 277,2 A 50 50, 0, 0 0, 277 102 L 477,102 A 50 50, 0, 0 0, 477 2 Z"/>
			<text x="377" y="17" fill="#000000" font-family="Arial" font-size="32pt" text-anchor="middle" direction="ltr">
				<tspan x="377" dy="50" unicode-bidi="embed">Principal</tspan>
			</text>
		</g>
		<g>
			<path fill="#F0E0FF" stroke="#9070A0" stroke-width="3" stroke-dasharray="none" d="M 277,12702 A 50 50, 0, 0 0, 277 12802 L 477,12802 A 50 50, 0, 0 0, 477 12702 Z"/>
			<text x="377" y="12717" fill="#000000" font-family="Arial" font-size="32pt" text-anchor="middle" direction="ltr">
				<tspan x="377" dy="50" unicode-bidi="embed">Fin</tspan>
			</text>
		</g>
		<g>
			<polyline fill="none" stroke="#404040" stroke-width="6" stroke-dasharray="none" points="377,302 377,363"/>
			<polygon fill="#404040" stroke="none" points="377,377 390,352 363,352"/>
			<polyline fill="none" stroke="#404040" stroke-width="6" stroke-dasharray="none" points="377,502 377,563"/>
			<polygon fill="#404040" stroke="none" points="377,577 390,552 363,552"/>
			<polyline fill="none" stroke="#404040" stroke-width="6" stroke-dasharray="none" points="377,702 377,763"/>
			<polygon fill="#404040" stroke="none" points="377,777 390,752 363,752"/>
			<polyline fill="none" stroke="#404040" stroke-width="6" stroke-dasharray="none" points="377,902 377,963"/>
			<polygon fill="#404040" stroke="none" points="377,977 390,952 363,952"/>
			<polyline fill="none" stroke="#404040" stroke-width="6" stroke-dasharray="none" points="377,1127 377,1488"/>
			<polygon fill="#404040" stroke="none" points="377,1502 390,1477 363,1477"/>
			<polyline fill="none" stroke="#404040" stroke-width="6" stroke-dasharray="none" points="377,1652 377,1713"/>
			<polygon fill="#404040" stroke="none" points="377,1727 390,1702 363,1702"/>
			<polyline fill="none" stroke="#404040" stroke-width="6" stroke-dasharray="none" points="377,7627 377,7763"/>
			<polygon fill="#404040" stroke="none" points="377,7777 390,7752 363,7752"/>
			<polyline fill="none" stroke="#404040" stroke-width="6" stroke-dasharray="none" points="377,7952 377,8013"/>
			<polygon fill="#404040" stroke="none" points="377,8027 390,8002 363,8002"/>
			<polyline fill="none" stroke="#404040" stroke-width="6" stroke-dasharray="none" points="377,8177 377,8238"/>
			<polygon fill="#404040" stroke="none" points="377,8252 390,8227 363,8227"/>
			<polyline fill="none" stroke="#404040" stroke-width="6" stroke-dasharray="none" points="377,8402 377,8763"/>
			<polygon fill="#404040" stroke="none" points="377,8777 390,8752 363,8752"/>
			<polyline fill="none" stroke="#404040" stroke-width="6" stroke-dasharray="none" points="377,8952 377,9013"/>
			<polygon fill="#404040" stroke="none" points="377,9027 390,9002 363,9002"/>
			<polyline fill="none" stroke="#404040" stroke-width="6" stroke-dasharray="none" points="377,9152 377,9227"/>
			<polyline fill="none" stroke="#404040" stroke-width="6" stroke-dasharray="none" points="377,9377 377,9438"/>
			<polygon fill="#404040" stroke="none" points="377,9452 390,9427 363,9427"/>
			<polyline fill="none" stroke="#404040" stroke-width="6" stroke-dasharray="none" points="377,9602 377,9663"/>
			<polygon fill="#404040" stroke="none" points="377,9677 390,9652 363,9652"/>
			<polyline fill="none" stroke="#404040" stroke-width="6" stroke-dasharray="none" points="377,9827 377,10963"/>
			<polygon fill="#404040" stroke="none" points="377,10977 390,10952 363,10952"/>
			<polyline fill="none" stroke="#404040" stroke-width="6" stroke-dasharray="none" points="377,11152 377,11213"/>
			<polygon fill="#404040" stroke="none" points="377,11227 390,11202 363,11202"/>
			<g>
				<path fill="#FFFFD0" stroke="#A0A070" stroke-width="3" stroke-dasharray="none" d="M 127,177 L 127,302 L 627,302 L 627,177 Z"/>
				<polyline fill="none" stroke="#A0A070" stroke-width="3" stroke-dasharray="none" points="127,202 627,202"/>
				<polyline fill="none" stroke="#A0A070" stroke-width="3" stroke-dasharray="none" points="152,177 152,302"/>
				<text x="389" y="217" fill="#000000" font-family="Arial" font-size="32pt" text-anchor="middle" direction="ltr">
					<tspan x="389" dy="50" unicode-bidi="embed">Entero Matriz array[5]</tspan>
				</text>
			</g>
			<g>
				<path fill="#FFFFD0" stroke="#A0A070" stroke-width="3" stroke-dasharray="none" d="M 202,377 L 202,502 L 552,502 L 552,377 Z"/>
				<polyline fill="none" stroke="#A0A070" stroke-width="3" stroke-dasharray="none" points="202,402 552,402"/>
				<polyline fill="none" stroke="#A0A070" stroke-width="3" stroke-dasharray="none" points="227,377 227,502"/>
				<text x="389" y="417" fill="#000000" font-family="Arial" font-size="32pt" text-anchor="middle" direction="ltr">
					<tspan x="389" dy="50" unicode-bidi="embed">Entero inicial</tspan>
				</text>
			</g>
			<g>
				<path fill="#FFFFD0" stroke="#A0A070" stroke-width="3" stroke-dasharray="none" d="M 227,577 L 227,702 L 527,702 L 527,577 Z"/>
				<polyline fill="none" stroke="#A0A070" stroke-width="3" stroke-dasharray="none" points="227,602 527,602"/>
				<polyline fill="none" stroke="#A0A070" stroke-width="3" stroke-dasharray="none" points="252,577 252,702"/>
				<text x="389" y="617" fill="#000000" font-family="Arial" font-size="32pt" text-anchor="middle" direction="ltr">
					<tspan x="389" dy="50" unicode-bidi="embed">Entero final</tspan>
				</text>
			</g>
			<g>
				<path fill="#FFFFD0" stroke="#A0A070" stroke-width="3" stroke-dasharray="none" d="M 177,777 L 177,902 L 577,902 L 577,777 Z"/>
				<polyline fill="none" stroke="#A0A070" stroke-width="3" stroke-dasharray="none" points="177,802 577,802"/>
				<polyline fill="none" stroke="#A0A070" stroke-width="3" stroke-dasharray="none" points="202,777 202,902"/>
				<text x="389" y="817" fill="#000000" font-family="Arial" font-size="32pt" text-anchor="middle" direction="ltr">
					<tspan x="389" dy="50" unicode-bidi="embed">Entero contador</tspan>
				</text>
			</g>
			<g>
				<polyline fill="none" stroke="#404040" stroke-width="6" stroke-dasharray="none" points="702,1052 927,1052 927,1163"/>
				<polygon fill="#404040" stroke="none" points="927,1177 940,1152 913,1152"/>
				<polyline fill="none" stroke="#404040" stroke-width="6" stroke-dasharray="none" points="927,1327 927,1402 427,1402 427,1140"/>
				<polygon fill="#404040" stroke="none" points="427,1127 413,1151 440,1151"/>
				<g>
					<path fill="#FFFFD0" stroke="#A0A070" stroke-width="3" stroke-dasharray="none" d="M 652,1177 L 652,1327 L 1202,1327 L 1202,1177 Z"/>
					<text x="927" y="1192" fill="#000000" font-family="Arial" font-size="32pt" text-anchor="middle" direction="ltr">
						<tspan x="927" dy="50" unicode-bidi="embed">array[contador] = random</tspan>
						<tspan x="927" dy="50" unicode-bidi="embed">(15)</tspan>
					</text>
				</g>
				<g>
					<path fill="#FFE0A0" stroke="#A08040" stroke-width="3" stroke-dasharray="none" d="M 127,977 L 52,1052 L 127,1127 L 627,1127 L 702,1052 L 627,977 Z"/>
					<text x="377" y="992" fill="#000000" font-family="Arial" font-size="32pt" text-anchor="middle" direction="ltr">
						<tspan x="377" dy="50" unicode-bidi="embed">contador = 0 hasta size</tspan>
						<tspan x="377" dy="50" unicode-bidi="embed">(array)-1</tspan>
					</text>
				</g>
				<text x="827" y="967" fill="#000000" font-family="Arial" font-size="32pt" text-anchor="middle" direction="ltr">
					<tspan x="827" dy="50" unicode-bidi="embed">Siguiente</tspan>
				</text>
				<text x="289" y="1142" fill="#000000" font-family="Arial" font-size="32pt" text-anchor="middle" direction="ltr">
					<tspan x="289" dy="50" unicode-bidi="embed">Hecho</tspan>
				</text>
			</g>
			<g>
				<path fill="#D0FFD0" stroke="#70A070" stroke-width="3" stroke-dasharray="none" d="M 77,1502 L 2,1652 L 677,1652 L 752,1502 Z"/>
				<text x="377" y="1517" fill="#000000" font-family="Arial" font-size="32pt" text-anchor="middle" direction="ltr">
					<tspan x="377" dy="50" unicode-bidi="embed">Salida &quot;ingrese el valor de</tspan>
					<tspan x="377" dy="50" unicode-bidi="embed"> inicial y final&quot;</tspan>
				</text>
			</g>
			<g>
				<polyline fill="none" stroke="#404040" stroke-width="6" stroke-dasharray="none" points="402,1752 877,1752 877,1838"/>
				<polygon fill="#404040" stroke="none" points="877,1852 890,1827 863,1827"/>
				<polyline fill="none" stroke="#404040" stroke-width="6" stroke-dasharray="none" points="877,7302 877,7502 615,7502"/>
				<polygon fill="#404040" stroke="none" points="602,7502 626,7515 626,7488"/>
				<polyline fill="none" stroke="#404040" stroke-width="6" stroke-dasharray="none" points="377,7377 377,1790"/>
				<polygon fill="#404040" stroke="none" points="377,1777 363,1801 390,1801"/>
				<text x="252" y="7292" fill="#000000" font-family="Arial" font-size="32pt" text-anchor="middle" direction="ltr">
					<tspan x="252" dy="50" unicode-bidi="embed">Verdadero</tspan>
				</text>
				<text x="289" y="7642" fill="#000000" font-family="Arial" font-size="32pt" text-anchor="middle" direction="ltr">
					<tspan x="289" dy="50" unicode-bidi="embed">Falso</tspan>
				</text>
				<g>
					<polyline fill="none" stroke="#404040" stroke-width="6" stroke-dasharray="none" points="877,3627 877,3763"/>
					<polygon fill="#404040" stroke="none" points="877,3777 890,3752 863,3752"/>
					<polyline fill="none" stroke="#404040" stroke-width="6" stroke-dasharray="none" points="877,6527 877,6663"/>
					<polygon fill="#404040" stroke="none" points="877,6677 890,6652 863,6652"/>
					<g>
						<polyline fill="none" stroke="#404040" stroke-width="6" stroke-dasharray="none" points="902,1877 1577,1877 1577,1963"/>
						<polygon fill="#404040" stroke="none" points="1577,1977 1590,1952 1563,1952"/>
						<polyline fill="none" stroke="#404040" stroke-width="6" stroke-dasharray="none" points="1577,3152 1577,3427 1290,3427"/>
						<polygon fill="#404040" stroke="none" points="1277,3427 1301,3440 1301,3413"/>
						<polyline fill="none" stroke="#404040" stroke-width="6" stroke-dasharray="none" points="877,3227 877,1915"/>
						<polygon fill="#404040" stroke="none" points="877,1902 863,1926 890,1926"/>
						<text x="752" y="3142" fill="#000000" font-family="Arial" font-size="32pt" text-anchor="middle" direction="ltr">
							<tspan x="752" dy="50" unicode-bidi="embed">Verdadero</tspan>
						</text>
						<text x="789" y="3642" fill="#000000" font-family="Arial" font-size="32pt" text-anchor="middle" direction="ltr">
							<tspan x="789" dy="50" unicode-bidi="embed">Falso</tspan>
						</text>
						<g>
							<polyline fill="none" stroke="#404040" stroke-width="6" stroke-dasharray="none" points="1577,2127 1577,2188"/>
							<polygon fill="#404040" stroke="none" points="1577,2202 1590,2177 1563,2177"/>
							<polyline fill="none" stroke="#404040" stroke-width="6" stroke-dasharray="none" points="1577,2302 1577,2363"/>
							<polygon fill="#404040" stroke="none" points="1577,2377 1590,2352 1563,2352"/>
							<g>
								<path fill="#D0FFD0" stroke="#70A070" stroke-width="3" stroke-dasharray="none" d="M 1277,1977 L 1202,2127 L 1877,2127 L 1952,1977 Z"/>
								<text x="1577" y="1992" fill="#000000" font-family="Arial" font-size="32pt" text-anchor="middle" direction="ltr">
									<tspan x="1577" dy="50" unicode-bidi="embed">Salida &quot;ingrese el valor de</tspan>
									<tspan x="1577" dy="50" unicode-bidi="embed"> inicial :&quot;</tspan>
								</text>
							</g>
							<g>
								<path fill="#B0E0FF" stroke="#5080A0" stroke-width="3" stroke-dasharray="none" d="M 1402,2202 L 1352,2302 L 1752,2302 L 1802,2202 Z"/>
								<text x="1577" y="2217" fill="#000000" font-family="Arial" font-size="32pt" text-anchor="middle" direction="ltr">
									<tspan x="1577" dy="50" unicode-bidi="embed">Entrada inicial</tspan>
								</text>
							</g>
							<g>
								<polyline fill="none" stroke="#404040" stroke-width="6" stroke-dasharray="none" points="1952,2577 2227,2577 2227,2813"/>
								<polygon fill="#404040" stroke="none" points="2227,2827 2240,2802 2213,2802"/>
								<polyline fill="none" stroke="#404040" stroke-width="6" stroke-dasharray="none" points="2227,3027 2227,3127 1615,3127"/>
								<polygon fill="#404040" stroke="none" points="1602,3127 1626,3140 1626,3113"/>
								<polyline fill="none" stroke="#404040" stroke-width="6" stroke-dasharray="none" points="1202,2577 1002,2577 1002,3127 1538,3127"/>
								<polygon fill="#404040" stroke="none" points="1552,3127 1527,3113 1527,3140"/>
								<g>
									<path fill="#FFD0D0" stroke="#A07070" stroke-width="3" stroke-dasharray="none" d="M 1577,2377 L 1177,2577 L 1577,2777 L 1977,2577 Z"/>
									<text x="1577" y="2517" fill="#000000" font-family="Arial" font-size="32pt" text-anchor="middle" direction="ltr">
										<tspan x="1577" dy="50" unicode-bidi="embed">!(inicial&gt;=0&amp;&amp;inicial&lt;=size</tspan>
										<tspan x="1577" dy="50" unicode-bidi="embed">(array)-2)</tspan>
									</text>
								</g>
								<g>
									<path fill="#D0FFD0" stroke="#70A070" stroke-width="3" stroke-dasharray="none" d="M 1927,2827 L 1827,3027 L 2527,3027 L 2627,2827 Z"/>
									<text x="2227" y="2842" fill="#000000" font-family="Arial" font-size="32pt" text-anchor="middle" direction="ltr">
										<tspan x="2227" dy="50" unicode-bidi="embed">Salida &quot;Inicial debe estar</tspan>
										<tspan x="2227" dy="50" unicode-bidi="embed"> comprendido entre: 0 y &quot;&amp;</tspan>
										<tspan x="2227" dy="50" unicode-bidi="embed">size(array)-2</tspan>
									</text>
								</g>
								<g>
								</g>
								<ellipse cx="1577" cy="3127" rx="25" ry="25" fill="#FFD0D0" stroke="#A07070" stroke-width="3"/>
								<text x="2102" y="2492" fill="#000000" font-family="Arial" font-size="32pt" text-anchor="middle" direction="ltr">
									<tspan x="2102" dy="50" unicode-bidi="embed">Verdadero</tspan>
								</text>
								<text x="1089" y="2492" fill="#000000" font-family="Arial" font-size="32pt" text-anchor="middle" direction="ltr">
									<tspan x="1089" dy="50" unicode-bidi="embed">Falso</tspan>
								</text>
							</g>
						</g>
						<g>
							<path fill="#FFE0A0" stroke="#A08040" stroke-width="3" stroke-dasharray="none" d="M 877,3227 L 477,3427 L 877,3627 L 1277,3427 Z"/>
							<text x="877" y="3367" fill="#000000" font-family="Arial" font-size="32pt" text-anchor="middle" direction="ltr">
								<tspan x="877" dy="50" unicode-bidi="embed">!(inicial&gt;=0&amp;&amp;inicial&lt;=size</tspan>
								<tspan x="877" dy="50" unicode-bidi="embed">(array)-2)</tspan>
							</text>
						</g>
						<ellipse cx="877" cy="1877" rx="25" ry="25" fill="#FFE0A0" stroke="#A08040" stroke-width="3"/>
					</g>
					<g>
						<polyline fill="none" stroke="#404040" stroke-width="6" stroke-dasharray="none" points="902,3802 1902,3802 1902,3888"/>
						<polygon fill="#404040" stroke="none" points="1902,3902 1915,3877 1888,3877"/>
						<polyline fill="none" stroke="#404040" stroke-width="6" stroke-dasharray="none" points="1902,6102 1902,6352 1240,6352"/>
						<polygon fill="#404040" stroke="none" points="1227,6352 1251,6365 1251,6338"/>
						<polyline fill="none" stroke="#404040" stroke-width="6" stroke-dasharray="none" points="877,6177 877,3840"/>
						<polygon fill="#404040" stroke="none" points="877,3827 863,3851 890,3851"/>
						<text x="752" y="6092" fill="#000000" font-family="Arial" font-size="32pt" text-anchor="middle" direction="ltr">
							<tspan x="752" dy="50" unicode-bidi="embed">Verdadero</tspan>
						</text>
						<text x="789" y="6542" fill="#000000" font-family="Arial" font-size="32pt" text-anchor="middle" direction="ltr">
							<tspan x="789" dy="50" unicode-bidi="embed">Falso</tspan>
						</text>
						<g>
							<polyline fill="none" stroke="#404040" stroke-width="6" stroke-dasharray="none" points="1902,4052 1902,4113"/>
							<polygon fill="#404040" stroke="none" points="1902,4127 1915,4102 1888,4102"/>
							<polyline fill="none" stroke="#404040" stroke-width="6" stroke-dasharray="none" points="1902,5227 1902,5363"/>
							<polygon fill="#404040" stroke="none" points="1902,5377 1915,5352 1888,5352"/>
							<g>
								<path fill="#D0FFD0" stroke="#70A070" stroke-width="3" stroke-dasharray="none" d="M 1602,3902 L 1527,4052 L 2202,4052 L 2277,3902 Z"/>
								<text x="1902" y="3917" fill="#000000" font-family="Arial" font-size="32pt" text-anchor="middle" direction="ltr">
									<tspan x="1902" dy="50" unicode-bidi="embed">Salida &quot;ingrese el valor de</tspan>
									<tspan x="1902" dy="50" unicode-bidi="embed"> Final :&quot;</tspan>
								</text>
							</g>
							<g>
								<polyline fill="none" stroke="#404040" stroke-width="6" stroke-dasharray="none" points="1927,4152 2727,4152 2727,4238"/>
								<polygon fill="#404040" stroke="none" points="2727,4252 2740,4227 2713,4227"/>
								<polyline fill="none" stroke="#404040" stroke-width="6" stroke-dasharray="none" points="2727,4952 2727,5127 2115,5127"/>
								<polygon fill="#404040" stroke="none" points="2102,5127 2126,5140 2126,5113"/>
								<polyline fill="none" stroke="#404040" stroke-width="6" stroke-dasharray="none" points="1902,5027 1902,4190"/>
								<polygon fill="#404040" stroke="none" points="1902,4177 1888,4201 1915,4201"/>
								<text x="1777" y="4942" fill="#000000" font-family="Arial" font-size="32pt" text-anchor="middle" direction="ltr">
									<tspan x="1777" dy="50" unicode-bidi="embed">Verdadero</tspan>
								</text>
								<text x="1814" y="5242" fill="#000000" font-family="Arial" font-size="32pt" text-anchor="middle" direction="ltr">
									<tspan x="1814" dy="50" unicode-bidi="embed">Falso</tspan>
								</text>
								<g>
									<polyline fill="none" stroke="#404040" stroke-width="6" stroke-dasharray="none" points="2727,4352 2727,4413"/>
									<polygon fill="#404040" stroke="none" points="2727,4427 2740,4402 2713,4402"/>
									<g>
										<path fill="#B0E0FF" stroke="#5080A0" stroke-width="3" stroke-dasharray="none" d="M 2577,4252 L 2527,4352 L 2877,4352 L 2927,4252 Z"/>
										<text x="2727" y="4267" fill="#000000" font-family="Arial" font-size="32pt" text-anchor="middle" direction="ltr">
											<tspan x="2727" dy="50" unicode-bidi="embed">Entrada final</tspan>
										</text>
									</g>
									<g>
										<polyline fill="none" stroke="#404040" stroke-width="6" stroke-dasharray="none" points="2902,4527 3177,4527 3177,4927 2765,4927"/>
										<polygon fill="#404040" stroke="none" points="2752,4927 2776,4940 2776,4913"/>
										<polyline fill="none" stroke="#404040" stroke-width="6" stroke-dasharray="none" points="2552,4527 2352,4527 2352,4663"/>
										<polygon fill="#404040" stroke="none" points="2352,4677 2365,4652 2338,4652"/>
										<polyline fill="none" stroke="#404040" stroke-width="6" stroke-dasharray="none" points="2352,4827 2352,4927 2688,4927"/>
										<polygon fill="#404040" stroke="none" points="2702,4927 2677,4913 2677,4940"/>
										<g>
											<path fill="#FFD0D0" stroke="#A07070" stroke-width="3" stroke-dasharray="none" d="M 2727,4427 L 2527,4527 L 2727,4627 L 2927,4527 Z"/>
											<text x="2727" y="4492" fill="#000000" font-family="Arial" font-size="32pt" text-anchor="middle" direction="ltr">
												<tspan x="2727" dy="50" unicode-bidi="embed">final&gt;inicial</tspan>
											</text>
										</g>
										<g>
										</g>
										<g>
											<path fill="#D0FFD0" stroke="#70A070" stroke-width="3" stroke-dasharray="none" d="M 2102,4677 L 2027,4827 L 2602,4827 L 2677,4677 Z"/>
											<text x="2352" y="4692" fill="#000000" font-family="Arial" font-size="32pt" text-anchor="middle" direction="ltr">
												<tspan x="2352" dy="50" unicode-bidi="embed">Salida &quot;Final debe ser</tspan>
												<tspan x="2352" dy="50" unicode-bidi="embed"> mayor que Inicial&quot;</tspan>
											</text>
										</g>
										<ellipse cx="2727" cy="4927" rx="25" ry="25" fill="#FFD0D0" stroke="#A07070" stroke-width="3"/>
										<text x="3052" y="4442" fill="#000000" font-family="Arial" font-size="32pt" text-anchor="middle" direction="ltr">
											<tspan x="3052" dy="50" unicode-bidi="embed">Verdadero</tspan>
										</text>
										<text x="2439" y="4442" fill="#000000" font-family="Arial" font-size="32pt" text-anchor="middle" direction="ltr">
											<tspan x="2439" dy="50" unicode-bidi="embed">Falso</tspan>
										</text>
									</g>
								</g>
								<g>
									<path fill="#FFE0A0" stroke="#A08040" stroke-width="3" stroke-dasharray="none" d="M 1902,5027 L 1702,5127 L 1902,5227 L 2102,5127 Z"/>
									<text x="1902" y="5092" fill="#000000" font-family="Arial" font-size="32pt" text-anchor="middle" direction="ltr">
										<tspan x="1902" dy="50" unicode-bidi="embed">inicial&gt;=final</tspan>
									</text>
								</g>
								<ellipse cx="1902" cy="4152" rx="25" ry="25" fill="#FFE0A0" stroke="#A08040" stroke-width="3"/>
							</g>
							<g>
								<polyline fill="none" stroke="#404040" stroke-width="6" stroke-dasharray="none" points="2227,5552 2502,5552 2502,6077 1940,6077"/>
								<polygon fill="#404040" stroke="none" points="1927,6077 1951,6090 1951,6063"/>
								<polyline fill="none" stroke="#404040" stroke-width="6" stroke-dasharray="none" points="1577,5552 1377,5552 1377,5763"/>
								<polygon fill="#404040" stroke="none" points="1377,5777 1390,5752 1363,5752"/>
								<polyline fill="none" stroke="#404040" stroke-width="6" stroke-dasharray="none" points="1377,5977 1377,6077 1863,6077"/>
								<polygon fill="#404040" stroke="none" points="1877,6077 1852,6063 1852,6090"/>
								<g>
									<path fill="#FFD0D0" stroke="#A07070" stroke-width="3" stroke-dasharray="none" d="M 1902,5377 L 1552,5552 L 1902,5727 L 2252,5552 Z"/>
									<text x="1902" y="5492" fill="#000000" font-family="Arial" font-size="32pt" text-anchor="middle" direction="ltr">
										<tspan x="1902" dy="50" unicode-bidi="embed">(final&gt;=0&amp;&amp;final&lt;=size</tspan>
										<tspan x="1902" dy="50" unicode-bidi="embed">(array)-1)</tspan>
									</text>
								</g>
								<g>
								</g>
								<g>
									<path fill="#D0FFD0" stroke="#70A070" stroke-width="3" stroke-dasharray="none" d="M 1102,5777 L 1002,5977 L 1652,5977 L 1752,5777 Z"/>
									<text x="1377" y="5792" fill="#000000" font-family="Arial" font-size="32pt" text-anchor="middle" direction="ltr">
										<tspan x="1377" dy="50" unicode-bidi="embed">Salida &quot;Debe ingresar un</tspan>
										<tspan x="1377" dy="50" unicode-bidi="embed"> numero comprendido</tspan>
										<tspan x="1377" dy="50" unicode-bidi="embed"> entre: 0 y &quot;&amp;size(array)-1</tspan>
									</text>
								</g>
								<ellipse cx="1902" cy="6077" rx="25" ry="25" fill="#FFD0D0" stroke="#A07070" stroke-width="3"/>
								<text x="2377" y="5467" fill="#000000" font-family="Arial" font-size="32pt" text-anchor="middle" direction="ltr">
									<tspan x="2377" dy="50" unicode-bidi="embed">Verdadero</tspan>
								</text>
								<text x="1464" y="5467" fill="#000000" font-family="Arial" font-size="32pt" text-anchor="middle" direction="ltr">
									<tspan x="1464" dy="50" unicode-bidi="embed">Falso</tspan>
								</text>
							</g>
						</g>
						<g>
							<path fill="#FFE0A0" stroke="#A08040" stroke-width="3" stroke-dasharray="none" d="M 877,6177 L 527,6352 L 877,6527 L 1227,6352 Z"/>
							<text x="877" y="6292" fill="#000000" font-family="Arial" font-size="32pt" text-anchor="middle" direction="ltr">
								<tspan x="877" dy="50" unicode-bidi="embed">!(final&gt;=0&amp;&amp;final&lt;=size</tspan>
								<tspan x="877" dy="50" unicode-bidi="embed">(array)-1)</tspan>
							</text>
						</g>
						<ellipse cx="877" cy="3802" rx="25" ry="25" fill="#FFE0A0" stroke="#A08040" stroke-width="3"/>
					</g>
					<g>
						<polyline fill="none" stroke="#404040" stroke-width="6" stroke-dasharray="none" points="1052,6777 1377,6777 1377,6913"/>
						<polygon fill="#404040" stroke="none" points="1377,6927 1390,6902 1363,6902"/>
						<polyline fill="none" stroke="#404040" stroke-width="6" stroke-dasharray="none" points="1377,7177 1377,7277 915,7277"/>
						<polygon fill="#404040" stroke="none" points="902,7277 926,7290 926,7263"/>
						<polyline fill="none" stroke="#404040" stroke-width="6" stroke-dasharray="none" points="702,6777 502,6777 502,7277 838,7277"/>
						<polygon fill="#404040" stroke="none" points="852,7277 827,7263 827,7290"/>
						<g>
							<path fill="#FFD0D0" stroke="#A07070" stroke-width="3" stroke-dasharray="none" d="M 877,6677 L 677,6777 L 877,6877 L 1077,6777 Z"/>
							<text x="877" y="6742" fill="#000000" font-family="Arial" font-size="32pt" text-anchor="middle" direction="ltr">
								<tspan x="877" dy="50" unicode-bidi="embed">inicial&gt;=final</tspan>
							</text>
						</g>
						<g>
							<path fill="#D0FFD0" stroke="#70A070" stroke-width="3" stroke-dasharray="none" d="M 1052,6927 L 927,7177 L 1702,7177 L 1827,6927 Z"/>
							<text x="1377" y="6942" fill="#000000" font-family="Arial" font-size="32pt" text-anchor="middle" direction="ltr">
								<tspan x="1377" dy="50" unicode-bidi="embed">Salida &quot;Inicial (&quot;  &amp;inicial&amp;   &quot; )</tspan>
								<tspan x="1377" dy="50" unicode-bidi="embed"> debe ser menor que final (&quot; &amp;</tspan>
								<tspan x="1377" dy="50" unicode-bidi="embed">final&amp;&quot; ) Vuelva a ingresar los</tspan>
								<tspan x="1377" dy="50" unicode-bidi="embed"> valores:&quot;</tspan>
							</text>
						</g>
						<g>
						</g>
						<ellipse cx="877" cy="7277" rx="25" ry="25" fill="#FFD0D0" stroke="#A07070" stroke-width="3"/>
						<text x="1202" y="6692" fill="#000000" font-family="Arial" font-size="32pt" text-anchor="middle" direction="ltr">
							<tspan x="1202" dy="50" unicode-bidi="embed">Verdadero</tspan>
						</text>
						<text x="589" y="6692" fill="#000000" font-family="Arial" font-size="32pt" text-anchor="middle" direction="ltr">
							<tspan x="589" dy="50" unicode-bidi="embed">Falso</tspan>
						</text>
					</g>
				</g>
				<g>
					<path fill="#FFE0A0" stroke="#A08040" stroke-width="3" stroke-dasharray="none" d="M 377,7377 L 152,7502 L 377,7627 L 602,7502 Z"/>
					<text x="377" y="7467" fill="#000000" font-family="Arial" font-size="32pt" text-anchor="middle" direction="ltr">
						<tspan x="377" dy="50" unicode-bidi="embed">!(inicial&lt;final)</tspan>
					</text>
				</g>
				<ellipse cx="377" cy="1752" rx="25" ry="25" fill="#FFE0A0" stroke="#A08040" stroke-width="3"/>
			</g>
			<g>
				<path fill="#FFFFD0" stroke="#A0A070" stroke-width="3" stroke-dasharray="none" d="M 77,7777 L 77,7952 L 677,7952 L 677,7777 Z"/>
				<polyline fill="none" stroke="#A0A070" stroke-width="3" stroke-dasharray="none" points="77,7802 677,7802"/>
				<polyline fill="none" stroke="#A0A070" stroke-width="3" stroke-dasharray="none" points="102,7777 102,7952"/>
				<text x="389" y="7817" fill="#000000" font-family="Arial" font-size="32pt" text-anchor="middle" direction="ltr">
					<tspan x="389" dy="50" unicode-bidi="embed">Entero Matriz array2[size</tspan>
					<tspan x="389" dy="50" unicode-bidi="embed">(array)]</tspan>
				</text>
			</g>
			<g>
				<path fill="#FFFFD0" stroke="#A0A070" stroke-width="3" stroke-dasharray="none" d="M 127,8027 L 127,8177 L 627,8177 L 627,8027 Z"/>
				<text x="377" y="8042" fill="#000000" font-family="Arial" font-size="32pt" text-anchor="middle" direction="ltr">
					<tspan x="377" dy="50" unicode-bidi="embed">array2[0] = array[size</tspan>
					<tspan x="377" dy="50" unicode-bidi="embed">(array)-1]</tspan>
				</text>
			</g>
			<g>
				<polyline fill="none" stroke="#404040" stroke-width="6" stroke-dasharray="none" points="702,8327 927,8327 927,8438"/>
				<polygon fill="#404040" stroke="none" points="927,8452 940,8427 913,8427"/>
				<polyline fill="none" stroke="#404040" stroke-width="6" stroke-dasharray="none" points="927,8602 927,8677 427,8677 427,8415"/>
				<polygon fill="#404040" stroke="none" points="427,8402 413,8426 440,8426"/>
				<g>
					<path fill="#FFFFD0" stroke="#A0A070" stroke-width="3" stroke-dasharray="none" d="M 652,8452 L 652,8602 L 1202,8602 L 1202,8452 Z"/>
					<text x="927" y="8467" fill="#000000" font-family="Arial" font-size="32pt" text-anchor="middle" direction="ltr">
						<tspan x="927" dy="50" unicode-bidi="embed">array2[contador] = array</tspan>
						<tspan x="927" dy="50" unicode-bidi="embed">[contador-1]</tspan>
					</text>
				</g>
				<g>
					<path fill="#FFE0A0" stroke="#A08040" stroke-width="3" stroke-dasharray="none" d="M 127,8252 L 52,8327 L 127,8402 L 627,8402 L 702,8327 L 627,8252 Z"/>
					<text x="377" y="8267" fill="#000000" font-family="Arial" font-size="32pt" text-anchor="middle" direction="ltr">
						<tspan x="377" dy="50" unicode-bidi="embed">contador = 1 hasta size</tspan>
						<tspan x="377" dy="50" unicode-bidi="embed">(array2)-1</tspan>
					</text>
				</g>
				<text x="827" y="8242" fill="#000000" font-family="Arial" font-size="32pt" text-anchor="middle" direction="ltr">
					<tspan x="827" dy="50" unicode-bidi="embed">Siguiente</tspan>
				</text>
				<text x="289" y="8417" fill="#000000" font-family="Arial" font-size="32pt" text-anchor="middle" direction="ltr">
					<tspan x="289" dy="50" unicode-bidi="embed">Hecho</tspan>
				</text>
			</g>
			<g>
				<path fill="#FFFFD0" stroke="#A0A070" stroke-width="3" stroke-dasharray="none" d="M 102,8777 L 102,8952 L 652,8952 L 652,8777 Z"/>
				<polyline fill="none" stroke="#A0A070" stroke-width="3" stroke-dasharray="none" points="102,8802 652,8802"/>
				<polyline fill="none" stroke="#A0A070" stroke-width="3" stroke-dasharray="none" points="127,8777 127,8952"/>
				<text x="389" y="8817" fill="#000000" font-family="Arial" font-size="32pt" text-anchor="middle" direction="ltr">
					<tspan x="389" dy="50" unicode-bidi="embed">Entero Matriz aux[size</tspan>
					<tspan x="389" dy="50" unicode-bidi="embed">(array2)-1]</tspan>
				</text>
			</g>
			<g>
				<path fill="#FFFFD0" stroke="#A0A070" stroke-width="3" stroke-dasharray="none" d="M 127,9027 L 127,9152 L 627,9152 L 627,9027 Z"/>
				<polyline fill="none" stroke="#A0A070" stroke-width="3" stroke-dasharray="none" points="127,9052 627,9052"/>
				<polyline fill="none" stroke="#A0A070" stroke-width="3" stroke-dasharray="none" points="152,9027 152,9152"/>
				<text x="389" y="9067" fill="#000000" font-family="Arial" font-size="32pt" text-anchor="middle" direction="ltr">
					<tspan x="389" dy="50" unicode-bidi="embed">Entero inicialExtraido</tspan>
				</text>
			</g>
			<g>
				<polygon fill="#FFA0A0" stroke="#A04C4C" stroke-width="3" points="423,9321 396,9348 357,9348 330,9321 330,9282 357,9255 396,9255 423,9282"/>
				<text x="564" y="9267" fill="#000000" font-family="Arial" font-size="32pt" text-anchor="middle" direction="ltr">
					<tspan x="564" dy="50" unicode-bidi="embed">Interrumpir</tspan>
				</text>
			</g>
			<g>
				<path fill="#FFFFD0" stroke="#A0A070" stroke-width="3" stroke-dasharray="none" d="M 127,9452 L 127,9602 L 627,9602 L 627,9452 Z"/>
				<text x="377" y="9467" fill="#000000" font-family="Arial" font-size="32pt" text-anchor="middle" direction="ltr">
					<tspan x="377" dy="50" unicode-bidi="embed">inicialExtraido = array</tspan>
					<tspan x="377" dy="50" unicode-bidi="embed">[inicial]</tspan>
				</text>
			</g>
			<g>
				<polyline fill="none" stroke="#404040" stroke-width="6" stroke-dasharray="none" points="702,9752 1802,9752 1802,9863"/>
				<polygon fill="#404040" stroke="none" points="1802,9877 1815,9852 1788,9852"/>
				<polyline fill="none" stroke="#404040" stroke-width="6" stroke-dasharray="none" points="1802,10802 1802,10877 427,10877 427,9840"/>
				<polygon fill="#404040" stroke="none" points="427,9827 413,9851 440,9851"/>
				<g>
					<polyline fill="none" stroke="#404040" stroke-width="6" stroke-dasharray="none" points="2052,10027 2327,10027 2327,10213"/>
					<polygon fill="#404040" stroke="none" points="2327,10227 2340,10202 2313,10202"/>
					<polyline fill="none" stroke="#404040" stroke-width="6" stroke-dasharray="none" points="2327,10377 2327,10777 1840,10777"/>
					<polygon fill="#404040" stroke="none" points="1827,10777 1851,10790 1851,10763"/>
					<polyline fill="none" stroke="#404040" stroke-width="6" stroke-dasharray="none" points="1552,10027 927,10027 927,10213"/>
					<polygon fill="#404040" stroke="none" points="927,10227 940,10202 913,10202"/>
					<polyline fill="none" stroke="#404040" stroke-width="6" stroke-dasharray="none" points="927,10377 927,10777 1763,10777"/>
					<polygon fill="#404040" stroke="none" points="1777,10777 1752,10763 1752,10790"/>
					<g>
						<path fill="#FFD0D0" stroke="#A07070" stroke-width="3" stroke-dasharray="none" d="M 1802,9877 L 1527,10027 L 1802,10177 L 2077,10027 Z"/>
						<text x="1802" y="9992" fill="#000000" font-family="Arial" font-size="32pt" text-anchor="middle" direction="ltr">
							<tspan x="1802" dy="50" unicode-bidi="embed">contador!=inicial+1</tspan>
						</text>
					</g>
					<g>
						<path fill="#FFFFD0" stroke="#A0A070" stroke-width="3" stroke-dasharray="none" d="M 2127,10227 L 2127,10377 L 2527,10377 L 2527,10227 Z"/>
						<text x="2327" y="10242" fill="#000000" font-family="Arial" font-size="32pt" text-anchor="middle" direction="ltr">
							<tspan x="2327" dy="50" unicode-bidi="embed">aux[contador] =</tspan>
							<tspan x="2327" dy="50" unicode-bidi="embed"> array2[contador]</tspan>
						</text>
					</g>
					<g>
						<polyline fill="none" stroke="#404040" stroke-width="6" stroke-dasharray="none" points="1302,10302 1527,10302 1527,10413"/>
						<polygon fill="#404040" stroke="none" points="1527,10427 1540,10402 1513,10402"/>
						<polyline fill="none" stroke="#404040" stroke-width="6" stroke-dasharray="none" points="1527,10577 1527,10652 977,10652 977,10390"/>
						<polygon fill="#404040" stroke="none" points="977,10377 963,10401 990,10401"/>
						<g>
							<path fill="#FFFFD0" stroke="#A0A070" stroke-width="3" stroke-dasharray="none" d="M 1302,10427 L 1302,10577 L 1752,10577 L 1752,10427 Z"/>
							<text x="1527" y="10442" fill="#000000" font-family="Arial" font-size="32pt" text-anchor="middle" direction="ltr">
								<tspan x="1527" dy="50" unicode-bidi="embed">aux[contador] =</tspan>
								<tspan x="1527" dy="50" unicode-bidi="embed"> array2[contador+1]</tspan>
							</text>
						</g>
						<g>
							<path fill="#FFE0A0" stroke="#A08040" stroke-width="3" stroke-dasharray="none" d="M 627,10227 L 552,10302 L 627,10377 L 1227,10377 L 1302,10302 L 1227,10227 Z"/>
							<text x="927" y="10242" fill="#000000" font-family="Arial" font-size="32pt" text-anchor="middle" direction="ltr">
								<tspan x="927" dy="50" unicode-bidi="embed">contador = contador hasta</tspan>
								<tspan x="927" dy="50" unicode-bidi="embed"> size(aux)-1</tspan>
							</text>
						</g>
						<text x="1427" y="10217" fill="#000000" font-family="Arial" font-size="32pt" text-anchor="middle" direction="ltr">
							<tspan x="1427" dy="50" unicode-bidi="embed">Siguiente</tspan>
						</text>
						<text x="839" y="10392" fill="#000000" font-family="Arial" font-size="32pt" text-anchor="middle" direction="ltr">
							<tspan x="839" dy="50" unicode-bidi="embed">Hecho</tspan>
						</text>
					</g>
					<ellipse cx="1802" cy="10777" rx="25" ry="25" fill="#FFD0D0" stroke="#A07070" stroke-width="3"/>
					<text x="2202" y="9942" fill="#000000" font-family="Arial" font-size="32pt" text-anchor="middle" direction="ltr">
						<tspan x="2202" dy="50" unicode-bidi="embed">Verdadero</tspan>
					</text>
					<text x="1439" y="9942" fill="#000000" font-family="Arial" font-size="32pt" text-anchor="middle" direction="ltr">
						<tspan x="1439" dy="50" unicode-bidi="embed">Falso</tspan>
					</text>
				</g>
				<g>
					<path fill="#FFE0A0" stroke="#A08040" stroke-width="3" stroke-dasharray="none" d="M 127,9677 L 52,9752 L 127,9827 L 627,9827 L 702,9752 L 627,9677 Z"/>
					<text x="377" y="9692" fill="#000000" font-family="Arial" font-size="32pt" text-anchor="middle" direction="ltr">
						<tspan x="377" dy="50" unicode-bidi="embed">contador = 0 hasta size</tspan>
						<tspan x="377" dy="50" unicode-bidi="embed">(aux)-1</tspan>
					</text>
				</g>
				<text x="827" y="9667" fill="#000000" font-family="Arial" font-size="32pt" text-anchor="middle" direction="ltr">
					<tspan x="827" dy="50" unicode-bidi="embed">Siguiente</tspan>
				</text>
				<text x="289" y="9842" fill="#000000" font-family="Arial" font-size="32pt" text-anchor="middle" direction="ltr">
					<tspan x="289" dy="50" unicode-bidi="embed">Hecho</tspan>
				</text>
			</g>
			<g>
				<path fill="#FFFFD0" stroke="#A0A070" stroke-width="3" stroke-dasharray="none" d="M 102,10977 L 102,11152 L 652,11152 L 652,10977 Z"/>
				<polyline fill="none" stroke="#A0A070" stroke-width="3" stroke-dasharray="none" points="102,11002 652,11002"/>
				<polyline fill="none" stroke="#A0A070" stroke-width="3" stroke-dasharray="none" points="127,10977 127,11152"/>
				<text x="389" y="11017" fill="#000000" font-family="Arial" font-size="32pt" text-anchor="middle" direction="ltr">
					<tspan x="389" dy="50" unicode-bidi="embed">Entero Matriz aux2[size</tspan>
					<tspan x="389" dy="50" unicode-bidi="embed">(array2)]</tspan>
				</text>
			</g>
			<g>
				<polyline fill="none" stroke="#404040" stroke-width="6" stroke-dasharray="none" points="702,11302 1727,11302 1727,11413"/>
				<polygon fill="#404040" stroke="none" points="1727,11427 1740,11402 1713,11402"/>
				<polyline fill="none" stroke="#404040" stroke-width="6" stroke-dasharray="none" points="1727,12527 1727,12602 427,12602 427,11390"/>
				<polygon fill="#404040" stroke="none" points="427,11377 413,11401 440,11401"/>
				<g>
					<polyline fill="none" stroke="#404040" stroke-width="6" stroke-dasharray="none" points="1927,11552 2202,11552 2202,11713"/>
					<polygon fill="#404040" stroke="none" points="2202,11727 2215,11702 2188,11702"/>
					<polyline fill="none" stroke="#404040" stroke-width="6" stroke-dasharray="none" points="2202,11877 2202,12502 1765,12502"/>
					<polygon fill="#404040" stroke="none" points="1752,12502 1776,12515 1776,12488"/>
					<polyline fill="none" stroke="#404040" stroke-width="6" stroke-dasharray="none" points="1527,11552 877,11552 877,11713"/>
					<polygon fill="#404040" stroke="none" points="877,11727 890,11702 863,11702"/>
					<polyline fill="none" stroke="#404040" stroke-width="6" stroke-dasharray="none" points="877,12102 877,12502 1688,12502"/>
					<polygon fill="#404040" stroke="none" points="1702,12502 1677,12488 1677,12515"/>
					<g>
						<path fill="#FFD0D0" stroke="#A07070" stroke-width="3" stroke-dasharray="none" d="M 1727,11427 L 1502,11552 L 1727,11677 L 1952,11552 Z"/>
						<text x="1727" y="11517" fill="#000000" font-family="Arial" font-size="32pt" text-anchor="middle" direction="ltr">
							<tspan x="1727" dy="50" unicode-bidi="embed">contador!=final</tspan>
						</text>
					</g>
					<g>
						<path fill="#FFFFD0" stroke="#A0A070" stroke-width="3" stroke-dasharray="none" d="M 1952,11727 L 1952,11877 L 2452,11877 L 2452,11727 Z"/>
						<text x="2202" y="11742" fill="#000000" font-family="Arial" font-size="32pt" text-anchor="middle" direction="ltr">
							<tspan x="2202" dy="50" unicode-bidi="embed">aux2[contador] = aux</tspan>
							<tspan x="2202" dy="50" unicode-bidi="embed">[contador]</tspan>
						</text>
					</g>
					<g>
						<polyline fill="none" stroke="#404040" stroke-width="6" stroke-dasharray="none" points="877,11877 877,11938"/>
						<polygon fill="#404040" stroke="none" points="877,11952 890,11927 863,11927"/>
						<g>
							<path fill="#FFFFD0" stroke="#A0A070" stroke-width="3" stroke-dasharray="none" d="M 677,11727 L 677,11877 L 1077,11877 L 1077,11727 Z"/>
							<text x="877" y="11742" fill="#000000" font-family="Arial" font-size="32pt" text-anchor="middle" direction="ltr">
								<tspan x="877" dy="50" unicode-bidi="embed">aux2[contador] =</tspan>
								<tspan x="877" dy="50" unicode-bidi="embed"> inicialExtraido</tspan>
							</text>
						</g>
						<g>
							<polyline fill="none" stroke="#404040" stroke-width="6" stroke-dasharray="none" points="1202,12027 1427,12027 1427,12138"/>
							<polygon fill="#404040" stroke="none" points="1427,12152 1440,12127 1413,12127"/>
							<polyline fill="none" stroke="#404040" stroke-width="6" stroke-dasharray="none" points="1427,12302 1427,12377 927,12377 927,12115"/>
							<polygon fill="#404040" stroke="none" points="927,12102 913,12126 940,12126"/>
							<g>
								<path fill="#FFFFD0" stroke="#A0A070" stroke-width="3" stroke-dasharray="none" d="M 1177,12152 L 1177,12302 L 1677,12302 L 1677,12152 Z"/>
								<text x="1427" y="12167" fill="#000000" font-family="Arial" font-size="32pt" text-anchor="middle" direction="ltr">
									<tspan x="1427" dy="50" unicode-bidi="embed">aux2[contador] = aux</tspan>
									<tspan x="1427" dy="50" unicode-bidi="embed">[contador-1]</tspan>
								</text>
							</g>
							<g>
								<path fill="#FFE0A0" stroke="#A08040" stroke-width="3" stroke-dasharray="none" d="M 627,11952 L 552,12027 L 627,12102 L 1127,12102 L 1202,12027 L 1127,11952 Z"/>
								<text x="877" y="11967" fill="#000000" font-family="Arial" font-size="32pt" text-anchor="middle" direction="ltr">
									<tspan x="877" dy="50" unicode-bidi="embed">contador = contador+1</tspan>
									<tspan x="877" dy="50" unicode-bidi="embed"> hasta size(array2)-1</tspan>
								</text>
							</g>
							<text x="1327" y="11942" fill="#000000" font-family="Arial" font-size="32pt" text-anchor="middle" direction="ltr">
								<tspan x="1327" dy="50" unicode-bidi="embed">Siguiente</tspan>
							</text>
							<text x="789" y="12117" fill="#000000" font-family="Arial" font-size="32pt" text-anchor="middle" direction="ltr">
								<tspan x="789" dy="50" unicode-bidi="embed">Hecho</tspan>
							</text>
						</g>
					</g>
					<ellipse cx="1727" cy="12502" rx="25" ry="25" fill="#FFD0D0" stroke="#A07070" stroke-width="3"/>
					<text x="2077" y="11467" fill="#000000" font-family="Arial" font-size="32pt" text-anchor="middle" direction="ltr">
						<tspan x="2077" dy="50" unicode-bidi="embed">Verdadero</tspan>
					</text>
					<text x="1414" y="11467" fill="#000000" font-family="Arial" font-size="32pt" text-anchor="middle" direction="ltr">
						<tspan x="1414" dy="50" unicode-bidi="embed">Falso</tspan>
					</text>
				</g>
				<g>
					<path fill="#FFE0A0" stroke="#A08040" stroke-width="3" stroke-dasharray="none" d="M 127,11227 L 52,11302 L 127,11377 L 627,11377 L 702,11302 L 627,11227 Z"/>
					<text x="377" y="11242" fill="#000000" font-family="Arial" font-size="32pt" text-anchor="middle" direction="ltr">
						<tspan x="377" dy="50" unicode-bidi="embed">contador = 0 hasta size</tspan>
						<tspan x="377" dy="50" unicode-bidi="embed">(array2)-1</tspan>
					</text>
				</g>
				<text x="827" y="11217" fill="#000000" font-family="Arial" font-size="32pt" text-anchor="middle" direction="ltr">
					<tspan x="827" dy="50" unicode-bidi="embed">Siguiente</tspan>
				</text>
				<text x="289" y="11392" fill="#000000" font-family="Arial" font-size="32pt" text-anchor="middle" direction="ltr">
					<tspan x="289" dy="50" unicode-bidi="embed">Hecho</tspan>
				</text>
			</g>
		</g>
	</g>
</svg>
