<?xml version="1.0" encoding="UTF-8" standalone="no"?>
<!-- Created by Flowgorithm 3.4.1 (http://flowgorithm.org) -->

<svg xmlns:svg="http://www.w3.org/2000/svg" xmlns="http://www.w3.org/2000/svg" version="1.1" width="1854" height="3179">
	<g>
		<polyline fill="none" stroke="#404040" stroke-width="6" stroke-dasharray="none" points="827,102 827,163"/>
		<polygon fill="#404040" stroke="none" points="827,177 840,152 813,152"/>
		<polyline fill="none" stroke="#404040" stroke-width="6" stroke-dasharray="none" points="827,3002 827,3063"/>
		<polygon fill="#404040" stroke="none" points="827,3077 840,3052 813,3052"/>
		<g>
			<path fill="#F0D0FF" stroke="#9070A0" stroke-width="3" stroke-dasharray="none" d="M 727,2 A 50 50, 0, 0 0, 727 102 L 927,102 A 50 50, 0, 0 0, 927 2 Z"/>
			<text x="827" y="17" fill="#000000" font-family="Arial" font-size="32pt" text-anchor="middle" direction="ltr">
				<tspan x="827" dy="50" unicode-bidi="embed">Principal</tspan>
			</text>
		</g>
		<g>
			<path fill="#F0D0FF" stroke="#9070A0" stroke-width="3" stroke-dasharray="none" d="M 727,3077 A 50 50, 0, 0 0, 727 3177 L 927,3177 A 50 50, 0, 0 0, 927 3077 Z"/>
			<text x="827" y="3092" fill="#000000" font-family="Arial" font-size="32pt" text-anchor="middle" direction="ltr">
				<tspan x="827" dy="50" unicode-bidi="embed">Fin</tspan>
			</text>
		</g>
		<g>
			<polyline fill="none" stroke="#404040" stroke-width="6" stroke-dasharray="none" points="827,302 827,363"/>
			<polygon fill="#404040" stroke="none" points="827,377 840,352 813,352"/>
			<polyline fill="none" stroke="#404040" stroke-width="6" stroke-dasharray="none" points="827,477 827,538"/>
			<polygon fill="#404040" stroke="none" points="827,552 840,527 813,527"/>
			<polyline fill="none" stroke="#404040" stroke-width="6" stroke-dasharray="none" points="827,652 827,713"/>
			<polygon fill="#404040" stroke="none" points="827,727 840,702 813,702"/>
			<polyline fill="none" stroke="#404040" stroke-width="6" stroke-dasharray="none" points="827,852 827,913"/>
			<polygon fill="#404040" stroke="none" points="827,927 840,902 813,902"/>
			<polyline fill="none" stroke="#404040" stroke-width="6" stroke-dasharray="none" points="827,1027 827,1088"/>
			<polygon fill="#404040" stroke="none" points="827,1102 840,1077 813,1077"/>
			<polyline fill="none" stroke="#404040" stroke-width="6" stroke-dasharray="none" points="827,1227 827,1288"/>
			<polygon fill="#404040" stroke="none" points="827,1302 840,1277 813,1277"/>
			<polyline fill="none" stroke="#404040" stroke-width="6" stroke-dasharray="none" points="827,1402 827,1463"/>
			<polygon fill="#404040" stroke="none" points="827,1477 840,1452 813,1452"/>
			<g>
				<path fill="#FFFFD0" stroke="#A0A070" stroke-width="3" stroke-dasharray="none" d="M 677,177 L 677,302 L 977,302 L 977,177 Z"/>
				<polyline fill="none" stroke="#A0A070" stroke-width="3" stroke-dasharray="none" points="677,202 977,202"/>
				<polyline fill="none" stroke="#A0A070" stroke-width="3" stroke-dasharray="none" points="702,177 702,302"/>
				<text x="839" y="217" fill="#000000" font-family="Arial" font-size="32pt" text-anchor="middle" direction="ltr">
					<tspan x="839" dy="50" unicode-bidi="embed">Entero num</tspan>
				</text>
			</g>
			<g>
				<path fill="#C0E0FF" stroke="#6080A0" stroke-width="3" stroke-dasharray="none" d="M 677,377 L 627,477 L 977,477 L 1027,377 Z"/>
				<text x="827" y="392" fill="#000000" font-family="Arial" font-size="32pt" text-anchor="middle" direction="ltr">
					<tspan x="827" dy="50" unicode-bidi="embed">Entrada num</tspan>
				</text>
			</g>
			<g>
				<path fill="#FFFFD0" stroke="#A0A070" stroke-width="3" stroke-dasharray="none" d="M 652,552 L 652,652 L 1002,652 L 1002,552 Z"/>
				<text x="827" y="567" fill="#000000" font-family="Arial" font-size="32pt" text-anchor="middle" direction="ltr">
					<tspan x="827" dy="50" unicode-bidi="embed">num = num+1</tspan>
				</text>
			</g>
			<g>
				<path fill="#FFFFD0" stroke="#A0A070" stroke-width="3" stroke-dasharray="none" d="M 652,727 L 652,852 L 1002,852 L 1002,727 Z"/>
				<polyline fill="none" stroke="#A0A070" stroke-width="3" stroke-dasharray="none" points="652,752 1002,752"/>
				<polyline fill="none" stroke="#A0A070" stroke-width="3" stroke-dasharray="none" points="677,727 677,852"/>
				<text x="839" y="767" fill="#000000" font-family="Arial" font-size="32pt" text-anchor="middle" direction="ltr">
					<tspan x="839" dy="50" unicode-bidi="embed">Entero suma</tspan>
				</text>
			</g>
			<g>
				<path fill="#FFFFD0" stroke="#A0A070" stroke-width="3" stroke-dasharray="none" d="M 677,927 L 677,1027 L 977,1027 L 977,927 Z"/>
				<text x="827" y="942" fill="#000000" font-family="Arial" font-size="32pt" text-anchor="middle" direction="ltr">
					<tspan x="827" dy="50" unicode-bidi="embed">suma = 0</tspan>
				</text>
			</g>
			<g>
				<path fill="#FFFFD0" stroke="#A0A070" stroke-width="3" stroke-dasharray="none" d="M 627,1102 L 627,1227 L 1027,1227 L 1027,1102 Z"/>
				<polyline fill="none" stroke="#A0A070" stroke-width="3" stroke-dasharray="none" points="627,1127 1027,1127"/>
				<polyline fill="none" stroke="#A0A070" stroke-width="3" stroke-dasharray="none" points="652,1102 652,1227"/>
				<text x="839" y="1142" fill="#000000" font-family="Arial" font-size="32pt" text-anchor="middle" direction="ltr">
					<tspan x="839" dy="50" unicode-bidi="embed">Entero contador</tspan>
				</text>
			</g>
			<g>
				<path fill="#FFFFD0" stroke="#A0A070" stroke-width="3" stroke-dasharray="none" d="M 677,1302 L 677,1402 L 977,1402 L 977,1302 Z"/>
				<text x="827" y="1317" fill="#000000" font-family="Arial" font-size="32pt" text-anchor="middle" direction="ltr">
					<tspan x="827" dy="50" unicode-bidi="embed">contador = 0</tspan>
				</text>
			</g>
			<g>
				<polyline fill="none" stroke="#404040" stroke-width="6" stroke-dasharray="none" points="977,1577 1252,1577 1252,1713"/>
				<polygon fill="#404040" stroke="none" points="1252,1727 1265,1702 1238,1702"/>
				<polyline fill="none" stroke="#404040" stroke-width="6" stroke-dasharray="none" points="1252,2877 1252,2977 865,2977"/>
				<polygon fill="#404040" stroke="none" points="852,2977 876,2990 876,2963"/>
				<polyline fill="none" stroke="#404040" stroke-width="6" stroke-dasharray="none" points="677,1577 402,1577 402,1713"/>
				<polygon fill="#404040" stroke="none" points="402,1727 415,1702 388,1702"/>
				<polyline fill="none" stroke="#404040" stroke-width="6" stroke-dasharray="none" points="402,1877 402,2977 788,2977"/>
				<polygon fill="#404040" stroke="none" points="802,2977 777,2963 777,2990"/>
				<g>
					<path fill="#FFD0D0" stroke="#A07070" stroke-width="3" stroke-dasharray="none" d="M 827,1477 L 652,1577 L 827,1677 L 1002,1577 Z"/>
					<text x="827" y="1542" fill="#000000" font-family="Arial" font-size="32pt" text-anchor="middle" direction="ltr">
						<tspan x="827" dy="50" unicode-bidi="embed">num&gt;=0</tspan>
					</text>
				</g>
				<g>
					<polyline fill="none" stroke="#404040" stroke-width="6" stroke-dasharray="none" points="1252,2627 1252,2763"/>
					<polygon fill="#404040" stroke="none" points="1252,2777 1265,2752 1238,2752"/>
					<g>
						<polyline fill="none" stroke="#404040" stroke-width="6" stroke-dasharray="none" points="1277,1752 1602,1752 1602,1838"/>
						<polygon fill="#404040" stroke="none" points="1602,1852 1615,1827 1588,1827"/>
						<polyline fill="none" stroke="#404040" stroke-width="6" stroke-dasharray="none" points="1602,2302 1602,2502 1490,2502"/>
						<polygon fill="#404040" stroke="none" points="1477,2502 1501,2515 1501,2488"/>
						<polyline fill="none" stroke="#404040" stroke-width="6" stroke-dasharray="none" points="1252,2377 1252,1790"/>
						<polygon fill="#404040" stroke="none" points="1252,1777 1238,1801 1265,1801"/>
						<text x="1127" y="2292" fill="#000000" font-family="Arial" font-size="32pt" text-anchor="middle" direction="ltr">
							<tspan x="1127" dy="50" unicode-bidi="embed">Verdadero</tspan>
						</text>
						<text x="1164" y="2642" fill="#000000" font-family="Arial" font-size="32pt" text-anchor="middle" direction="ltr">
							<tspan x="1164" dy="50" unicode-bidi="embed">Falso</tspan>
						</text>
						<g>
							<polyline fill="none" stroke="#404040" stroke-width="6" stroke-dasharray="none" points="1602,1952 1602,2013"/>
							<polygon fill="#404040" stroke="none" points="1602,2027 1615,2002 1588,2002"/>
							<polyline fill="none" stroke="#404040" stroke-width="6" stroke-dasharray="none" points="1602,2127 1602,2188"/>
							<polygon fill="#404040" stroke="none" points="1602,2202 1615,2177 1588,2177"/>
							<g>
								<path fill="#FFFFD0" stroke="#A0A070" stroke-width="3" stroke-dasharray="none" d="M 1377,1852 L 1377,1952 L 1827,1952 L 1827,1852 Z"/>
								<text x="1602" y="1867" fill="#000000" font-family="Arial" font-size="32pt" text-anchor="middle" direction="ltr">
									<tspan x="1602" dy="50" unicode-bidi="embed">suma = suma+num</tspan>
								</text>
							</g>
							<g>
								<path fill="#FFFFD0" stroke="#A0A070" stroke-width="3" stroke-dasharray="none" d="M 1427,2027 L 1427,2127 L 1777,2127 L 1777,2027 Z"/>
								<text x="1602" y="2042" fill="#000000" font-family="Arial" font-size="32pt" text-anchor="middle" direction="ltr">
									<tspan x="1602" dy="50" unicode-bidi="embed">num = num+1</tspan>
								</text>
							</g>
							<g>
								<path fill="#FFFFD0" stroke="#A0A070" stroke-width="3" stroke-dasharray="none" d="M 1352,2202 L 1352,2302 L 1852,2302 L 1852,2202 Z"/>
								<text x="1602" y="2217" fill="#000000" font-family="Arial" font-size="32pt" text-anchor="middle" direction="ltr">
									<tspan x="1602" dy="50" unicode-bidi="embed">contador = contador+1</tspan>
								</text>
							</g>
						</g>
						<g>
							<path fill="#FFE0A0" stroke="#A08040" stroke-width="3" stroke-dasharray="none" d="M 1252,2377 L 1027,2502 L 1252,2627 L 1477,2502 Z"/>
							<text x="1252" y="2467" fill="#000000" font-family="Arial" font-size="32pt" text-anchor="middle" direction="ltr">
								<tspan x="1252" dy="50" unicode-bidi="embed">contador&lt;100</tspan>
							</text>
						</g>
						<ellipse cx="1252" cy="1752" rx="25" ry="25" fill="#FFE0A0" stroke="#A08040" stroke-width="3"/>
					</g>
					<g>
						<path fill="#D0FFD0" stroke="#70A070" stroke-width="3" stroke-dasharray="none" d="M 1102,2777 L 1052,2877 L 1402,2877 L 1452,2777 Z"/>
						<text x="1252" y="2792" fill="#000000" font-family="Arial" font-size="32pt" text-anchor="middle" direction="ltr">
							<tspan x="1252" dy="50" unicode-bidi="embed">Salida suma</tspan>
						</text>
					</g>
				</g>
				<g>
					<path fill="#D0FFD0" stroke="#70A070" stroke-width="3" stroke-dasharray="none" d="M 102,1727 L 27,1877 L 702,1877 L 777,1727 Z"/>
					<text x="402" y="1742" fill="#000000" font-family="Arial" font-size="32pt" text-anchor="middle" direction="ltr">
						<tspan x="402" dy="50" unicode-bidi="embed">Salida &quot;Debe ingresar un</tspan>
						<tspan x="402" dy="50" unicode-bidi="embed"> numero mayor o igual a 0&quot;</tspan>
					</text>
				</g>
				<ellipse cx="827" cy="2977" rx="25" ry="25" fill="#FFD0D0" stroke="#A07070" stroke-width="3"/>
				<text x="1127" y="1492" fill="#000000" font-family="Arial" font-size="32pt" text-anchor="middle" direction="ltr">
					<tspan x="1127" dy="50" unicode-bidi="embed">Verdadero</tspan>
				</text>
				<text x="564" y="1492" fill="#000000" font-family="Arial" font-size="32pt" text-anchor="middle" direction="ltr">
					<tspan x="564" dy="50" unicode-bidi="embed">Falso</tspan>
				</text>
			</g>
		</g>
	</g>
</svg>
