<?xml version="1.0" encoding="UTF-8" standalone="no"?>
<!-- Created by Flowgorithm 3.4.2 (http://flowgorithm.org) -->

<svg xmlns:svg="http://www.w3.org/2000/svg" xmlns="http://www.w3.org/2000/svg" version="1.1" width="2054" height="5454">
	<g>
		<polyline fill="none" stroke="#404040" stroke-width="6" stroke-dasharray="none" points="402,102 402,163"/>
		<polygon fill="#404040" stroke="none" points="402,177 415,152 388,152"/>
		<polyline fill="none" stroke="#404040" stroke-width="6" stroke-dasharray="none" points="402,5277 402,5338"/>
		<polygon fill="#404040" stroke="none" points="402,5352 415,5327 388,5327"/>
		<g>
			<path fill="#F0E0FF" stroke="#9070A0" stroke-width="3" stroke-dasharray="none" d="M 302,2 A 50 50, 0, 0 0, 302 102 L 502,102 A 50 50, 0, 0 0, 502 2 Z"/>
			<text x="402" y="17" fill="#000000" font-family="Arial" font-size="32pt" text-anchor="middle" direction="ltr">
				<tspan x="402" dy="50" unicode-bidi="embed">Principal</tspan>
			</text>
		</g>
		<g>
			<path fill="#F0E0FF" stroke="#9070A0" stroke-width="3" stroke-dasharray="none" d="M 302,5352 A 50 50, 0, 0 0, 302 5452 L 502,5452 A 50 50, 0, 0 0, 502 5352 Z"/>
			<text x="402" y="5367" fill="#000000" font-family="Arial" font-size="32pt" text-anchor="middle" direction="ltr">
				<tspan x="402" dy="50" unicode-bidi="embed">Fin</tspan>
			</text>
		</g>
		<g>
			<polyline fill="none" stroke="#404040" stroke-width="6" stroke-dasharray="none" points="402,302 402,363"/>
			<polygon fill="#404040" stroke="none" points="402,377 415,352 388,352"/>
			<polyline fill="none" stroke="#404040" stroke-width="6" stroke-dasharray="none" points="402,477 402,538"/>
			<polygon fill="#404040" stroke="none" points="402,552 415,527 388,527"/>
			<polyline fill="none" stroke="#404040" stroke-width="6" stroke-dasharray="none" points="402,677 402,738"/>
			<polygon fill="#404040" stroke="none" points="402,752 415,727 388,727"/>
			<polyline fill="none" stroke="#404040" stroke-width="6" stroke-dasharray="none" points="402,852 402,913"/>
			<polygon fill="#404040" stroke="none" points="402,927 415,902 388,902"/>
			<polyline fill="none" stroke="#404040" stroke-width="6" stroke-dasharray="none" points="402,1052 402,1113"/>
			<polygon fill="#404040" stroke="none" points="402,1127 415,1102 388,1102"/>
			<polyline fill="none" stroke="#404040" stroke-width="6" stroke-dasharray="none" points="402,1227 402,1288"/>
			<polygon fill="#404040" stroke="none" points="402,1302 415,1277 388,1277"/>
			<polyline fill="none" stroke="#404040" stroke-width="6" stroke-dasharray="none" points="402,1427 402,1488"/>
			<polygon fill="#404040" stroke="none" points="402,1502 415,1477 388,1477"/>
			<polyline fill="none" stroke="#404040" stroke-width="6" stroke-dasharray="none" points="402,1602 402,1663"/>
			<polygon fill="#404040" stroke="none" points="402,1677 415,1652 388,1652"/>
			<polyline fill="none" stroke="#404040" stroke-width="6" stroke-dasharray="none" points="402,1777 402,1838"/>
			<polygon fill="#404040" stroke="none" points="402,1852 415,1827 388,1827"/>
			<polyline fill="none" stroke="#404040" stroke-width="6" stroke-dasharray="none" points="402,1977 402,2038"/>
			<polygon fill="#404040" stroke="none" points="402,2052 415,2027 388,2027"/>
			<polyline fill="none" stroke="#404040" stroke-width="6" stroke-dasharray="none" points="402,2152 402,2213"/>
			<polygon fill="#404040" stroke="none" points="402,2227 415,2202 388,2202"/>
			<polyline fill="none" stroke="#404040" stroke-width="6" stroke-dasharray="none" points="402,2902 402,3038"/>
			<polygon fill="#404040" stroke="none" points="402,3052 415,3027 388,3027"/>
			<polyline fill="none" stroke="#404040" stroke-width="6" stroke-dasharray="none" points="402,4552 402,4688"/>
			<polygon fill="#404040" stroke="none" points="402,4702 415,4677 388,4677"/>
			<g>
				<path fill="#FFFFD0" stroke="#A0A070" stroke-width="3" stroke-dasharray="none" d="M 252,177 L 252,302 L 552,302 L 552,177 Z"/>
				<polyline fill="none" stroke="#A0A070" stroke-width="3" stroke-dasharray="none" points="252,202 552,202"/>
				<polyline fill="none" stroke="#A0A070" stroke-width="3" stroke-dasharray="none" points="277,177 277,302"/>
				<text x="414" y="217" fill="#000000" font-family="Arial" font-size="32pt" text-anchor="middle" direction="ltr">
					<tspan x="414" dy="50" unicode-bidi="embed">Entero n</tspan>
				</text>
			</g>
			<g>
				<path fill="#C0E0FF" stroke="#6080A0" stroke-width="3" stroke-dasharray="none" d="M 277,377 L 227,477 L 527,477 L 577,377 Z"/>
				<text x="402" y="392" fill="#000000" font-family="Arial" font-size="32pt" text-anchor="middle" direction="ltr">
					<tspan x="402" dy="50" unicode-bidi="embed">Entrada n</tspan>
				</text>
			</g>
			<g>
				<path fill="#FFFFD0" stroke="#A0A070" stroke-width="3" stroke-dasharray="none" d="M 227,552 L 227,677 L 577,677 L 577,552 Z"/>
				<polyline fill="none" stroke="#A0A070" stroke-width="3" stroke-dasharray="none" points="227,577 577,577"/>
				<polyline fill="none" stroke="#A0A070" stroke-width="3" stroke-dasharray="none" points="252,552 252,677"/>
				<text x="414" y="592" fill="#000000" font-family="Arial" font-size="32pt" text-anchor="middle" direction="ltr">
					<tspan x="414" dy="50" unicode-bidi="embed">Entero digito</tspan>
				</text>
			</g>
			<g>
				<path fill="#C0E0FF" stroke="#6080A0" stroke-width="3" stroke-dasharray="none" d="M 227,752 L 177,852 L 577,852 L 627,752 Z"/>
				<text x="402" y="767" fill="#000000" font-family="Arial" font-size="32pt" text-anchor="middle" direction="ltr">
					<tspan x="402" dy="50" unicode-bidi="embed">Entrada digito</tspan>
				</text>
			</g>
			<g>
				<path fill="#FFFFD0" stroke="#A0A070" stroke-width="3" stroke-dasharray="none" d="M 202,927 L 202,1052 L 602,1052 L 602,927 Z"/>
				<polyline fill="none" stroke="#A0A070" stroke-width="3" stroke-dasharray="none" points="202,952 602,952"/>
				<polyline fill="none" stroke="#A0A070" stroke-width="3" stroke-dasharray="none" points="227,927 227,1052"/>
				<text x="414" y="967" fill="#000000" font-family="Arial" font-size="32pt" text-anchor="middle" direction="ltr">
					<tspan x="414" dy="50" unicode-bidi="embed">Entero volteado</tspan>
				</text>
			</g>
			<g>
				<path fill="#FFFFD0" stroke="#A0A070" stroke-width="3" stroke-dasharray="none" d="M 252,1127 L 252,1227 L 552,1227 L 552,1127 Z"/>
				<text x="402" y="1142" fill="#000000" font-family="Arial" font-size="32pt" text-anchor="middle" direction="ltr">
					<tspan x="402" dy="50" unicode-bidi="embed">volteado = 0</tspan>
				</text>
			</g>
			<g>
				<path fill="#FFFFD0" stroke="#A0A070" stroke-width="3" stroke-dasharray="none" d="M 202,1302 L 202,1427 L 602,1427 L 602,1302 Z"/>
				<polyline fill="none" stroke="#A0A070" stroke-width="3" stroke-dasharray="none" points="202,1327 602,1327"/>
				<polyline fill="none" stroke="#A0A070" stroke-width="3" stroke-dasharray="none" points="227,1302 227,1427"/>
				<text x="414" y="1342" fill="#000000" font-family="Arial" font-size="32pt" text-anchor="middle" direction="ltr">
					<tspan x="414" dy="50" unicode-bidi="embed">Entero posicion</tspan>
				</text>
			</g>
			<g>
				<path fill="#FFFFD0" stroke="#A0A070" stroke-width="3" stroke-dasharray="none" d="M 252,1502 L 252,1602 L 552,1602 L 552,1502 Z"/>
				<text x="402" y="1517" fill="#000000" font-family="Arial" font-size="32pt" text-anchor="middle" direction="ltr">
					<tspan x="402" dy="50" unicode-bidi="embed">posicion = 0</tspan>
				</text>
			</g>
			<g>
				<path fill="#FFFFD0" stroke="#A0A070" stroke-width="3" stroke-dasharray="none" d="M 252,1677 L 252,1777 L 552,1777 L 552,1677 Z"/>
				<text x="402" y="1692" fill="#000000" font-family="Arial" font-size="32pt" text-anchor="middle" direction="ltr">
					<tspan x="402" dy="50" unicode-bidi="embed">n = abs(n)</tspan>
				</text>
			</g>
			<g>
				<path fill="#FFFFD0" stroke="#A0A070" stroke-width="3" stroke-dasharray="none" d="M 202,1852 L 202,1977 L 602,1977 L 602,1852 Z"/>
				<polyline fill="none" stroke="#A0A070" stroke-width="3" stroke-dasharray="none" points="202,1877 602,1877"/>
				<polyline fill="none" stroke="#A0A070" stroke-width="3" stroke-dasharray="none" points="227,1852 227,1977"/>
				<text x="414" y="1892" fill="#000000" font-family="Arial" font-size="32pt" text-anchor="middle" direction="ltr">
					<tspan x="414" dy="50" unicode-bidi="embed">Entero verificar</tspan>
				</text>
			</g>
			<g>
				<path fill="#FFFFD0" stroke="#A0A070" stroke-width="3" stroke-dasharray="none" d="M 252,2052 L 252,2152 L 552,2152 L 552,2052 Z"/>
				<text x="402" y="2067" fill="#000000" font-family="Arial" font-size="32pt" text-anchor="middle" direction="ltr">
					<tspan x="402" dy="50" unicode-bidi="embed">verificar = 0</tspan>
				</text>
			</g>
			<g>
				<polyline fill="none" stroke="#404040" stroke-width="6" stroke-dasharray="none" points="427,2252 802,2252 802,2338"/>
				<polygon fill="#404040" stroke="none" points="802,2352 815,2327 788,2327"/>
				<polyline fill="none" stroke="#404040" stroke-width="6" stroke-dasharray="none" points="802,2677 802,2827 565,2827"/>
				<polygon fill="#404040" stroke="none" points="552,2827 576,2840 576,2813"/>
				<polyline fill="none" stroke="#404040" stroke-width="6" stroke-dasharray="none" points="402,2752 402,2290"/>
				<polygon fill="#404040" stroke="none" points="402,2277 388,2301 415,2301"/>
				<text x="277" y="2667" fill="#000000" font-family="Arial" font-size="32pt" text-anchor="middle" direction="ltr">
					<tspan x="277" dy="50" unicode-bidi="embed">Verdadero</tspan>
				</text>
				<text x="314" y="2917" fill="#000000" font-family="Arial" font-size="32pt" text-anchor="middle" direction="ltr">
					<tspan x="314" dy="50" unicode-bidi="embed">Falso</tspan>
				</text>
				<g>
					<polyline fill="none" stroke="#404040" stroke-width="6" stroke-dasharray="none" points="802,2502 802,2563"/>
					<polygon fill="#404040" stroke="none" points="802,2577 815,2552 788,2552"/>
					<g>
						<path fill="#FFFFD0" stroke="#A0A070" stroke-width="3" stroke-dasharray="none" d="M 502,2352 L 502,2502 L 1102,2502 L 1102,2352 Z"/>
						<text x="802" y="2367" fill="#000000" font-family="Arial" font-size="32pt" text-anchor="middle" direction="ltr">
							<tspan x="802" dy="50" unicode-bidi="embed">volteado = (volteado*10)+(n</tspan>
							<tspan x="802" dy="50" unicode-bidi="embed">%10)</tspan>
						</text>
					</g>
					<g>
						<path fill="#FFFFD0" stroke="#A0A070" stroke-width="3" stroke-dasharray="none" d="M 652,2577 L 652,2677 L 952,2677 L 952,2577 Z"/>
						<text x="802" y="2592" fill="#000000" font-family="Arial" font-size="32pt" text-anchor="middle" direction="ltr">
							<tspan x="802" dy="50" unicode-bidi="embed">n = n/10</tspan>
						</text>
					</g>
				</g>
				<g>
					<path fill="#FFE0A0" stroke="#A08040" stroke-width="3" stroke-dasharray="none" d="M 402,2752 L 252,2827 L 402,2902 L 552,2827 Z"/>
					<text x="402" y="2792" fill="#000000" font-family="Arial" font-size="32pt" text-anchor="middle" direction="ltr">
						<tspan x="402" dy="50" unicode-bidi="embed">n&gt;0</tspan>
					</text>
				</g>
				<ellipse cx="402" cy="2252" rx="25" ry="25" fill="#FFE0A0" stroke="#A08040" stroke-width="3"/>
			</g>
			<g>
				<polyline fill="none" stroke="#404040" stroke-width="6" stroke-dasharray="none" points="427,3077 1252,3077 1252,3163"/>
				<polygon fill="#404040" stroke="none" points="1252,3177 1265,3152 1238,3152"/>
				<polyline fill="none" stroke="#404040" stroke-width="6" stroke-dasharray="none" points="1252,4277 1252,4452 615,4452"/>
				<polygon fill="#404040" stroke="none" points="602,4452 626,4465 626,4438"/>
				<polyline fill="none" stroke="#404040" stroke-width="6" stroke-dasharray="none" points="402,4352 402,3115"/>
				<polygon fill="#404040" stroke="none" points="402,3102 388,3126 415,3126"/>
				<text x="277" y="4267" fill="#000000" font-family="Arial" font-size="32pt" text-anchor="middle" direction="ltr">
					<tspan x="277" dy="50" unicode-bidi="embed">Verdadero</tspan>
				</text>
				<text x="314" y="4567" fill="#000000" font-family="Arial" font-size="32pt" text-anchor="middle" direction="ltr">
					<tspan x="314" dy="50" unicode-bidi="embed">Falso</tspan>
				</text>
				<g>
					<polyline fill="none" stroke="#404040" stroke-width="6" stroke-dasharray="none" points="1252,4102 1252,4163"/>
					<polygon fill="#404040" stroke="none" points="1252,4177 1265,4152 1238,4152"/>
					<g>
						<polyline fill="none" stroke="#404040" stroke-width="6" stroke-dasharray="none" points="1527,3327 1802,3327 1802,3513"/>
						<polygon fill="#404040" stroke="none" points="1802,3527 1815,3502 1788,3502"/>
						<polyline fill="none" stroke="#404040" stroke-width="6" stroke-dasharray="none" points="1802,3977 1802,4077 1290,4077"/>
						<polygon fill="#404040" stroke="none" points="1277,4077 1301,4090 1301,4063"/>
						<polyline fill="none" stroke="#404040" stroke-width="6" stroke-dasharray="none" points="977,3327 777,3327 777,3513"/>
						<polygon fill="#404040" stroke="none" points="777,3527 790,3502 763,3502"/>
						<polyline fill="none" stroke="#404040" stroke-width="6" stroke-dasharray="none" points="777,3627 777,4077 1213,4077"/>
						<polygon fill="#404040" stroke="none" points="1227,4077 1202,4063 1202,4090"/>
						<g>
							<path fill="#FFD0D0" stroke="#A07070" stroke-width="3" stroke-dasharray="none" d="M 1252,3177 L 952,3327 L 1252,3477 L 1552,3327 Z"/>
							<text x="1252" y="3292" fill="#000000" font-family="Arial" font-size="32pt" text-anchor="middle" direction="ltr">
								<tspan x="1252" dy="50" unicode-bidi="embed">(volteado%10)==digito</tspan>
							</text>
						</g>
						<g>
							<polyline fill="none" stroke="#404040" stroke-width="6" stroke-dasharray="none" points="1802,3627 1802,3688"/>
							<polygon fill="#404040" stroke="none" points="1802,3702 1815,3677 1788,3677"/>
							<polyline fill="none" stroke="#404040" stroke-width="6" stroke-dasharray="none" points="1802,3802 1802,3863"/>
							<polygon fill="#404040" stroke="none" points="1802,3877 1815,3852 1788,3852"/>
							<g>
								<path fill="#FFFFD0" stroke="#A0A070" stroke-width="3" stroke-dasharray="none" d="M 1552,3527 L 1552,3627 L 2052,3627 L 2052,3527 Z"/>
								<text x="1802" y="3542" fill="#000000" font-family="Arial" font-size="32pt" text-anchor="middle" direction="ltr">
									<tspan x="1802" dy="50" unicode-bidi="embed">posicion = posicion+1</tspan>
								</text>
							</g>
							<g>
								<path fill="#FFFFD0" stroke="#A0A070" stroke-width="3" stroke-dasharray="none" d="M 1552,3702 L 1552,3802 L 2052,3802 L 2052,3702 Z"/>
								<text x="1802" y="3717" fill="#000000" font-family="Arial" font-size="32pt" text-anchor="middle" direction="ltr">
									<tspan x="1802" dy="50" unicode-bidi="embed">verificar = verificar+1</tspan>
								</text>
							</g>
							<g>
								<path fill="#D0FFD0" stroke="#70A070" stroke-width="3" stroke-dasharray="none" d="M 1627,3877 L 1577,3977 L 1977,3977 L 2027,3877 Z"/>
								<text x="1802" y="3892" fill="#000000" font-family="Arial" font-size="32pt" text-anchor="middle" direction="ltr">
									<tspan x="1802" dy="50" unicode-bidi="embed">Salida posicion</tspan>
								</text>
							</g>
						</g>
						<g>
							<path fill="#FFFFD0" stroke="#A0A070" stroke-width="3" stroke-dasharray="none" d="M 527,3527 L 527,3627 L 1027,3627 L 1027,3527 Z"/>
							<text x="777" y="3542" fill="#000000" font-family="Arial" font-size="32pt" text-anchor="middle" direction="ltr">
								<tspan x="777" dy="50" unicode-bidi="embed">posicion = posicion+1</tspan>
							</text>
						</g>
						<ellipse cx="1252" cy="4077" rx="25" ry="25" fill="#FFD0D0" stroke="#A07070" stroke-width="3"/>
						<text x="1677" y="3242" fill="#000000" font-family="Arial" font-size="32pt" text-anchor="middle" direction="ltr">
							<tspan x="1677" dy="50" unicode-bidi="embed">Verdadero</tspan>
						</text>
						<text x="864" y="3242" fill="#000000" font-family="Arial" font-size="32pt" text-anchor="middle" direction="ltr">
							<tspan x="864" dy="50" unicode-bidi="embed">Falso</tspan>
						</text>
					</g>
					<g>
						<path fill="#FFFFD0" stroke="#A0A070" stroke-width="3" stroke-dasharray="none" d="M 1002,4177 L 1002,4277 L 1502,4277 L 1502,4177 Z"/>
						<text x="1252" y="4192" fill="#000000" font-family="Arial" font-size="32pt" text-anchor="middle" direction="ltr">
							<tspan x="1252" dy="50" unicode-bidi="embed">volteado = volteado/10</tspan>
						</text>
					</g>
				</g>
				<g>
					<path fill="#FFE0A0" stroke="#A08040" stroke-width="3" stroke-dasharray="none" d="M 402,4352 L 202,4452 L 402,4552 L 602,4452 Z"/>
					<text x="402" y="4417" fill="#000000" font-family="Arial" font-size="32pt" text-anchor="middle" direction="ltr">
						<tspan x="402" dy="50" unicode-bidi="embed">volteado&gt;0</tspan>
					</text>
				</g>
				<ellipse cx="402" cy="3077" rx="25" ry="25" fill="#FFE0A0" stroke="#A08040" stroke-width="3"/>
			</g>
			<g>
				<polyline fill="none" stroke="#404040" stroke-width="6" stroke-dasharray="none" points="577,4802 852,4802 852,4938"/>
				<polygon fill="#404040" stroke="none" points="852,4952 865,4927 838,4927"/>
				<polyline fill="none" stroke="#404040" stroke-width="6" stroke-dasharray="none" points="852,5152 852,5252 440,5252"/>
				<polygon fill="#404040" stroke="none" points="427,5252 451,5265 451,5238"/>
				<polyline fill="none" stroke="#404040" stroke-width="6" stroke-dasharray="none" points="227,4802 27,4802 27,5252 363,5252"/>
				<polygon fill="#404040" stroke="none" points="377,5252 352,5238 352,5265"/>
				<g>
					<path fill="#FFD0D0" stroke="#A07070" stroke-width="3" stroke-dasharray="none" d="M 402,4702 L 202,4802 L 402,4902 L 602,4802 Z"/>
					<text x="402" y="4767" fill="#000000" font-family="Arial" font-size="32pt" text-anchor="middle" direction="ltr">
						<tspan x="402" dy="50" unicode-bidi="embed">verificar==0</tspan>
					</text>
				</g>
				<g>
					<path fill="#D0FFD0" stroke="#70A070" stroke-width="3" stroke-dasharray="none" d="M 577,4952 L 477,5152 L 1127,5152 L 1227,4952 Z"/>
					<text x="852" y="4967" fill="#000000" font-family="Arial" font-size="32pt" text-anchor="middle" direction="ltr">
						<tspan x="852" dy="50" unicode-bidi="embed">Salida &quot;No se encontro el</tspan>
						<tspan x="852" dy="50" unicode-bidi="embed"> digito en el numero</tspan>
						<tspan x="852" dy="50" unicode-bidi="embed"> ingresado&quot;</tspan>
					</text>
				</g>
				<g>
				</g>
				<ellipse cx="402" cy="5252" rx="25" ry="25" fill="#FFD0D0" stroke="#A07070" stroke-width="3"/>
				<text x="727" y="4717" fill="#000000" font-family="Arial" font-size="32pt" text-anchor="middle" direction="ltr">
					<tspan x="727" dy="50" unicode-bidi="embed">Verdadero</tspan>
				</text>
				<text x="114" y="4717" fill="#000000" font-family="Arial" font-size="32pt" text-anchor="middle" direction="ltr">
					<tspan x="114" dy="50" unicode-bidi="embed">Falso</tspan>
				</text>
			</g>
		</g>
	</g>
</svg>
