<?xml version="1.0" encoding="UTF-8" standalone="no"?>
<!-- Created by Flowgorithm 3.4.1 (http://flowgorithm.org) -->

<svg xmlns:svg="http://www.w3.org/2000/svg" xmlns="http://www.w3.org/2000/svg" version="1.1" width="2154" height="2904">
	<g>
		<polyline fill="none" stroke="#404040" stroke-width="6" stroke-dasharray="none" points="777,102 777,163"/>
		<polygon fill="#404040" stroke="none" points="777,177 790,152 763,152"/>
		<polyline fill="none" stroke="#404040" stroke-width="6" stroke-dasharray="none" points="777,2727 777,2788"/>
		<polygon fill="#404040" stroke="none" points="777,2802 790,2777 763,2777"/>
		<g>
			<path fill="#F0D0FF" stroke="#9070A0" stroke-width="3" stroke-dasharray="none" d="M 677,2 A 50 50, 0, 0 0, 677 102 L 877,102 A 50 50, 0, 0 0, 877 2 Z"/>
			<text x="777" y="17" fill="#000000" font-family="Arial" font-size="32pt" text-anchor="middle" direction="ltr">
				<tspan x="777" dy="50" unicode-bidi="embed">Principal</tspan>
			</text>
		</g>
		<g>
			<path fill="#F0D0FF" stroke="#9070A0" stroke-width="3" stroke-dasharray="none" d="M 677,2802 A 50 50, 0, 0 0, 677 2902 L 877,2902 A 50 50, 0, 0 0, 877 2802 Z"/>
			<text x="777" y="2817" fill="#000000" font-family="Arial" font-size="32pt" text-anchor="middle" direction="ltr">
				<tspan x="777" dy="50" unicode-bidi="embed">Fin</tspan>
			</text>
		</g>
		<g>
			<polyline fill="none" stroke="#404040" stroke-width="6" stroke-dasharray="none" points="777,302 777,363"/>
			<polygon fill="#404040" stroke="none" points="777,377 790,352 763,352"/>
			<polyline fill="none" stroke="#404040" stroke-width="6" stroke-dasharray="none" points="777,502 777,563"/>
			<polygon fill="#404040" stroke="none" points="777,577 790,552 763,552"/>
			<polyline fill="none" stroke="#404040" stroke-width="6" stroke-dasharray="none" points="777,677 777,738"/>
			<polygon fill="#404040" stroke="none" points="777,752 790,727 763,727"/>
			<polyline fill="none" stroke="#404040" stroke-width="6" stroke-dasharray="none" points="777,852 777,913"/>
			<polygon fill="#404040" stroke="none" points="777,927 790,902 763,902"/>
			<polyline fill="none" stroke="#404040" stroke-width="6" stroke-dasharray="none" points="777,1052 777,1113"/>
			<polygon fill="#404040" stroke="none" points="777,1127 790,1102 763,1102"/>
			<polyline fill="none" stroke="#404040" stroke-width="6" stroke-dasharray="none" points="777,1252 777,1313"/>
			<polygon fill="#404040" stroke="none" points="777,1327 790,1302 763,1302"/>
			<g>
				<path fill="#FFFFD0" stroke="#A0A070" stroke-width="3" stroke-dasharray="none" d="M 627,177 L 627,302 L 927,302 L 927,177 Z"/>
				<polyline fill="none" stroke="#A0A070" stroke-width="3" stroke-dasharray="none" points="627,202 927,202"/>
				<polyline fill="none" stroke="#A0A070" stroke-width="3" stroke-dasharray="none" points="652,177 652,302"/>
				<text x="789" y="217" fill="#000000" font-family="Arial" font-size="32pt" text-anchor="middle" direction="ltr">
					<tspan x="789" dy="50" unicode-bidi="embed">Entero a</tspan>
				</text>
			</g>
			<g>
				<path fill="#FFFFD0" stroke="#A0A070" stroke-width="3" stroke-dasharray="none" d="M 627,377 L 627,502 L 927,502 L 927,377 Z"/>
				<polyline fill="none" stroke="#A0A070" stroke-width="3" stroke-dasharray="none" points="627,402 927,402"/>
				<polyline fill="none" stroke="#A0A070" stroke-width="3" stroke-dasharray="none" points="652,377 652,502"/>
				<text x="789" y="417" fill="#000000" font-family="Arial" font-size="32pt" text-anchor="middle" direction="ltr">
					<tspan x="789" dy="50" unicode-bidi="embed">Entero b</tspan>
				</text>
			</g>
			<g>
				<path fill="#C0E0FF" stroke="#6080A0" stroke-width="3" stroke-dasharray="none" d="M 652,577 L 602,677 L 902,677 L 952,577 Z"/>
				<text x="777" y="592" fill="#000000" font-family="Arial" font-size="32pt" text-anchor="middle" direction="ltr">
					<tspan x="777" dy="50" unicode-bidi="embed">Entrada a</tspan>
				</text>
			</g>
			<g>
				<path fill="#C0E0FF" stroke="#6080A0" stroke-width="3" stroke-dasharray="none" d="M 652,752 L 602,852 L 902,852 L 952,752 Z"/>
				<text x="777" y="767" fill="#000000" font-family="Arial" font-size="32pt" text-anchor="middle" direction="ltr">
					<tspan x="777" dy="50" unicode-bidi="embed">Entrada b</tspan>
				</text>
			</g>
			<g>
				<path fill="#FFFFD0" stroke="#A0A070" stroke-width="3" stroke-dasharray="none" d="M 602,927 L 602,1052 L 952,1052 L 952,927 Z"/>
				<polyline fill="none" stroke="#A0A070" stroke-width="3" stroke-dasharray="none" points="602,952 952,952"/>
				<polyline fill="none" stroke="#A0A070" stroke-width="3" stroke-dasharray="none" points="627,927 627,1052"/>
				<text x="789" y="967" fill="#000000" font-family="Arial" font-size="32pt" text-anchor="middle" direction="ltr">
					<tspan x="789" dy="50" unicode-bidi="embed">Entero mayor</tspan>
				</text>
			</g>
			<g>
				<path fill="#FFFFD0" stroke="#A0A070" stroke-width="3" stroke-dasharray="none" d="M 602,1127 L 602,1252 L 952,1252 L 952,1127 Z"/>
				<polyline fill="none" stroke="#A0A070" stroke-width="3" stroke-dasharray="none" points="602,1152 952,1152"/>
				<polyline fill="none" stroke="#A0A070" stroke-width="3" stroke-dasharray="none" points="627,1127 627,1252"/>
				<text x="789" y="1167" fill="#000000" font-family="Arial" font-size="32pt" text-anchor="middle" direction="ltr">
					<tspan x="789" dy="50" unicode-bidi="embed">Entero menor</tspan>
				</text>
			</g>
			<g>
				<polyline fill="none" stroke="#404040" stroke-width="6" stroke-dasharray="none" points="902,1402 1327,1402 1327,1513"/>
				<polygon fill="#404040" stroke="none" points="1327,1527 1340,1502 1313,1502"/>
				<polyline fill="none" stroke="#404040" stroke-width="6" stroke-dasharray="none" points="1327,2352 1327,2702 815,2702"/>
				<polygon fill="#404040" stroke="none" points="802,2702 826,2715 826,2688"/>
				<polyline fill="none" stroke="#404040" stroke-width="6" stroke-dasharray="none" points="652,1402 377,1402 377,1513"/>
				<polygon fill="#404040" stroke="none" points="377,1527 390,1502 363,1502"/>
				<polyline fill="none" stroke="#404040" stroke-width="6" stroke-dasharray="none" points="377,1677 377,2702 738,2702"/>
				<polygon fill="#404040" stroke="none" points="752,2702 727,2688 727,2715"/>
				<g>
					<path fill="#FFD0D0" stroke="#A07070" stroke-width="3" stroke-dasharray="none" d="M 777,1327 L 627,1402 L 777,1477 L 927,1402 Z"/>
					<text x="777" y="1367" fill="#000000" font-family="Arial" font-size="32pt" text-anchor="middle" direction="ltr">
						<tspan x="777" dy="50" unicode-bidi="embed">a!=b</tspan>
					</text>
				</g>
				<g>
					<polyline fill="none" stroke="#404040" stroke-width="6" stroke-dasharray="none" points="1327,2127 1327,2188"/>
					<polygon fill="#404040" stroke="none" points="1327,2202 1340,2177 1313,2177"/>
					<g>
						<polyline fill="none" stroke="#404040" stroke-width="6" stroke-dasharray="none" points="1452,1602 1727,1602 1727,1713"/>
						<polygon fill="#404040" stroke="none" points="1727,1727 1740,1702 1713,1702"/>
						<polyline fill="none" stroke="#404040" stroke-width="6" stroke-dasharray="none" points="1727,2002 1727,2102 1365,2102"/>
						<polygon fill="#404040" stroke="none" points="1352,2102 1376,2115 1376,2088"/>
						<polyline fill="none" stroke="#404040" stroke-width="6" stroke-dasharray="none" points="1202,1602 1002,1602 1002,1713"/>
						<polygon fill="#404040" stroke="none" points="1002,1727 1015,1702 988,1702"/>
						<polyline fill="none" stroke="#404040" stroke-width="6" stroke-dasharray="none" points="1002,2002 1002,2102 1288,2102"/>
						<polygon fill="#404040" stroke="none" points="1302,2102 1277,2088 1277,2115"/>
						<g>
							<path fill="#FFD0D0" stroke="#A07070" stroke-width="3" stroke-dasharray="none" d="M 1327,1527 L 1177,1602 L 1327,1677 L 1477,1602 Z"/>
							<text x="1327" y="1567" fill="#000000" font-family="Arial" font-size="32pt" text-anchor="middle" direction="ltr">
								<tspan x="1327" dy="50" unicode-bidi="embed">a&gt;b</tspan>
							</text>
						</g>
						<g>
							<polyline fill="none" stroke="#404040" stroke-width="6" stroke-dasharray="none" points="1727,1827 1727,1888"/>
							<polygon fill="#404040" stroke="none" points="1727,1902 1740,1877 1713,1877"/>
							<g>
								<path fill="#FFFFD0" stroke="#A0A070" stroke-width="3" stroke-dasharray="none" d="M 1577,1727 L 1577,1827 L 1877,1827 L 1877,1727 Z"/>
								<text x="1727" y="1742" fill="#000000" font-family="Arial" font-size="32pt" text-anchor="middle" direction="ltr">
									<tspan x="1727" dy="50" unicode-bidi="embed">mayor = a</tspan>
								</text>
							</g>
							<g>
								<path fill="#FFFFD0" stroke="#A0A070" stroke-width="3" stroke-dasharray="none" d="M 1577,1902 L 1577,2002 L 1877,2002 L 1877,1902 Z"/>
								<text x="1727" y="1917" fill="#000000" font-family="Arial" font-size="32pt" text-anchor="middle" direction="ltr">
									<tspan x="1727" dy="50" unicode-bidi="embed">menor = b</tspan>
								</text>
							</g>
						</g>
						<g>
							<polyline fill="none" stroke="#404040" stroke-width="6" stroke-dasharray="none" points="1002,1827 1002,1888"/>
							<polygon fill="#404040" stroke="none" points="1002,1902 1015,1877 988,1877"/>
							<g>
								<path fill="#FFFFD0" stroke="#A0A070" stroke-width="3" stroke-dasharray="none" d="M 852,1727 L 852,1827 L 1152,1827 L 1152,1727 Z"/>
								<text x="1002" y="1742" fill="#000000" font-family="Arial" font-size="32pt" text-anchor="middle" direction="ltr">
									<tspan x="1002" dy="50" unicode-bidi="embed">mayor = b</tspan>
								</text>
							</g>
							<g>
								<path fill="#FFFFD0" stroke="#A0A070" stroke-width="3" stroke-dasharray="none" d="M 852,1902 L 852,2002 L 1152,2002 L 1152,1902 Z"/>
								<text x="1002" y="1917" fill="#000000" font-family="Arial" font-size="32pt" text-anchor="middle" direction="ltr">
									<tspan x="1002" dy="50" unicode-bidi="embed">menor = a</tspan>
								</text>
							</g>
						</g>
						<ellipse cx="1327" cy="2102" rx="25" ry="25" fill="#FFD0D0" stroke="#A07070" stroke-width="3"/>
						<text x="1602" y="1517" fill="#000000" font-family="Arial" font-size="32pt" text-anchor="middle" direction="ltr">
							<tspan x="1602" dy="50" unicode-bidi="embed">Verdadero</tspan>
						</text>
						<text x="1089" y="1517" fill="#000000" font-family="Arial" font-size="32pt" text-anchor="middle" direction="ltr">
							<tspan x="1089" dy="50" unicode-bidi="embed">Falso</tspan>
						</text>
					</g>
					<g>
						<polyline fill="none" stroke="#404040" stroke-width="6" stroke-dasharray="none" points="1702,2277 1927,2277 1927,2388"/>
						<polygon fill="#404040" stroke="none" points="1927,2402 1940,2377 1913,2377"/>
						<polyline fill="none" stroke="#404040" stroke-width="6" stroke-dasharray="none" points="1927,2502 1927,2577 1377,2577 1377,2365"/>
						<polygon fill="#404040" stroke="none" points="1377,2352 1363,2376 1390,2376"/>
						<g>
							<path fill="#D0FFD0" stroke="#70A070" stroke-width="3" stroke-dasharray="none" d="M 1752,2402 L 1702,2502 L 2102,2502 L 2152,2402 Z"/>
							<text x="1927" y="2417" fill="#000000" font-family="Arial" font-size="32pt" text-anchor="middle" direction="ltr">
								<tspan x="1927" dy="50" unicode-bidi="embed">Salida menor</tspan>
							</text>
						</g>
						<g>
							<path fill="#FFE0A0" stroke="#A08040" stroke-width="3" stroke-dasharray="none" d="M 1027,2202 L 952,2277 L 1027,2352 L 1627,2352 L 1702,2277 L 1627,2202 Z"/>
							<text x="1327" y="2217" fill="#000000" font-family="Arial" font-size="32pt" text-anchor="middle" direction="ltr">
								<tspan x="1327" dy="50" unicode-bidi="embed">menor = menor hasta mayor</tspan>
								<tspan x="1327" dy="50" unicode-bidi="embed"> paso 7</tspan>
							</text>
						</g>
						<text x="1827" y="2192" fill="#000000" font-family="Arial" font-size="32pt" text-anchor="middle" direction="ltr">
							<tspan x="1827" dy="50" unicode-bidi="embed">Siguiente</tspan>
						</text>
						<text x="1239" y="2367" fill="#000000" font-family="Arial" font-size="32pt" text-anchor="middle" direction="ltr">
							<tspan x="1239" dy="50" unicode-bidi="embed">Hecho</tspan>
						</text>
					</g>
				</g>
				<g>
					<path fill="#D0FFD0" stroke="#70A070" stroke-width="3" stroke-dasharray="none" d="M 102,1527 L 27,1677 L 652,1677 L 727,1527 Z"/>
					<text x="377" y="1542" fill="#000000" font-family="Arial" font-size="32pt" text-anchor="middle" direction="ltr">
						<tspan x="377" dy="50" unicode-bidi="embed">Salida &quot;Debe introducir 2</tspan>
						<tspan x="377" dy="50" unicode-bidi="embed"> numeros diferentes&quot;</tspan>
					</text>
				</g>
				<ellipse cx="777" cy="2702" rx="25" ry="25" fill="#FFD0D0" stroke="#A07070" stroke-width="3"/>
				<text x="1052" y="1317" fill="#000000" font-family="Arial" font-size="32pt" text-anchor="middle" direction="ltr">
					<tspan x="1052" dy="50" unicode-bidi="embed">Verdadero</tspan>
				</text>
				<text x="539" y="1317" fill="#000000" font-family="Arial" font-size="32pt" text-anchor="middle" direction="ltr">
					<tspan x="539" dy="50" unicode-bidi="embed">Falso</tspan>
				</text>
			</g>
		</g>
	</g>
</svg>
