<?xml version="1.0" encoding="UTF-8" standalone="no"?>
<!-- Created by Flowgorithm 3.4.1 (http://flowgorithm.org) -->

<svg xmlns:svg="http://www.w3.org/2000/svg" xmlns="http://www.w3.org/2000/svg" version="1.1" width="554" height="1054">
	<g>
		<polyline fill="none" stroke="#404040" stroke-width="6" stroke-dasharray="none" points="277,102 277,163"/>
		<polygon fill="#404040" stroke="none" points="277,177 290,152 263,152"/>
		<polyline fill="none" stroke="#404040" stroke-width="6" stroke-dasharray="none" points="277,877 277,938"/>
		<polygon fill="#404040" stroke="none" points="277,952 290,927 263,927"/>
		<g>
			<path fill="#F0D0FF" stroke="#9070A0" stroke-width="3" stroke-dasharray="none" d="M 177,2 A 50 50, 0, 0 0, 177 102 L 377,102 A 50 50, 0, 0 0, 377 2 Z"/>
			<text x="277" y="17" fill="#000000" font-family="Arial" font-size="32pt" text-anchor="middle" direction="ltr">
				<tspan x="277" dy="50" unicode-bidi="embed">Principal</tspan>
			</text>
		</g>
		<g>
			<path fill="#F0D0FF" stroke="#9070A0" stroke-width="3" stroke-dasharray="none" d="M 177,952 A 50 50, 0, 0 0, 177 1052 L 377,1052 A 50 50, 0, 0 0, 377 952 Z"/>
			<text x="277" y="967" fill="#000000" font-family="Arial" font-size="32pt" text-anchor="middle" direction="ltr">
				<tspan x="277" dy="50" unicode-bidi="embed">Fin</tspan>
			</text>
		</g>
		<g>
			<polyline fill="none" stroke="#404040" stroke-width="6" stroke-dasharray="none" points="277,302 277,363"/>
			<polygon fill="#404040" stroke="none" points="277,377 290,352 263,352"/>
			<polyline fill="none" stroke="#404040" stroke-width="6" stroke-dasharray="none" points="277,477 277,538"/>
			<polygon fill="#404040" stroke="none" points="277,552 290,527 263,527"/>
			<polyline fill="none" stroke="#404040" stroke-width="6" stroke-dasharray="none" points="277,702 277,763"/>
			<polygon fill="#404040" stroke="none" points="277,777 290,752 263,752"/>
			<g>
				<path fill="#FFFFD0" stroke="#A0A070" stroke-width="3" stroke-dasharray="none" d="M 77,177 L 77,302 L 477,302 L 477,177 Z"/>
				<polyline fill="none" stroke="#A0A070" stroke-width="3" stroke-dasharray="none" points="77,202 477,202"/>
				<polyline fill="none" stroke="#A0A070" stroke-width="3" stroke-dasharray="none" points="102,177 102,302"/>
				<text x="289" y="217" fill="#000000" font-family="Arial" font-size="32pt" text-anchor="middle" direction="ltr">
					<tspan x="289" dy="50" unicode-bidi="embed">Real bImponible</tspan>
				</text>
			</g>
			<g>
				<path fill="#C0E0FF" stroke="#6080A0" stroke-width="3" stroke-dasharray="none" d="M 52,377 L 2,477 L 502,477 L 552,377 Z"/>
				<text x="277" y="392" fill="#000000" font-family="Arial" font-size="32pt" text-anchor="middle" direction="ltr">
					<tspan x="277" dy="50" unicode-bidi="embed">Entrada bImponible</tspan>
				</text>
			</g>
			<g>
				<path fill="#FFFFD0" stroke="#A0A070" stroke-width="3" stroke-dasharray="none" d="M 2,552 L 2,702 L 552,702 L 552,552 Z"/>
				<text x="277" y="567" fill="#000000" font-family="Arial" font-size="32pt" text-anchor="middle" direction="ltr">
					<tspan x="277" dy="50" unicode-bidi="embed">bImponible = bImponible</tspan>
					<tspan x="277" dy="50" unicode-bidi="embed">+(bImponible*0.1)</tspan>
				</text>
			</g>
			<g>
				<path fill="#D0FFD0" stroke="#70A070" stroke-width="3" stroke-dasharray="none" d="M 77,777 L 27,877 L 477,877 L 527,777 Z"/>
				<text x="277" y="792" fill="#000000" font-family="Arial" font-size="32pt" text-anchor="middle" direction="ltr">
					<tspan x="277" dy="50" unicode-bidi="embed">Salida bImponible</tspan>
				</text>
			</g>
		</g>
	</g>
</svg>
