<?xml version="1.0" encoding="UTF-8" standalone="no"?>
<!-- Created by Flowgorithm 3.4.1 (http://flowgorithm.org) -->

<svg xmlns:svg="http://www.w3.org/2000/svg" xmlns="http://www.w3.org/2000/svg" version="1.1" width="2879" height="2204">
	<g>
		<polyline fill="none" stroke="#404040" stroke-width="6" stroke-dasharray="none" points="2127,102 2127,163"/>
		<polygon fill="#404040" stroke="none" points="2127,177 2140,152 2113,152"/>
		<polyline fill="none" stroke="#404040" stroke-width="6" stroke-dasharray="none" points="2127,2027 2127,2088"/>
		<polygon fill="#404040" stroke="none" points="2127,2102 2140,2077 2113,2077"/>
		<g>
			<path fill="#F0D0FF" stroke="#9070A0" stroke-width="3" stroke-dasharray="none" d="M 2027,2 A 50 50, 0, 0 0, 2027 102 L 2227,102 A 50 50, 0, 0 0, 2227 2 Z"/>
			<text x="2127" y="17" fill="#000000" font-family="Arial" font-size="32pt" text-anchor="middle" direction="ltr">
				<tspan x="2127" dy="50" unicode-bidi="embed">Principal</tspan>
			</text>
		</g>
		<g>
			<path fill="#F0D0FF" stroke="#9070A0" stroke-width="3" stroke-dasharray="none" d="M 2027,2102 A 50 50, 0, 0 0, 2027 2202 L 2227,2202 A 50 50, 0, 0 0, 2227 2102 Z"/>
			<text x="2127" y="2117" fill="#000000" font-family="Arial" font-size="32pt" text-anchor="middle" direction="ltr">
				<tspan x="2127" dy="50" unicode-bidi="embed">Fin</tspan>
			</text>
		</g>
		<g>
			<polyline fill="none" stroke="#404040" stroke-width="6" stroke-dasharray="none" points="2127,302 2127,363"/>
			<polygon fill="#404040" stroke="none" points="2127,377 2140,352 2113,352"/>
			<polyline fill="none" stroke="#404040" stroke-width="6" stroke-dasharray="none" points="2127,502 2127,563"/>
			<polygon fill="#404040" stroke="none" points="2127,577 2140,552 2113,552"/>
			<polyline fill="none" stroke="#404040" stroke-width="6" stroke-dasharray="none" points="2127,677 2127,738"/>
			<polygon fill="#404040" stroke="none" points="2127,752 2140,727 2113,727"/>
			<g>
				<path fill="#FFFFD0" stroke="#A0A070" stroke-width="3" stroke-dasharray="none" d="M 1977,177 L 1977,302 L 2277,302 L 2277,177 Z"/>
				<polyline fill="none" stroke="#A0A070" stroke-width="3" stroke-dasharray="none" points="1977,202 2277,202"/>
				<polyline fill="none" stroke="#A0A070" stroke-width="3" stroke-dasharray="none" points="2002,177 2002,302"/>
				<text x="2139" y="217" fill="#000000" font-family="Arial" font-size="32pt" text-anchor="middle" direction="ltr">
					<tspan x="2139" dy="50" unicode-bidi="embed">Real altura</tspan>
				</text>
			</g>
			<g>
				<path fill="#FFFFD0" stroke="#A0A070" stroke-width="3" stroke-dasharray="none" d="M 1952,377 L 1952,502 L 2302,502 L 2302,377 Z"/>
				<polyline fill="none" stroke="#A0A070" stroke-width="3" stroke-dasharray="none" points="1952,402 2302,402"/>
				<polyline fill="none" stroke="#A0A070" stroke-width="3" stroke-dasharray="none" points="1977,377 1977,502"/>
				<text x="2139" y="417" fill="#000000" font-family="Arial" font-size="32pt" text-anchor="middle" direction="ltr">
					<tspan x="2139" dy="50" unicode-bidi="embed">Real tiempo</tspan>
				</text>
			</g>
			<g>
				<path fill="#C0E0FF" stroke="#6080A0" stroke-width="3" stroke-dasharray="none" d="M 1952,577 L 1902,677 L 2302,677 L 2352,577 Z"/>
				<text x="2127" y="592" fill="#000000" font-family="Arial" font-size="32pt" text-anchor="middle" direction="ltr">
					<tspan x="2127" dy="50" unicode-bidi="embed">Entrada altura</tspan>
				</text>
			</g>
			<g>
				<polyline fill="none" stroke="#404040" stroke-width="6" stroke-dasharray="none" points="2277,852 2552,852 2552,988"/>
				<polygon fill="#404040" stroke="none" points="2552,1002 2565,977 2538,977"/>
				<polyline fill="none" stroke="#404040" stroke-width="6" stroke-dasharray="none" points="2552,1327 2552,2002 2165,2002"/>
				<polygon fill="#404040" stroke="none" points="2152,2002 2176,2015 2176,1988"/>
				<polyline fill="none" stroke="#404040" stroke-width="6" stroke-dasharray="none" points="1977,852 1277,852 1277,988"/>
				<polygon fill="#404040" stroke="none" points="1277,1002 1290,977 1263,977"/>
				<polyline fill="none" stroke="#404040" stroke-width="6" stroke-dasharray="none" points="1277,1902 1277,2002 2088,2002"/>
				<polygon fill="#404040" stroke="none" points="2102,2002 2077,1988 2077,2015"/>
				<g>
					<path fill="#FFD0D0" stroke="#A07070" stroke-width="3" stroke-dasharray="none" d="M 2127,752 L 1952,852 L 2127,952 L 2302,852 Z"/>
					<text x="2127" y="817" fill="#000000" font-family="Arial" font-size="32pt" text-anchor="middle" direction="ltr">
						<tspan x="2127" dy="50" unicode-bidi="embed">altura&gt;0</tspan>
					</text>
				</g>
				<g>
					<polyline fill="none" stroke="#404040" stroke-width="6" stroke-dasharray="none" points="2552,1152 2552,1213"/>
					<polygon fill="#404040" stroke="none" points="2552,1227 2565,1202 2538,1202"/>
					<g>
						<path fill="#FFFFD0" stroke="#A0A070" stroke-width="3" stroke-dasharray="none" d="M 2352,1002 L 2352,1152 L 2752,1152 L 2752,1002 Z"/>
						<text x="2552" y="1017" fill="#000000" font-family="Arial" font-size="32pt" text-anchor="middle" direction="ltr">
							<tspan x="2552" dy="50" unicode-bidi="embed">tiempo = sqrt((2*</tspan>
							<tspan x="2552" dy="50" unicode-bidi="embed">altura)/9.81)</tspan>
						</text>
					</g>
					<g>
						<path fill="#D0FFD0" stroke="#70A070" stroke-width="3" stroke-dasharray="none" d="M 2277,1227 L 2227,1327 L 2827,1327 L 2877,1227 Z"/>
						<text x="2552" y="1242" fill="#000000" font-family="Arial" font-size="32pt" text-anchor="middle" direction="ltr">
							<tspan x="2552" dy="50" unicode-bidi="embed">Salida tofixed(tiempo,2)</tspan>
						</text>
					</g>
				</g>
				<g>
					<polyline fill="none" stroke="#404040" stroke-width="6" stroke-dasharray="none" points="1427,1102 1702,1102 1702,1238"/>
					<polygon fill="#404040" stroke="none" points="1702,1252 1715,1227 1688,1227"/>
					<polyline fill="none" stroke="#404040" stroke-width="6" stroke-dasharray="none" points="1702,1402 1702,1877 1315,1877"/>
					<polygon fill="#404040" stroke="none" points="1302,1877 1326,1890 1326,1863"/>
					<polyline fill="none" stroke="#404040" stroke-width="6" stroke-dasharray="none" points="1127,1102 427,1102 427,1238"/>
					<polygon fill="#404040" stroke="none" points="427,1252 440,1227 413,1227"/>
					<polyline fill="none" stroke="#404040" stroke-width="6" stroke-dasharray="none" points="427,1777 427,1877 1238,1877"/>
					<polygon fill="#404040" stroke="none" points="1252,1877 1227,1863 1227,1890"/>
					<g>
						<path fill="#FFD0D0" stroke="#A07070" stroke-width="3" stroke-dasharray="none" d="M 1277,1002 L 1102,1102 L 1277,1202 L 1452,1102 Z"/>
						<text x="1277" y="1067" fill="#000000" font-family="Arial" font-size="32pt" text-anchor="middle" direction="ltr">
							<tspan x="1277" dy="50" unicode-bidi="embed">altura==0</tspan>
						</text>
					</g>
					<g>
						<path fill="#D0FFD0" stroke="#70A070" stroke-width="3" stroke-dasharray="none" d="M 1402,1252 L 1327,1402 L 2002,1402 L 2077,1252 Z"/>
						<text x="1702" y="1267" fill="#000000" font-family="Arial" font-size="32pt" text-anchor="middle" direction="ltr">
							<tspan x="1702" dy="50" unicode-bidi="embed">Salida &quot;El tiempo de caida</tspan>
							<tspan x="1702" dy="50" unicode-bidi="embed"> es 0&quot;</tspan>
						</text>
					</g>
					<g>
						<polyline fill="none" stroke="#404040" stroke-width="6" stroke-dasharray="none" points="577,1352 852,1352 852,1488"/>
						<polygon fill="#404040" stroke="none" points="852,1502 865,1477 838,1477"/>
						<polyline fill="none" stroke="#404040" stroke-width="6" stroke-dasharray="none" points="852,1652 852,1752 465,1752"/>
						<polygon fill="#404040" stroke="none" points="452,1752 476,1765 476,1738"/>
						<polyline fill="none" stroke="#404040" stroke-width="6" stroke-dasharray="none" points="277,1352 77,1352 77,1752 388,1752"/>
						<polygon fill="#404040" stroke="none" points="402,1752 377,1738 377,1765"/>
						<g>
							<path fill="#FFD0D0" stroke="#A07070" stroke-width="3" stroke-dasharray="none" d="M 427,1252 L 252,1352 L 427,1452 L 602,1352 Z"/>
							<text x="427" y="1317" fill="#000000" font-family="Arial" font-size="32pt" text-anchor="middle" direction="ltr">
								<tspan x="427" dy="50" unicode-bidi="embed">altura&lt;0</tspan>
							</text>
						</g>
						<g>
							<path fill="#D0FFD0" stroke="#70A070" stroke-width="3" stroke-dasharray="none" d="M 552,1502 L 477,1652 L 1152,1652 L 1227,1502 Z"/>
							<text x="852" y="1517" fill="#000000" font-family="Arial" font-size="32pt" text-anchor="middle" direction="ltr">
								<tspan x="852" dy="50" unicode-bidi="embed">Salida &quot;La altura no puede</tspan>
								<tspan x="852" dy="50" unicode-bidi="embed"> ser negativa&quot;</tspan>
							</text>
						</g>
						<g>
						</g>
						<ellipse cx="427" cy="1752" rx="25" ry="25" fill="#FFD0D0" stroke="#A07070" stroke-width="3"/>
						<text x="727" y="1267" fill="#000000" font-family="Arial" font-size="32pt" text-anchor="middle" direction="ltr">
							<tspan x="727" dy="50" unicode-bidi="embed">Verdadero</tspan>
						</text>
						<text x="164" y="1267" fill="#000000" font-family="Arial" font-size="32pt" text-anchor="middle" direction="ltr">
							<tspan x="164" dy="50" unicode-bidi="embed">Falso</tspan>
						</text>
					</g>
					<ellipse cx="1277" cy="1877" rx="25" ry="25" fill="#FFD0D0" stroke="#A07070" stroke-width="3"/>
					<text x="1577" y="1017" fill="#000000" font-family="Arial" font-size="32pt" text-anchor="middle" direction="ltr">
						<tspan x="1577" dy="50" unicode-bidi="embed">Verdadero</tspan>
					</text>
					<text x="1014" y="1017" fill="#000000" font-family="Arial" font-size="32pt" text-anchor="middle" direction="ltr">
						<tspan x="1014" dy="50" unicode-bidi="embed">Falso</tspan>
					</text>
				</g>
				<ellipse cx="2127" cy="2002" rx="25" ry="25" fill="#FFD0D0" stroke="#A07070" stroke-width="3"/>
				<text x="2427" y="767" fill="#000000" font-family="Arial" font-size="32pt" text-anchor="middle" direction="ltr">
					<tspan x="2427" dy="50" unicode-bidi="embed">Verdadero</tspan>
				</text>
				<text x="1864" y="767" fill="#000000" font-family="Arial" font-size="32pt" text-anchor="middle" direction="ltr">
					<tspan x="1864" dy="50" unicode-bidi="embed">Falso</tspan>
				</text>
			</g>
		</g>
	</g>
</svg>
