<?xml version="1.0" encoding="UTF-8" standalone="no"?>
<!-- Created by Flowgorithm 3.4.2 (http://flowgorithm.org) -->

<svg xmlns:svg="http://www.w3.org/2000/svg" xmlns="http://www.w3.org/2000/svg" version="1.1" width="2529" height="2979">
	<g>
		<polyline fill="none" stroke="#404040" stroke-width="6" stroke-dasharray="none" points="827,102 827,163"/>
		<polygon fill="#404040" stroke="none" points="827,177 840,152 813,152"/>
		<polyline fill="none" stroke="#404040" stroke-width="6" stroke-dasharray="none" points="827,2802 827,2863"/>
		<polygon fill="#404040" stroke="none" points="827,2877 840,2852 813,2852"/>
		<g>
			<path fill="#F0E0FF" stroke="#9070A0" stroke-width="3" stroke-dasharray="none" d="M 727,2 A 50 50, 0, 0 0, 727 102 L 927,102 A 50 50, 0, 0 0, 927 2 Z"/>
			<text x="827" y="17" fill="#000000" font-family="Arial" font-size="32pt" text-anchor="middle" direction="ltr">
				<tspan x="827" dy="50" unicode-bidi="embed">Principal</tspan>
			</text>
		</g>
		<g>
			<path fill="#F0E0FF" stroke="#9070A0" stroke-width="3" stroke-dasharray="none" d="M 727,2877 A 50 50, 0, 0 0, 727 2977 L 927,2977 A 50 50, 0, 0 0, 927 2877 Z"/>
			<text x="827" y="2892" fill="#000000" font-family="Arial" font-size="32pt" text-anchor="middle" direction="ltr">
				<tspan x="827" dy="50" unicode-bidi="embed">Fin</tspan>
			</text>
		</g>
		<g>
			<polyline fill="none" stroke="#404040" stroke-width="6" stroke-dasharray="none" points="827,302 827,363"/>
			<polygon fill="#404040" stroke="none" points="827,377 840,352 813,352"/>
			<polyline fill="none" stroke="#404040" stroke-width="6" stroke-dasharray="none" points="827,477 827,538"/>
			<polygon fill="#404040" stroke="none" points="827,552 840,527 813,527"/>
			<polyline fill="none" stroke="#404040" stroke-width="6" stroke-dasharray="none" points="827,677 827,738"/>
			<polygon fill="#404040" stroke="none" points="827,752 840,727 813,727"/>
			<polyline fill="none" stroke="#404040" stroke-width="6" stroke-dasharray="none" points="827,852 827,913"/>
			<polygon fill="#404040" stroke="none" points="827,927 840,902 813,902"/>
			<polyline fill="none" stroke="#404040" stroke-width="6" stroke-dasharray="none" points="827,1052 827,1113"/>
			<polygon fill="#404040" stroke="none" points="827,1127 840,1102 813,1102"/>
			<polyline fill="none" stroke="#404040" stroke-width="6" stroke-dasharray="none" points="827,1227 827,1288"/>
			<polygon fill="#404040" stroke="none" points="827,1302 840,1277 813,1277"/>
			<g>
				<path fill="#FFFFD0" stroke="#A0A070" stroke-width="3" stroke-dasharray="none" d="M 677,177 L 677,302 L 977,302 L 977,177 Z"/>
				<polyline fill="none" stroke="#A0A070" stroke-width="3" stroke-dasharray="none" points="677,202 977,202"/>
				<polyline fill="none" stroke="#A0A070" stroke-width="3" stroke-dasharray="none" points="702,177 702,302"/>
				<text x="839" y="217" fill="#000000" font-family="Arial" font-size="32pt" text-anchor="middle" direction="ltr">
					<tspan x="839" dy="50" unicode-bidi="embed">Entero n</tspan>
				</text>
			</g>
			<g>
				<path fill="#C0E0FF" stroke="#6080A0" stroke-width="3" stroke-dasharray="none" d="M 702,377 L 652,477 L 952,477 L 1002,377 Z"/>
				<text x="827" y="392" fill="#000000" font-family="Arial" font-size="32pt" text-anchor="middle" direction="ltr">
					<tspan x="827" dy="50" unicode-bidi="embed">Entrada n</tspan>
				</text>
			</g>
			<g>
				<path fill="#FFFFD0" stroke="#A0A070" stroke-width="3" stroke-dasharray="none" d="M 677,552 L 677,677 L 977,677 L 977,552 Z"/>
				<polyline fill="none" stroke="#A0A070" stroke-width="3" stroke-dasharray="none" points="677,577 977,577"/>
				<polyline fill="none" stroke="#A0A070" stroke-width="3" stroke-dasharray="none" points="702,552 702,677"/>
				<text x="839" y="592" fill="#000000" font-family="Arial" font-size="32pt" text-anchor="middle" direction="ltr">
					<tspan x="839" dy="50" unicode-bidi="embed">Entero m</tspan>
				</text>
			</g>
			<g>
				<path fill="#C0E0FF" stroke="#6080A0" stroke-width="3" stroke-dasharray="none" d="M 702,752 L 652,852 L 952,852 L 1002,752 Z"/>
				<text x="827" y="767" fill="#000000" font-family="Arial" font-size="32pt" text-anchor="middle" direction="ltr">
					<tspan x="827" dy="50" unicode-bidi="embed">Entrada m</tspan>
				</text>
			</g>
			<g>
				<path fill="#FFFFD0" stroke="#A0A070" stroke-width="3" stroke-dasharray="none" d="M 627,927 L 627,1052 L 1027,1052 L 1027,927 Z"/>
				<polyline fill="none" stroke="#A0A070" stroke-width="3" stroke-dasharray="none" points="627,952 1027,952"/>
				<polyline fill="none" stroke="#A0A070" stroke-width="3" stroke-dasharray="none" points="652,927 652,1052"/>
				<text x="839" y="967" fill="#000000" font-family="Arial" font-size="32pt" text-anchor="middle" direction="ltr">
					<tspan x="839" dy="50" unicode-bidi="embed">Entero contador</tspan>
				</text>
			</g>
			<g>
				<path fill="#FFFFD0" stroke="#A0A070" stroke-width="3" stroke-dasharray="none" d="M 677,1127 L 677,1227 L 977,1227 L 977,1127 Z"/>
				<text x="827" y="1142" fill="#000000" font-family="Arial" font-size="32pt" text-anchor="middle" direction="ltr">
					<tspan x="827" dy="50" unicode-bidi="embed">contador = 1</tspan>
				</text>
			</g>
			<g>
				<polyline fill="none" stroke="#404040" stroke-width="6" stroke-dasharray="none" points="952,1377 1227,1377 1227,1488"/>
				<polygon fill="#404040" stroke="none" points="1227,1502 1240,1477 1213,1477"/>
				<polyline fill="none" stroke="#404040" stroke-width="6" stroke-dasharray="none" points="1227,2602 1227,2777 865,2777"/>
				<polygon fill="#404040" stroke="none" points="852,2777 876,2790 876,2763"/>
				<polyline fill="none" stroke="#404040" stroke-width="6" stroke-dasharray="none" points="702,1377 402,1377 402,1488"/>
				<polygon fill="#404040" stroke="none" points="402,1502 415,1477 388,1477"/>
				<polyline fill="none" stroke="#404040" stroke-width="6" stroke-dasharray="none" points="402,1652 402,2777 788,2777"/>
				<polygon fill="#404040" stroke="none" points="802,2777 777,2763 777,2790"/>
				<g>
					<path fill="#FFD0D0" stroke="#A07070" stroke-width="3" stroke-dasharray="none" d="M 827,1302 L 677,1377 L 827,1452 L 977,1377 Z"/>
					<text x="827" y="1342" fill="#000000" font-family="Arial" font-size="32pt" text-anchor="middle" direction="ltr">
						<tspan x="827" dy="50" unicode-bidi="embed">n&gt;=0</tspan>
					</text>
				</g>
				<g>
					<polyline fill="none" stroke="#404040" stroke-width="6" stroke-dasharray="none" points="1252,1527 1777,1527 1777,1613"/>
					<polygon fill="#404040" stroke="none" points="1777,1627 1790,1602 1763,1602"/>
					<polyline fill="none" stroke="#404040" stroke-width="6" stroke-dasharray="none" points="1777,2327 1777,2502 1440,2502"/>
					<polygon fill="#404040" stroke="none" points="1427,2502 1451,2515 1451,2488"/>
					<polyline fill="none" stroke="#404040" stroke-width="6" stroke-dasharray="none" points="1227,2402 1227,1565"/>
					<polygon fill="#404040" stroke="none" points="1227,1552 1213,1576 1240,1576"/>
					<text x="1102" y="2317" fill="#000000" font-family="Arial" font-size="32pt" text-anchor="middle" direction="ltr">
						<tspan x="1102" dy="50" unicode-bidi="embed">Verdadero</tspan>
					</text>
					<text x="1139" y="2617" fill="#000000" font-family="Arial" font-size="32pt" text-anchor="middle" direction="ltr">
						<tspan x="1139" dy="50" unicode-bidi="embed">Falso</tspan>
					</text>
					<g>
						<polyline fill="none" stroke="#404040" stroke-width="6" stroke-dasharray="none" points="1777,2152 1777,2213"/>
						<polygon fill="#404040" stroke="none" points="1777,2227 1790,2202 1763,2202"/>
						<g>
							<polyline fill="none" stroke="#404040" stroke-width="6" stroke-dasharray="none" points="2002,1752 2277,1752 2277,1913"/>
							<polygon fill="#404040" stroke="none" points="2277,1927 2290,1902 2263,1902"/>
							<polyline fill="none" stroke="#404040" stroke-width="6" stroke-dasharray="none" points="2277,2027 2277,2127 1815,2127"/>
							<polygon fill="#404040" stroke="none" points="1802,2127 1826,2140 1826,2113"/>
							<polyline fill="none" stroke="#404040" stroke-width="6" stroke-dasharray="none" points="1552,1752 1352,1752 1352,2127 1738,2127"/>
							<polygon fill="#404040" stroke="none" points="1752,2127 1727,2113 1727,2140"/>
							<g>
								<path fill="#FFD0D0" stroke="#A07070" stroke-width="3" stroke-dasharray="none" d="M 1777,1627 L 1527,1752 L 1777,1877 L 2027,1752 Z"/>
								<text x="1777" y="1717" fill="#000000" font-family="Arial" font-size="32pt" text-anchor="middle" direction="ltr">
									<tspan x="1777" dy="50" unicode-bidi="embed">contador%m!=0</tspan>
								</text>
							</g>
							<g>
								<path fill="#D0FFD0" stroke="#70A070" stroke-width="3" stroke-dasharray="none" d="M 2077,1927 L 2027,2027 L 2477,2027 L 2527,1927 Z"/>
								<text x="2277" y="1942" fill="#000000" font-family="Arial" font-size="32pt" text-anchor="middle" direction="ltr">
									<tspan x="2277" dy="50" unicode-bidi="embed">Salida contador</tspan>
								</text>
							</g>
							<g>
							</g>
							<ellipse cx="1777" cy="2127" rx="25" ry="25" fill="#FFD0D0" stroke="#A07070" stroke-width="3"/>
							<text x="2152" y="1667" fill="#000000" font-family="Arial" font-size="32pt" text-anchor="middle" direction="ltr">
								<tspan x="2152" dy="50" unicode-bidi="embed">Verdadero</tspan>
							</text>
							<text x="1439" y="1667" fill="#000000" font-family="Arial" font-size="32pt" text-anchor="middle" direction="ltr">
								<tspan x="1439" dy="50" unicode-bidi="embed">Falso</tspan>
							</text>
						</g>
						<g>
							<path fill="#FFFFD0" stroke="#A0A070" stroke-width="3" stroke-dasharray="none" d="M 1527,2227 L 1527,2327 L 2027,2327 L 2027,2227 Z"/>
							<text x="1777" y="2242" fill="#000000" font-family="Arial" font-size="32pt" text-anchor="middle" direction="ltr">
								<tspan x="1777" dy="50" unicode-bidi="embed">contador = contador+1</tspan>
							</text>
						</g>
					</g>
					<g>
						<path fill="#FFE0A0" stroke="#A08040" stroke-width="3" stroke-dasharray="none" d="M 1227,2402 L 1027,2502 L 1227,2602 L 1427,2502 Z"/>
						<text x="1227" y="2467" fill="#000000" font-family="Arial" font-size="32pt" text-anchor="middle" direction="ltr">
							<tspan x="1227" dy="50" unicode-bidi="embed">contador&lt;n</tspan>
						</text>
					</g>
					<ellipse cx="1227" cy="1527" rx="25" ry="25" fill="#FFE0A0" stroke="#A08040" stroke-width="3"/>
				</g>
				<g>
					<path fill="#D0FFD0" stroke="#70A070" stroke-width="3" stroke-dasharray="none" d="M 102,1502 L 27,1652 L 702,1652 L 777,1502 Z"/>
					<text x="402" y="1517" fill="#000000" font-family="Arial" font-size="32pt" text-anchor="middle" direction="ltr">
						<tspan x="402" dy="50" unicode-bidi="embed">Salida &quot;El n&#250;mero debe ser</tspan>
						<tspan x="402" dy="50" unicode-bidi="embed"> mayor que 0&quot;</tspan>
					</text>
				</g>
				<ellipse cx="827" cy="2777" rx="25" ry="25" fill="#FFD0D0" stroke="#A07070" stroke-width="3"/>
				<text x="1102" y="1292" fill="#000000" font-family="Arial" font-size="32pt" text-anchor="middle" direction="ltr">
					<tspan x="1102" dy="50" unicode-bidi="embed">Verdadero</tspan>
				</text>
				<text x="589" y="1292" fill="#000000" font-family="Arial" font-size="32pt" text-anchor="middle" direction="ltr">
					<tspan x="589" dy="50" unicode-bidi="embed">Falso</tspan>
				</text>
			</g>
		</g>
	</g>
</svg>
