<?xml version="1.0" encoding="UTF-8" standalone="no"?>
<!-- Created by Flowgorithm 3.4.1 (http://flowgorithm.org) -->

<svg xmlns:svg="http://www.w3.org/2000/svg" xmlns="http://www.w3.org/2000/svg" version="1.1" width="1204" height="2879">
	<g>
		<polyline fill="none" stroke="#404040" stroke-width="6" stroke-dasharray="none" points="252,102 252,163"/>
		<polygon fill="#404040" stroke="none" points="252,177 265,152 238,152"/>
		<polyline fill="none" stroke="#404040" stroke-width="6" stroke-dasharray="none" points="252,2627 252,2763"/>
		<polygon fill="#404040" stroke="none" points="252,2777 265,2752 238,2752"/>
		<g>
			<path fill="#F0D0FF" stroke="#9070A0" stroke-width="3" stroke-dasharray="none" d="M 152,2 A 50 50, 0, 0 0, 152 102 L 352,102 A 50 50, 0, 0 0, 352 2 Z"/>
			<text x="252" y="17" fill="#000000" font-family="Arial" font-size="32pt" text-anchor="middle" direction="ltr">
				<tspan x="252" dy="50" unicode-bidi="embed">Principal</tspan>
			</text>
		</g>
		<g>
			<path fill="#F0D0FF" stroke="#9070A0" stroke-width="3" stroke-dasharray="none" d="M 152,2777 A 50 50, 0, 0 0, 152 2877 L 352,2877 A 50 50, 0, 0 0, 352 2777 Z"/>
			<text x="252" y="2792" fill="#000000" font-family="Arial" font-size="32pt" text-anchor="middle" direction="ltr">
				<tspan x="252" dy="50" unicode-bidi="embed">Fin</tspan>
			</text>
		</g>
		<g>
			<polyline fill="none" stroke="#404040" stroke-width="6" stroke-dasharray="none" points="252,302 252,363"/>
			<polygon fill="#404040" stroke="none" points="252,377 265,352 238,352"/>
			<polyline fill="none" stroke="#404040" stroke-width="6" stroke-dasharray="none" points="252,477 252,538"/>
			<polygon fill="#404040" stroke="none" points="252,552 265,527 238,527"/>
			<polyline fill="none" stroke="#404040" stroke-width="6" stroke-dasharray="none" points="252,677 252,738"/>
			<polygon fill="#404040" stroke="none" points="252,752 265,727 238,727"/>
			<polyline fill="none" stroke="#404040" stroke-width="6" stroke-dasharray="none" points="252,877 252,938"/>
			<polygon fill="#404040" stroke="none" points="252,952 265,927 238,927"/>
			<polyline fill="none" stroke="#404040" stroke-width="6" stroke-dasharray="none" points="252,1077 252,1138"/>
			<polygon fill="#404040" stroke="none" points="252,1152 265,1127 238,1127"/>
			<polyline fill="none" stroke="#404040" stroke-width="6" stroke-dasharray="none" points="252,1252 252,1313"/>
			<polygon fill="#404040" stroke="none" points="252,1327 265,1302 238,1302"/>
			<g>
				<path fill="#FFFFD0" stroke="#A0A070" stroke-width="3" stroke-dasharray="none" d="M 52,177 L 52,302 L 452,302 L 452,177 Z"/>
				<polyline fill="none" stroke="#A0A070" stroke-width="3" stroke-dasharray="none" points="52,202 452,202"/>
				<polyline fill="none" stroke="#A0A070" stroke-width="3" stroke-dasharray="none" points="77,177 77,302"/>
				<text x="264" y="217" fill="#000000" font-family="Arial" font-size="32pt" text-anchor="middle" direction="ltr">
					<tspan x="264" dy="50" unicode-bidi="embed">Entero numero</tspan>
				</text>
			</g>
			<g>
				<path fill="#C0E0FF" stroke="#6080A0" stroke-width="3" stroke-dasharray="none" d="M 52,377 L 2,477 L 452,477 L 502,377 Z"/>
				<text x="252" y="392" fill="#000000" font-family="Arial" font-size="32pt" text-anchor="middle" direction="ltr">
					<tspan x="252" dy="50" unicode-bidi="embed">Entrada numero</tspan>
				</text>
			</g>
			<g>
				<path fill="#FFFFD0" stroke="#A0A070" stroke-width="3" stroke-dasharray="none" d="M 52,552 L 52,677 L 452,677 L 452,552 Z"/>
				<polyline fill="none" stroke="#A0A070" stroke-width="3" stroke-dasharray="none" points="52,577 452,577"/>
				<polyline fill="none" stroke="#A0A070" stroke-width="3" stroke-dasharray="none" points="77,552 77,677"/>
				<text x="264" y="592" fill="#000000" font-family="Arial" font-size="32pt" text-anchor="middle" direction="ltr">
					<tspan x="264" dy="50" unicode-bidi="embed">Entero cuadrado</tspan>
				</text>
			</g>
			<g>
				<path fill="#FFFFD0" stroke="#A0A070" stroke-width="3" stroke-dasharray="none" d="M 77,752 L 77,877 L 427,877 L 427,752 Z"/>
				<polyline fill="none" stroke="#A0A070" stroke-width="3" stroke-dasharray="none" points="77,777 427,777"/>
				<polyline fill="none" stroke="#A0A070" stroke-width="3" stroke-dasharray="none" points="102,752 102,877"/>
				<text x="264" y="792" fill="#000000" font-family="Arial" font-size="32pt" text-anchor="middle" direction="ltr">
					<tspan x="264" dy="50" unicode-bidi="embed">Entero cubo</tspan>
				</text>
			</g>
			<g>
				<path fill="#FFFFD0" stroke="#A0A070" stroke-width="3" stroke-dasharray="none" d="M 52,952 L 52,1077 L 452,1077 L 452,952 Z"/>
				<polyline fill="none" stroke="#A0A070" stroke-width="3" stroke-dasharray="none" points="52,977 452,977"/>
				<polyline fill="none" stroke="#A0A070" stroke-width="3" stroke-dasharray="none" points="77,952 77,1077"/>
				<text x="264" y="992" fill="#000000" font-family="Arial" font-size="32pt" text-anchor="middle" direction="ltr">
					<tspan x="264" dy="50" unicode-bidi="embed">Entero contador</tspan>
				</text>
			</g>
			<g>
				<path fill="#FFFFD0" stroke="#A0A070" stroke-width="3" stroke-dasharray="none" d="M 102,1152 L 102,1252 L 402,1252 L 402,1152 Z"/>
				<text x="252" y="1167" fill="#000000" font-family="Arial" font-size="32pt" text-anchor="middle" direction="ltr">
					<tspan x="252" dy="50" unicode-bidi="embed">contador = 0</tspan>
				</text>
			</g>
			<g>
				<polyline fill="none" stroke="#404040" stroke-width="6" stroke-dasharray="none" points="277,1352 777,1352 777,1438"/>
				<polygon fill="#404040" stroke="none" points="777,1452 790,1427 763,1427"/>
				<polyline fill="none" stroke="#404040" stroke-width="6" stroke-dasharray="none" points="777,2352 777,2527 465,2527"/>
				<polygon fill="#404040" stroke="none" points="452,2527 476,2540 476,2513"/>
				<polyline fill="none" stroke="#404040" stroke-width="6" stroke-dasharray="none" points="252,2427 252,1390"/>
				<polygon fill="#404040" stroke="none" points="252,1377 238,1401 265,1401"/>
				<text x="127" y="2342" fill="#000000" font-family="Arial" font-size="32pt" text-anchor="middle" direction="ltr">
					<tspan x="127" dy="50" unicode-bidi="embed">Verdadero</tspan>
				</text>
				<text x="164" y="2642" fill="#000000" font-family="Arial" font-size="32pt" text-anchor="middle" direction="ltr">
					<tspan x="164" dy="50" unicode-bidi="embed">Falso</tspan>
				</text>
				<g>
					<polyline fill="none" stroke="#404040" stroke-width="6" stroke-dasharray="none" points="777,1552 777,1613"/>
					<polygon fill="#404040" stroke="none" points="777,1627 790,1602 763,1602"/>
					<polyline fill="none" stroke="#404040" stroke-width="6" stroke-dasharray="none" points="777,1727 777,1788"/>
					<polygon fill="#404040" stroke="none" points="777,1802 790,1777 763,1777"/>
					<polyline fill="none" stroke="#404040" stroke-width="6" stroke-dasharray="none" points="777,2002 777,2063"/>
					<polygon fill="#404040" stroke="none" points="777,2077 790,2052 763,2052"/>
					<polyline fill="none" stroke="#404040" stroke-width="6" stroke-dasharray="none" points="777,2177 777,2238"/>
					<polygon fill="#404040" stroke="none" points="777,2252 790,2227 763,2227"/>
					<g>
						<path fill="#FFFFD0" stroke="#A0A070" stroke-width="3" stroke-dasharray="none" d="M 527,1452 L 527,1552 L 1027,1552 L 1027,1452 Z"/>
						<text x="777" y="1467" fill="#000000" font-family="Arial" font-size="32pt" text-anchor="middle" direction="ltr">
							<tspan x="777" dy="50" unicode-bidi="embed">cuadrado = numero^2</tspan>
						</text>
					</g>
					<g>
						<path fill="#FFFFD0" stroke="#A0A070" stroke-width="3" stroke-dasharray="none" d="M 577,1627 L 577,1727 L 977,1727 L 977,1627 Z"/>
						<text x="777" y="1642" fill="#000000" font-family="Arial" font-size="32pt" text-anchor="middle" direction="ltr">
							<tspan x="777" dy="50" unicode-bidi="embed">cubo = numero^3</tspan>
						</text>
					</g>
					<g>
						<path fill="#D0FFD0" stroke="#70A070" stroke-width="3" stroke-dasharray="none" d="M 452,1802 L 352,2002 L 1102,2002 L 1202,1802 Z"/>
						<text x="777" y="1817" fill="#000000" font-family="Arial" font-size="32pt" text-anchor="middle" direction="ltr">
							<tspan x="777" dy="50" unicode-bidi="embed">Salida &quot;N&#186; &quot;&amp;numero</tspan>
							<tspan x="777" dy="50" unicode-bidi="embed">&amp;&quot;: Cuadrado= &quot;&amp;cuadrado&amp; &quot;,</tspan>
							<tspan x="777" dy="50" unicode-bidi="embed"> Cubo =&quot;&amp;cubo</tspan>
						</text>
					</g>
					<g>
						<path fill="#FFFFD0" stroke="#A0A070" stroke-width="3" stroke-dasharray="none" d="M 527,2077 L 527,2177 L 1027,2177 L 1027,2077 Z"/>
						<text x="777" y="2092" fill="#000000" font-family="Arial" font-size="32pt" text-anchor="middle" direction="ltr">
							<tspan x="777" dy="50" unicode-bidi="embed">contador = contador+1</tspan>
						</text>
					</g>
					<g>
						<path fill="#FFFFD0" stroke="#A0A070" stroke-width="3" stroke-dasharray="none" d="M 552,2252 L 552,2352 L 1002,2352 L 1002,2252 Z"/>
						<text x="777" y="2267" fill="#000000" font-family="Arial" font-size="32pt" text-anchor="middle" direction="ltr">
							<tspan x="777" dy="50" unicode-bidi="embed">numero = numero+1</tspan>
						</text>
					</g>
				</g>
				<g>
					<path fill="#FFE0A0" stroke="#A08040" stroke-width="3" stroke-dasharray="none" d="M 252,2427 L 52,2527 L 252,2627 L 452,2527 Z"/>
					<text x="252" y="2492" fill="#000000" font-family="Arial" font-size="32pt" text-anchor="middle" direction="ltr">
						<tspan x="252" dy="50" unicode-bidi="embed">contador&lt;5</tspan>
					</text>
				</g>
				<ellipse cx="252" cy="1352" rx="25" ry="25" fill="#FFE0A0" stroke="#A08040" stroke-width="3"/>
			</g>
		</g>
	</g>
</svg>
