<?xml version="1.0" encoding="UTF-8" standalone="no"?>
<!-- Created by Flowgorithm 3.4.1 (http://flowgorithm.org) -->

<svg xmlns:svg="http://www.w3.org/2000/svg" xmlns="http://www.w3.org/2000/svg" version="1.1" width="1254" height="2754">
	<g>
		<polyline fill="none" stroke="#404040" stroke-width="6" stroke-dasharray="none" points="252,102 252,163"/>
		<polygon fill="#404040" stroke="none" points="252,177 265,152 238,152"/>
		<polyline fill="none" stroke="#404040" stroke-width="6" stroke-dasharray="none" points="252,1527 252,2638"/>
		<polygon fill="#404040" stroke="none" points="252,2652 265,2627 238,2627"/>
		<g>
			<path fill="#F0D0FF" stroke="#9070A0" stroke-width="3" stroke-dasharray="none" d="M 152,2 A 50 50, 0, 0 0, 152 102 L 352,102 A 50 50, 0, 0 0, 352 2 Z"/>
			<text x="252" y="17" fill="#000000" font-family="Arial" font-size="32pt" text-anchor="middle" direction="ltr">
				<tspan x="252" dy="50" unicode-bidi="embed">Principal</tspan>
			</text>
		</g>
		<g>
			<path fill="#F0D0FF" stroke="#9070A0" stroke-width="3" stroke-dasharray="none" d="M 152,2652 A 50 50, 0, 0 0, 152 2752 L 352,2752 A 50 50, 0, 0 0, 352 2652 Z"/>
			<text x="252" y="2667" fill="#000000" font-family="Arial" font-size="32pt" text-anchor="middle" direction="ltr">
				<tspan x="252" dy="50" unicode-bidi="embed">Fin</tspan>
			</text>
		</g>
		<g>
			<polyline fill="none" stroke="#404040" stroke-width="6" stroke-dasharray="none" points="252,302 252,363"/>
			<polygon fill="#404040" stroke="none" points="252,377 265,352 238,352"/>
			<polyline fill="none" stroke="#404040" stroke-width="6" stroke-dasharray="none" points="252,477 252,538"/>
			<polygon fill="#404040" stroke="none" points="252,552 265,527 238,527"/>
			<polyline fill="none" stroke="#404040" stroke-width="6" stroke-dasharray="none" points="252,677 252,738"/>
			<polygon fill="#404040" stroke="none" points="252,752 265,727 238,727"/>
			<polyline fill="none" stroke="#404040" stroke-width="6" stroke-dasharray="none" points="252,877 252,938"/>
			<polygon fill="#404040" stroke="none" points="252,952 265,927 238,927"/>
			<polyline fill="none" stroke="#404040" stroke-width="6" stroke-dasharray="none" points="252,1077 252,1138"/>
			<polygon fill="#404040" stroke="none" points="252,1152 265,1127 238,1127"/>
			<polyline fill="none" stroke="#404040" stroke-width="6" stroke-dasharray="none" points="252,1252 252,1313"/>
			<polygon fill="#404040" stroke="none" points="252,1327 265,1302 238,1302"/>
			<g>
				<path fill="#FFFFD0" stroke="#A0A070" stroke-width="3" stroke-dasharray="none" d="M 52,177 L 52,302 L 452,302 L 452,177 Z"/>
				<polyline fill="none" stroke="#A0A070" stroke-width="3" stroke-dasharray="none" points="52,202 452,202"/>
				<polyline fill="none" stroke="#A0A070" stroke-width="3" stroke-dasharray="none" points="77,177 77,302"/>
				<text x="264" y="217" fill="#000000" font-family="Arial" font-size="32pt" text-anchor="middle" direction="ltr">
					<tspan x="264" dy="50" unicode-bidi="embed">Entero numero</tspan>
				</text>
			</g>
			<g>
				<path fill="#C0E0FF" stroke="#6080A0" stroke-width="3" stroke-dasharray="none" d="M 52,377 L 2,477 L 452,477 L 502,377 Z"/>
				<text x="252" y="392" fill="#000000" font-family="Arial" font-size="32pt" text-anchor="middle" direction="ltr">
					<tspan x="252" dy="50" unicode-bidi="embed">Entrada numero</tspan>
				</text>
			</g>
			<g>
				<path fill="#FFFFD0" stroke="#A0A070" stroke-width="3" stroke-dasharray="none" d="M 52,552 L 52,677 L 452,677 L 452,552 Z"/>
				<polyline fill="none" stroke="#A0A070" stroke-width="3" stroke-dasharray="none" points="52,577 452,577"/>
				<polyline fill="none" stroke="#A0A070" stroke-width="3" stroke-dasharray="none" points="77,552 77,677"/>
				<text x="264" y="592" fill="#000000" font-family="Arial" font-size="32pt" text-anchor="middle" direction="ltr">
					<tspan x="264" dy="50" unicode-bidi="embed">Entero cuadrado</tspan>
				</text>
			</g>
			<g>
				<path fill="#FFFFD0" stroke="#A0A070" stroke-width="3" stroke-dasharray="none" d="M 77,752 L 77,877 L 427,877 L 427,752 Z"/>
				<polyline fill="none" stroke="#A0A070" stroke-width="3" stroke-dasharray="none" points="77,777 427,777"/>
				<polyline fill="none" stroke="#A0A070" stroke-width="3" stroke-dasharray="none" points="102,752 102,877"/>
				<text x="264" y="792" fill="#000000" font-family="Arial" font-size="32pt" text-anchor="middle" direction="ltr">
					<tspan x="264" dy="50" unicode-bidi="embed">Entero cubo</tspan>
				</text>
			</g>
			<g>
				<path fill="#FFFFD0" stroke="#A0A070" stroke-width="3" stroke-dasharray="none" d="M 52,952 L 52,1077 L 452,1077 L 452,952 Z"/>
				<polyline fill="none" stroke="#A0A070" stroke-width="3" stroke-dasharray="none" points="52,977 452,977"/>
				<polyline fill="none" stroke="#A0A070" stroke-width="3" stroke-dasharray="none" points="77,952 77,1077"/>
				<text x="264" y="992" fill="#000000" font-family="Arial" font-size="32pt" text-anchor="middle" direction="ltr">
					<tspan x="264" dy="50" unicode-bidi="embed">Entero contador</tspan>
				</text>
			</g>
			<g>
				<path fill="#FFFFD0" stroke="#A0A070" stroke-width="3" stroke-dasharray="none" d="M 102,1152 L 102,1252 L 402,1252 L 402,1152 Z"/>
				<text x="252" y="1167" fill="#000000" font-family="Arial" font-size="32pt" text-anchor="middle" direction="ltr">
					<tspan x="252" dy="50" unicode-bidi="embed">contador = 0</tspan>
				</text>
			</g>
			<g>
				<polyline fill="none" stroke="#404040" stroke-width="6" stroke-dasharray="none" points="452,1427 827,1427 827,1563"/>
				<polygon fill="#404040" stroke="none" points="827,1577 840,1552 813,1552"/>
				<polyline fill="none" stroke="#404040" stroke-width="6" stroke-dasharray="none" points="827,2477 827,2552 302,2552 302,1540"/>
				<polygon fill="#404040" stroke="none" points="302,1527 288,1551 315,1551"/>
				<g>
					<polyline fill="none" stroke="#404040" stroke-width="6" stroke-dasharray="none" points="827,1677 827,1738"/>
					<polygon fill="#404040" stroke="none" points="827,1752 840,1727 813,1727"/>
					<polyline fill="none" stroke="#404040" stroke-width="6" stroke-dasharray="none" points="827,1852 827,1913"/>
					<polygon fill="#404040" stroke="none" points="827,1927 840,1902 813,1902"/>
					<polyline fill="none" stroke="#404040" stroke-width="6" stroke-dasharray="none" points="827,2127 827,2188"/>
					<polygon fill="#404040" stroke="none" points="827,2202 840,2177 813,2177"/>
					<polyline fill="none" stroke="#404040" stroke-width="6" stroke-dasharray="none" points="827,2302 827,2363"/>
					<polygon fill="#404040" stroke="none" points="827,2377 840,2352 813,2352"/>
					<g>
						<path fill="#FFFFD0" stroke="#A0A070" stroke-width="3" stroke-dasharray="none" d="M 577,1577 L 577,1677 L 1077,1677 L 1077,1577 Z"/>
						<text x="827" y="1592" fill="#000000" font-family="Arial" font-size="32pt" text-anchor="middle" direction="ltr">
							<tspan x="827" dy="50" unicode-bidi="embed">cuadrado = numero^2</tspan>
						</text>
					</g>
					<g>
						<path fill="#FFFFD0" stroke="#A0A070" stroke-width="3" stroke-dasharray="none" d="M 627,1752 L 627,1852 L 1027,1852 L 1027,1752 Z"/>
						<text x="827" y="1767" fill="#000000" font-family="Arial" font-size="32pt" text-anchor="middle" direction="ltr">
							<tspan x="827" dy="50" unicode-bidi="embed">cubo = numero^3</tspan>
						</text>
					</g>
					<g>
						<path fill="#D0FFD0" stroke="#70A070" stroke-width="3" stroke-dasharray="none" d="M 502,1927 L 402,2127 L 1152,2127 L 1252,1927 Z"/>
						<text x="827" y="1942" fill="#000000" font-family="Arial" font-size="32pt" text-anchor="middle" direction="ltr">
							<tspan x="827" dy="50" unicode-bidi="embed">Salida &quot;N&#186; &quot;&amp;numero</tspan>
							<tspan x="827" dy="50" unicode-bidi="embed">&amp;&quot;: Cuadrado= &quot;&amp;cuadrado&amp; &quot;,</tspan>
							<tspan x="827" dy="50" unicode-bidi="embed"> Cubo =&quot;&amp;cubo</tspan>
						</text>
					</g>
					<g>
						<path fill="#FFFFD0" stroke="#A0A070" stroke-width="3" stroke-dasharray="none" d="M 577,2202 L 577,2302 L 1077,2302 L 1077,2202 Z"/>
						<text x="827" y="2217" fill="#000000" font-family="Arial" font-size="32pt" text-anchor="middle" direction="ltr">
							<tspan x="827" dy="50" unicode-bidi="embed">contador = contador+1</tspan>
						</text>
					</g>
					<g>
						<path fill="#FFFFD0" stroke="#A0A070" stroke-width="3" stroke-dasharray="none" d="M 602,2377 L 602,2477 L 1052,2477 L 1052,2377 Z"/>
						<text x="827" y="2392" fill="#000000" font-family="Arial" font-size="32pt" text-anchor="middle" direction="ltr">
							<tspan x="827" dy="50" unicode-bidi="embed">numero = numero+1</tspan>
						</text>
					</g>
				</g>
				<g>
					<path fill="#FFE0A0" stroke="#A08040" stroke-width="3" stroke-dasharray="none" d="M 252,1327 L 52,1427 L 252,1527 L 452,1427 Z"/>
					<text x="252" y="1392" fill="#000000" font-family="Arial" font-size="32pt" text-anchor="middle" direction="ltr">
						<tspan x="252" dy="50" unicode-bidi="embed">contador&lt;5</tspan>
					</text>
				</g>
				<text x="577" y="1342" fill="#000000" font-family="Arial" font-size="32pt" text-anchor="middle" direction="ltr">
					<tspan x="577" dy="50" unicode-bidi="embed">Verdadero</tspan>
				</text>
				<text x="164" y="1542" fill="#000000" font-family="Arial" font-size="32pt" text-anchor="middle" direction="ltr">
					<tspan x="164" dy="50" unicode-bidi="embed">Falso</tspan>
				</text>
			</g>
		</g>
	</g>
</svg>
