<?xml version="1.0" encoding="UTF-8" standalone="no"?>
<!-- Created by Flowgorithm 3.4.2 (http://flowgorithm.org) -->

<svg xmlns:svg="http://www.w3.org/2000/svg" xmlns="http://www.w3.org/2000/svg" version="1.1" width="4029" height="5429">
	<g>
		<polyline fill="none" stroke="#404040" stroke-width="6" stroke-dasharray="none" points="277,102 277,163"/>
		<polygon fill="#404040" stroke="none" points="277,177 290,152 263,152"/>
		<polyline fill="none" stroke="#404040" stroke-width="6" stroke-dasharray="none" points="277,3527 277,5313"/>
		<polygon fill="#404040" stroke="none" points="277,5327 290,5302 263,5302"/>
		<g>
			<path fill="#F0E0FF" stroke="#9070A0" stroke-width="3" stroke-dasharray="none" d="M 177,2 A 50 50, 0, 0 0, 177 102 L 377,102 A 50 50, 0, 0 0, 377 2 Z"/>
			<text x="277" y="17" fill="#000000" font-family="Arial" font-size="32pt" text-anchor="middle" direction="ltr">
				<tspan x="277" dy="50" unicode-bidi="embed">Principal</tspan>
			</text>
		</g>
		<g>
			<path fill="#F0E0FF" stroke="#9070A0" stroke-width="3" stroke-dasharray="none" d="M 177,5327 A 50 50, 0, 0 0, 177 5427 L 377,5427 A 50 50, 0, 0 0, 377 5327 Z"/>
			<text x="277" y="5342" fill="#000000" font-family="Arial" font-size="32pt" text-anchor="middle" direction="ltr">
				<tspan x="277" dy="50" unicode-bidi="embed">Fin</tspan>
			</text>
		</g>
		<g>
			<polyline fill="none" stroke="#404040" stroke-width="6" stroke-dasharray="none" points="277,302 277,363"/>
			<polygon fill="#404040" stroke="none" points="277,377 290,352 263,352"/>
			<polyline fill="none" stroke="#404040" stroke-width="6" stroke-dasharray="none" points="277,502 277,563"/>
			<polygon fill="#404040" stroke="none" points="277,577 290,552 263,552"/>
			<polyline fill="none" stroke="#404040" stroke-width="6" stroke-dasharray="none" points="277,702 277,763"/>
			<polygon fill="#404040" stroke="none" points="277,777 290,752 263,752"/>
			<polyline fill="none" stroke="#404040" stroke-width="6" stroke-dasharray="none" points="277,902 277,988"/>
			<polygon fill="#404040" stroke="none" points="277,1002 290,977 263,977"/>
			<polyline fill="none" stroke="#404040" stroke-width="6" stroke-dasharray="none" points="277,1102 277,1463"/>
			<polygon fill="#404040" stroke="none" points="277,1477 290,1452 263,1452"/>
			<polyline fill="none" stroke="#404040" stroke-width="6" stroke-dasharray="none" points="277,1577 277,1638"/>
			<polygon fill="#404040" stroke="none" points="277,1652 290,1627 263,1627"/>
			<polyline fill="none" stroke="#404040" stroke-width="6" stroke-dasharray="none" points="277,1752 277,1838"/>
			<polygon fill="#404040" stroke="none" points="277,1852 290,1827 263,1827"/>
			<polyline fill="none" stroke="#404040" stroke-width="6" stroke-dasharray="none" points="277,1952 277,3413"/>
			<polygon fill="#404040" stroke="none" points="277,3427 290,3402 263,3402"/>
			<g>
				<path fill="#FFFFD0" stroke="#A0A070" stroke-width="3" stroke-dasharray="none" d="M 2,177 L 2,302 L 552,302 L 552,177 Z"/>
				<polyline fill="none" stroke="#A0A070" stroke-width="3" stroke-dasharray="none" points="2,202 552,202"/>
				<polyline fill="none" stroke="#A0A070" stroke-width="3" stroke-dasharray="none" points="27,177 27,302"/>
				<text x="289" y="217" fill="#000000" font-family="Arial" font-size="32pt" text-anchor="middle" direction="ltr">
					<tspan x="289" dy="50" unicode-bidi="embed">Entero Matriz numero[5]</tspan>
				</text>
			</g>
			<g>
				<path fill="#FFFFD0" stroke="#A0A070" stroke-width="3" stroke-dasharray="none" d="M 77,377 L 77,502 L 477,502 L 477,377 Z"/>
				<polyline fill="none" stroke="#A0A070" stroke-width="3" stroke-dasharray="none" points="77,402 477,402"/>
				<polyline fill="none" stroke="#A0A070" stroke-width="3" stroke-dasharray="none" points="102,377 102,502"/>
				<text x="289" y="417" fill="#000000" font-family="Arial" font-size="32pt" text-anchor="middle" direction="ltr">
					<tspan x="289" dy="50" unicode-bidi="embed">Entero contador</tspan>
				</text>
			</g>
			<g>
				<path fill="#FFFFD0" stroke="#A0A070" stroke-width="3" stroke-dasharray="none" d="M 127,577 L 127,702 L 427,702 L 427,577 Z"/>
				<polyline fill="none" stroke="#A0A070" stroke-width="3" stroke-dasharray="none" points="127,602 427,602"/>
				<polyline fill="none" stroke="#A0A070" stroke-width="3" stroke-dasharray="none" points="152,577 152,702"/>
				<text x="289" y="617" fill="#000000" font-family="Arial" font-size="32pt" text-anchor="middle" direction="ltr">
					<tspan x="289" dy="50" unicode-bidi="embed">Entero max</tspan>
				</text>
			</g>
			<g>
				<path fill="#FFFFD0" stroke="#A0A070" stroke-width="3" stroke-dasharray="none" d="M 127,777 L 127,902 L 427,902 L 427,777 Z"/>
				<polyline fill="none" stroke="#A0A070" stroke-width="3" stroke-dasharray="none" points="127,802 427,802"/>
				<polyline fill="none" stroke="#A0A070" stroke-width="3" stroke-dasharray="none" points="152,777 152,902"/>
				<text x="289" y="817" fill="#000000" font-family="Arial" font-size="32pt" text-anchor="middle" direction="ltr">
					<tspan x="289" dy="50" unicode-bidi="embed">Entero min</tspan>
				</text>
			</g>
			<g>
				<polyline fill="none" stroke="#404040" stroke-width="6" stroke-dasharray="none" points="552,1052 777,1052 777,1138"/>
				<polygon fill="#404040" stroke="none" points="777,1152 790,1127 763,1127"/>
				<polyline fill="none" stroke="#404040" stroke-width="6" stroke-dasharray="none" points="777,1302 777,1377 327,1377 327,1115"/>
				<polygon fill="#404040" stroke="none" points="327,1102 313,1126 340,1126"/>
				<g>
					<path fill="#FFFFD0" stroke="#A0A070" stroke-width="3" stroke-dasharray="none" d="M 477,1152 L 477,1302 L 1077,1302 L 1077,1152 Z"/>
					<text x="777" y="1167" fill="#000000" font-family="Arial" font-size="32pt" text-anchor="middle" direction="ltr">
						<tspan x="777" dy="50" unicode-bidi="embed">numero[contador] = random</tspan>
						<tspan x="777" dy="50" unicode-bidi="embed">(2)</tspan>
					</text>
				</g>
				<g>
					<path fill="#FFE0A0" stroke="#A08040" stroke-width="3" stroke-dasharray="none" d="M 52,1002 L 2,1052 L 52,1102 L 502,1102 L 552,1052 L 502,1002 Z"/>
					<text x="277" y="1017" fill="#000000" font-family="Arial" font-size="32pt" text-anchor="middle" direction="ltr">
						<tspan x="277" dy="50" unicode-bidi="embed">contador = 0 hasta 4</tspan>
					</text>
				</g>
				<text x="677" y="967" fill="#000000" font-family="Arial" font-size="32pt" text-anchor="middle" direction="ltr">
					<tspan x="677" dy="50" unicode-bidi="embed">Siguiente</tspan>
				</text>
				<text x="189" y="1117" fill="#000000" font-family="Arial" font-size="32pt" text-anchor="middle" direction="ltr">
					<tspan x="189" dy="50" unicode-bidi="embed">Hecho</tspan>
				</text>
			</g>
			<g>
				<path fill="#FFFFD0" stroke="#A0A070" stroke-width="3" stroke-dasharray="none" d="M 77,1477 L 77,1577 L 477,1577 L 477,1477 Z"/>
				<text x="277" y="1492" fill="#000000" font-family="Arial" font-size="32pt" text-anchor="middle" direction="ltr">
					<tspan x="277" dy="50" unicode-bidi="embed">max = numero[0]</tspan>
				</text>
			</g>
			<g>
				<path fill="#FFFFD0" stroke="#A0A070" stroke-width="3" stroke-dasharray="none" d="M 77,1652 L 77,1752 L 477,1752 L 477,1652 Z"/>
				<text x="277" y="1667" fill="#000000" font-family="Arial" font-size="32pt" text-anchor="middle" direction="ltr">
					<tspan x="277" dy="50" unicode-bidi="embed">min = numero[0]</tspan>
				</text>
			</g>
			<g>
				<polyline fill="none" stroke="#404040" stroke-width="6" stroke-dasharray="none" points="552,1902 927,1902 927,1988"/>
				<polygon fill="#404040" stroke="none" points="927,2002 940,1977 913,1977"/>
				<polyline fill="none" stroke="#404040" stroke-width="6" stroke-dasharray="none" points="927,3227 927,3302 327,3302 327,1965"/>
				<polygon fill="#404040" stroke="none" points="327,1952 313,1976 340,1976"/>
				<g>
					<polyline fill="none" stroke="#404040" stroke-width="6" stroke-dasharray="none" points="927,2577 927,2638"/>
					<polygon fill="#404040" stroke="none" points="927,2652 940,2627 913,2627"/>
					<g>
						<polyline fill="none" stroke="#404040" stroke-width="6" stroke-dasharray="none" points="1202,2152 1477,2152 1477,2338"/>
						<polygon fill="#404040" stroke="none" points="1477,2352 1490,2327 1463,2327"/>
						<polyline fill="none" stroke="#404040" stroke-width="6" stroke-dasharray="none" points="1477,2452 1477,2552 965,2552"/>
						<polygon fill="#404040" stroke="none" points="952,2552 976,2565 976,2538"/>
						<polyline fill="none" stroke="#404040" stroke-width="6" stroke-dasharray="none" points="652,2152 452,2152 452,2552 888,2552"/>
						<polygon fill="#404040" stroke="none" points="902,2552 877,2538 877,2565"/>
						<g>
							<path fill="#FFD0D0" stroke="#A07070" stroke-width="3" stroke-dasharray="none" d="M 927,2002 L 627,2152 L 927,2302 L 1227,2152 Z"/>
							<text x="927" y="2117" fill="#000000" font-family="Arial" font-size="32pt" text-anchor="middle" direction="ltr">
								<tspan x="927" dy="50" unicode-bidi="embed">numero[contador]&gt;max</tspan>
							</text>
						</g>
						<g>
							<path fill="#FFFFD0" stroke="#A0A070" stroke-width="3" stroke-dasharray="none" d="M 1202,2352 L 1202,2452 L 1752,2452 L 1752,2352 Z"/>
							<text x="1477" y="2367" fill="#000000" font-family="Arial" font-size="32pt" text-anchor="middle" direction="ltr">
								<tspan x="1477" dy="50" unicode-bidi="embed">max = numero[contador]</tspan>
							</text>
						</g>
						<g>
						</g>
						<ellipse cx="927" cy="2552" rx="25" ry="25" fill="#FFD0D0" stroke="#A07070" stroke-width="3"/>
						<text x="1352" y="2067" fill="#000000" font-family="Arial" font-size="32pt" text-anchor="middle" direction="ltr">
							<tspan x="1352" dy="50" unicode-bidi="embed">Verdadero</tspan>
						</text>
						<text x="539" y="2067" fill="#000000" font-family="Arial" font-size="32pt" text-anchor="middle" direction="ltr">
							<tspan x="539" dy="50" unicode-bidi="embed">Falso</tspan>
						</text>
					</g>
					<g>
						<polyline fill="none" stroke="#404040" stroke-width="6" stroke-dasharray="none" points="1202,2802 1477,2802 1477,2988"/>
						<polygon fill="#404040" stroke="none" points="1477,3002 1490,2977 1463,2977"/>
						<polyline fill="none" stroke="#404040" stroke-width="6" stroke-dasharray="none" points="1477,3102 1477,3202 965,3202"/>
						<polygon fill="#404040" stroke="none" points="952,3202 976,3215 976,3188"/>
						<polyline fill="none" stroke="#404040" stroke-width="6" stroke-dasharray="none" points="652,2802 452,2802 452,3202 888,3202"/>
						<polygon fill="#404040" stroke="none" points="902,3202 877,3188 877,3215"/>
						<g>
							<path fill="#FFD0D0" stroke="#A07070" stroke-width="3" stroke-dasharray="none" d="M 927,2652 L 627,2802 L 927,2952 L 1227,2802 Z"/>
							<text x="927" y="2767" fill="#000000" font-family="Arial" font-size="32pt" text-anchor="middle" direction="ltr">
								<tspan x="927" dy="50" unicode-bidi="embed">numero[contador]&lt;min</tspan>
							</text>
						</g>
						<g>
							<path fill="#FFFFD0" stroke="#A0A070" stroke-width="3" stroke-dasharray="none" d="M 1202,3002 L 1202,3102 L 1752,3102 L 1752,3002 Z"/>
							<text x="1477" y="3017" fill="#000000" font-family="Arial" font-size="32pt" text-anchor="middle" direction="ltr">
								<tspan x="1477" dy="50" unicode-bidi="embed">min = numero[contador]</tspan>
							</text>
						</g>
						<g>
						</g>
						<ellipse cx="927" cy="3202" rx="25" ry="25" fill="#FFD0D0" stroke="#A07070" stroke-width="3"/>
						<text x="1352" y="2717" fill="#000000" font-family="Arial" font-size="32pt" text-anchor="middle" direction="ltr">
							<tspan x="1352" dy="50" unicode-bidi="embed">Verdadero</tspan>
						</text>
						<text x="539" y="2717" fill="#000000" font-family="Arial" font-size="32pt" text-anchor="middle" direction="ltr">
							<tspan x="539" dy="50" unicode-bidi="embed">Falso</tspan>
						</text>
					</g>
				</g>
				<g>
					<path fill="#FFE0A0" stroke="#A08040" stroke-width="3" stroke-dasharray="none" d="M 52,1852 L 2,1902 L 52,1952 L 502,1952 L 552,1902 L 502,1852 Z"/>
					<text x="277" y="1867" fill="#000000" font-family="Arial" font-size="32pt" text-anchor="middle" direction="ltr">
						<tspan x="277" dy="50" unicode-bidi="embed">contador = 0 hasta 4</tspan>
					</text>
				</g>
				<text x="677" y="1817" fill="#000000" font-family="Arial" font-size="32pt" text-anchor="middle" direction="ltr">
					<tspan x="677" dy="50" unicode-bidi="embed">Siguiente</tspan>
				</text>
				<text x="189" y="1967" fill="#000000" font-family="Arial" font-size="32pt" text-anchor="middle" direction="ltr">
					<tspan x="189" dy="50" unicode-bidi="embed">Hecho</tspan>
				</text>
			</g>
			<g>
				<polyline fill="none" stroke="#404040" stroke-width="6" stroke-dasharray="none" points="552,3477 3227,3477 3227,3563"/>
				<polygon fill="#404040" stroke="none" points="3227,3577 3240,3552 3213,3552"/>
				<polyline fill="none" stroke="#404040" stroke-width="6" stroke-dasharray="none" points="3227,5152 3227,5227 327,5227 327,3540"/>
				<polygon fill="#404040" stroke="none" points="327,3527 313,3551 340,3551"/>
				<g>
					<polyline fill="none" stroke="#404040" stroke-width="6" stroke-dasharray="none" points="3402,3677 3677,3677 3677,3813"/>
					<polygon fill="#404040" stroke="none" points="3677,3827 3690,3802 3663,3802"/>
					<polyline fill="none" stroke="#404040" stroke-width="6" stroke-dasharray="none" points="3677,4027 3677,5127 3265,5127"/>
					<polygon fill="#404040" stroke="none" points="3252,5127 3276,5140 3276,5113"/>
					<polyline fill="none" stroke="#404040" stroke-width="6" stroke-dasharray="none" points="3052,3677 2277,3677 2277,3813"/>
					<polygon fill="#404040" stroke="none" points="2277,3827 2290,3802 2263,3802"/>
					<polyline fill="none" stroke="#404040" stroke-width="6" stroke-dasharray="none" points="2277,5027 2277,5127 3188,5127"/>
					<polygon fill="#404040" stroke="none" points="3202,5127 3177,5113 3177,5140"/>
					<g>
						<path fill="#FFD0D0" stroke="#A07070" stroke-width="3" stroke-dasharray="none" d="M 3227,3577 L 3027,3677 L 3227,3777 L 3427,3677 Z"/>
						<text x="3227" y="3642" fill="#000000" font-family="Arial" font-size="32pt" text-anchor="middle" direction="ltr">
							<tspan x="3227" dy="50" unicode-bidi="embed">max==min</tspan>
						</text>
					</g>
					<g>
						<path fill="#D0FFD0" stroke="#70A070" stroke-width="3" stroke-dasharray="none" d="M 3427,3827 L 3327,4027 L 3927,4027 L 4027,3827 Z"/>
						<text x="3677" y="3842" fill="#000000" font-family="Arial" font-size="32pt" text-anchor="middle" direction="ltr">
							<tspan x="3677" dy="50" unicode-bidi="embed">Salida numero</tspan>
							<tspan x="3677" dy="50" unicode-bidi="embed">[contador]&amp;&quot; minimo y</tspan>
							<tspan x="3677" dy="50" unicode-bidi="embed"> maximo&quot;</tspan>
						</text>
					</g>
					<g>
						<polyline fill="none" stroke="#404040" stroke-width="6" stroke-dasharray="none" points="2577,4002 2852,4002 2852,4213"/>
						<polygon fill="#404040" stroke="none" points="2852,4227 2865,4202 2838,4202"/>
						<polyline fill="none" stroke="#404040" stroke-width="6" stroke-dasharray="none" points="2852,4377 2852,5002 2315,5002"/>
						<polygon fill="#404040" stroke="none" points="2302,5002 2326,5015 2326,4988"/>
						<polyline fill="none" stroke="#404040" stroke-width="6" stroke-dasharray="none" points="1977,4002 1327,4002 1327,4213"/>
						<polygon fill="#404040" stroke="none" points="1327,4227 1340,4202 1313,4202"/>
						<polyline fill="none" stroke="#404040" stroke-width="6" stroke-dasharray="none" points="1327,4902 1327,5002 2238,5002"/>
						<polygon fill="#404040" stroke="none" points="2252,5002 2227,4988 2227,5015"/>
						<g>
							<path fill="#FFD0D0" stroke="#A07070" stroke-width="3" stroke-dasharray="none" d="M 2277,3827 L 1952,4002 L 2277,4177 L 2602,4002 Z"/>
							<text x="2277" y="3967" fill="#000000" font-family="Arial" font-size="32pt" text-anchor="middle" direction="ltr">
								<tspan x="2277" dy="50" unicode-bidi="embed">numero[contador]==min</tspan>
							</text>
						</g>
						<g>
							<path fill="#D0FFD0" stroke="#70A070" stroke-width="3" stroke-dasharray="none" d="M 2602,4227 L 2527,4377 L 3102,4377 L 3177,4227 Z"/>
							<text x="2852" y="4242" fill="#000000" font-family="Arial" font-size="32pt" text-anchor="middle" direction="ltr">
								<tspan x="2852" dy="50" unicode-bidi="embed">Salida numero</tspan>
								<tspan x="2852" dy="50" unicode-bidi="embed">[contador]&amp;&quot; minimo&quot;</tspan>
							</text>
						</g>
						<g>
							<polyline fill="none" stroke="#404040" stroke-width="6" stroke-dasharray="none" points="1627,4402 1902,4402 1902,4613"/>
							<polygon fill="#404040" stroke="none" points="1902,4627 1915,4602 1888,4602"/>
							<polyline fill="none" stroke="#404040" stroke-width="6" stroke-dasharray="none" points="1902,4777 1902,4877 1365,4877"/>
							<polygon fill="#404040" stroke="none" points="1352,4877 1376,4890 1376,4863"/>
							<polyline fill="none" stroke="#404040" stroke-width="6" stroke-dasharray="none" points="1027,4402 827,4402 827,4613"/>
							<polygon fill="#404040" stroke="none" points="827,4627 840,4602 813,4602"/>
							<polyline fill="none" stroke="#404040" stroke-width="6" stroke-dasharray="none" points="827,4727 827,4877 1288,4877"/>
							<polygon fill="#404040" stroke="none" points="1302,4877 1277,4863 1277,4890"/>
							<g>
								<path fill="#FFD0D0" stroke="#A07070" stroke-width="3" stroke-dasharray="none" d="M 1327,4227 L 1002,4402 L 1327,4577 L 1652,4402 Z"/>
								<text x="1327" y="4367" fill="#000000" font-family="Arial" font-size="32pt" text-anchor="middle" direction="ltr">
									<tspan x="1327" dy="50" unicode-bidi="embed">numero[contador]==max</tspan>
								</text>
							</g>
							<g>
								<path fill="#D0FFD0" stroke="#70A070" stroke-width="3" stroke-dasharray="none" d="M 1652,4627 L 1577,4777 L 2152,4777 L 2227,4627 Z"/>
								<text x="1902" y="4642" fill="#000000" font-family="Arial" font-size="32pt" text-anchor="middle" direction="ltr">
									<tspan x="1902" dy="50" unicode-bidi="embed">Salida numero</tspan>
									<tspan x="1902" dy="50" unicode-bidi="embed">[contador]&amp;&quot; maximo&quot;</tspan>
								</text>
							</g>
							<g>
								<path fill="#D0FFD0" stroke="#70A070" stroke-width="3" stroke-dasharray="none" d="M 552,4627 L 502,4727 L 1102,4727 L 1152,4627 Z"/>
								<text x="827" y="4642" fill="#000000" font-family="Arial" font-size="32pt" text-anchor="middle" direction="ltr">
									<tspan x="827" dy="50" unicode-bidi="embed">Salida numero[contador]</tspan>
								</text>
							</g>
							<ellipse cx="1327" cy="4877" rx="25" ry="25" fill="#FFD0D0" stroke="#A07070" stroke-width="3"/>
							<text x="1777" y="4317" fill="#000000" font-family="Arial" font-size="32pt" text-anchor="middle" direction="ltr">
								<tspan x="1777" dy="50" unicode-bidi="embed">Verdadero</tspan>
							</text>
							<text x="914" y="4317" fill="#000000" font-family="Arial" font-size="32pt" text-anchor="middle" direction="ltr">
								<tspan x="914" dy="50" unicode-bidi="embed">Falso</tspan>
							</text>
						</g>
						<ellipse cx="2277" cy="5002" rx="25" ry="25" fill="#FFD0D0" stroke="#A07070" stroke-width="3"/>
						<text x="2727" y="3917" fill="#000000" font-family="Arial" font-size="32pt" text-anchor="middle" direction="ltr">
							<tspan x="2727" dy="50" unicode-bidi="embed">Verdadero</tspan>
						</text>
						<text x="1864" y="3917" fill="#000000" font-family="Arial" font-size="32pt" text-anchor="middle" direction="ltr">
							<tspan x="1864" dy="50" unicode-bidi="embed">Falso</tspan>
						</text>
					</g>
					<ellipse cx="3227" cy="5127" rx="25" ry="25" fill="#FFD0D0" stroke="#A07070" stroke-width="3"/>
					<text x="3552" y="3592" fill="#000000" font-family="Arial" font-size="32pt" text-anchor="middle" direction="ltr">
						<tspan x="3552" dy="50" unicode-bidi="embed">Verdadero</tspan>
					</text>
					<text x="2939" y="3592" fill="#000000" font-family="Arial" font-size="32pt" text-anchor="middle" direction="ltr">
						<tspan x="2939" dy="50" unicode-bidi="embed">Falso</tspan>
					</text>
				</g>
				<g>
					<path fill="#FFE0A0" stroke="#A08040" stroke-width="3" stroke-dasharray="none" d="M 52,3427 L 2,3477 L 52,3527 L 502,3527 L 552,3477 L 502,3427 Z"/>
					<text x="277" y="3442" fill="#000000" font-family="Arial" font-size="32pt" text-anchor="middle" direction="ltr">
						<tspan x="277" dy="50" unicode-bidi="embed">contador = 0 hasta 4</tspan>
					</text>
				</g>
				<text x="677" y="3392" fill="#000000" font-family="Arial" font-size="32pt" text-anchor="middle" direction="ltr">
					<tspan x="677" dy="50" unicode-bidi="embed">Siguiente</tspan>
				</text>
				<text x="189" y="3542" fill="#000000" font-family="Arial" font-size="32pt" text-anchor="middle" direction="ltr">
					<tspan x="189" dy="50" unicode-bidi="embed">Hecho</tspan>
				</text>
			</g>
		</g>
	</g>
</svg>
