<?xml version="1.0" encoding="UTF-8" standalone="no"?>
<!-- Created by Flowgorithm 3.4.1 (http://flowgorithm.org) -->

<svg xmlns:svg="http://www.w3.org/2000/svg" xmlns="http://www.w3.org/2000/svg" version="1.1" width="4179" height="3579">
	<g>
		<polyline fill="none" stroke="#404040" stroke-width="6" stroke-dasharray="none" points="2202,102 2202,163"/>
		<polygon fill="#404040" stroke="none" points="2202,177 2215,152 2188,152"/>
		<polyline fill="none" stroke="#404040" stroke-width="6" stroke-dasharray="none" points="2202,3402 2202,3463"/>
		<polygon fill="#404040" stroke="none" points="2202,3477 2215,3452 2188,3452"/>
		<g>
			<path fill="#F0D0FF" stroke="#9070A0" stroke-width="3" stroke-dasharray="none" d="M 2102,2 A 50 50, 0, 0 0, 2102 102 L 2302,102 A 50 50, 0, 0 0, 2302 2 Z"/>
			<text x="2202" y="17" fill="#000000" font-family="Arial" font-size="32pt" text-anchor="middle" direction="ltr">
				<tspan x="2202" dy="50" unicode-bidi="embed">Principal</tspan>
			</text>
		</g>
		<g>
			<path fill="#F0D0FF" stroke="#9070A0" stroke-width="3" stroke-dasharray="none" d="M 2102,3477 A 50 50, 0, 0 0, 2102 3577 L 2302,3577 A 50 50, 0, 0 0, 2302 3477 Z"/>
			<text x="2202" y="3492" fill="#000000" font-family="Arial" font-size="32pt" text-anchor="middle" direction="ltr">
				<tspan x="2202" dy="50" unicode-bidi="embed">Fin</tspan>
			</text>
		</g>
		<g>
			<polyline fill="none" stroke="#404040" stroke-width="6" stroke-dasharray="none" points="2202,302 2202,363"/>
			<polygon fill="#404040" stroke="none" points="2202,377 2215,352 2188,352"/>
			<polyline fill="none" stroke="#404040" stroke-width="6" stroke-dasharray="none" points="2202,502 2202,563"/>
			<polygon fill="#404040" stroke="none" points="2202,577 2215,552 2188,552"/>
			<polyline fill="none" stroke="#404040" stroke-width="6" stroke-dasharray="none" points="2202,677 2202,738"/>
			<polygon fill="#404040" stroke="none" points="2202,752 2215,727 2188,727"/>
			<polyline fill="none" stroke="#404040" stroke-width="6" stroke-dasharray="none" points="2202,877 2202,938"/>
			<polygon fill="#404040" stroke="none" points="2202,952 2215,927 2188,927"/>
			<polyline fill="none" stroke="#404040" stroke-width="6" stroke-dasharray="none" points="2202,1052 2202,1113"/>
			<polygon fill="#404040" stroke="none" points="2202,1127 2215,1102 2188,1102"/>
			<polyline fill="none" stroke="#404040" stroke-width="6" stroke-dasharray="none" points="2202,1227 2202,1288"/>
			<polygon fill="#404040" stroke="none" points="2202,1302 2215,1277 2188,1277"/>
			<g>
				<path fill="#FFFFD0" stroke="#A0A070" stroke-width="3" stroke-dasharray="none" d="M 2002,177 L 2002,302 L 2402,302 L 2402,177 Z"/>
				<polyline fill="none" stroke="#A0A070" stroke-width="3" stroke-dasharray="none" points="2002,202 2402,202"/>
				<polyline fill="none" stroke="#A0A070" stroke-width="3" stroke-dasharray="none" points="2027,177 2027,302"/>
				<text x="2214" y="217" fill="#000000" font-family="Arial" font-size="32pt" text-anchor="middle" direction="ltr">
					<tspan x="2214" dy="50" unicode-bidi="embed">Entero numero</tspan>
				</text>
			</g>
			<g>
				<path fill="#FFFFD0" stroke="#A0A070" stroke-width="3" stroke-dasharray="none" d="M 2002,377 L 2002,502 L 2402,502 L 2402,377 Z"/>
				<polyline fill="none" stroke="#A0A070" stroke-width="3" stroke-dasharray="none" points="2002,402 2402,402"/>
				<polyline fill="none" stroke="#A0A070" stroke-width="3" stroke-dasharray="none" points="2027,377 2027,502"/>
				<text x="2214" y="417" fill="#000000" font-family="Arial" font-size="32pt" text-anchor="middle" direction="ltr">
					<tspan x="2214" dy="50" unicode-bidi="embed">Entero contador</tspan>
				</text>
			</g>
			<g>
				<path fill="#FFFFD0" stroke="#A0A070" stroke-width="3" stroke-dasharray="none" d="M 2052,577 L 2052,677 L 2352,677 L 2352,577 Z"/>
				<text x="2202" y="592" fill="#000000" font-family="Arial" font-size="32pt" text-anchor="middle" direction="ltr">
					<tspan x="2202" dy="50" unicode-bidi="embed">contador = 0</tspan>
				</text>
			</g>
			<g>
				<path fill="#FFFFD0" stroke="#A0A070" stroke-width="3" stroke-dasharray="none" d="M 2052,752 L 2052,877 L 2352,877 L 2352,752 Z"/>
				<polyline fill="none" stroke="#A0A070" stroke-width="3" stroke-dasharray="none" points="2052,777 2352,777"/>
				<polyline fill="none" stroke="#A0A070" stroke-width="3" stroke-dasharray="none" points="2077,752 2077,877"/>
				<text x="2214" y="792" fill="#000000" font-family="Arial" font-size="32pt" text-anchor="middle" direction="ltr">
					<tspan x="2214" dy="50" unicode-bidi="embed">Entero i</tspan>
				</text>
			</g>
			<g>
				<path fill="#FFFFD0" stroke="#A0A070" stroke-width="3" stroke-dasharray="none" d="M 2052,952 L 2052,1052 L 2352,1052 L 2352,952 Z"/>
				<text x="2202" y="967" fill="#000000" font-family="Arial" font-size="32pt" text-anchor="middle" direction="ltr">
					<tspan x="2202" dy="50" unicode-bidi="embed">i = 1</tspan>
				</text>
			</g>
			<g>
				<path fill="#C0E0FF" stroke="#6080A0" stroke-width="3" stroke-dasharray="none" d="M 2002,1127 L 1952,1227 L 2402,1227 L 2452,1127 Z"/>
				<text x="2202" y="1142" fill="#000000" font-family="Arial" font-size="32pt" text-anchor="middle" direction="ltr">
					<tspan x="2202" dy="50" unicode-bidi="embed">Entrada numero</tspan>
				</text>
			</g>
			<g>
				<polyline fill="none" stroke="#404040" stroke-width="6" stroke-dasharray="none" points="2352,1402 2927,1402 2927,1538"/>
				<polygon fill="#404040" stroke="none" points="2927,1552 2940,1527 2913,1527"/>
				<polyline fill="none" stroke="#404040" stroke-width="6" stroke-dasharray="none" points="2927,3277 2927,3377 2240,3377"/>
				<polygon fill="#404040" stroke="none" points="2227,3377 2251,3390 2251,3363"/>
				<polyline fill="none" stroke="#404040" stroke-width="6" stroke-dasharray="none" points="2052,1402 1327,1402 1327,1538"/>
				<polygon fill="#404040" stroke="none" points="1327,1552 1340,1527 1313,1527"/>
				<polyline fill="none" stroke="#404040" stroke-width="6" stroke-dasharray="none" points="1327,2452 1327,3377 2163,3377"/>
				<polygon fill="#404040" stroke="none" points="2177,3377 2152,3363 2152,3390"/>
				<g>
					<path fill="#FFD0D0" stroke="#A07070" stroke-width="3" stroke-dasharray="none" d="M 2202,1302 L 2027,1402 L 2202,1502 L 2377,1402 Z"/>
					<text x="2202" y="1367" fill="#000000" font-family="Arial" font-size="32pt" text-anchor="middle" direction="ltr">
						<tspan x="2202" dy="50" unicode-bidi="embed">numero&gt;1</tspan>
					</text>
				</g>
				<g>
					<polyline fill="none" stroke="#404040" stroke-width="6" stroke-dasharray="none" points="2927,2652 2927,2788"/>
					<polygon fill="#404040" stroke="none" points="2927,2802 2940,2777 2913,2777"/>
					<g>
						<polyline fill="none" stroke="#404040" stroke-width="6" stroke-dasharray="none" points="2952,1577 3452,1577 3452,1663"/>
						<polygon fill="#404040" stroke="none" points="3452,1677 3465,1652 3438,1652"/>
						<polyline fill="none" stroke="#404040" stroke-width="6" stroke-dasharray="none" points="3452,2377 3452,2552 3140,2552"/>
						<polygon fill="#404040" stroke="none" points="3127,2552 3151,2565 3151,2538"/>
						<polyline fill="none" stroke="#404040" stroke-width="6" stroke-dasharray="none" points="2927,2452 2927,1615"/>
						<polygon fill="#404040" stroke="none" points="2927,1602 2913,1626 2940,1626"/>
						<text x="2802" y="2367" fill="#000000" font-family="Arial" font-size="32pt" text-anchor="middle" direction="ltr">
							<tspan x="2802" dy="50" unicode-bidi="embed">Verdadero</tspan>
						</text>
						<text x="2839" y="2667" fill="#000000" font-family="Arial" font-size="32pt" text-anchor="middle" direction="ltr">
							<tspan x="2839" dy="50" unicode-bidi="embed">Falso</tspan>
						</text>
						<g>
							<polyline fill="none" stroke="#404040" stroke-width="6" stroke-dasharray="none" points="3452,2202 3452,2263"/>
							<polygon fill="#404040" stroke="none" points="3452,2277 3465,2252 3438,2252"/>
							<g>
								<polyline fill="none" stroke="#404040" stroke-width="6" stroke-dasharray="none" points="3652,1802 3927,1802 3927,1963"/>
								<polygon fill="#404040" stroke="none" points="3927,1977 3940,1952 3913,1952"/>
								<polyline fill="none" stroke="#404040" stroke-width="6" stroke-dasharray="none" points="3927,2077 3927,2177 3490,2177"/>
								<polygon fill="#404040" stroke="none" points="3477,2177 3501,2190 3501,2163"/>
								<polyline fill="none" stroke="#404040" stroke-width="6" stroke-dasharray="none" points="3252,1802 3052,1802 3052,2177 3413,2177"/>
								<polygon fill="#404040" stroke="none" points="3427,2177 3402,2163 3402,2190"/>
								<g>
									<path fill="#FFD0D0" stroke="#A07070" stroke-width="3" stroke-dasharray="none" d="M 3452,1677 L 3227,1802 L 3452,1927 L 3677,1802 Z"/>
									<text x="3452" y="1767" fill="#000000" font-family="Arial" font-size="32pt" text-anchor="middle" direction="ltr">
										<tspan x="3452" dy="50" unicode-bidi="embed">numero%i==0</tspan>
									</text>
								</g>
								<g>
									<path fill="#FFFFD0" stroke="#A0A070" stroke-width="3" stroke-dasharray="none" d="M 3677,1977 L 3677,2077 L 4177,2077 L 4177,1977 Z"/>
									<text x="3927" y="1992" fill="#000000" font-family="Arial" font-size="32pt" text-anchor="middle" direction="ltr">
										<tspan x="3927" dy="50" unicode-bidi="embed">contador = contador+1</tspan>
									</text>
								</g>
								<g>
								</g>
								<ellipse cx="3452" cy="2177" rx="25" ry="25" fill="#FFD0D0" stroke="#A07070" stroke-width="3"/>
								<text x="3802" y="1717" fill="#000000" font-family="Arial" font-size="32pt" text-anchor="middle" direction="ltr">
									<tspan x="3802" dy="50" unicode-bidi="embed">Verdadero</tspan>
								</text>
								<text x="3139" y="1717" fill="#000000" font-family="Arial" font-size="32pt" text-anchor="middle" direction="ltr">
									<tspan x="3139" dy="50" unicode-bidi="embed">Falso</tspan>
								</text>
							</g>
							<g>
								<path fill="#FFFFD0" stroke="#A0A070" stroke-width="3" stroke-dasharray="none" d="M 3302,2277 L 3302,2377 L 3602,2377 L 3602,2277 Z"/>
								<text x="3452" y="2292" fill="#000000" font-family="Arial" font-size="32pt" text-anchor="middle" direction="ltr">
									<tspan x="3452" dy="50" unicode-bidi="embed">i = i+1</tspan>
								</text>
							</g>
						</g>
						<g>
							<path fill="#FFE0A0" stroke="#A08040" stroke-width="3" stroke-dasharray="none" d="M 2927,2452 L 2727,2552 L 2927,2652 L 3127,2552 Z"/>
							<text x="2927" y="2517" fill="#000000" font-family="Arial" font-size="32pt" text-anchor="middle" direction="ltr">
								<tspan x="2927" dy="50" unicode-bidi="embed">i&lt;=numero</tspan>
							</text>
						</g>
						<ellipse cx="2927" cy="1577" rx="25" ry="25" fill="#FFE0A0" stroke="#A08040" stroke-width="3"/>
					</g>
					<g>
						<polyline fill="none" stroke="#404040" stroke-width="6" stroke-dasharray="none" points="3102,2902 3377,2902 3377,3038"/>
						<polygon fill="#404040" stroke="none" points="3377,3052 3390,3027 3363,3027"/>
						<polyline fill="none" stroke="#404040" stroke-width="6" stroke-dasharray="none" points="3377,3152 3377,3252 2965,3252"/>
						<polygon fill="#404040" stroke="none" points="2952,3252 2976,3265 2976,3238"/>
						<polyline fill="none" stroke="#404040" stroke-width="6" stroke-dasharray="none" points="2752,2902 2552,2902 2552,3038"/>
						<polygon fill="#404040" stroke="none" points="2552,3052 2565,3027 2538,3027"/>
						<polyline fill="none" stroke="#404040" stroke-width="6" stroke-dasharray="none" points="2552,3152 2552,3252 2888,3252"/>
						<polygon fill="#404040" stroke="none" points="2902,3252 2877,3238 2877,3265"/>
						<g>
							<path fill="#FFD0D0" stroke="#A07070" stroke-width="3" stroke-dasharray="none" d="M 2927,2802 L 2727,2902 L 2927,3002 L 3127,2902 Z"/>
							<text x="2927" y="2867" fill="#000000" font-family="Arial" font-size="32pt" text-anchor="middle" direction="ltr">
								<tspan x="2927" dy="50" unicode-bidi="embed">contador&lt;=2</tspan>
							</text>
						</g>
						<g>
							<path fill="#D0FFD0" stroke="#70A070" stroke-width="3" stroke-dasharray="none" d="M 3177,3052 L 3127,3152 L 3577,3152 L 3627,3052 Z"/>
							<text x="3377" y="3067" fill="#000000" font-family="Arial" font-size="32pt" text-anchor="middle" direction="ltr">
								<tspan x="3377" dy="50" unicode-bidi="embed">Salida &quot;Es primo&quot;</tspan>
							</text>
						</g>
						<g>
							<path fill="#D0FFD0" stroke="#70A070" stroke-width="3" stroke-dasharray="none" d="M 2327,3052 L 2277,3152 L 2777,3152 L 2827,3052 Z"/>
							<text x="2552" y="3067" fill="#000000" font-family="Arial" font-size="32pt" text-anchor="middle" direction="ltr">
								<tspan x="2552" dy="50" unicode-bidi="embed">Salida &quot;No es primo&quot;</tspan>
							</text>
						</g>
						<ellipse cx="2927" cy="3252" rx="25" ry="25" fill="#FFD0D0" stroke="#A07070" stroke-width="3"/>
						<text x="3252" y="2817" fill="#000000" font-family="Arial" font-size="32pt" text-anchor="middle" direction="ltr">
							<tspan x="3252" dy="50" unicode-bidi="embed">Verdadero</tspan>
						</text>
						<text x="2639" y="2817" fill="#000000" font-family="Arial" font-size="32pt" text-anchor="middle" direction="ltr">
							<tspan x="2639" dy="50" unicode-bidi="embed">Falso</tspan>
						</text>
					</g>
				</g>
				<g>
					<polyline fill="none" stroke="#404040" stroke-width="6" stroke-dasharray="none" points="1502,1652 1777,1652 1777,1788"/>
					<polygon fill="#404040" stroke="none" points="1777,1802 1790,1777 1763,1777"/>
					<polyline fill="none" stroke="#404040" stroke-width="6" stroke-dasharray="none" points="1777,1952 1777,2427 1365,2427"/>
					<polygon fill="#404040" stroke="none" points="1352,2427 1376,2440 1376,2413"/>
					<polyline fill="none" stroke="#404040" stroke-width="6" stroke-dasharray="none" points="1152,1652 452,1652 452,1788"/>
					<polygon fill="#404040" stroke="none" points="452,1802 465,1777 438,1777"/>
					<polyline fill="none" stroke="#404040" stroke-width="6" stroke-dasharray="none" points="452,2327 452,2427 1288,2427"/>
					<polygon fill="#404040" stroke="none" points="1302,2427 1277,2413 1277,2440"/>
					<g>
						<path fill="#FFD0D0" stroke="#A07070" stroke-width="3" stroke-dasharray="none" d="M 1327,1552 L 1127,1652 L 1327,1752 L 1527,1652 Z"/>
						<text x="1327" y="1617" fill="#000000" font-family="Arial" font-size="32pt" text-anchor="middle" direction="ltr">
							<tspan x="1327" dy="50" unicode-bidi="embed">numero==1</tspan>
						</text>
					</g>
					<g>
						<path fill="#D0FFD0" stroke="#70A070" stroke-width="3" stroke-dasharray="none" d="M 1477,1802 L 1402,1952 L 2077,1952 L 2152,1802 Z"/>
						<text x="1777" y="1817" fill="#000000" font-family="Arial" font-size="32pt" text-anchor="middle" direction="ltr">
							<tspan x="1777" dy="50" unicode-bidi="embed">Salida &quot;El n&#250;mero 1, no es</tspan>
							<tspan x="1777" dy="50" unicode-bidi="embed"> ni primo ni compuesto.&quot;</tspan>
						</text>
					</g>
					<g>
						<polyline fill="none" stroke="#404040" stroke-width="6" stroke-dasharray="none" points="627,1902 902,1902 902,2038"/>
						<polygon fill="#404040" stroke="none" points="902,2052 915,2027 888,2027"/>
						<polyline fill="none" stroke="#404040" stroke-width="6" stroke-dasharray="none" points="902,2202 902,2302 490,2302"/>
						<polygon fill="#404040" stroke="none" points="477,2302 501,2315 501,2288"/>
						<polyline fill="none" stroke="#404040" stroke-width="6" stroke-dasharray="none" points="277,1902 77,1902 77,2302 413,2302"/>
						<polygon fill="#404040" stroke="none" points="427,2302 402,2288 402,2315"/>
						<g>
							<path fill="#FFD0D0" stroke="#A07070" stroke-width="3" stroke-dasharray="none" d="M 452,1802 L 252,1902 L 452,2002 L 652,1902 Z"/>
							<text x="452" y="1867" fill="#000000" font-family="Arial" font-size="32pt" text-anchor="middle" direction="ltr">
								<tspan x="452" dy="50" unicode-bidi="embed">numero&lt;=0</tspan>
							</text>
						</g>
						<g>
							<path fill="#D0FFD0" stroke="#70A070" stroke-width="3" stroke-dasharray="none" d="M 602,2052 L 527,2202 L 1202,2202 L 1277,2052 Z"/>
							<text x="902" y="2067" fill="#000000" font-family="Arial" font-size="32pt" text-anchor="middle" direction="ltr">
								<tspan x="902" dy="50" unicode-bidi="embed">Salida &quot;El numero debe ser </tspan>
								<tspan x="902" dy="50" unicode-bidi="embed"> mayor que 1&quot;</tspan>
							</text>
						</g>
						<g>
						</g>
						<ellipse cx="452" cy="2302" rx="25" ry="25" fill="#FFD0D0" stroke="#A07070" stroke-width="3"/>
						<text x="777" y="1817" fill="#000000" font-family="Arial" font-size="32pt" text-anchor="middle" direction="ltr">
							<tspan x="777" dy="50" unicode-bidi="embed">Verdadero</tspan>
						</text>
						<text x="164" y="1817" fill="#000000" font-family="Arial" font-size="32pt" text-anchor="middle" direction="ltr">
							<tspan x="164" dy="50" unicode-bidi="embed">Falso</tspan>
						</text>
					</g>
					<ellipse cx="1327" cy="2427" rx="25" ry="25" fill="#FFD0D0" stroke="#A07070" stroke-width="3"/>
					<text x="1652" y="1567" fill="#000000" font-family="Arial" font-size="32pt" text-anchor="middle" direction="ltr">
						<tspan x="1652" dy="50" unicode-bidi="embed">Verdadero</tspan>
					</text>
					<text x="1039" y="1567" fill="#000000" font-family="Arial" font-size="32pt" text-anchor="middle" direction="ltr">
						<tspan x="1039" dy="50" unicode-bidi="embed">Falso</tspan>
					</text>
				</g>
				<ellipse cx="2202" cy="3377" rx="25" ry="25" fill="#FFD0D0" stroke="#A07070" stroke-width="3"/>
				<text x="2502" y="1317" fill="#000000" font-family="Arial" font-size="32pt" text-anchor="middle" direction="ltr">
					<tspan x="2502" dy="50" unicode-bidi="embed">Verdadero</tspan>
				</text>
				<text x="1939" y="1317" fill="#000000" font-family="Arial" font-size="32pt" text-anchor="middle" direction="ltr">
					<tspan x="1939" dy="50" unicode-bidi="embed">Falso</tspan>
				</text>
			</g>
		</g>
	</g>
</svg>
