<?xml version="1.0" encoding="UTF-8" standalone="no"?>
<!-- Created by Flowgorithm 3.4.1 (http://flowgorithm.org) -->

<svg xmlns:svg="http://www.w3.org/2000/svg" xmlns="http://www.w3.org/2000/svg" version="1.1" width="1704" height="2779">
	<g>
		<polyline fill="none" stroke="#404040" stroke-width="6" stroke-dasharray="none" points="627,102 627,163"/>
		<polygon fill="#404040" stroke="none" points="627,177 640,152 613,152"/>
		<polyline fill="none" stroke="#404040" stroke-width="6" stroke-dasharray="none" points="627,2602 627,2663"/>
		<polygon fill="#404040" stroke="none" points="627,2677 640,2652 613,2652"/>
		<g>
			<path fill="#F0D0FF" stroke="#9070A0" stroke-width="3" stroke-dasharray="none" d="M 527,2 A 50 50, 0, 0 0, 527 102 L 727,102 A 50 50, 0, 0 0, 727 2 Z"/>
			<text x="627" y="17" fill="#000000" font-family="Arial" font-size="32pt" text-anchor="middle" direction="ltr">
				<tspan x="627" dy="50" unicode-bidi="embed">Principal</tspan>
			</text>
		</g>
		<g>
			<path fill="#F0D0FF" stroke="#9070A0" stroke-width="3" stroke-dasharray="none" d="M 527,2677 A 50 50, 0, 0 0, 527 2777 L 727,2777 A 50 50, 0, 0 0, 727 2677 Z"/>
			<text x="627" y="2692" fill="#000000" font-family="Arial" font-size="32pt" text-anchor="middle" direction="ltr">
				<tspan x="627" dy="50" unicode-bidi="embed">Fin</tspan>
			</text>
		</g>
		<g>
			<polyline fill="none" stroke="#404040" stroke-width="6" stroke-dasharray="none" points="627,302 627,363"/>
			<polygon fill="#404040" stroke="none" points="627,377 640,352 613,352"/>
			<polyline fill="none" stroke="#404040" stroke-width="6" stroke-dasharray="none" points="627,502 627,563"/>
			<polygon fill="#404040" stroke="none" points="627,577 640,552 613,552"/>
			<polyline fill="none" stroke="#404040" stroke-width="6" stroke-dasharray="none" points="627,677 627,738"/>
			<polygon fill="#404040" stroke="none" points="627,752 640,727 613,727"/>
			<polyline fill="none" stroke="#404040" stroke-width="6" stroke-dasharray="none" points="627,877 627,938"/>
			<polygon fill="#404040" stroke="none" points="627,952 640,927 613,927"/>
			<polyline fill="none" stroke="#404040" stroke-width="6" stroke-dasharray="none" points="627,1052 627,1127"/>
			<polyline fill="none" stroke="#404040" stroke-width="6" stroke-dasharray="none" points="627,1277 627,1363"/>
			<polygon fill="#404040" stroke="none" points="627,1377 640,1352 613,1352"/>
			<polyline fill="none" stroke="#404040" stroke-width="6" stroke-dasharray="none" points="627,1477 627,2113"/>
			<polygon fill="#404040" stroke="none" points="627,2127 640,2102 613,2102"/>
			<g>
				<path fill="#FFFFD0" stroke="#A0A070" stroke-width="3" stroke-dasharray="none" d="M 477,177 L 477,302 L 777,302 L 777,177 Z"/>
				<polyline fill="none" stroke="#A0A070" stroke-width="3" stroke-dasharray="none" points="477,202 777,202"/>
				<polyline fill="none" stroke="#A0A070" stroke-width="3" stroke-dasharray="none" points="502,177 502,302"/>
				<text x="639" y="217" fill="#000000" font-family="Arial" font-size="32pt" text-anchor="middle" direction="ltr">
					<tspan x="639" dy="50" unicode-bidi="embed">Entero n</tspan>
				</text>
			</g>
			<g>
				<path fill="#FFFFD0" stroke="#A0A070" stroke-width="3" stroke-dasharray="none" d="M 402,377 L 402,502 L 852,502 L 852,377 Z"/>
				<polyline fill="none" stroke="#A0A070" stroke-width="3" stroke-dasharray="none" points="402,402 852,402"/>
				<polyline fill="none" stroke="#A0A070" stroke-width="3" stroke-dasharray="none" points="427,377 427,502"/>
				<text x="639" y="417" fill="#000000" font-family="Arial" font-size="32pt" text-anchor="middle" direction="ltr">
					<tspan x="639" dy="50" unicode-bidi="embed">Booleano esprimo</tspan>
				</text>
			</g>
			<g>
				<path fill="#FFFFD0" stroke="#A0A070" stroke-width="3" stroke-dasharray="none" d="M 452,577 L 452,677 L 802,677 L 802,577 Z"/>
				<text x="627" y="592" fill="#000000" font-family="Arial" font-size="32pt" text-anchor="middle" direction="ltr">
					<tspan x="627" dy="50" unicode-bidi="embed">esprimo = true</tspan>
				</text>
			</g>
			<g>
				<path fill="#FFFFD0" stroke="#A0A070" stroke-width="3" stroke-dasharray="none" d="M 477,752 L 477,877 L 777,877 L 777,752 Z"/>
				<polyline fill="none" stroke="#A0A070" stroke-width="3" stroke-dasharray="none" points="477,777 777,777"/>
				<polyline fill="none" stroke="#A0A070" stroke-width="3" stroke-dasharray="none" points="502,752 502,877"/>
				<text x="639" y="792" fill="#000000" font-family="Arial" font-size="32pt" text-anchor="middle" direction="ltr">
					<tspan x="639" dy="50" unicode-bidi="embed">Entero i</tspan>
				</text>
			</g>
			<g>
				<path fill="#C0E0FF" stroke="#6080A0" stroke-width="3" stroke-dasharray="none" d="M 502,952 L 452,1052 L 752,1052 L 802,952 Z"/>
				<text x="627" y="967" fill="#000000" font-family="Arial" font-size="32pt" text-anchor="middle" direction="ltr">
					<tspan x="627" dy="50" unicode-bidi="embed">Entrada n</tspan>
				</text>
			</g>
			<g>
				<polygon fill="#FFA0A0" stroke="#A04C4C" stroke-width="3" points="673,1221 646,1248 607,1248 580,1221 580,1182 607,1155 646,1155 673,1182"/>
				<text x="814" y="1167" fill="#000000" font-family="Arial" font-size="32pt" text-anchor="middle" direction="ltr">
					<tspan x="814" dy="50" unicode-bidi="embed">Interrumpir</tspan>
				</text>
			</g>
			<g>
				<polyline fill="none" stroke="#404040" stroke-width="6" stroke-dasharray="none" points="852,1427 1127,1427 1127,1513"/>
				<polygon fill="#404040" stroke="none" points="1127,1527 1140,1502 1113,1502"/>
				<polyline fill="none" stroke="#404040" stroke-width="6" stroke-dasharray="none" points="1127,1952 1127,2027 677,2027 677,1490"/>
				<polygon fill="#404040" stroke="none" points="677,1477 663,1501 690,1501"/>
				<g>
					<polyline fill="none" stroke="#404040" stroke-width="6" stroke-dasharray="none" points="1252,1602 1527,1602 1527,1713"/>
					<polygon fill="#404040" stroke="none" points="1527,1727 1540,1702 1513,1702"/>
					<polyline fill="none" stroke="#404040" stroke-width="6" stroke-dasharray="none" points="1527,1827 1527,1927 1165,1927"/>
					<polygon fill="#404040" stroke="none" points="1152,1927 1176,1940 1176,1913"/>
					<polyline fill="none" stroke="#404040" stroke-width="6" stroke-dasharray="none" points="1002,1602 802,1602 802,1927 1088,1927"/>
					<polygon fill="#404040" stroke="none" points="1102,1927 1077,1913 1077,1940"/>
					<g>
						<path fill="#FFD0D0" stroke="#A07070" stroke-width="3" stroke-dasharray="none" d="M 1127,1527 L 977,1602 L 1127,1677 L 1277,1602 Z"/>
						<text x="1127" y="1567" fill="#000000" font-family="Arial" font-size="32pt" text-anchor="middle" direction="ltr">
							<tspan x="1127" dy="50" unicode-bidi="embed">n%i==0</tspan>
						</text>
					</g>
					<g>
						<path fill="#FFFFD0" stroke="#A0A070" stroke-width="3" stroke-dasharray="none" d="M 1352,1727 L 1352,1827 L 1702,1827 L 1702,1727 Z"/>
						<text x="1527" y="1742" fill="#000000" font-family="Arial" font-size="32pt" text-anchor="middle" direction="ltr">
							<tspan x="1527" dy="50" unicode-bidi="embed">esprimo = false</tspan>
						</text>
					</g>
					<g>
					</g>
					<ellipse cx="1127" cy="1927" rx="25" ry="25" fill="#FFD0D0" stroke="#A07070" stroke-width="3"/>
					<text x="1402" y="1517" fill="#000000" font-family="Arial" font-size="32pt" text-anchor="middle" direction="ltr">
						<tspan x="1402" dy="50" unicode-bidi="embed">Verdadero</tspan>
					</text>
					<text x="889" y="1517" fill="#000000" font-family="Arial" font-size="32pt" text-anchor="middle" direction="ltr">
						<tspan x="889" dy="50" unicode-bidi="embed">Falso</tspan>
					</text>
				</g>
				<g>
					<path fill="#FFE0A0" stroke="#A08040" stroke-width="3" stroke-dasharray="none" d="M 452,1377 L 402,1427 L 452,1477 L 802,1477 L 852,1427 L 802,1377 Z"/>
					<text x="627" y="1392" fill="#000000" font-family="Arial" font-size="32pt" text-anchor="middle" direction="ltr">
						<tspan x="627" dy="50" unicode-bidi="embed">i = 2 hasta n-1</tspan>
					</text>
				</g>
				<text x="977" y="1342" fill="#000000" font-family="Arial" font-size="32pt" text-anchor="middle" direction="ltr">
					<tspan x="977" dy="50" unicode-bidi="embed">Siguiente</tspan>
				</text>
				<text x="539" y="1492" fill="#000000" font-family="Arial" font-size="32pt" text-anchor="middle" direction="ltr">
					<tspan x="539" dy="50" unicode-bidi="embed">Hecho</tspan>
				</text>
			</g>
			<g>
				<polyline fill="none" stroke="#404040" stroke-width="6" stroke-dasharray="none" points="777,2227 1052,2227 1052,2363"/>
				<polygon fill="#404040" stroke="none" points="1052,2377 1065,2352 1038,2352"/>
				<polyline fill="none" stroke="#404040" stroke-width="6" stroke-dasharray="none" points="1052,2477 1052,2577 665,2577"/>
				<polygon fill="#404040" stroke="none" points="652,2577 676,2590 676,2563"/>
				<polyline fill="none" stroke="#404040" stroke-width="6" stroke-dasharray="none" points="477,2227 277,2227 277,2363"/>
				<polygon fill="#404040" stroke="none" points="277,2377 290,2352 263,2352"/>
				<polyline fill="none" stroke="#404040" stroke-width="6" stroke-dasharray="none" points="277,2477 277,2577 588,2577"/>
				<polygon fill="#404040" stroke="none" points="602,2577 577,2563 577,2590"/>
				<g>
					<path fill="#FFD0D0" stroke="#A07070" stroke-width="3" stroke-dasharray="none" d="M 627,2127 L 452,2227 L 627,2327 L 802,2227 Z"/>
					<text x="627" y="2192" fill="#000000" font-family="Arial" font-size="32pt" text-anchor="middle" direction="ltr">
						<tspan x="627" dy="50" unicode-bidi="embed">esprimo</tspan>
					</text>
				</g>
				<g>
					<path fill="#D0FFD0" stroke="#70A070" stroke-width="3" stroke-dasharray="none" d="M 877,2377 L 827,2477 L 1227,2477 L 1277,2377 Z"/>
					<text x="1052" y="2392" fill="#000000" font-family="Arial" font-size="32pt" text-anchor="middle" direction="ltr">
						<tspan x="1052" dy="50" unicode-bidi="embed">Salida &quot;primo&quot;</tspan>
					</text>
				</g>
				<g>
					<path fill="#D0FFD0" stroke="#70A070" stroke-width="3" stroke-dasharray="none" d="M 77,2377 L 27,2477 L 477,2477 L 527,2377 Z"/>
					<text x="277" y="2392" fill="#000000" font-family="Arial" font-size="32pt" text-anchor="middle" direction="ltr">
						<tspan x="277" dy="50" unicode-bidi="embed">Salida &quot;NO primo&quot;</tspan>
					</text>
				</g>
				<ellipse cx="627" cy="2577" rx="25" ry="25" fill="#FFD0D0" stroke="#A07070" stroke-width="3"/>
				<text x="927" y="2142" fill="#000000" font-family="Arial" font-size="32pt" text-anchor="middle" direction="ltr">
					<tspan x="927" dy="50" unicode-bidi="embed">Verdadero</tspan>
				</text>
				<text x="364" y="2142" fill="#000000" font-family="Arial" font-size="32pt" text-anchor="middle" direction="ltr">
					<tspan x="364" dy="50" unicode-bidi="embed">Falso</tspan>
				</text>
			</g>
		</g>
	</g>
</svg>
