<?xml version="1.0" encoding="UTF-8" standalone="no"?>
<!-- Created by Flowgorithm 3.4.1 (http://flowgorithm.org) -->

<svg xmlns:svg="http://www.w3.org/2000/svg" xmlns="http://www.w3.org/2000/svg" version="1.1" width="4229" height="3454">
	<g>
		<polyline fill="none" stroke="#404040" stroke-width="6" stroke-dasharray="none" points="2202,102 2202,163"/>
		<polygon fill="#404040" stroke="none" points="2202,177 2215,152 2188,152"/>
		<polyline fill="none" stroke="#404040" stroke-width="6" stroke-dasharray="none" points="2202,3277 2202,3338"/>
		<polygon fill="#404040" stroke="none" points="2202,3352 2215,3327 2188,3327"/>
		<g>
			<path fill="#F0D0FF" stroke="#9070A0" stroke-width="3" stroke-dasharray="none" d="M 2102,2 A 50 50, 0, 0 0, 2102 102 L 2302,102 A 50 50, 0, 0 0, 2302 2 Z"/>
			<text x="2202" y="17" fill="#000000" font-family="Arial" font-size="32pt" text-anchor="middle" direction="ltr">
				<tspan x="2202" dy="50" unicode-bidi="embed">Principal</tspan>
			</text>
		</g>
		<g>
			<path fill="#F0D0FF" stroke="#9070A0" stroke-width="3" stroke-dasharray="none" d="M 2102,3352 A 50 50, 0, 0 0, 2102 3452 L 2302,3452 A 50 50, 0, 0 0, 2302 3352 Z"/>
			<text x="2202" y="3367" fill="#000000" font-family="Arial" font-size="32pt" text-anchor="middle" direction="ltr">
				<tspan x="2202" dy="50" unicode-bidi="embed">Fin</tspan>
			</text>
		</g>
		<g>
			<polyline fill="none" stroke="#404040" stroke-width="6" stroke-dasharray="none" points="2202,302 2202,363"/>
			<polygon fill="#404040" stroke="none" points="2202,377 2215,352 2188,352"/>
			<polyline fill="none" stroke="#404040" stroke-width="6" stroke-dasharray="none" points="2202,502 2202,563"/>
			<polygon fill="#404040" stroke="none" points="2202,577 2215,552 2188,552"/>
			<polyline fill="none" stroke="#404040" stroke-width="6" stroke-dasharray="none" points="2202,677 2202,738"/>
			<polygon fill="#404040" stroke="none" points="2202,752 2215,727 2188,727"/>
			<polyline fill="none" stroke="#404040" stroke-width="6" stroke-dasharray="none" points="2202,877 2202,938"/>
			<polygon fill="#404040" stroke="none" points="2202,952 2215,927 2188,927"/>
			<polyline fill="none" stroke="#404040" stroke-width="6" stroke-dasharray="none" points="2202,1052 2202,1113"/>
			<polygon fill="#404040" stroke="none" points="2202,1127 2215,1102 2188,1102"/>
			<polyline fill="none" stroke="#404040" stroke-width="6" stroke-dasharray="none" points="2202,1227 2202,1288"/>
			<polygon fill="#404040" stroke="none" points="2202,1302 2215,1277 2188,1277"/>
			<g>
				<path fill="#FFFFD0" stroke="#A0A070" stroke-width="3" stroke-dasharray="none" d="M 2002,177 L 2002,302 L 2402,302 L 2402,177 Z"/>
				<polyline fill="none" stroke="#A0A070" stroke-width="3" stroke-dasharray="none" points="2002,202 2402,202"/>
				<polyline fill="none" stroke="#A0A070" stroke-width="3" stroke-dasharray="none" points="2027,177 2027,302"/>
				<text x="2214" y="217" fill="#000000" font-family="Arial" font-size="32pt" text-anchor="middle" direction="ltr">
					<tspan x="2214" dy="50" unicode-bidi="embed">Entero numero</tspan>
				</text>
			</g>
			<g>
				<path fill="#FFFFD0" stroke="#A0A070" stroke-width="3" stroke-dasharray="none" d="M 2002,377 L 2002,502 L 2402,502 L 2402,377 Z"/>
				<polyline fill="none" stroke="#A0A070" stroke-width="3" stroke-dasharray="none" points="2002,402 2402,402"/>
				<polyline fill="none" stroke="#A0A070" stroke-width="3" stroke-dasharray="none" points="2027,377 2027,502"/>
				<text x="2214" y="417" fill="#000000" font-family="Arial" font-size="32pt" text-anchor="middle" direction="ltr">
					<tspan x="2214" dy="50" unicode-bidi="embed">Entero contador</tspan>
				</text>
			</g>
			<g>
				<path fill="#FFFFD0" stroke="#A0A070" stroke-width="3" stroke-dasharray="none" d="M 2052,577 L 2052,677 L 2352,677 L 2352,577 Z"/>
				<text x="2202" y="592" fill="#000000" font-family="Arial" font-size="32pt" text-anchor="middle" direction="ltr">
					<tspan x="2202" dy="50" unicode-bidi="embed">contador = 0</tspan>
				</text>
			</g>
			<g>
				<path fill="#FFFFD0" stroke="#A0A070" stroke-width="3" stroke-dasharray="none" d="M 2052,752 L 2052,877 L 2352,877 L 2352,752 Z"/>
				<polyline fill="none" stroke="#A0A070" stroke-width="3" stroke-dasharray="none" points="2052,777 2352,777"/>
				<polyline fill="none" stroke="#A0A070" stroke-width="3" stroke-dasharray="none" points="2077,752 2077,877"/>
				<text x="2214" y="792" fill="#000000" font-family="Arial" font-size="32pt" text-anchor="middle" direction="ltr">
					<tspan x="2214" dy="50" unicode-bidi="embed">Entero i</tspan>
				</text>
			</g>
			<g>
				<path fill="#FFFFD0" stroke="#A0A070" stroke-width="3" stroke-dasharray="none" d="M 2052,952 L 2052,1052 L 2352,1052 L 2352,952 Z"/>
				<text x="2202" y="967" fill="#000000" font-family="Arial" font-size="32pt" text-anchor="middle" direction="ltr">
					<tspan x="2202" dy="50" unicode-bidi="embed">i = 1</tspan>
				</text>
			</g>
			<g>
				<path fill="#C0E0FF" stroke="#6080A0" stroke-width="3" stroke-dasharray="none" d="M 2002,1127 L 1952,1227 L 2402,1227 L 2452,1127 Z"/>
				<text x="2202" y="1142" fill="#000000" font-family="Arial" font-size="32pt" text-anchor="middle" direction="ltr">
					<tspan x="2202" dy="50" unicode-bidi="embed">Entrada numero</tspan>
				</text>
			</g>
			<g>
				<polyline fill="none" stroke="#404040" stroke-width="6" stroke-dasharray="none" points="2352,1402 2927,1402 2927,1538"/>
				<polygon fill="#404040" stroke="none" points="2927,1552 2940,1527 2913,1527"/>
				<polyline fill="none" stroke="#404040" stroke-width="6" stroke-dasharray="none" points="2927,3152 2927,3252 2240,3252"/>
				<polygon fill="#404040" stroke="none" points="2227,3252 2251,3265 2251,3238"/>
				<polyline fill="none" stroke="#404040" stroke-width="6" stroke-dasharray="none" points="2052,1402 1327,1402 1327,1538"/>
				<polygon fill="#404040" stroke="none" points="1327,1552 1340,1527 1313,1527"/>
				<polyline fill="none" stroke="#404040" stroke-width="6" stroke-dasharray="none" points="1327,2452 1327,3252 2163,3252"/>
				<polygon fill="#404040" stroke="none" points="2177,3252 2152,3238 2152,3265"/>
				<g>
					<path fill="#FFD0D0" stroke="#A07070" stroke-width="3" stroke-dasharray="none" d="M 2202,1302 L 2027,1402 L 2202,1502 L 2377,1402 Z"/>
					<text x="2202" y="1367" fill="#000000" font-family="Arial" font-size="32pt" text-anchor="middle" direction="ltr">
						<tspan x="2202" dy="50" unicode-bidi="embed">numero&gt;1</tspan>
					</text>
				</g>
				<g>
					<polyline fill="none" stroke="#404040" stroke-width="6" stroke-dasharray="none" points="2927,1752 2927,2663"/>
					<polygon fill="#404040" stroke="none" points="2927,2677 2940,2652 2913,2652"/>
					<g>
						<polyline fill="none" stroke="#404040" stroke-width="6" stroke-dasharray="none" points="3127,1652 3502,1652 3502,1788"/>
						<polygon fill="#404040" stroke="none" points="3502,1802 3515,1777 3488,1777"/>
						<polyline fill="none" stroke="#404040" stroke-width="6" stroke-dasharray="none" points="3502,2502 3502,2577 2977,2577 2977,1765"/>
						<polygon fill="#404040" stroke="none" points="2977,1752 2963,1776 2990,1776"/>
						<g>
							<polyline fill="none" stroke="#404040" stroke-width="6" stroke-dasharray="none" points="3502,2327 3502,2388"/>
							<polygon fill="#404040" stroke="none" points="3502,2402 3515,2377 3488,2377"/>
							<g>
								<polyline fill="none" stroke="#404040" stroke-width="6" stroke-dasharray="none" points="3702,1927 3977,1927 3977,2088"/>
								<polygon fill="#404040" stroke="none" points="3977,2102 3990,2077 3963,2077"/>
								<polyline fill="none" stroke="#404040" stroke-width="6" stroke-dasharray="none" points="3977,2202 3977,2302 3540,2302"/>
								<polygon fill="#404040" stroke="none" points="3527,2302 3551,2315 3551,2288"/>
								<polyline fill="none" stroke="#404040" stroke-width="6" stroke-dasharray="none" points="3302,1927 3102,1927 3102,2302 3463,2302"/>
								<polygon fill="#404040" stroke="none" points="3477,2302 3452,2288 3452,2315"/>
								<g>
									<path fill="#FFD0D0" stroke="#A07070" stroke-width="3" stroke-dasharray="none" d="M 3502,1802 L 3277,1927 L 3502,2052 L 3727,1927 Z"/>
									<text x="3502" y="1892" fill="#000000" font-family="Arial" font-size="32pt" text-anchor="middle" direction="ltr">
										<tspan x="3502" dy="50" unicode-bidi="embed">numero%i==0</tspan>
									</text>
								</g>
								<g>
									<path fill="#FFFFD0" stroke="#A0A070" stroke-width="3" stroke-dasharray="none" d="M 3727,2102 L 3727,2202 L 4227,2202 L 4227,2102 Z"/>
									<text x="3977" y="2117" fill="#000000" font-family="Arial" font-size="32pt" text-anchor="middle" direction="ltr">
										<tspan x="3977" dy="50" unicode-bidi="embed">contador = contador+1</tspan>
									</text>
								</g>
								<g>
								</g>
								<ellipse cx="3502" cy="2302" rx="25" ry="25" fill="#FFD0D0" stroke="#A07070" stroke-width="3"/>
								<text x="3852" y="1842" fill="#000000" font-family="Arial" font-size="32pt" text-anchor="middle" direction="ltr">
									<tspan x="3852" dy="50" unicode-bidi="embed">Verdadero</tspan>
								</text>
								<text x="3189" y="1842" fill="#000000" font-family="Arial" font-size="32pt" text-anchor="middle" direction="ltr">
									<tspan x="3189" dy="50" unicode-bidi="embed">Falso</tspan>
								</text>
							</g>
							<g>
								<path fill="#FFFFD0" stroke="#A0A070" stroke-width="3" stroke-dasharray="none" d="M 3352,2402 L 3352,2502 L 3652,2502 L 3652,2402 Z"/>
								<text x="3502" y="2417" fill="#000000" font-family="Arial" font-size="32pt" text-anchor="middle" direction="ltr">
									<tspan x="3502" dy="50" unicode-bidi="embed">i = i+1</tspan>
								</text>
							</g>
						</g>
						<g>
							<path fill="#FFE0A0" stroke="#A08040" stroke-width="3" stroke-dasharray="none" d="M 2927,1552 L 2727,1652 L 2927,1752 L 3127,1652 Z"/>
							<text x="2927" y="1617" fill="#000000" font-family="Arial" font-size="32pt" text-anchor="middle" direction="ltr">
								<tspan x="2927" dy="50" unicode-bidi="embed">i&lt;=numero</tspan>
							</text>
						</g>
						<text x="3252" y="1567" fill="#000000" font-family="Arial" font-size="32pt" text-anchor="middle" direction="ltr">
							<tspan x="3252" dy="50" unicode-bidi="embed">Verdadero</tspan>
						</text>
						<text x="2839" y="1767" fill="#000000" font-family="Arial" font-size="32pt" text-anchor="middle" direction="ltr">
							<tspan x="2839" dy="50" unicode-bidi="embed">Falso</tspan>
						</text>
					</g>
					<g>
						<polyline fill="none" stroke="#404040" stroke-width="6" stroke-dasharray="none" points="3102,2777 3377,2777 3377,2913"/>
						<polygon fill="#404040" stroke="none" points="3377,2927 3390,2902 3363,2902"/>
						<polyline fill="none" stroke="#404040" stroke-width="6" stroke-dasharray="none" points="3377,3027 3377,3127 2965,3127"/>
						<polygon fill="#404040" stroke="none" points="2952,3127 2976,3140 2976,3113"/>
						<polyline fill="none" stroke="#404040" stroke-width="6" stroke-dasharray="none" points="2752,2777 2552,2777 2552,2913"/>
						<polygon fill="#404040" stroke="none" points="2552,2927 2565,2902 2538,2902"/>
						<polyline fill="none" stroke="#404040" stroke-width="6" stroke-dasharray="none" points="2552,3027 2552,3127 2888,3127"/>
						<polygon fill="#404040" stroke="none" points="2902,3127 2877,3113 2877,3140"/>
						<g>
							<path fill="#FFD0D0" stroke="#A07070" stroke-width="3" stroke-dasharray="none" d="M 2927,2677 L 2727,2777 L 2927,2877 L 3127,2777 Z"/>
							<text x="2927" y="2742" fill="#000000" font-family="Arial" font-size="32pt" text-anchor="middle" direction="ltr">
								<tspan x="2927" dy="50" unicode-bidi="embed">contador&lt;=2</tspan>
							</text>
						</g>
						<g>
							<path fill="#D0FFD0" stroke="#70A070" stroke-width="3" stroke-dasharray="none" d="M 3177,2927 L 3127,3027 L 3577,3027 L 3627,2927 Z"/>
							<text x="3377" y="2942" fill="#000000" font-family="Arial" font-size="32pt" text-anchor="middle" direction="ltr">
								<tspan x="3377" dy="50" unicode-bidi="embed">Salida &quot;Es primo&quot;</tspan>
							</text>
						</g>
						<g>
							<path fill="#D0FFD0" stroke="#70A070" stroke-width="3" stroke-dasharray="none" d="M 2327,2927 L 2277,3027 L 2777,3027 L 2827,2927 Z"/>
							<text x="2552" y="2942" fill="#000000" font-family="Arial" font-size="32pt" text-anchor="middle" direction="ltr">
								<tspan x="2552" dy="50" unicode-bidi="embed">Salida &quot;No es primo&quot;</tspan>
							</text>
						</g>
						<ellipse cx="2927" cy="3127" rx="25" ry="25" fill="#FFD0D0" stroke="#A07070" stroke-width="3"/>
						<text x="3252" y="2692" fill="#000000" font-family="Arial" font-size="32pt" text-anchor="middle" direction="ltr">
							<tspan x="3252" dy="50" unicode-bidi="embed">Verdadero</tspan>
						</text>
						<text x="2639" y="2692" fill="#000000" font-family="Arial" font-size="32pt" text-anchor="middle" direction="ltr">
							<tspan x="2639" dy="50" unicode-bidi="embed">Falso</tspan>
						</text>
					</g>
				</g>
				<g>
					<polyline fill="none" stroke="#404040" stroke-width="6" stroke-dasharray="none" points="1502,1652 1777,1652 1777,1788"/>
					<polygon fill="#404040" stroke="none" points="1777,1802 1790,1777 1763,1777"/>
					<polyline fill="none" stroke="#404040" stroke-width="6" stroke-dasharray="none" points="1777,1952 1777,2427 1365,2427"/>
					<polygon fill="#404040" stroke="none" points="1352,2427 1376,2440 1376,2413"/>
					<polyline fill="none" stroke="#404040" stroke-width="6" stroke-dasharray="none" points="1152,1652 452,1652 452,1788"/>
					<polygon fill="#404040" stroke="none" points="452,1802 465,1777 438,1777"/>
					<polyline fill="none" stroke="#404040" stroke-width="6" stroke-dasharray="none" points="452,2327 452,2427 1288,2427"/>
					<polygon fill="#404040" stroke="none" points="1302,2427 1277,2413 1277,2440"/>
					<g>
						<path fill="#FFD0D0" stroke="#A07070" stroke-width="3" stroke-dasharray="none" d="M 1327,1552 L 1127,1652 L 1327,1752 L 1527,1652 Z"/>
						<text x="1327" y="1617" fill="#000000" font-family="Arial" font-size="32pt" text-anchor="middle" direction="ltr">
							<tspan x="1327" dy="50" unicode-bidi="embed">numero==1</tspan>
						</text>
					</g>
					<g>
						<path fill="#D0FFD0" stroke="#70A070" stroke-width="3" stroke-dasharray="none" d="M 1477,1802 L 1402,1952 L 2077,1952 L 2152,1802 Z"/>
						<text x="1777" y="1817" fill="#000000" font-family="Arial" font-size="32pt" text-anchor="middle" direction="ltr">
							<tspan x="1777" dy="50" unicode-bidi="embed">Salida &quot;El n&#250;mero 1, no es</tspan>
							<tspan x="1777" dy="50" unicode-bidi="embed"> ni primo ni compuesto.&quot;</tspan>
						</text>
					</g>
					<g>
						<polyline fill="none" stroke="#404040" stroke-width="6" stroke-dasharray="none" points="627,1902 902,1902 902,2038"/>
						<polygon fill="#404040" stroke="none" points="902,2052 915,2027 888,2027"/>
						<polyline fill="none" stroke="#404040" stroke-width="6" stroke-dasharray="none" points="902,2202 902,2302 490,2302"/>
						<polygon fill="#404040" stroke="none" points="477,2302 501,2315 501,2288"/>
						<polyline fill="none" stroke="#404040" stroke-width="6" stroke-dasharray="none" points="277,1902 77,1902 77,2302 413,2302"/>
						<polygon fill="#404040" stroke="none" points="427,2302 402,2288 402,2315"/>
						<g>
							<path fill="#FFD0D0" stroke="#A07070" stroke-width="3" stroke-dasharray="none" d="M 452,1802 L 252,1902 L 452,2002 L 652,1902 Z"/>
							<text x="452" y="1867" fill="#000000" font-family="Arial" font-size="32pt" text-anchor="middle" direction="ltr">
								<tspan x="452" dy="50" unicode-bidi="embed">numero&lt;=0</tspan>
							</text>
						</g>
						<g>
							<path fill="#D0FFD0" stroke="#70A070" stroke-width="3" stroke-dasharray="none" d="M 602,2052 L 527,2202 L 1202,2202 L 1277,2052 Z"/>
							<text x="902" y="2067" fill="#000000" font-family="Arial" font-size="32pt" text-anchor="middle" direction="ltr">
								<tspan x="902" dy="50" unicode-bidi="embed">Salida &quot;El numero debe ser </tspan>
								<tspan x="902" dy="50" unicode-bidi="embed"> mayor que 1&quot;</tspan>
							</text>
						</g>
						<g>
						</g>
						<ellipse cx="452" cy="2302" rx="25" ry="25" fill="#FFD0D0" stroke="#A07070" stroke-width="3"/>
						<text x="777" y="1817" fill="#000000" font-family="Arial" font-size="32pt" text-anchor="middle" direction="ltr">
							<tspan x="777" dy="50" unicode-bidi="embed">Verdadero</tspan>
						</text>
						<text x="164" y="1817" fill="#000000" font-family="Arial" font-size="32pt" text-anchor="middle" direction="ltr">
							<tspan x="164" dy="50" unicode-bidi="embed">Falso</tspan>
						</text>
					</g>
					<ellipse cx="1327" cy="2427" rx="25" ry="25" fill="#FFD0D0" stroke="#A07070" stroke-width="3"/>
					<text x="1652" y="1567" fill="#000000" font-family="Arial" font-size="32pt" text-anchor="middle" direction="ltr">
						<tspan x="1652" dy="50" unicode-bidi="embed">Verdadero</tspan>
					</text>
					<text x="1039" y="1567" fill="#000000" font-family="Arial" font-size="32pt" text-anchor="middle" direction="ltr">
						<tspan x="1039" dy="50" unicode-bidi="embed">Falso</tspan>
					</text>
				</g>
				<ellipse cx="2202" cy="3252" rx="25" ry="25" fill="#FFD0D0" stroke="#A07070" stroke-width="3"/>
				<text x="2502" y="1317" fill="#000000" font-family="Arial" font-size="32pt" text-anchor="middle" direction="ltr">
					<tspan x="2502" dy="50" unicode-bidi="embed">Verdadero</tspan>
				</text>
				<text x="1939" y="1317" fill="#000000" font-family="Arial" font-size="32pt" text-anchor="middle" direction="ltr">
					<tspan x="1939" dy="50" unicode-bidi="embed">Falso</tspan>
				</text>
			</g>
		</g>
	</g>
</svg>
