<?xml version="1.0" encoding="UTF-8" standalone="no"?>
<!-- Created by Flowgorithm 3.4.1 (http://flowgorithm.org) -->

<svg xmlns:svg="http://www.w3.org/2000/svg" xmlns="http://www.w3.org/2000/svg" version="1.1" width="1779" height="2429">
	<g>
		<polyline fill="none" stroke="#404040" stroke-width="6" stroke-dasharray="none" points="877,102 877,163"/>
		<polygon fill="#404040" stroke="none" points="877,177 890,152 863,152"/>
		<polyline fill="none" stroke="#404040" stroke-width="6" stroke-dasharray="none" points="877,2252 877,2313"/>
		<polygon fill="#404040" stroke="none" points="877,2327 890,2302 863,2302"/>
		<g>
			<path fill="#F0D0FF" stroke="#9070A0" stroke-width="3" stroke-dasharray="none" d="M 777,2 A 50 50, 0, 0 0, 777 102 L 977,102 A 50 50, 0, 0 0, 977 2 Z"/>
			<text x="877" y="17" fill="#000000" font-family="Arial" font-size="32pt" text-anchor="middle" direction="ltr">
				<tspan x="877" dy="50" unicode-bidi="embed">Principal</tspan>
			</text>
		</g>
		<g>
			<path fill="#F0D0FF" stroke="#9070A0" stroke-width="3" stroke-dasharray="none" d="M 777,2327 A 50 50, 0, 0 0, 777 2427 L 977,2427 A 50 50, 0, 0 0, 977 2327 Z"/>
			<text x="877" y="2342" fill="#000000" font-family="Arial" font-size="32pt" text-anchor="middle" direction="ltr">
				<tspan x="877" dy="50" unicode-bidi="embed">Fin</tspan>
			</text>
		</g>
		<g>
			<polyline fill="none" stroke="#404040" stroke-width="6" stroke-dasharray="none" points="877,302 877,363"/>
			<polygon fill="#404040" stroke="none" points="877,377 890,352 863,352"/>
			<polyline fill="none" stroke="#404040" stroke-width="6" stroke-dasharray="none" points="877,502 877,563"/>
			<polygon fill="#404040" stroke="none" points="877,577 890,552 863,552"/>
			<polyline fill="none" stroke="#404040" stroke-width="6" stroke-dasharray="none" points="877,702 877,763"/>
			<polygon fill="#404040" stroke="none" points="877,777 890,752 863,752"/>
			<polyline fill="none" stroke="#404040" stroke-width="6" stroke-dasharray="none" points="877,877 877,938"/>
			<polygon fill="#404040" stroke="none" points="877,952 890,927 863,927"/>
			<polyline fill="none" stroke="#404040" stroke-width="6" stroke-dasharray="none" points="877,1052 877,1113"/>
			<polygon fill="#404040" stroke="none" points="877,1127 890,1102 863,1102"/>
			<polyline fill="none" stroke="#404040" stroke-width="6" stroke-dasharray="none" points="877,1227 877,1288"/>
			<polygon fill="#404040" stroke="none" points="877,1302 890,1277 863,1277"/>
			<polyline fill="none" stroke="#404040" stroke-width="6" stroke-dasharray="none" points="877,1427 877,1488"/>
			<polygon fill="#404040" stroke="none" points="877,1502 890,1477 863,1477"/>
			<g>
				<path fill="#FFFFD0" stroke="#A0A070" stroke-width="3" stroke-dasharray="none" d="M 727,177 L 727,302 L 1027,302 L 1027,177 Z"/>
				<polyline fill="none" stroke="#A0A070" stroke-width="3" stroke-dasharray="none" points="727,202 1027,202"/>
				<polyline fill="none" stroke="#A0A070" stroke-width="3" stroke-dasharray="none" points="752,177 752,302"/>
				<text x="889" y="217" fill="#000000" font-family="Arial" font-size="32pt" text-anchor="middle" direction="ltr">
					<tspan x="889" dy="50" unicode-bidi="embed">Real a</tspan>
				</text>
			</g>
			<g>
				<path fill="#FFFFD0" stroke="#A0A070" stroke-width="3" stroke-dasharray="none" d="M 727,377 L 727,502 L 1027,502 L 1027,377 Z"/>
				<polyline fill="none" stroke="#A0A070" stroke-width="3" stroke-dasharray="none" points="727,402 1027,402"/>
				<polyline fill="none" stroke="#A0A070" stroke-width="3" stroke-dasharray="none" points="752,377 752,502"/>
				<text x="889" y="417" fill="#000000" font-family="Arial" font-size="32pt" text-anchor="middle" direction="ltr">
					<tspan x="889" dy="50" unicode-bidi="embed">Real b</tspan>
				</text>
			</g>
			<g>
				<path fill="#FFFFD0" stroke="#A0A070" stroke-width="3" stroke-dasharray="none" d="M 727,577 L 727,702 L 1027,702 L 1027,577 Z"/>
				<polyline fill="none" stroke="#A0A070" stroke-width="3" stroke-dasharray="none" points="727,602 1027,602"/>
				<polyline fill="none" stroke="#A0A070" stroke-width="3" stroke-dasharray="none" points="752,577 752,702"/>
				<text x="889" y="617" fill="#000000" font-family="Arial" font-size="32pt" text-anchor="middle" direction="ltr">
					<tspan x="889" dy="50" unicode-bidi="embed">Real c</tspan>
				</text>
			</g>
			<g>
				<path fill="#C0E0FF" stroke="#6080A0" stroke-width="3" stroke-dasharray="none" d="M 752,777 L 702,877 L 1002,877 L 1052,777 Z"/>
				<text x="877" y="792" fill="#000000" font-family="Arial" font-size="32pt" text-anchor="middle" direction="ltr">
					<tspan x="877" dy="50" unicode-bidi="embed">Entrada a</tspan>
				</text>
			</g>
			<g>
				<path fill="#C0E0FF" stroke="#6080A0" stroke-width="3" stroke-dasharray="none" d="M 752,952 L 702,1052 L 1002,1052 L 1052,952 Z"/>
				<text x="877" y="967" fill="#000000" font-family="Arial" font-size="32pt" text-anchor="middle" direction="ltr">
					<tspan x="877" dy="50" unicode-bidi="embed">Entrada b</tspan>
				</text>
			</g>
			<g>
				<path fill="#C0E0FF" stroke="#6080A0" stroke-width="3" stroke-dasharray="none" d="M 752,1127 L 702,1227 L 1002,1227 L 1052,1127 Z"/>
				<text x="877" y="1142" fill="#000000" font-family="Arial" font-size="32pt" text-anchor="middle" direction="ltr">
					<tspan x="877" dy="50" unicode-bidi="embed">Entrada c</tspan>
				</text>
			</g>
			<g>
				<path fill="#FFFFD0" stroke="#A0A070" stroke-width="3" stroke-dasharray="none" d="M 677,1302 L 677,1427 L 1077,1427 L 1077,1302 Z"/>
				<polyline fill="none" stroke="#A0A070" stroke-width="3" stroke-dasharray="none" points="677,1327 1077,1327"/>
				<polyline fill="none" stroke="#A0A070" stroke-width="3" stroke-dasharray="none" points="702,1302 702,1427"/>
				<text x="889" y="1342" fill="#000000" font-family="Arial" font-size="32pt" text-anchor="middle" direction="ltr">
					<tspan x="889" dy="50" unicode-bidi="embed">Real promedio</tspan>
				</text>
			</g>
			<g>
				<polyline fill="none" stroke="#404040" stroke-width="6" stroke-dasharray="none" points="1152,1652 1427,1652 1427,1838"/>
				<polygon fill="#404040" stroke="none" points="1427,1852 1440,1827 1413,1827"/>
				<polyline fill="none" stroke="#404040" stroke-width="6" stroke-dasharray="none" points="1427,2127 1427,2227 915,2227"/>
				<polygon fill="#404040" stroke="none" points="902,2227 926,2240 926,2213"/>
				<polyline fill="none" stroke="#404040" stroke-width="6" stroke-dasharray="none" points="602,1652 402,1652 402,1838"/>
				<polygon fill="#404040" stroke="none" points="402,1852 415,1827 388,1827"/>
				<polyline fill="none" stroke="#404040" stroke-width="6" stroke-dasharray="none" points="402,2002 402,2227 838,2227"/>
				<polygon fill="#404040" stroke="none" points="852,2227 827,2213 827,2240"/>
				<g>
					<path fill="#FFD0D0" stroke="#A07070" stroke-width="3" stroke-dasharray="none" d="M 877,1502 L 577,1652 L 877,1802 L 1177,1652 Z"/>
					<text x="877" y="1617" fill="#000000" font-family="Arial" font-size="32pt" text-anchor="middle" direction="ltr">
						<tspan x="877" dy="50" unicode-bidi="embed">(a&gt;=0&amp;&amp;b&gt;=0&amp;&amp;c&gt;=0)</tspan>
					</text>
				</g>
				<g>
					<polyline fill="none" stroke="#404040" stroke-width="6" stroke-dasharray="none" points="1427,1952 1427,2013"/>
					<polygon fill="#404040" stroke="none" points="1427,2027 1440,2002 1413,2002"/>
					<g>
						<path fill="#FFFFD0" stroke="#A0A070" stroke-width="3" stroke-dasharray="none" d="M 1177,1852 L 1177,1952 L 1677,1952 L 1677,1852 Z"/>
						<text x="1427" y="1867" fill="#000000" font-family="Arial" font-size="32pt" text-anchor="middle" direction="ltr">
							<tspan x="1427" dy="50" unicode-bidi="embed">promedio = (a+b+c)/3</tspan>
						</text>
					</g>
					<g>
						<path fill="#D0FFD0" stroke="#70A070" stroke-width="3" stroke-dasharray="none" d="M 1127,2027 L 1077,2127 L 1727,2127 L 1777,2027 Z"/>
						<text x="1427" y="2042" fill="#000000" font-family="Arial" font-size="32pt" text-anchor="middle" direction="ltr">
							<tspan x="1427" dy="50" unicode-bidi="embed">Salida tofixed(promedio,2)</tspan>
						</text>
					</g>
				</g>
				<g>
					<path fill="#D0FFD0" stroke="#70A070" stroke-width="3" stroke-dasharray="none" d="M 102,1852 L 27,2002 L 702,2002 L 777,1852 Z"/>
					<text x="402" y="1867" fill="#000000" font-family="Arial" font-size="32pt" text-anchor="middle" direction="ltr">
						<tspan x="402" dy="50" unicode-bidi="embed">Salida &quot;Uno o varios datos</tspan>
						<tspan x="402" dy="50" unicode-bidi="embed"> no son validos&quot;</tspan>
					</text>
				</g>
				<ellipse cx="877" cy="2227" rx="25" ry="25" fill="#FFD0D0" stroke="#A07070" stroke-width="3"/>
				<text x="1302" y="1567" fill="#000000" font-family="Arial" font-size="32pt" text-anchor="middle" direction="ltr">
					<tspan x="1302" dy="50" unicode-bidi="embed">Verdadero</tspan>
				</text>
				<text x="489" y="1567" fill="#000000" font-family="Arial" font-size="32pt" text-anchor="middle" direction="ltr">
					<tspan x="489" dy="50" unicode-bidi="embed">Falso</tspan>
				</text>
			</g>
		</g>
	</g>
</svg>
