<?xml version="1.0" encoding="UTF-8" standalone="no"?>
<!-- Created by Flowgorithm 3.4.2 (http://flowgorithm.org) -->

<svg xmlns:svg="http://www.w3.org/2000/svg" xmlns="http://www.w3.org/2000/svg" version="1.1" width="1879" height="2404">
	<g>
		<polyline fill="none" stroke="#404040" stroke-width="6" stroke-dasharray="none" points="877,102 877,163"/>
		<polygon fill="#404040" stroke="none" points="877,177 890,152 863,152"/>
		<polyline fill="none" stroke="#404040" stroke-width="6" stroke-dasharray="none" points="877,2227 877,2288"/>
		<polygon fill="#404040" stroke="none" points="877,2302 890,2277 863,2277"/>
		<g>
			<path fill="#F0E0FF" stroke="#9070A0" stroke-width="3" stroke-dasharray="none" d="M 777,2 A 50 50, 0, 0 0, 777 102 L 977,102 A 50 50, 0, 0 0, 977 2 Z"/>
			<text x="877" y="17" fill="#000000" font-family="Arial" font-size="32pt" text-anchor="middle" direction="ltr">
				<tspan x="877" dy="50" unicode-bidi="embed">Principal</tspan>
			</text>
		</g>
		<g>
			<path fill="#F0E0FF" stroke="#9070A0" stroke-width="3" stroke-dasharray="none" d="M 777,2302 A 50 50, 0, 0 0, 777 2402 L 977,2402 A 50 50, 0, 0 0, 977 2302 Z"/>
			<text x="877" y="2317" fill="#000000" font-family="Arial" font-size="32pt" text-anchor="middle" direction="ltr">
				<tspan x="877" dy="50" unicode-bidi="embed">Fin</tspan>
			</text>
		</g>
		<g>
			<polyline fill="none" stroke="#404040" stroke-width="6" stroke-dasharray="none" points="877,302 877,363"/>
			<polygon fill="#404040" stroke="none" points="877,377 890,352 863,352"/>
			<polyline fill="none" stroke="#404040" stroke-width="6" stroke-dasharray="none" points="877,477 877,538"/>
			<polygon fill="#404040" stroke="none" points="877,552 890,527 863,527"/>
			<polyline fill="none" stroke="#404040" stroke-width="6" stroke-dasharray="none" points="877,677 877,738"/>
			<polygon fill="#404040" stroke="none" points="877,752 890,727 863,727"/>
			<polyline fill="none" stroke="#404040" stroke-width="6" stroke-dasharray="none" points="877,852 877,913"/>
			<polygon fill="#404040" stroke="none" points="877,927 890,902 863,902"/>
			<g>
				<path fill="#FFFFD0" stroke="#A0A070" stroke-width="3" stroke-dasharray="none" d="M 727,177 L 727,302 L 1027,302 L 1027,177 Z"/>
				<polyline fill="none" stroke="#A0A070" stroke-width="3" stroke-dasharray="none" points="727,202 1027,202"/>
				<polyline fill="none" stroke="#A0A070" stroke-width="3" stroke-dasharray="none" points="752,177 752,302"/>
				<text x="889" y="217" fill="#000000" font-family="Arial" font-size="32pt" text-anchor="middle" direction="ltr">
					<tspan x="889" dy="50" unicode-bidi="embed">Entero n</tspan>
				</text>
			</g>
			<g>
				<path fill="#C0E0FF" stroke="#6080A0" stroke-width="3" stroke-dasharray="none" d="M 752,377 L 702,477 L 1002,477 L 1052,377 Z"/>
				<text x="877" y="392" fill="#000000" font-family="Arial" font-size="32pt" text-anchor="middle" direction="ltr">
					<tspan x="877" dy="50" unicode-bidi="embed">Entrada n</tspan>
				</text>
			</g>
			<g>
				<path fill="#FFFFD0" stroke="#A0A070" stroke-width="3" stroke-dasharray="none" d="M 677,552 L 677,677 L 1077,677 L 1077,552 Z"/>
				<polyline fill="none" stroke="#A0A070" stroke-width="3" stroke-dasharray="none" points="677,577 1077,577"/>
				<polyline fill="none" stroke="#A0A070" stroke-width="3" stroke-dasharray="none" points="702,552 702,677"/>
				<text x="889" y="592" fill="#000000" font-family="Arial" font-size="32pt" text-anchor="middle" direction="ltr">
					<tspan x="889" dy="50" unicode-bidi="embed">Entero factorial</tspan>
				</text>
			</g>
			<g>
				<path fill="#FFFFD0" stroke="#A0A070" stroke-width="3" stroke-dasharray="none" d="M 727,752 L 727,852 L 1027,852 L 1027,752 Z"/>
				<text x="877" y="767" fill="#000000" font-family="Arial" font-size="32pt" text-anchor="middle" direction="ltr">
					<tspan x="877" dy="50" unicode-bidi="embed">factorial = 1</tspan>
				</text>
			</g>
			<g>
				<polyline fill="none" stroke="#404040" stroke-width="6" stroke-dasharray="none" points="1002,1002 1277,1002 1277,1127"/>
				<polyline fill="none" stroke="#404040" stroke-width="6" stroke-dasharray="none" points="1277,2102 1277,2202 915,2202"/>
				<polygon fill="#404040" stroke="none" points="902,2202 926,2215 926,2188"/>
				<polyline fill="none" stroke="#404040" stroke-width="6" stroke-dasharray="none" points="752,1002 427,1002 427,1113"/>
				<polygon fill="#404040" stroke="none" points="427,1127 440,1102 413,1102"/>
				<polyline fill="none" stroke="#404040" stroke-width="6" stroke-dasharray="none" points="427,1377 427,2202 838,2202"/>
				<polygon fill="#404040" stroke="none" points="852,2202 827,2188 827,2215"/>
				<g>
					<path fill="#FFD0D0" stroke="#A07070" stroke-width="3" stroke-dasharray="none" d="M 877,927 L 727,1002 L 877,1077 L 1027,1002 Z"/>
					<text x="877" y="967" fill="#000000" font-family="Arial" font-size="32pt" text-anchor="middle" direction="ltr">
						<tspan x="877" dy="50" unicode-bidi="embed">n&gt;=0</tspan>
					</text>
				</g>
				<g>
					<polyline fill="none" stroke="#404040" stroke-width="6" stroke-dasharray="none" points="1277,1277 1277,1338"/>
					<polygon fill="#404040" stroke="none" points="1277,1352 1290,1327 1263,1327"/>
					<polyline fill="none" stroke="#404040" stroke-width="6" stroke-dasharray="none" points="1277,1502 1277,1988"/>
					<polygon fill="#404040" stroke="none" points="1277,2002 1290,1977 1263,1977"/>
					<g>
						<polygon fill="#FFA0A0" stroke="#A04C4C" stroke-width="3" points="1323,1221 1296,1248 1257,1248 1230,1221 1230,1182 1257,1155 1296,1155 1323,1182"/>
						<text x="1464" y="1167" fill="#000000" font-family="Arial" font-size="32pt" text-anchor="middle" direction="ltr">
							<tspan x="1464" dy="50" unicode-bidi="embed">Interrumpir</tspan>
						</text>
					</g>
					<g>
						<polyline fill="none" stroke="#404040" stroke-width="6" stroke-dasharray="none" points="1427,1427 1652,1427 1652,1538"/>
						<polygon fill="#404040" stroke="none" points="1652,1552 1665,1527 1638,1527"/>
						<polyline fill="none" stroke="#404040" stroke-width="6" stroke-dasharray="none" points="1652,1827 1652,1902 1327,1902 1327,1515"/>
						<polygon fill="#404040" stroke="none" points="1327,1502 1313,1526 1340,1526"/>
						<g>
							<polyline fill="none" stroke="#404040" stroke-width="6" stroke-dasharray="none" points="1652,1652 1652,1713"/>
							<polygon fill="#404040" stroke="none" points="1652,1727 1665,1702 1638,1702"/>
							<g>
								<path fill="#FFFFD0" stroke="#A0A070" stroke-width="3" stroke-dasharray="none" d="M 1427,1552 L 1427,1652 L 1877,1652 L 1877,1552 Z"/>
								<text x="1652" y="1567" fill="#000000" font-family="Arial" font-size="32pt" text-anchor="middle" direction="ltr">
									<tspan x="1652" dy="50" unicode-bidi="embed">factorial = factorial*n</tspan>
								</text>
							</g>
							<g>
								<path fill="#FFFFD0" stroke="#A0A070" stroke-width="3" stroke-dasharray="none" d="M 1502,1727 L 1502,1827 L 1802,1827 L 1802,1727 Z"/>
								<text x="1652" y="1742" fill="#000000" font-family="Arial" font-size="32pt" text-anchor="middle" direction="ltr">
									<tspan x="1652" dy="50" unicode-bidi="embed">n = n-1</tspan>
								</text>
							</g>
						</g>
						<g>
							<path fill="#FFE0A0" stroke="#A08040" stroke-width="3" stroke-dasharray="none" d="M 1277,1352 L 1127,1427 L 1277,1502 L 1427,1427 Z"/>
							<text x="1277" y="1392" fill="#000000" font-family="Arial" font-size="32pt" text-anchor="middle" direction="ltr">
								<tspan x="1277" dy="50" unicode-bidi="embed">n&gt;1</tspan>
							</text>
						</g>
						<text x="1552" y="1342" fill="#000000" font-family="Arial" font-size="32pt" text-anchor="middle" direction="ltr">
							<tspan x="1552" dy="50" unicode-bidi="embed">Verdadero</tspan>
						</text>
						<text x="1189" y="1517" fill="#000000" font-family="Arial" font-size="32pt" text-anchor="middle" direction="ltr">
							<tspan x="1189" dy="50" unicode-bidi="embed">Falso</tspan>
						</text>
					</g>
					<g>
						<path fill="#D0FFD0" stroke="#70A070" stroke-width="3" stroke-dasharray="none" d="M 1102,2002 L 1052,2102 L 1452,2102 L 1502,2002 Z"/>
						<text x="1277" y="2017" fill="#000000" font-family="Arial" font-size="32pt" text-anchor="middle" direction="ltr">
							<tspan x="1277" dy="50" unicode-bidi="embed">Salida factorial</tspan>
						</text>
					</g>
				</g>
				<g>
					<path fill="#D0FFD0" stroke="#70A070" stroke-width="3" stroke-dasharray="none" d="M 152,1127 L 27,1377 L 702,1377 L 827,1127 Z"/>
					<text x="427" y="1142" fill="#000000" font-family="Arial" font-size="32pt" text-anchor="middle" direction="ltr">
						<tspan x="427" dy="50" unicode-bidi="embed">Salida &quot;La factorial solo</tspan>
						<tspan x="427" dy="50" unicode-bidi="embed"> esta comprendida por</tspan>
						<tspan x="427" dy="50" unicode-bidi="embed"> numeros enteros </tspan>
						<tspan x="427" dy="50" unicode-bidi="embed"> positivos&quot;</tspan>
					</text>
				</g>
				<ellipse cx="877" cy="2202" rx="25" ry="25" fill="#FFD0D0" stroke="#A07070" stroke-width="3"/>
				<text x="1152" y="917" fill="#000000" font-family="Arial" font-size="32pt" text-anchor="middle" direction="ltr">
					<tspan x="1152" dy="50" unicode-bidi="embed">Verdadero</tspan>
				</text>
				<text x="639" y="917" fill="#000000" font-family="Arial" font-size="32pt" text-anchor="middle" direction="ltr">
					<tspan x="639" dy="50" unicode-bidi="embed">Falso</tspan>
				</text>
			</g>
		</g>
	</g>
</svg>
