<?xml version="1.0" encoding="UTF-8" standalone="no"?>
<!-- Created by Flowgorithm 3.4.1 (http://flowgorithm.org) -->

<svg xmlns:svg="http://www.w3.org/2000/svg" xmlns="http://www.w3.org/2000/svg" version="1.1" width="3954" height="3929">
	<g>
		<polyline fill="none" stroke="#404040" stroke-width="6" stroke-dasharray="none" points="3102,102 3102,163"/>
		<polygon fill="#404040" stroke="none" points="3102,177 3115,152 3088,152"/>
		<polyline fill="none" stroke="#404040" stroke-width="6" stroke-dasharray="none" points="3102,3752 3102,3813"/>
		<polygon fill="#404040" stroke="none" points="3102,3827 3115,3802 3088,3802"/>
		<g>
			<path fill="#F0D0FF" stroke="#9070A0" stroke-width="3" stroke-dasharray="none" d="M 3002,2 A 50 50, 0, 0 0, 3002 102 L 3202,102 A 50 50, 0, 0 0, 3202 2 Z"/>
			<text x="3102" y="17" fill="#000000" font-family="Arial" font-size="32pt" text-anchor="middle" direction="ltr">
				<tspan x="3102" dy="50" unicode-bidi="embed">Principal</tspan>
			</text>
		</g>
		<g>
			<path fill="#F0D0FF" stroke="#9070A0" stroke-width="3" stroke-dasharray="none" d="M 3002,3827 A 50 50, 0, 0 0, 3002 3927 L 3202,3927 A 50 50, 0, 0 0, 3202 3827 Z"/>
			<text x="3102" y="3842" fill="#000000" font-family="Arial" font-size="32pt" text-anchor="middle" direction="ltr">
				<tspan x="3102" dy="50" unicode-bidi="embed">Fin</tspan>
			</text>
		</g>
		<g>
			<polyline fill="none" stroke="#404040" stroke-width="6" stroke-dasharray="none" points="3102,302 3102,363"/>
			<polygon fill="#404040" stroke="none" points="3102,377 3115,352 3088,352"/>
			<polyline fill="none" stroke="#404040" stroke-width="6" stroke-dasharray="none" points="3102,502 3102,563"/>
			<polygon fill="#404040" stroke="none" points="3102,577 3115,552 3088,552"/>
			<polyline fill="none" stroke="#404040" stroke-width="6" stroke-dasharray="none" points="3102,677 3102,738"/>
			<polygon fill="#404040" stroke="none" points="3102,752 3115,727 3088,727"/>
			<polyline fill="none" stroke="#404040" stroke-width="6" stroke-dasharray="none" points="3102,852 3102,913"/>
			<polygon fill="#404040" stroke="none" points="3102,927 3115,902 3088,902"/>
			<polyline fill="none" stroke="#404040" stroke-width="6" stroke-dasharray="none" points="3102,1052 3102,1113"/>
			<polygon fill="#404040" stroke="none" points="3102,1127 3115,1102 3088,1102"/>
			<polyline fill="none" stroke="#404040" stroke-width="6" stroke-dasharray="none" points="3102,1227 3102,1288"/>
			<polygon fill="#404040" stroke="none" points="3102,1302 3115,1277 3088,1277"/>
			<polyline fill="none" stroke="#404040" stroke-width="6" stroke-dasharray="none" points="3102,1427 3102,1488"/>
			<polygon fill="#404040" stroke="none" points="3102,1502 3115,1477 3088,1477"/>
			<polyline fill="none" stroke="#404040" stroke-width="6" stroke-dasharray="none" points="3102,1602 3102,1663"/>
			<polygon fill="#404040" stroke="none" points="3102,1677 3115,1652 3088,1652"/>
			<g>
				<path fill="#FFFFD0" stroke="#A0A070" stroke-width="3" stroke-dasharray="none" d="M 2952,177 L 2952,302 L 3252,302 L 3252,177 Z"/>
				<polyline fill="none" stroke="#A0A070" stroke-width="3" stroke-dasharray="none" points="2952,202 3252,202"/>
				<polyline fill="none" stroke="#A0A070" stroke-width="3" stroke-dasharray="none" points="2977,177 2977,302"/>
				<text x="3114" y="217" fill="#000000" font-family="Arial" font-size="32pt" text-anchor="middle" direction="ltr">
					<tspan x="3114" dy="50" unicode-bidi="embed">Real base</tspan>
				</text>
			</g>
			<g>
				<path fill="#FFFFD0" stroke="#A0A070" stroke-width="3" stroke-dasharray="none" d="M 2927,377 L 2927,502 L 3277,502 L 3277,377 Z"/>
				<polyline fill="none" stroke="#A0A070" stroke-width="3" stroke-dasharray="none" points="2927,402 3277,402"/>
				<polyline fill="none" stroke="#A0A070" stroke-width="3" stroke-dasharray="none" points="2952,377 2952,502"/>
				<text x="3114" y="417" fill="#000000" font-family="Arial" font-size="32pt" text-anchor="middle" direction="ltr">
					<tspan x="3114" dy="50" unicode-bidi="embed">Entero expo</tspan>
				</text>
			</g>
			<g>
				<path fill="#C0E0FF" stroke="#6080A0" stroke-width="3" stroke-dasharray="none" d="M 2927,577 L 2877,677 L 3277,677 L 3327,577 Z"/>
				<text x="3102" y="592" fill="#000000" font-family="Arial" font-size="32pt" text-anchor="middle" direction="ltr">
					<tspan x="3102" dy="50" unicode-bidi="embed">Entrada base</tspan>
				</text>
			</g>
			<g>
				<path fill="#C0E0FF" stroke="#6080A0" stroke-width="3" stroke-dasharray="none" d="M 2927,752 L 2877,852 L 3277,852 L 3327,752 Z"/>
				<text x="3102" y="767" fill="#000000" font-family="Arial" font-size="32pt" text-anchor="middle" direction="ltr">
					<tspan x="3102" dy="50" unicode-bidi="embed">Entrada expo</tspan>
				</text>
			</g>
			<g>
				<path fill="#FFFFD0" stroke="#A0A070" stroke-width="3" stroke-dasharray="none" d="M 2902,927 L 2902,1052 L 3302,1052 L 3302,927 Z"/>
				<polyline fill="none" stroke="#A0A070" stroke-width="3" stroke-dasharray="none" points="2902,952 3302,952"/>
				<polyline fill="none" stroke="#A0A070" stroke-width="3" stroke-dasharray="none" points="2927,927 2927,1052"/>
				<text x="3114" y="967" fill="#000000" font-family="Arial" font-size="32pt" text-anchor="middle" direction="ltr">
					<tspan x="3114" dy="50" unicode-bidi="embed">Entero contador</tspan>
				</text>
			</g>
			<g>
				<path fill="#FFFFD0" stroke="#A0A070" stroke-width="3" stroke-dasharray="none" d="M 2952,1127 L 2952,1227 L 3252,1227 L 3252,1127 Z"/>
				<text x="3102" y="1142" fill="#000000" font-family="Arial" font-size="32pt" text-anchor="middle" direction="ltr">
					<tspan x="3102" dy="50" unicode-bidi="embed">contador = 1</tspan>
				</text>
			</g>
			<g>
				<path fill="#FFFFD0" stroke="#A0A070" stroke-width="3" stroke-dasharray="none" d="M 2902,1302 L 2902,1427 L 3302,1427 L 3302,1302 Z"/>
				<polyline fill="none" stroke="#A0A070" stroke-width="3" stroke-dasharray="none" points="2902,1327 3302,1327"/>
				<polyline fill="none" stroke="#A0A070" stroke-width="3" stroke-dasharray="none" points="2927,1302 2927,1427"/>
				<text x="3114" y="1342" fill="#000000" font-family="Arial" font-size="32pt" text-anchor="middle" direction="ltr">
					<tspan x="3114" dy="50" unicode-bidi="embed">Entero potencia</tspan>
				</text>
			</g>
			<g>
				<path fill="#FFFFD0" stroke="#A0A070" stroke-width="3" stroke-dasharray="none" d="M 2952,1502 L 2952,1602 L 3252,1602 L 3252,1502 Z"/>
				<text x="3102" y="1517" fill="#000000" font-family="Arial" font-size="32pt" text-anchor="middle" direction="ltr">
					<tspan x="3102" dy="50" unicode-bidi="embed">potencia = 1</tspan>
				</text>
			</g>
			<g>
				<polyline fill="none" stroke="#404040" stroke-width="6" stroke-dasharray="none" points="3352,1827 3627,1827 3627,2013"/>
				<polygon fill="#404040" stroke="none" points="3627,2027 3640,2002 3613,2002"/>
				<polyline fill="none" stroke="#404040" stroke-width="6" stroke-dasharray="none" points="3627,2127 3627,3727 3140,3727"/>
				<polygon fill="#404040" stroke="none" points="3127,3727 3151,3740 3151,3713"/>
				<polyline fill="none" stroke="#404040" stroke-width="6" stroke-dasharray="none" points="2852,1827 2327,1827 2327,2013"/>
				<polygon fill="#404040" stroke="none" points="2327,2027 2340,2002 2313,2002"/>
				<polyline fill="none" stroke="#404040" stroke-width="6" stroke-dasharray="none" points="2327,3627 2327,3727 3063,3727"/>
				<polygon fill="#404040" stroke="none" points="3077,3727 3052,3713 3052,3740"/>
				<g>
					<path fill="#FFD0D0" stroke="#A07070" stroke-width="3" stroke-dasharray="none" d="M 3102,1677 L 2827,1827 L 3102,1977 L 3377,1827 Z"/>
					<text x="3102" y="1792" fill="#000000" font-family="Arial" font-size="32pt" text-anchor="middle" direction="ltr">
						<tspan x="3102" dy="50" unicode-bidi="embed">expo==0&amp;&amp;base==0</tspan>
					</text>
				</g>
				<g>
					<path fill="#D0FFD0" stroke="#70A070" stroke-width="3" stroke-dasharray="none" d="M 3352,2027 L 3302,2127 L 3902,2127 L 3952,2027 Z"/>
					<text x="3627" y="2042" fill="#000000" font-family="Arial" font-size="32pt" text-anchor="middle" direction="ltr">
						<tspan x="3627" dy="50" unicode-bidi="embed">Salida &quot;0^0=0  tb 0^0=1&quot;</tspan>
					</text>
				</g>
				<g>
					<polyline fill="none" stroke="#404040" stroke-width="6" stroke-dasharray="none" points="2477,2127 2752,2127 2752,2263"/>
					<polygon fill="#404040" stroke="none" points="2752,2277 2765,2252 2738,2252"/>
					<polyline fill="none" stroke="#404040" stroke-width="6" stroke-dasharray="none" points="2752,2377 2752,3602 2365,3602"/>
					<polygon fill="#404040" stroke="none" points="2352,3602 2376,3615 2376,3588"/>
					<polyline fill="none" stroke="#404040" stroke-width="6" stroke-dasharray="none" points="2177,2127 877,2127 877,2263"/>
					<polygon fill="#404040" stroke="none" points="877,2277 890,2252 863,2252"/>
					<polyline fill="none" stroke="#404040" stroke-width="6" stroke-dasharray="none" points="877,3502 877,3602 2288,3602"/>
					<polygon fill="#404040" stroke="none" points="2302,3602 2277,3588 2277,3615"/>
					<g>
						<path fill="#FFD0D0" stroke="#A07070" stroke-width="3" stroke-dasharray="none" d="M 2327,2027 L 2152,2127 L 2327,2227 L 2502,2127 Z"/>
						<text x="2327" y="2092" fill="#000000" font-family="Arial" font-size="32pt" text-anchor="middle" direction="ltr">
							<tspan x="2327" dy="50" unicode-bidi="embed">expo==0</tspan>
						</text>
					</g>
					<g>
						<path fill="#D0FFD0" stroke="#70A070" stroke-width="3" stroke-dasharray="none" d="M 2502,2277 L 2452,2377 L 3002,2377 L 3052,2277 Z"/>
						<text x="2752" y="2292" fill="#000000" font-family="Arial" font-size="32pt" text-anchor="middle" direction="ltr">
							<tspan x="2752" dy="50" unicode-bidi="embed">Salida base&amp;&quot;^0 = 1&quot;</tspan>
						</text>
					</g>
					<g>
						<polyline fill="none" stroke="#404040" stroke-width="6" stroke-dasharray="none" points="1002,2352 1277,2352 1277,2463"/>
						<polygon fill="#404040" stroke="none" points="1277,2477 1290,2452 1263,2452"/>
						<polyline fill="none" stroke="#404040" stroke-width="6" stroke-dasharray="none" points="1277,2727 1277,3477 915,3477"/>
						<polygon fill="#404040" stroke="none" points="902,3477 926,3490 926,3463"/>
						<polyline fill="none" stroke="#404040" stroke-width="6" stroke-dasharray="none" points="752,2352 452,2352 452,2463"/>
						<polygon fill="#404040" stroke="none" points="452,2477 465,2452 438,2452"/>
						<polyline fill="none" stroke="#404040" stroke-width="6" stroke-dasharray="none" points="452,2627 452,3477 838,3477"/>
						<polygon fill="#404040" stroke="none" points="852,3477 827,3463 827,3490"/>
						<g>
							<path fill="#FFD0D0" stroke="#A07070" stroke-width="3" stroke-dasharray="none" d="M 877,2277 L 727,2352 L 877,2427 L 1027,2352 Z"/>
							<text x="877" y="2317" fill="#000000" font-family="Arial" font-size="32pt" text-anchor="middle" direction="ltr">
								<tspan x="877" dy="50" unicode-bidi="embed">expo&gt;0</tspan>
							</text>
						</g>
						<g>
							<polyline fill="none" stroke="#404040" stroke-width="6" stroke-dasharray="none" points="1527,2602 1852,2602 1852,2763"/>
							<polygon fill="#404040" stroke="none" points="1852,2777 1865,2752 1838,2752"/>
							<polyline fill="none" stroke="#404040" stroke-width="6" stroke-dasharray="none" points="1852,3277 1852,3352 1327,3352 1327,2740"/>
							<polygon fill="#404040" stroke="none" points="1327,2727 1313,2751 1340,2751"/>
							<g>
								<polyline fill="none" stroke="#404040" stroke-width="6" stroke-dasharray="none" points="1852,2877 1852,2938"/>
								<polygon fill="#404040" stroke="none" points="1852,2952 1865,2927 1838,2927"/>
								<polyline fill="none" stroke="#404040" stroke-width="6" stroke-dasharray="none" points="1852,3102 1852,3163"/>
								<polygon fill="#404040" stroke="none" points="1852,3177 1865,3152 1838,3152"/>
								<g>
									<path fill="#FFFFD0" stroke="#A0A070" stroke-width="3" stroke-dasharray="none" d="M 1577,2777 L 1577,2877 L 2127,2877 L 2127,2777 Z"/>
									<text x="1852" y="2792" fill="#000000" font-family="Arial" font-size="32pt" text-anchor="middle" direction="ltr">
										<tspan x="1852" dy="50" unicode-bidi="embed">potencia = potencia*base</tspan>
									</text>
								</g>
								<g>
									<path fill="#D0FFD0" stroke="#70A070" stroke-width="3" stroke-dasharray="none" d="M 1502,2952 L 1427,3102 L 2202,3102 L 2277,2952 Z"/>
									<text x="1852" y="2967" fill="#000000" font-family="Arial" font-size="32pt" text-anchor="middle" direction="ltr">
										<tspan x="1852" dy="50" unicode-bidi="embed">Salida base&amp;&quot;^&quot;&amp;contador&amp;&quot; = &quot;&amp;</tspan>
										<tspan x="1852" dy="50" unicode-bidi="embed">potencia</tspan>
									</text>
								</g>
								<g>
									<path fill="#FFFFD0" stroke="#A0A070" stroke-width="3" stroke-dasharray="none" d="M 1602,3177 L 1602,3277 L 2102,3277 L 2102,3177 Z"/>
									<text x="1852" y="3192" fill="#000000" font-family="Arial" font-size="32pt" text-anchor="middle" direction="ltr">
										<tspan x="1852" dy="50" unicode-bidi="embed">contador = contador+1</tspan>
									</text>
								</g>
							</g>
							<g>
								<path fill="#FFE0A0" stroke="#A08040" stroke-width="3" stroke-dasharray="none" d="M 1277,2477 L 1027,2602 L 1277,2727 L 1527,2602 Z"/>
								<text x="1277" y="2567" fill="#000000" font-family="Arial" font-size="32pt" text-anchor="middle" direction="ltr">
									<tspan x="1277" dy="50" unicode-bidi="embed">contador&lt;=expo</tspan>
								</text>
							</g>
							<text x="1652" y="2517" fill="#000000" font-family="Arial" font-size="32pt" text-anchor="middle" direction="ltr">
								<tspan x="1652" dy="50" unicode-bidi="embed">Verdadero</tspan>
							</text>
							<text x="1189" y="2742" fill="#000000" font-family="Arial" font-size="32pt" text-anchor="middle" direction="ltr">
								<tspan x="1189" dy="50" unicode-bidi="embed">Falso</tspan>
							</text>
						</g>
						<g>
							<path fill="#D0FFD0" stroke="#70A070" stroke-width="3" stroke-dasharray="none" d="M 152,2477 L 77,2627 L 752,2627 L 827,2477 Z"/>
							<text x="452" y="2492" fill="#000000" font-family="Arial" font-size="32pt" text-anchor="middle" direction="ltr">
								<tspan x="452" dy="50" unicode-bidi="embed">Salida &quot;El exponente debe</tspan>
								<tspan x="452" dy="50" unicode-bidi="embed"> ser positivo&quot;</tspan>
							</text>
						</g>
						<ellipse cx="877" cy="3477" rx="25" ry="25" fill="#FFD0D0" stroke="#A07070" stroke-width="3"/>
						<text x="1152" y="2267" fill="#000000" font-family="Arial" font-size="32pt" text-anchor="middle" direction="ltr">
							<tspan x="1152" dy="50" unicode-bidi="embed">Verdadero</tspan>
						</text>
						<text x="639" y="2267" fill="#000000" font-family="Arial" font-size="32pt" text-anchor="middle" direction="ltr">
							<tspan x="639" dy="50" unicode-bidi="embed">Falso</tspan>
						</text>
					</g>
					<ellipse cx="2327" cy="3602" rx="25" ry="25" fill="#FFD0D0" stroke="#A07070" stroke-width="3"/>
					<text x="2627" y="2042" fill="#000000" font-family="Arial" font-size="32pt" text-anchor="middle" direction="ltr">
						<tspan x="2627" dy="50" unicode-bidi="embed">Verdadero</tspan>
					</text>
					<text x="2064" y="2042" fill="#000000" font-family="Arial" font-size="32pt" text-anchor="middle" direction="ltr">
						<tspan x="2064" dy="50" unicode-bidi="embed">Falso</tspan>
					</text>
				</g>
				<ellipse cx="3102" cy="3727" rx="25" ry="25" fill="#FFD0D0" stroke="#A07070" stroke-width="3"/>
				<text x="3502" y="1742" fill="#000000" font-family="Arial" font-size="32pt" text-anchor="middle" direction="ltr">
					<tspan x="3502" dy="50" unicode-bidi="embed">Verdadero</tspan>
				</text>
				<text x="2739" y="1742" fill="#000000" font-family="Arial" font-size="32pt" text-anchor="middle" direction="ltr">
					<tspan x="2739" dy="50" unicode-bidi="embed">Falso</tspan>
				</text>
			</g>
		</g>
	</g>
</svg>
